<svg id="svga-svgcanvas" style="overflow: hidden; position: relative; left: -0.265625px; top: 0px; -webkit-user-select: none; -webkit-user-drag: none; -webkit-tap-highlight-color: rgba(0, 0, 0, 0); touch-action: none;" height="250" width="250" preserveAspectRatio="xMinYMin meet" viewBox="0 0 200 200" class="svga-svg" xlink="http://www.w3.org/1999/xlink" version="1.1" xmlns="http://www.w3.org/2000/svg"><g id="defs_node"><g id="svga-group-backs-single"><path id="SvgjsPath2079" d="M225 225H-25V-25h250V225z" opacity="1" stroke-width="none" fill="#5e8c6a" data-stroketype="none" data-filltype="tone" data-colored="true"></path></g><g id="svga-group-subwrapper" data-rotate="0" data-scaley="1" data-scalex="1" data-dist="0" data-leftright="0" data-updown="0" transform="matrix(1.9199000000000006 0 0 1.9199000000000006 -91.86890659637459 -106.2615833951474)" data-scaleX="1.9210000000000007" data-scaleY="1.9210000000000007"><g id="svga-group-hair-back" data-rotate="0" data-scaley="1" data-scalex="1" data-dist="0" data-leftright="0" data-updown="0" transform="matrix(1.1094 0 0 1.0098999999999998 -10.939999999999998 -0.9899999999999807)" data-scaleX="1.1105" data-scaleY="1.011"><path id="SvgjsPath2109" d="M100.5,100.5h-1v-1h1V100.5z" opacity="1" stroke-width="none" fill="#3b3128" data-stroketype="none" data-filltype="tone" data-colored="true"></path></g><g id="svga-group-humanbody-single" data-rotate="0" data-scaley="1" data-scalex="1" data-dist="0" data-leftright="0" data-updown="0" transform="matrix(0.7269986799999998 0 0 0.9856986800000002 27.300131088759812 2.551198172607087)" data-scaleX="0.7269985699999998" data-scaleY="0.9856985700000002"><path id="SvgjsPath2099" d="M195.417 199.778c-2.196-4.746-8.195-11.779-14.86-13.722 -8.239-2.403-26.837-5.308-33.733-6.923 -5.528-1.296-16.662-11.294-20.564-14.65 -0.7-0.6-1.273-1.839-1.287-2.76 -0.139-10.864 4.195-39.724 4.195-39.724H100 70.833c0 0 4.334 28.859 4.193 39.724 -0.011 0.921-0.587 2.16-1.285 2.76 -3.902 3.356-15.036 13.354-20.564 14.65 -6.897 1.615-25.495 4.619-33.733 7.022 -6.667 1.942-12.664 8.876-14.86 13.622 -3.708 8.008-4.584 22.5-4.584 35h100 100C200 222.278 199.123 207.786 195.417 199.778z" opacity="1" stroke-width="none" fill="#daa488" data-fromskin="true" data-stroketype="none" data-filltype="tone" data-colored="true" stroke="none"></path><path id="SvgjsPath2100" d="M159.156 184.058c24.342 3.542 34.586 8.708 37.794 50.721H200c0-12.5-0.877-26.992-4.583-35 -2.196-4.746-8.195-11.779-14.86-13.722 -8.239-2.403-26.837-5.308-33.733-6.923 -5.528-1.296-18.242-12.069-21.643-16.35 3.36 4.704 12.791 15.605 21.054 18.46C150.188 182.61 153.48 183.232 159.156 184.058zM53.766 181.244c8.263-2.854 17.693-13.756 21.054-18.46 -3.4 4.28-16.114 15.054-21.643 16.35 -6.896 1.615-25.494 4.619-33.733 7.022 -6.665 1.942-12.664 8.876-14.86 13.622 -3.706 8.008-4.583 22.5-4.583 35h3.05c3.188-41.744 13.475-47.183 37.794-50.721C46.52 183.232 49.813 182.61 53.766 181.244z" opacity="1" stroke-width="none" fill="#e9bfa9" data-fromskin="true" data-stroketype="none" data-filltype="hl1" data-colored="true" stroke="none"></path><path id="SvgjsPath2101" d="M95.646 197.62c0 0-5.074-1.609-7.083-2.379 -10.449-4.009-44.395-6.607-44.395-6.607s35.754 1.419 43.644 2.779c-0.458-4.767-3.017-20.004-3.017-20.004s5.149 16.815 6.409 21.057C91.878 194.734 95.646 197.62 95.646 197.62zM106.445 196.278c-0.089 0.073-0.191 0.168-0.302 0.268C106.256 196.461 106.358 196.372 106.445 196.278zM95.646 197.62c0 0 2.893 2.992 4.347 3.03 1.91 0.051 4.828-2.899 6.151-4.104 -1.265 0.957-4.159 1.391-5.31 1.436C99.504 198.033 95.646 197.62 95.646 197.62zM116.664 190.101c-1.545 0.248-4.386 0.789-4.386 0.789l2.287-14.89c-0.646 3.071-4.474 16.211-8.12 20.278 1.91-1.616 6.158-2.391 8.324-2.704 10.236-1.484 10.232-1.483 41.062-4.94C155.831 188.634 126.76 188.479 116.664 190.101z" opacity="1" stroke-width="none" fill="#cb8b6a" data-fromskin="true" data-stroketype="none" data-filltype="sd1" data-colored="true" stroke="none"></path><path id="SvgjsPath2102" d="M195.417 199.778c-2.196-4.746-8.195-11.779-14.86-13.722 -8.239-2.403-26.837-5.308-33.733-6.923 -5.528-1.296-16.662-11.294-20.564-14.65 -0.7-0.6-1.273-1.839-1.287-2.76 -0.139-10.864 4.195-39.724 4.195-39.724H100 70.833c0 0 4.334 28.859 4.193 39.724 -0.011 0.921-0.587 2.16-1.285 2.76 -3.902 3.356-15.036 13.354-20.564 14.65 -6.897 1.615-25.495 4.619-33.733 7.022 -6.667 1.942-12.664 8.876-14.86 13.622 -3.708 8.008-4.584 22.5-4.584 35h100 100C200 222.278 199.123 207.786 195.417 199.778z" opacity="1" stroke="#ac5f38" stroke-width="1.5" fill="none" data-fromskin="true" data-stroketype="sd3" data-filltype="none" data-colored="true"></path></g><g id="svga-group-chinshadow-single" data-rotate="0" data-scaley="1" data-scalex="1" data-dist="0" data-leftright="0" data-updown="0" transform="matrix(0.7269986799999998 0 0 0.9856986800000002 27.299995574322068 2.1542578739995975)" data-scaleX="0.7269985699999998" data-scaleY="0.9856985700000002"><path id="SvgjsPath2087" d="M75.464 163.188c5.276 4.256 10.716 8.678 24.538 8.678 13.815 0 19.256-4.418 24.531-8.672 -0.188-0.49-0.305-0.997-0.312-1.461 -0.088-6.889 1.573-20.711 2.835-30.131 -15.695-2.201-38.418-2.201-54.113 0 1.261 9.421 2.922 23.242 2.833 30.13C75.771 162.188 75.654 162.695 75.464 163.188z" opacity="1" fill="url(#SvgjsLinearGradient2088)" data-fromskin="true" data-stroketype="none" data-filltype="gradient" data-colored="false"></path></g><g id="svga-group-clothes-single" data-rotate="0" data-scaley="1" data-scalex="1" data-dist="0" data-leftright="0" data-updown="0" transform="matrix(0.7269986799999998 0 0 0.9856986800000002 27.348725837138574 2.7665329182787843)" data-scaleX="0.7269985699999998" data-scaleY="0.9856985700000002"><path id="SvgjsPath2104" d="M197.798 201.546c-10.478-20.278-30.653-17.404-49.968-22.843 -0.468 3.585-13.251 20.479-16.287 30.061 -1.705-1.423-3.74-3.325-5.209-5.066 -7.188-8.443-17.841-35.76-21.416-14.428 0.777-9.576 5.003-11.686 10.871-3.659 6.308 8.638 6.542 13.098 15.542 22.491 1.59-6.601 5.032-11.259 9.036-17.104 3.875-5.663 6.705-8.217 7.119-13.258 -1.445-2.408-1.099-3.486-3.434-5.046 -14.655-9.912-4.192-19.97-17.476-22.365 -0.104 1.198-0.235 2.54-0.345 3.549 2.841 1.462 3.691 7.152-0.683 11.318 -6.951 7.631-18.12 8.01-21.032 19.723l-0.007-0.001c-0.927 3.477-1.669 8.799-2.021 11.919l-2.455 24.898 -2.47-24.457c-2.003-18.359-4.621-20.155-13.183-25.828 -5.673-3.76-14.943-9.433-11.917-15.847 0.345-0.742 0.765-1.198 1.286-1.541 -0.15-1.466-0.238-2.316-0.354-3.678 -10.967 0.467-9.281 15.982-17.586 21.69 -2.177 1.496-3.287 2.879-4.068 5.129 0.531 6.281 14.504 20.476 16.945 30.899 9.085-9.592 9.155-13.783 15.5-22.459 5.465-7.465 9.928-6.699 10.867 3.403 -0.516-3.035-1.738-7.681-4.386-7.681 -2.182 0-4.456 3.218-5.581 4.771 -6.299 8.678-7.311 14.885-16.647 22.633 -0.646-1.941-1.404-3.891-2.308-5.706 -3.7-7.474-13.719-22.555-14.858-24.017 -4.428 1.246-11.177 2.626-15.233 3.3 -26.504 4.411-36.778 12.969-40.685 53.031 97.202-0.984 136.811-0.556 209.21-0.556C203.66 225.907 201.881 209.46 197.798 201.546z" opacity="1" stroke-width="none" fill="#d46fbb" data-stroketype="none" data-filltype="tone" data-colored="true"></path><path id="SvgjsPath2105" d="M139.969 190.783c-3.461 5.054-6.201 9.3-7.908 14.621 1.967-10.979 14.436-21.374 13.086-27.939 -0.578-2.812-10.526-9.081-11.041-18.4 2.745 8.538 12.992 14.632 13.009 18.723C147.142 184.482 146.942 180.595 139.969 190.783zM204.486 234.028c0.347-8.682-2.572-25.584-6.19-32.598 -10.478-20.278-31.563-17.691-50.877-23.13 -0.171 0.218 0.49 1.66 0.027 2.28C192.595 188.9 197.736 198.817 204.486 234.028zM55.812 172.075c5.547-4.597 7.21-9.05 8.483-13.011 -2.85 16.28-7.111 10.123-10.22 18.276 -1.778 4.663 12.003 17.403 13.866 28.063 -2.442-4.175-5.06-9.313-8.521-14.367 -2.694-3.937-4.41-7.537-7.079-10.567C51.069 173.756 53.696 173.829 55.812 172.075zM52.34 180.47c-0.463-0.62-0.894-1.204-1.065-1.422 -19.314 5.438-38.594 2.104-49.071 22.383 -3.619 7.014-5.426 21.363-6.423 30.064 1.929-10.573 4.804-23.893 10.963-31.929C17.188 185.399 36.46 182.665 52.34 180.47z" opacity="1" stroke-width="none" fill="#e38ece" data-stroketype="none" data-filltype="hl1" data-colored="true"></path><path id="SvgjsPath2106" d="M119.848 171.392c-4.863 2.82-8.981 5.588-11.713 9.481 6.567 0.362 11.421 12.099 12.734 13.695 -12.333-17.166-17-5.5-18.5 5.432 0.432-3.546 0.787-9.596 1.487-12.193 0.204-1.033 0.423-2.021 0.654-2.889l0.007 0.001c2.912-11.713 14.081-12.092 21.032-19.723 4.374-4.166 3.523-9.856 0.683-11.318 0.109-1.009 0.241-2.351 0.345-3.549 0.729 0.133 1.379 0.292 1.982 0.469C137.518 158.679 125.96 168.657 119.848 171.392zM78.965 171.392c4.864 2.82 10.812 6.162 13.536 9.717 -4.798-0.873-10.131 6.294-12.798 12.627 11.5-14.667 15-6.333 18.667 6.265 -0.431-3.545-1.524-9.596-2.224-12.193 -0.204-1.033-0.422-2.021-0.654-2.889l-0.006 0.001c-2.912-11.713-13.682-12.092-20.633-19.723 -4.374-4.166-3.622-9.856-0.781-11.318 -0.109-1.009-0.24-2.351-0.344-3.549 -0.729 0.133-1.379 0.292-1.982 0.469C64.238 159.967 73.472 168.06 78.965 171.392z" opacity="1" stroke-width="none" fill="#c553a9" data-stroketype="none" data-filltype="sd1" data-colored="true"></path><path id="SvgjsPath2107" d="M125.876 163.323c0.031-5.701-0.159-2.538 0.418-8.99C128.518 155.526 128.801 160.423 125.876 163.323zM74.139 162.784c-2.323-3.04-2.61-6.145-0.347-8.49C74.334 159.352 74.059 158.742 74.139 162.784z" opacity="1" stroke-width="none" fill="#b53b97" data-stroketype="none" data-filltype="sd2" data-colored="true"></path><path id="SvgjsPath2108" d="M147.624 176.915c-0.206-3.542-7.813-6.496-11.188-14.175 -2.417-5.47-0.123-11.734-10.065-12.741 -0.545 3.187-1.028 10.193-0.883 13.579 -5.038 5.423-12.831 6.826-17.785 12.657 -5.288 6.224-7.58 19.7-7.667 47.667l1.232-0.801c0 0 1.372-26.485 1.382-26.563 3.084-26.427 12.888-20.185 22.979-31.263 4.521-4.332 3.441-10.072 0.722-11.463 0.118-1.12 0.228-2.229 0.325-3.35 8.552 1.571 6.109 6.605 8.784 12.753 3.556 8.174 10.297 9.959 10.732 13.923 0.69 6.281-3.058 8.947-6.817 14.434 -5.913 8.559-7.28 12.925-8.101 16.308 -8.975-9.426-8.98-13.558-15.398-22.338 -6.844-9.366-11.339-4.974-13.226 10.996 0.194-2.625 3.77-17.175 8.043-14.651 4.939 2.878 9.791 15.108 15.561 21.886 1.539 1.823 3.521 3.652 5.345 5.182 3.407-11.897 16-24.465 16.408-30.205 19.695 5.556 53.439-0.145 56.441 55.963 -41.138 0.22-85.815-0.682-208.97 0.554 1.785-18.437 4.804-36.508 15.723-44.653 4.685-3.507 10.117-5.341 15.712-6.508 7.797-1.616 16.522-2.655 24.253-4.747 0.788 1 14.205 21.198 17.224 29.597 10.863-8.503 15.207-24.459 21.188-27.214 4.164-1.913 7.559 11.938 7.753 14.553 -1.63-16.891-6.95-22.418-17.024-4.923 -4.964 8.624-6.28 10.962-11.56 16.51 -2.12-8.994-16.895-25.954-16.253-30.662 0.634-4.646 6.314-3.363 10.098-13.244 2.122-5.54 1.652-11.648 10.708-13.455 0.098 1.167 0.217 2.32 0.336 3.486 -2.479 1.631-3.109 7.111 0.852 10.942 3.567 4.085 10.004 6.416 14.255 9.676 5.011 3.867 6.993 7.827 8.588 21.67 0.035 0.302 1.37 26.942 1.37 26.942l1.333 0.667c-0.667-27.833-3.335-44.568-8.721-49.258 -4.652-4.15-12.775-6.796-16.717-11.429 0.12-3.476-0.565-10.518-0.993-13.171 -9.009 0.918-9.264 6.638-11.196 11.632 -5.165 13.351-10.134 9.527-10.957 15.059 -0.077 0.517 0.042 0.906 0.167 1.594 -7.58 1.548-17.04 2.563-24.641 3.953 -11.343 2.071-22.045 8.058-26.925 19.452 -3.707 8.647-4.781 24.051-5.053 33.543 -0.011 0.068-0.011 0.147-0.011 0.215 0.152 0.012 0.314 0.012 0.466 0.012 130.475 1.387 208.449-0.578 209.534-0.578C205.369 181.568 176.202 183.902 147.624 176.915zM125.976 163.024c0.016-2.933 0.105-6.329 0.318-8.691C127.892 155.473 129.133 159.262 125.976 163.024zM74.088 162.593c-2.652-3.471-1.6-6.836-0.396-8C73.943 156.939 74.042 160.224 74.088 162.593z" opacity="1" stroke-width="none" fill="#a62586" data-stroketype="none" data-filltype="sd3" data-colored="true"></path></g><g id="svga-group-head" data-rotate="0" data-scaley="1" data-scalex="1" data-dist="0" data-leftright="0" data-updown="0"><g id="svga-group-ears-left" data-rotate="0" data-scaley="1" data-scalex="1" data-dist="0" data-leftright="-7.500000500000001" data-updown="0" transform="matrix(1.2752000000000001 0 0 1.2752000000000001 -9.713872320339924 -26.749990307617196) translate(-7.500000400000001 0)" data-scaleX="1.2763000000000002" data-scaleY="1.2763000000000002"><path id="SvgjsPath2113" d="M47.34 82.506c-1.378-2.405-9.403-6.675-11.855-6.501 -4.229 0.299-5.137 5.269-5.446 7.648 -0.609 4.696 0.645 10 1.485 13.201 0.687 2.615 2.874 7.578 4.214 9.883 1.197 2.062 4.145 5.792 5.733 7.525 1.398 1.529 4.73 4.311 7.248 3.632 2.769-0.744 6.015-3.945 6.239-5.312C56.165 105.172 50.926 88.763 47.34 82.506z" opacity="1" stroke="#ac5f38" stroke-width="1.5" fill="#daa488" data-stroketype="sd3" data-filltype="tone" data-colored="true"></path><path id="SvgjsPath2114" d="M42.903 99.38c-0.142-0.584 0.007-1.569 0.151-2.521 0.131-0.868 0.255-1.686 0.18-2.265 -0.284-2.169-1.888-6.29-2.936-8.524 -1.206-2.568-3.157-5.803-5.602-6.639 -1.011-0.346-2.073-0.522-2.145-0.241 -0.611 1.943-0.563 7.341-0.212 11.338 0.987 11.242 10.375 19.34 11.872 21.045 0.276 0.314 0.566 0.501 0.637 0.426 0.072-0.076-0.1-0.388-0.375-0.704 -1.477-1.692-8.314-8.684-9.27-13.098 -1.012-4.685 3-12.386 3.776-13.855 0.397 0.69 0.732 1.352 0.991 1.904 0.204 0.434 0.429 0.941 0.66 1.489 -0.456 0.767-3.656 6.36-2.489 10.836 0.431 1.651 2.379 3.778 3.67 4.362 0.71 0.321 0.978 0.801 1.287 1.355 0.359 0.645 0.765 1.374 1.946 1.903 0.24 0.108 0.457 0.151 0.649 0.151 0.333 0 0.586-0.135 0.773-0.295 0.019 0.282-0.349 2.52-0.357 2.853 -0.012 0.431 0.045 0.787 0.146 0.796 0.101 0.008 0.207-0.334 0.221-0.766 0.016-0.529 0.379-3.061 0.289-3.372 -0.264-0.923-1.073-1.964-1.93-3.068C43.994 101.407 43.122 100.284 42.903 99.38zM34.428 95.416c-2.316-7.184 1.456-13.479 1.977-14.464 0.906 0.826 1.704 1.932 2.354 3.015C38.286 84.83 34.526 90.584 34.428 95.416zM45.187 105.831c-1.069-0.479-1.427-1.12-1.774-1.742 -0.313-0.562-0.637-1.143-1.458-1.515 -0.179-0.082-0.375-0.204-0.576-0.346 -2.646-6.304 0.289-9.059 1.025-9.625 0.226 0.771 0.394 1.478 0.468 2.045 0.067 0.521-0.058 1.348-0.179 2.148 -0.149 0.992-0.305 2.018-0.144 2.681 0.239 0.989 1.137 2.146 2.005 3.263 0.771 0.993 1.562 2.015 1.832 2.849C46.271 105.757 45.905 106.155 45.187 105.831z" opacity="1" stroke-width="none" fill="#ac5f38" data-stroketype="none" data-filltype="sd3" data-colored="true" stroke="none"></path></g><g id="svga-group-ears-right" data-rotate="0" data-scaley="1" data-scalex="1" data-dist="0" data-leftright="7.500000500000001" data-updown="0" transform="matrix(1.2752000000000001 0 0 1.2752000000000001 -45.254025256564404 -26.749990307617196) translate(7.500000400000001 0)" data-scaleX="1.2763000000000002" data-scaleY="1.2763000000000002"><path id="SvgjsPath2115" d="M152.398 82.506c1.377-2.405 9.402-6.675 11.855-6.501 4.229 0.299 5.137 5.269 5.445 7.648 0.609 4.696-0.645 10-1.484 13.201 -0.688 2.615-2.875 7.578-4.215 9.883 -1.197 2.062-4.145 5.792-5.732 7.525 -1.398 1.529-4.73 4.311-7.248 3.632 -2.77-0.744-6.016-3.945-6.238-5.312C143.574 105.172 148.813 88.763 152.398 82.506z" opacity="1" stroke="#ac5f38" stroke-width="1.5" fill="#daa488" data-stroketype="sd3" data-filltype="tone" data-colored="true"></path><path id="SvgjsPath2116" d="M154.902 102.491c-0.855 1.104-1.666 2.146-1.93 3.068 -0.09 0.312 0.273 2.843 0.289 3.372 0.014 0.432 0.119 0.773 0.221 0.766 0.102-0.009 0.158-0.365 0.146-0.796 -0.01-0.333-0.377-2.57-0.357-2.853 0.188 0.16 0.439 0.295 0.771 0.295 0.193 0 0.41-0.043 0.65-0.151 1.182-0.53 1.588-1.259 1.945-1.903 0.311-0.555 0.578-1.034 1.287-1.355 1.291-0.584 3.24-2.711 3.67-4.362 1.168-4.476-2.031-10.07-2.488-10.836 0.23-0.548 0.457-1.056 0.66-1.489 0.26-0.552 0.594-1.214 0.99-1.904 0.777 1.469 4.789 9.17 3.777 13.855 -0.955 4.415-7.793 11.406-9.27 13.098 -0.275 0.316-0.447 0.628-0.375 0.704 0.072 0.075 0.361-0.111 0.637-0.426 1.498-1.705 10.885-9.803 11.873-21.045 0.35-3.997 0.396-9.395-0.213-11.338 -0.072-0.281-1.135-0.104-2.145 0.241 -2.445 0.836-4.396 4.071-5.604 6.639 -1.047 2.234-2.65 6.354-2.936 8.524 -0.076 0.579 0.049 1.397 0.18 2.265 0.145 0.951 0.293 1.936 0.15 2.521C156.617 100.284 155.744 101.407 154.902 102.491zM160.979 83.966c0.65-1.083 1.449-2.188 2.355-3.015 0.52 0.986 4.291 7.28 1.977 14.464C165.211 90.584 161.453 84.83 160.979 83.966zM153.352 105.59c0.271-0.834 1.063-1.856 1.832-2.849 0.869-1.118 1.766-2.274 2.006-3.263 0.16-0.663 0.006-1.689-0.145-2.681 -0.121-0.8-0.246-1.627-0.178-2.148 0.074-0.567 0.242-1.273 0.467-2.045 0.736 0.566 3.672 3.321 1.025 9.625 -0.201 0.142-0.396 0.264-0.576 0.346 -0.82 0.372-1.145 0.953-1.457 1.515 -0.348 0.622-0.705 1.263-1.775 1.742C153.834 106.155 153.467 105.757 153.352 105.59z" opacity="1" stroke-width="none" fill="#ac5f38" data-stroketype="none" data-filltype="sd3" data-colored="true" stroke="none"></path></g><g id="svga-group-faceshape-wrap" data-rotate="0" data-scaley="1" data-scalex="1" data-dist="0" data-leftright="0" data-updown="0" transform="matrix(1.1094 0 0 1.0098999999999998 -10.940273767089835 -0.8005783153831771)" data-scaleX="1.1105" data-scaleY="1.011"><g id="svga-group-faceshape-single" data-rotate="0" data-scaley="1" data-scalex="1" data-dist="0" data-leftright="0" data-updown="0"><path id="SvgjsPath2080" d="M100.002 0.867C66.384 0.921 39.082 28.71 39.134 62.948c0.008 5.438 0.704 10.709 2.002 15.733h0.001c0.012 0.054 11.542 38.834 14.02 51.571 1.382 7.104 9.796 13.505 17.265 18.729 6.967 4.876 10.529 11.885 27.58 11.885s20.613-7.009 27.58-11.885c7.468-5.225 15.883-11.625 17.265-18.729 2.479-12.737 14.009-51.518 14.02-51.571h0.002c1.298-5.023 1.994-10.295 2.002-15.733C160.923 28.71 133.62 0.921 100.002 0.867z" opacity="1" stroke="#ac5f38" stroke-width="0.5" fill="#daa488" data-stroketype="sd3" data-filltype="tone" data-colored="true"></path><path id="SvgjsPath2081" d="M146.772 23.236c7.478 10.415 11.917 23.391 11.898 37.461 -0.009 5.438-0.679 10.709-1.93 15.733h-0.002c-0.011 0.054-11.124 38.833-13.512 51.572 -1.335 7.104-9.471 13.505-16.668 18.729 -6.718 4.875-10.121 11.886-26.557 11.886 -16.434 0-19.842-7.011-26.557-11.886 -7.197-5.225-15.335-11.625-16.665-18.729C54.39 115.264 43.277 76.484 43.266 76.43h0c-1.252-5.023-1.922-10.295-1.931-15.733C41.314 46.631 45.75 33.66 53.224 23.247 44.412 34.011 39.111 47.85 39.134 62.948c0.008 5.438 0.704 10.709 2.002 15.733h0.001c0.012 0.054 11.542 38.834 14.02 51.571 1.382 7.104 9.796 13.505 17.265 18.729 6.967 4.876 10.529 11.885 27.58 11.885s20.613-7.009 27.58-11.885c7.468-5.225 15.883-11.625 17.265-18.729 2.479-12.737 14.009-51.518 14.02-51.571h0.002c1.298-5.023 1.994-10.295 2.002-15.733C160.894 47.846 155.589 34.002 146.772 23.236z" opacity="1" stroke="none" fill="#daa488" data-stroketype="none" data-filltype="tone" data-colored="true"></path><path id="SvgjsPath2082" d="M100.002 0.867C66.384 0.921 39.082 28.71 39.134 62.948c0.008 5.438 0.704 10.709 2.002 15.733h0.001c0.012 0.054 11.542 38.834 14.02 51.571 1.382 7.104 9.796 13.505 17.265 18.729 6.967 4.876 10.529 11.885 27.58 11.885s20.613-7.009 27.58-11.885c7.468-5.225 15.883-11.625 17.265-18.729 2.479-12.737 14.009-51.518 14.02-51.571h0.002c1.298-5.023 1.994-10.295 2.002-15.733C160.923 28.71 133.62 0.921 100.002 0.867z" opacity="1" stroke="#daa488" fill="#daa488" data-stroketype="#c27b55" data-filltype="tone" data-colored="true"></path></g></g><g id="svga-group-eyes-left" data-rotate="0" data-scaley="1" data-scalex="1" data-dist="0" data-leftright="-3.0000003" data-updown="0" transform="matrix(1.2774000000000003 0 0 1.2774000000000003 -19.94284027044776 -23.589403134918243) translate(-3.0000002 0)" data-scaleX="1.2773998900000003" data-scaleY="1.2773998900000003"><g id="svga-group-eyesback-left"><path id="SvgjsPath2149" d="M60.942 83.152c-0.216 2.76 1.682 6.038 12.492 6.964 9.553 0.818 13.62-0.758 13.903-3.902s-3.407-6.987-12.88-7.482C66.026 78.292 61.188 80.005 60.942 83.152z" opacity="1" fill="url(#SvgjsRadialGradient2150)" data-stroketype="none" data-filltype="gradient" data-colored="false"></path></g><g id="svga-group-eyesiriswrapper-left" transform="translate(0.5 0.25)"><g id="svga-group-eyesiriscontrol-left" data-rotate="0" data-scaley="1" data-scalex="1" data-dist="0" data-leftright="0" data-updown="0"><g id="svga-group-eyesiris-left" data-rotate="0" data-scaley="1" data-scalex="1" data-dist="0" data-leftright="0" data-updown="0"><path id="SvgjsPath6580" d="M81.235 86.526c-1.086 5.079-5.203 8.071-9.202 6.676 -3.996-1.394-6.356-6.647-5.269-11.727 1.085-5.083 5.211-8.075 9.208-6.679C79.965 76.189 82.322 81.442 81.235 86.526z" data-colored="true" data-filltype="tone" data-stroketype="sd3" fill="#8ab42d" stroke="#5c8600" stroke-width="0.5" opacity="1"></path><path id="SvgjsPath6581" d="M81.056 84.591c-0.553 5.639-3.844 8.577-7.441 8.271 -3.323-0.285-6.293-3.404-6.57-8.791 1.15-0.42 2.676 0.263 4.014 0.002 -0.003 0.062-0.02 0.117-0.021 0.18 -0.109 2.068 1.195 3.87 2.908 4.017 1.72 0.146 3.197-1.419 3.303-3.486 0.012-0.269-0.001-0.534-0.033-0.789C78.409 84.225 79.869 83.999 81.056 84.591z" data-colored="true" data-filltype="hl1" data-stroketype="none" fill="#9cc344" stroke-width="none" opacity="1" stroke="none"></path><path id="SvgjsPath6582" d="M75.084 80.814c-1.65-0.6-3.334 0.599-3.76 2.69 -0.426 2.081 0.567 4.26 2.217 4.861 1.65 0.603 3.333-0.598 3.764-2.68C77.733 83.595 76.737 81.417 75.084 80.814z" data-colored="false" data-filltype="#000000" data-stroketype="none" fill="#000000" stroke-width="none" opacity="0.9"></path><path id="SvgjsPath6583" d="M75.084 80.814c-1.65-0.6-3.334 0.599-3.76 2.69 -0.426 2.081 0.567 4.26 2.217 4.861 1.65 0.603 3.333-0.598 3.764-2.68C77.733 83.595 76.737 81.417 75.084 80.814z" data-colored="true" data-filltype="none" data-stroketype="sd3" fill="none" stroke="#5c8600" stroke-width="0.75" opacity="1"></path><path id="SvgjsPath6584" d="M70.451 89.818c-0.157 0.695-1.008 0.399-0.854-0.298 0.153-0.673 0.562-1.086 0.818-1.679 0.276-0.633 1.039-0.067 0.762 0.567C70.965 88.897 70.572 89.273 70.451 89.818L70.451 89.818zM71.807 88.71c-0.234 0.348-0.542 1.638-0.675 2.06 -0.211 0.672 0.642 0.961 0.851 0.298 0.073-0.229 0.32-1.373 0.45-1.563C72.799 88.958 72.18 88.16 71.807 88.71L71.807 88.71zM73.646 92.031c0.459-0.676 0.413-1.45 0.403-2.292 -0.007-0.723-0.888-0.724-0.882 0 0.007 0.465 0.115 1.114-0.146 1.498C72.65 91.781 73.271 92.579 73.646 92.031L73.646 92.031zM74.545 89.599c0.009 0.697 0.074 1.377 0.236 2.044 0.169 0.69 1.021 0.396 0.854-0.298 -0.142-0.576-0.2-1.144-0.205-1.746C75.421 88.875 74.54 88.875 74.545 89.599L74.545 89.599z" data-colored="false" data-filltype="#ffffff" data-stroketype="none" fill="#ffffff" stroke-width="none" opacity="0.5"></path><path id="SvgjsPath6585" d="M79.246 82.364c-0.868 0.663-2.174 0.066-2.916-1.334 -0.738-1.402-0.63-3.077 0.242-3.738 0.868-0.667 2.175-0.068 2.91 1.333C80.225 80.027 80.118 81.7 79.246 82.364z" data-colored="false" data-filltype="#ffffff" data-stroketype="none" fill="#ffffff" stroke-width="none" opacity="0.8"></path></g></g></g><g id="svga-group-eyesfront-left"><path id="SvgjsPath2174" d="M55.772 86.694c1.203 13.754 10.653 24.163 21.106 23.249 10.453-0.915 17.952-12.807 16.749-26.561 -1.203-13.754-10.653-24.164-21.106-23.249C62.067 61.048 54.569 72.94 55.772 86.694zM60.942 83.152c0.246-3.146 5.084-4.86 13.516-4.419 9.473 0.495 13.163 4.338 12.88 7.482s-4.351 4.72-13.903 3.902C62.624 89.19 60.726 85.912 60.942 83.152z" opacity="1" stroke-width="none" fill="#daa488" data-fromskin="true" data-stroketype="none" data-filltype="tone" data-colored="true" stroke="none"></path><path id="SvgjsPath2175" d="M57.798 85.194c0.596 7.711 10.263 13.338 19.882 12.458 9.616-0.885 17.535-6.722 16.834-14.425 -0.697-7.699-9.053-13.224-18.673-12.342C66.221 71.771 56.98 74.647 57.798 85.194zM60.942 83.152c0.246-3.146 5.084-4.86 13.516-4.419 9.473 0.495 13.163 4.338 12.88 7.482s-4.351 4.72-13.903 3.902C62.624 89.19 60.726 85.912 60.942 83.152z" opacity="1" fill="url(#SvgjsRadialGradient2176)" data-fromskin="true" data-stroketype="none" data-filltype="gradient" data-colored="false"></path><path id="SvgjsPath2180" d="M60.942 83.152c-0.216 2.76 1.682 6.038 12.492 6.964 9.553 0.818 13.62-0.758 13.903-3.902s-3.407-6.987-12.88-7.482C66.026 78.292 61.188 80.005 60.942 83.152z" opacity="1" fill="url(#SvgjsRadialGradient2181)" data-stroketype="none" data-filltype="gradient" data-colored="false"></path><path id="SvgjsPath2184" d="M85.569 79.486c-1.025-0.673-3.285-1.602-3.285-1.602s2.571 0.588 3.59 1.279 2.082 2.366 2.082 2.366S86.594 80.159 85.569 79.486zM67.02 77.131c0 0-2.657-0.034-4.546 1.136 -1.734 1.074-2.448 2.685-2.448 2.685s1.649-1.725 2.813-2.501C63.927 77.725 67.02 77.131 67.02 77.131z" opacity="1" stroke-width="none" fill="#ac5f38" data-fromskin="true" data-stroketype="none" data-filltype="sd3" data-colored="true" stroke="none"></path><path id="SvgjsPath2185" d="M74.758 78.929c-6.156-0.216-15.613 0.376-13.409 6.209 -3.203-1.934-0.741-8.81 13.992-7.583 7.137 0.594 15.623 4.275 11.685 9.764C88.273 81.582 80.8 79.142 74.758 78.929zM85.623 89.012l-3.021 0.956c-5.294 0.085-8.251-0.28-13.196-0.504 -2.279-0.104-4.328-1.226-6.996-2.467 1.537 1.698 4.094 3.061 6.943 3.226 4.789 0.278 8.032 0.342 13.408 0.382L85.623 89.012z" opacity="1" stroke-width="none" fill="#000000" data-stroketype="none" data-filltype="tone" data-colored="true" stroke="none"></path></g></g><g id="svga-group-eyes-right" data-rotate="0" data-scaley="1" data-scalex="1" data-dist="0" data-leftright="3.0000003" data-updown="0" transform="matrix(1.2774000000000003 0 0 1.2774000000000003 -35.537298353362104 -23.589403664016757) translate(3.0000002 0)" data-scaleX="1.2773998900000003" data-scaleY="1.2773998900000003"><g id="svga-group-eyesback-right"><path id="SvgjsPath2157" d="M139.059 83.152c0.216 2.76-1.682 6.038-12.492 6.964 -9.553 0.818-13.62-0.758-13.903-3.902s3.407-6.987 12.88-7.482C133.975 78.292 138.813 80.005 139.059 83.152z" opacity="1" fill="url(#SvgjsRadialGradient2158)" data-stroketype="none" data-filltype="gradient" data-colored="false"></path></g><g id="svga-group-eyesiriswrapper-right" transform="translate(-0.5 0.25)"><g id="svga-group-eyesiriscontrol-right" data-rotate="0" data-scaley="1" data-scalex="1" data-dist="0" data-leftright="0" data-updown="0"><g id="svga-group-eyesiris-right" data-rotate="0" data-scaley="1" data-scalex="1" data-dist="0" data-leftright="0" data-updown="0"><path id="SvgjsPath6586" d="M133.235 86.526c-1.086 5.079-5.202 8.071-9.201 6.676 -3.997-1.394-6.356-6.647-5.27-11.727 1.086-5.083 5.212-8.075 9.208-6.679C131.965 76.189 134.322 81.442 133.235 86.526z" data-colored="true" data-filltype="tone" data-stroketype="sd3" fill="#8ab42d" stroke="#5c8600" stroke-width="0.5" opacity="1"></path><path id="SvgjsPath6587" d="M133.056 84.591c-0.553 5.639-3.844 8.577-7.44 8.271 -3.322-0.285-6.294-3.404-6.57-8.791 1.151-0.42 2.677 0.263 4.014 0.002 -0.003 0.062-0.019 0.117-0.021 0.18 -0.108 2.068 1.195 3.87 2.909 4.017 1.72 0.146 3.197-1.419 3.302-3.486 0.013-0.269-0.001-0.534-0.032-0.789C130.409 84.225 131.869 83.999 133.056 84.591z" data-colored="true" data-filltype="hl1" data-stroketype="none" fill="#9cc344" stroke-width="none" opacity="1" stroke="none"></path><path id="SvgjsPath6588" d="M127.084 80.814c-1.65-0.6-3.335 0.599-3.76 2.69 -0.427 2.081 0.567 4.26 2.217 4.861 1.65 0.603 3.334-0.598 3.765-2.68C129.733 83.595 128.736 81.417 127.084 80.814z" data-colored="false" data-filltype="#000000" data-stroketype="none" fill="#000000" stroke-width="none" opacity="0.9"></path><path id="SvgjsPath6589" d="M127.084 80.814c-1.65-0.6-3.335 0.599-3.76 2.69 -0.427 2.081 0.567 4.26 2.217 4.861 1.65 0.603 3.334-0.598 3.765-2.68C129.733 83.595 128.736 81.417 127.084 80.814z" data-colored="true" data-filltype="none" data-stroketype="sd3" fill="none" stroke="#5c8600" stroke-width="0.75" opacity="1"></path><path id="SvgjsPath6590" d="M122.451 89.818c-0.157 0.695-1.008 0.399-0.854-0.298 0.153-0.673 0.562-1.086 0.817-1.679 0.276-0.633 1.039-0.067 0.762 0.567C122.965 88.897 122.571 89.273 122.451 89.818L122.451 89.818zM123.807 88.71c-0.234 0.348-0.542 1.638-0.675 2.06 -0.211 0.672 0.642 0.961 0.851 0.298 0.072-0.229 0.32-1.373 0.449-1.563C124.8 88.958 124.18 88.16 123.807 88.71L123.807 88.71zM125.646 92.031c0.46-0.676 0.414-1.45 0.403-2.292 -0.007-0.723-0.889-0.724-0.882 0 0.008 0.465 0.115 1.114-0.146 1.498C124.65 91.781 125.271 92.579 125.646 92.031L125.646 92.031zM126.545 89.599c0.009 0.697 0.074 1.377 0.236 2.044 0.17 0.69 1.021 0.396 0.854-0.298 -0.143-0.576-0.201-1.144-0.205-1.746C127.422 88.875 126.54 88.875 126.545 89.599L126.545 89.599z" data-colored="false" data-filltype="#ffffff" data-stroketype="none" fill="#ffffff" stroke-width="none" opacity="0.5"></path><path id="SvgjsPath6591" d="M131.246 82.364c-0.868 0.663-2.174 0.066-2.916-1.334 -0.738-1.402-0.63-3.077 0.243-3.738 0.867-0.667 2.174-0.068 2.909 1.333C132.225 80.027 132.118 81.7 131.246 82.364z" data-colored="false" data-filltype="#ffffff" data-stroketype="none" fill="#ffffff" stroke-width="none" opacity="0.8"></path></g></g></g><g id="svga-group-eyesfront-right"><path id="SvgjsPath2195" d="M127.479 60.133c-10.453-0.915-19.903 9.495-21.106 23.249 -1.203 13.754 6.296 25.646 16.749 26.561 10.453 0.914 19.903-9.495 21.106-23.249C145.432 72.94 137.934 61.048 127.479 60.133zM126.566 90.116c-9.553 0.818-13.62-0.758-13.903-3.902s3.407-6.987 12.88-7.482c8.432-0.44 13.27 1.273 13.516 4.419C139.274 85.912 137.377 89.19 126.566 90.116z" opacity="1" stroke-width="none" fill="#daa488" data-fromskin="true" data-stroketype="none" data-filltype="tone" data-colored="true" stroke="none"></path><path id="SvgjsPath2196" d="M124.159 70.885c-9.62-0.882-17.976 4.643-18.673 12.342 -0.701 7.703 7.218 13.54 16.834 14.425 9.619 0.88 19.286-4.747 19.882-12.458C143.021 74.647 133.779 71.771 124.159 70.885zM126.566 90.116c-9.553 0.818-13.62-0.758-13.903-3.902s3.407-6.987 12.88-7.482c8.432-0.44 13.27 1.273 13.516 4.419C139.274 85.912 137.377 89.19 126.566 90.116z" opacity="1" fill="url(#SvgjsRadialGradient2197)" data-fromskin="true" data-stroketype="none" data-filltype="gradient" data-colored="false"></path><path id="SvgjsPath2201" d="M139.059 83.152c0.216 2.76-1.682 6.038-12.492 6.964 -9.553 0.818-13.62-0.758-13.903-3.902s3.407-6.987 12.88-7.482C133.975 78.292 138.813 80.005 139.059 83.152z" opacity="1" fill="url(#SvgjsRadialGradient2202)" data-stroketype="none" data-filltype="gradient" data-colored="false"></path><path id="SvgjsPath2205" d="M112.045 81.529c0 0 1.063-1.675 2.082-2.366s3.59-1.279 3.59-1.279 -2.26 0.929-3.285 1.602S112.045 81.529 112.045 81.529zM137.161 78.451c1.164 0.776 2.813 2.501 2.813 2.501s-0.714-1.61-2.448-2.685c-1.889-1.169-4.546-1.136-4.546-1.136S136.073 77.725 137.161 78.451z" opacity="1" stroke-width="none" fill="#ac5f38" data-fromskin="true" data-stroketype="none" data-filltype="sd3" data-colored="true" stroke="none"></path><path id="SvgjsPath2206" d="M112.975 87.32c-3.938-5.489 4.548-9.17 11.685-9.764 14.733-1.227 17.195 5.648 13.992 7.583 2.204-5.833-7.253-6.425-13.409-6.209C119.2 79.142 111.728 81.582 112.975 87.32zM117.239 90.604c5.376-0.04 8.619-0.104 13.408-0.382 2.85-0.165 5.406-1.528 6.943-3.226 -2.668 1.241-4.717 2.363-6.996 2.467 -4.945 0.225-7.902 0.589-13.196 0.504l-3.021-0.956L117.239 90.604z" opacity="1" stroke-width="none" fill="#000000" data-stroketype="none" data-filltype="tone" data-colored="true" stroke="none"></path></g></g><g id="svga-group-facehighlight-single" data-rotate="0" data-scaley="1" data-scalex="1" data-dist="0" data-leftright="0" data-updown="0"><path id="SvgjsPath2091" d="M141 113.974c0.035 22.622-18.292 40.994-40.938 41.025 -22.642 0.037-41.028-18.273-41.063-40.9 -0.035-22.62 18.292-41.064 40.937-41.1C122.579 72.964 140.967 91.349 141 113.974z" opacity="1" fill="url(#SvgjsRadialGradient2092)" data-fromskin="true" data-stroketype="none" data-filltype="gradient" data-colored="false"></path><path id="SvgjsPath2095" d="M137.5 53.999c0 20.711-16.789 37.5-37.499 37.5 -20.711 0-37.501-16.789-37.501-37.5s16.79-37.5 37.501-37.5C120.711 16.499 137.5 33.288 137.5 53.999z" opacity="1" fill="url(#SvgjsRadialGradient2096)" data-fromskin="true" data-stroketype="none" data-filltype="gradient" data-colored="false"></path></g><g id="svga-group-nose-single" data-rotate="0" data-scaley="1" data-scalex="1" data-dist="0" data-leftright="0" data-updown="-3.0000003" transform="translate(0 -3.0000002)"><path id="SvgjsPath2215" d="M99.757 119.999c-0.91 0-1.88 0.006-2.721-0.371 -0.899-0.405-1.498-0.567-2.429-0.902 -0.899-0.324-1.98 0.466-2.88 0.541 -0.728 0.06-1.559-0.149-2.003-0.719 -1.499-1.917 0.286-3.096 0.286-3.096s-0.583 1.346-0.212 1.942c0.319 0.509 0.789 0.925 1.369 1.063 0.968 0.235 1.889-0.476 2.839-0.55 1.062-0.083 1.833-0.102 2.602 0.519 0.767 0.619 1.606 0.737 2.582 0.787 0.906 0.049 1.857 0.088 2.708-0.263 0.743-0.303 1.365-0.835 2.062-1.226 1.482-0.831 2.647 0.212 4.194 0.633 1.238 0.338 2.575-0.86 2.09-2.225 -0.277-0.777-0.232-1.24-0.232-1.24s1.181 0.535 1.11 1.854c-0.089 1.642-1.521 2.794-3.137 2.361 -0.794-0.21-1.65-0.808-2.493-0.656 -0.857 0.153-1.517 0.154-2.229 0.622C102.187 119.781 101.047 119.999 99.757 119.999z" opacity="1" stroke-width="none" fill="#ac5f38" data-fromskin="true" data-stroketype="none" data-filltype="sd3" data-colored="true" stroke="none"></path><path id="SvgjsPath2216" d="M93.316 110.211c0 0 3.245-4.518 6.193-4.573 2.73-0.05 6.324 3.968 6.324 3.968s-3.311-1.387-6.588-1.156C96.32 108.655 93.316 110.211 93.316 110.211z" opacity="1" stroke-width="none" fill="#d29779" data-fromskin="true" data-stroketype="none" data-filltype="sd05" data-colored="true" stroke="none"></path></g><g id="svga-group-mouth-single" data-rotate="0" data-scaley="1" data-scalex="1" data-dist="0" data-leftright="0" data-updown="0" transform="matrix(1.2752000000000001 0 0 1.2752000000000001 -27.49041545410158 -37.77202619628909)" data-scaleX="1.2763000000000002" data-scaleY="1.2763000000000002"><path id="SvgjsPath2207" d="M99.917,146.579c-2.763-0.084-4.979-2.862-6.552-4.693c-1.567-1.979-2.49-3.01-2.532-3.005
			c8.545,3.82,19.432-1.385,19.271-0.79c-0.051,0.038-0.923,0.995-2.574,3.242C105.866,143.369,103.423,146.694,99.917,146.579z" stroke-width="none" fill="#e9bfa9" data-fromskin="true" data-stroketype="none" data-filltype="hl1" data-colored="true" stroke="none"></path><path id="SvgjsPath2208" d="M100.311,145.654c-3.519,0.383-11.105-4.667-13.577-7.662c-1.535-1.79-4.032-6.071-5.921-7.471
			c-0.722-0.587-0.43-1.413,0.558-1.478c2.402-0.183,5.396,1.3,6.816,1.747c2.972,0.671,6.733,3.603,12.065,3.659
			c3.962-0.013,8.163-2.402,10.792-3.193c1.592-0.576,5.209-2.263,7.829-2.283c0.991-0.019,1.379,0.665,0.667,1.238
			c-1.998,1.481-4.944,6.155-6.647,8.036C110.244,141.205,103.471,145.844,100.311,145.654z" opacity="0.5" stroke="none" fill="#000000" data-stroketype="none" data-filltype="#000000" data-colored="false"></path><path id="SvgjsPath2209" d="M84.44,128.12c0.004-0.018,0.336,2.871,0.801,3.978c0.641,1.259,4.63,6.496,6.439,7.738
			c1.186,0.806,3.459,1.991,4.746,2.437c1.39,0.503,2.187,0.282,3.601,0.199c1.523-0.105,2.832,0.086,4.281-0.759
			c1.052-0.56,3.962-2.743,4.849-3.687c0.703-0.706,2.081-1.992,2.682-2.807c0.504-0.717,2.04-2.853,2.349-3.494
			c0.391-0.95,0.784-3.533,0.789-3.511C104.81,128.28,94.611,128.152,84.44,128.12z" stroke="none" fill="#ffffff" data-stroketype="none" data-filltype="#ffffff" data-colored="false"></path><path id="SvgjsPath2210" d="M90.727,129.274c-0.007,0.08-0.895,7.698-0.945,7.713c-0.055,0.077,0.064-7.792,0.061-7.77
			C90.138,129.237,90.433,129.256,90.727,129.274z M93.307,130.399c0.076,3.147,0.156,6.352,0.241,9.608
			c0.227-3.146,0.452-6.328,0.674-9.543C93.916,130.444,93.611,130.422,93.307,130.399z M99.473,132.193
			c0.226,3.165,0.466,6.334,0.72,9.495c0.157-3.221,0.305-6.443,0.444-9.66C100.249,132.087,99.861,132.142,99.473,132.193z
			 M104.891,130.085c1.165,0.183,1.868,9.133,1.87,9.103c-0.05-3.082-0.102-6.148-0.154-9.198
			C106.036,130.027,105.464,130.058,104.891,130.085z M109.302,128.805c0.005,0.058,0.726,7.465,0.778,7.232
			c0.051-0.188-0.074-7.275-0.073-7.26C109.773,128.787,109.538,128.796,109.302,128.805z M86.849,128.633
			c0.111,1.566,0.211,3.185,0.302,4.856c0.112-1.555,0.235-3.163,0.367-4.822C87.294,128.656,87.071,128.644,86.849,128.633z
			 M112.457,128.159c0.054,1.734,0.105,3.452,0.153,5.153c0.139-1.813,0.292-3.545,0.463-5.191
			C112.867,128.132,112.662,128.145,112.457,128.159z" opacity="0.1" stroke="none" fill="#000000" data-stroketype="none" data-filltype="#000000" data-colored="false"></path><path id="SvgjsPath2211" d="M120.126,128.23c-1.447-0.368-4.478,0.009-6.024-0.168c-2.196-0.277-6.635-0.567-8.838-0.48
			c-1.381,0.051-4.108,0.771-5.5,0.817c-1.429,0.044-4.252-0.784-5.668-0.795c-2.249-0.017-6.802,0.349-9.025,0.698
			c-1.53,0.218-4.627-0.241-5.835,0.265c-0.278,0.111-0.11,0.707-0.002,0.951c1.023,2.012,4.637,6.009,7.944,10.199
			c4.222,5.396,9.256,8.044,13.226,7.846c5.297,0.116,11.158-6.06,15.499-12.055c1.954-2.657,4.445-4.919,4.886-6.292
			C121.011,128.496,120.501,128.325,120.126,128.23z M100.017,139.442c-2.761,0.164-9.007-2.467-11.462-4.605
			c-1.501-1.267-3.721-3.825-5.253-5.122c-0.597-0.576,5.502,1.858,6.706,2.244c2.474,0.641,5.651,1.584,10.006,1.593
			c3.232,0.012,6.752-0.54,8.95-1.215c1.346-0.494,8.059-3.391,7.482-2.772c-1.618,1.438-4.323,4.267-6.117,5.711
			C108.097,137.129,102.501,139.509,100.017,139.442z" stroke-width="none" fill="#b8727b" data-stroketype="none" data-filltype="tone" data-colored="true" stroke="none"></path><path id="SvgjsPath2212" d="M84.397,132.474c2.868,1.008,9.538,8.833,15.881,8.678c3.283-0.017,7.141-3.158,10.243-5.577
			c3.116-2.523,5.474-4.324,6.093-4.063c0.115,0.366-2.437,3.662-5.933,7.446c-3.453,3.68-7.851,7.848-10.407,7.563
			C95.345,146.958,83.039,132.678,84.397,132.474z M99.145,132.854c3.794,0.038,8.382-1.172,11.346-3.276
			c-3.53-1.695-8.271,0.273-11.067,0.432c-3.61,0.039-6.552-1.655-9.918-0.1C92.604,131.471,95.868,132.897,99.145,132.854z" stroke-width="none" fill="#c08088" data-stroketype="none" data-filltype="hl05" data-colored="true" stroke="none"></path><path id="SvgjsPath2213" d="M96.43,145.273c-2.056-1.867-2.134-1.94-0.155-0.785c1.241,0.706,2.601,1.117,3.939,0.961
			c0.177-0.022,0.353-0.045,0.528-0.089c1.514-0.298,3.073-1.528,4.543-2.594c2.354-1.259,2.372-1.238,0.096,0.75
			c-1.633,1.769-3.352,3.55-4.619,3.71c-0.026,0.005-0.051,0.01-0.077,0.014C99.616,147.419,97.998,146.655,96.43,145.273z" stroke-width="none" fill="#c08088" data-stroketype="none" data-filltype="hl05" data-colored="true" stroke="none"></path><path id="SvgjsPath2214" d="M77.108,131.046c0,0-0.929-1.154-0.94-1.655c-0.019-0.704,1.335-2.396,1.335-2.396
		s-0.662,1.756-0.71,2.275C76.745,129.773,77.108,131.046,77.108,131.046z M122.993,129.02c-0.049-0.519-0.71-2.275-0.71-2.275
		s1.353,1.692,1.335,2.396c-0.011,0.501-0.94,1.655-0.94,1.655S123.041,129.523,122.993,129.02z" stroke-width="none" fill="#ac5f38" data-fromskin="true" data-stroketype="none" data-filltype="sd3" data-colored="true" stroke="none"></path></g><g id="svga-group-eyebrows-left" data-rotate="0" data-scaley="1" data-scalex="1" data-dist="0" data-leftright="0" data-updown="-2.0000002" transform="translate(0 -2.0000001000000003)"><path id="SvgjsPath2117" d="M53.672 67.988c7.019 3.546 15.071 4.443 31.64 6.435 0.542 0.086 0.929 0.187 1.277 0.191 1.666-0.032 3.083-1.561 2.854-2.926C88.66 66.485 60.682 68.92 53.672 67.988z" opacity="1" stroke-width="none" fill="#543c32" data-stroketype="none" data-filltype="#000000" data-colored="true"></path></g><g id="svga-group-eyebrows-right" data-rotate="0" data-scaley="1" data-scalex="1" data-dist="0" data-leftright="0" data-updown="-2.0000002" transform="translate(0 -2.0000001000000003)"><path id="SvgjsPath2118" d="M146.328 67.988c-7.019 3.546-15.071 4.443-31.64 6.435 -0.542 0.086-0.929 0.187-1.277 0.191 -1.666-0.032-3.084-1.561-2.854-2.926C111.34 66.485 139.317 68.92 146.328 67.988z" opacity="1" stroke-width="none" fill="#543c32" data-stroketype="none" data-filltype="#000000" data-colored="true"></path></g><g id="svga-group-beardwrap" data-rotate="0" data-scaley="1" data-scalex="1" data-dist="0" data-leftright="0" data-updown="0"><g id="svga-group-beard-single" data-rotate="0" data-scaley="1" data-scalex="1" data-dist="0" data-leftright="0" data-updown="16.000001599999997" transform="translate(0 16.000001499999996)"><path id="SvgjsPath6944" d="M93.82 138.68c3.68-1.48 3.65-0.37 8.15-0.68 1.53-0.11 3.03-0.06 4.35 0.95 -1 1.27-4.59 5.67-5.85 8.45C97.11 142.06 96.66 141.51 93.82 138.68z" data-colored="true" data-filltype="tone" data-stroketype="none" fill="#4e4341" stroke-width="none" opacity="1"></path><path id="SvgjsPath6945" d="M98.35 142.37c-1.25-2.36-1.09-2.01-1.93-3.28C97.33 140.03 97.81 140.55 98.35 142.37zM98.54 139.48c0.14 0.76 1.02 4.55 1.26 5.32C99.64 142.54 99.36 141.49 98.54 139.48zM100.21 139.37c-0.06-0.27-0.01-0.47-0.01-0.47s-0.09 0.2-0.07 0.48c0.03 0.74 0.17 1.7 0.17 1.7 0.04 0.53 0.17 1.33 0.17 1.33C100.51 141.37 100.49 140.74 100.21 139.37zM102.24 139.4c-0.84 1.67-1.14 2.6-1.04 4.86C101.56 141.9 101.6 141.57 102.24 139.4zM104.09 139.09c-0.8 0.52-1.37 1.75-1.12 3.04C102.98 140.97 103.51 139.71 104.09 139.09z" data-colored="true" data-filltype="sd1" data-stroketype="none" fill="#3f312e" stroke-width="none" opacity="1"></path><path id="SvgjsPath6946" d="M101.72 137.92c-3.64 0.42-3.98-0.96-8.08 0.73 3.17 3.14 3.42 3.56 6.84 8.97 1.21-2.82 5.17-7.68 5.98-8.68C104.78 137.59 102.72 137.85 101.72 137.92zM100.33 146.99c-1.41-2.48-2.24-4.25-3.68-5.79 -0.09-0.09-2.47-2.43-2.6-2.43 3.5-1.07 2.57-0.1 9.25-0.48 0.96 0.05 2 0.2 2.84 0.7 -3.69 3.82-2.92 3.72-4.59 5.85C101.03 145.51 100.56 146.14 100.33 146.99z" data-colored="true" data-filltype="sd2" data-stroketype="none" fill="#2f211e" stroke-width="none" opacity="1"></path></g></g><g id="svga-group-mustache-single" data-rotate="0" data-scaley="1" data-scalex="1" data-dist="0" data-leftright="0" data-updown="0"></g><g id="svga-group-hair-front" data-rotate="0" data-scaley="1" data-scalex="1" data-dist="0" data-leftright="0" data-updown="0" transform="matrix(1.1094 0 0 1.0098999999999998 -10.942024040222165 -0.43091235222815527)" data-scaleX="1.1105" data-scaleY="1.011"><path id="SvgjsPath2111" d="M158.43 41.325C140-4.765 100 0.405 100 0.405s-40-5.169-58.43 40.92c-9.245 23.12 2.158 50.324 2.158 50.324h5.826c-5.094-21.752 0.796-17.662 1.176-21.722 0.118-1.255-0.3-3.367-0.421-4.622 -0.592-6.112 1.982-18.029 5.245-23.173 1.603-2.526 5.369-6.659 8.174-7.699 9.97-3.694 20.044 0.715 22.854 1.421 4.461 1.12 22.373 1.12 26.836 0 3.343-0.839 13.182-4.905 22.854-1.321 2.806 1.04 6.871 4.972 8.474 7.499 3.263 5.144 5.537 16.16 4.945 22.272 -0.121 1.255-0.539 4.367-0.422 5.623 0.107 1.147 2.617 3.689 2.898 4.807 1.16 4.612-1.722 16.915-1.722 16.915h5.825C156.271 91.649 167.676 64.445 158.43 41.325z" opacity="1" stroke-width="none" fill="#3b3128" data-stroketype="none" data-filltype="tone" data-colored="true"></path><path id="SvgjsPath2112" d="M154.938 31.163C136.178-3.114 101.979-0.631 100-0.455c-1.979-0.176-36.177-2.659-54.938 31.618C30.57 57.641 41.57 88.137 42.907 91.612c0.076 0.197 1.576 0.038 1.576 0.038 -0.006-0.015-0.104-0.392-0.166-0.55 -1.209-3.12-12.189-33.18 2.061-59.216C65.111-2.342 99.595 1.007 99.94 1.046L100 0.504l0.06 0.542c0.345-0.039 34.829-3.388 53.563 30.837 14.563 26.61 2.773 57.423 1.996 59.383 -0.021 0.055-0.107 0.375-0.111 0.383 0 0 1.506 0.169 1.575-0.011C158.374 88.294 169.467 57.709 154.938 31.163z" opacity="1" stroke-width="none" fill="#0d0905" data-stroketype="none" data-filltype="sd3" data-colored="true"></path></g><g id="svga-group-glasses-single" data-rotate="0" data-scaley="1" data-scalex="1" data-dist="0" data-leftright="0" data-updown="0"></g></g></g><g id="svga-group-bubble-single" data-rotate="0" data-scaley="1" data-scalex="1" data-dist="0" data-leftright="0" data-updown="0"></g></g><defs id="defs_node"><linearGradient id="SvgjsLinearGradient2088" class="svga-on-canvas-chinshadow-gradient-single-0" gradientUnits="userSpaceOnUse" y2="130" x2="100" y1="172" x1="100"><stop id="SvgjsStop2089" offset="0" data-stoptype="sd1" stop-color="#cb8b6a" stop-opacity="0.8"></stop><stop id="SvgjsStop2090" offset="0.7" data-stoptype="sd3" stop-color="#ac5f38" stop-opacity="1"></stop></linearGradient><radialGradient id="SvgjsRadialGradient2092" class="svga-on-canvas-facehighlight-gradient-single-0" gradientUnits="userSpaceOnUse" r="41" cy="114" cx="100"><stop id="SvgjsStop2093" offset="0" data-stoptype="hl1" stop-color="#e9bfa9" stop-opacity="0.5"></stop><stop id="SvgjsStop2094" offset="0.9" data-stoptype="tone" stop-color="#daa488" stop-opacity="0"></stop></radialGradient><radialGradient id="SvgjsRadialGradient2096" class="svga-on-canvas-facehighlight-gradient-single-1" gradientUnits="userSpaceOnUse" r="37" cy="54" cx="100"><stop id="SvgjsStop2097" offset="0" data-stoptype="hl1" stop-color="#e9bfa9" stop-opacity="0.5"></stop><stop id="SvgjsStop2098" offset="0.9" data-stoptype="tone" stop-color="#daa488" stop-opacity="0"></stop></radialGradient><radialGradient id="SvgjsRadialGradient2150" class="svga-on-canvas-eyesback-gradient-left-0" gradientUnits="userSpaceOnUse" gradientTransform="matrix(-1 0 0 1 200 0)" r="10.213" cy="84.497" cx="125.861"><stop id="SvgjsStop2151" offset="0" data-stoptype="#ffffff" stop-color="#ffffff" stop-opacity="1"></stop><stop id="SvgjsStop2152" offset="0.544" data-stoptype="#fdfefe" stop-color="#fdfefe" stop-opacity="1"></stop><stop id="SvgjsStop2153" offset="0.74" data-stoptype="#f6f8f9" stop-color="#f6f8f9" stop-opacity="1"></stop><stop id="SvgjsStop2154" offset="0.879" data-stoptype="#eaeff2" stop-color="#eaeff2" stop-opacity="1"></stop><stop id="SvgjsStop2155" offset="0.992" data-stoptype="#d9e3e8" stop-color="#d9e3e8" stop-opacity="1"></stop><stop id="SvgjsStop2156" offset="1" data-stoptype="#d8e2e7" stop-color="#d8e2e7" stop-opacity="1"></stop></radialGradient><radialGradient id="SvgjsRadialGradient2158" class="svga-on-canvas-eyesback-gradient-right-0" gradientUnits="userSpaceOnUse" r="10.213" cy="84.497" cx="125.861"><stop id="SvgjsStop2159" offset="0" data-stoptype="#ffffff" stop-color="#ffffff" stop-opacity="1"></stop><stop id="SvgjsStop2160" offset="0.544" data-stoptype="#fdfefe" stop-color="#fdfefe" stop-opacity="1"></stop><stop id="SvgjsStop2161" offset="0.74" data-stoptype="#f6f8f9" stop-color="#f6f8f9" stop-opacity="1"></stop><stop id="SvgjsStop2162" offset="0.879" data-stoptype="#eaeff2" stop-color="#eaeff2" stop-opacity="1"></stop><stop id="SvgjsStop2163" offset="0.992" data-stoptype="#d9e3e8" stop-color="#d9e3e8" stop-opacity="1"></stop><stop id="SvgjsStop2164" offset="1" data-stoptype="#d8e2e7" stop-color="#d8e2e7" stop-opacity="1"></stop></radialGradient><radialGradient id="SvgjsRadialGradient2166" class="svga-on-canvas-eyesfront-gradient-left-0" gradientUnits="userSpaceOnUse" gradientTransform="matrix(-1 0 0 1 200 0)" r="10.213" cy="84.497" cx="125.861"><stop id="SvgjsStop2167" offset="0" data-stoptype="#ffffff" stop-color="#ffffff" stop-opacity="1"></stop><stop id="SvgjsStop2168" offset="0.544" data-stoptype="#fdfefe" stop-color="#fdfefe" stop-opacity="1"></stop><stop id="SvgjsStop2169" offset="0.74" data-stoptype="#f6f8f9" stop-color="#f6f8f9" stop-opacity="1"></stop><stop id="SvgjsStop2170" offset="0.879" data-stoptype="#eaeff2" stop-color="#eaeff2" stop-opacity="1"></stop><stop id="SvgjsStop2171" offset="0.992" data-stoptype="#d9e3e8" stop-color="#d9e3e8" stop-opacity="1"></stop><stop id="SvgjsStop2172" offset="1" data-stoptype="#d8e2e7" stop-color="#d8e2e7" stop-opacity="1"></stop></radialGradient><radialGradient id="SvgjsRadialGradient2176" class="svga-on-canvas-eyesfront-gradient-left-3" gradientUnits="userSpaceOnUse" gradientTransform="matrix(0.9998 0.0208 0.0166 -0.7998 -48.8769 148.1393)" r="17.684" fy="83.773" fx="136.189" cy="83.738" cx="123.755"><stop id="SvgjsStop2177" offset="0" data-stoptype="sd1" stop-color="#cb8b6a" stop-opacity="1"></stop><stop id="SvgjsStop2178" offset="0.7" data-stoptype="sd1" stop-color="#cb8b6a" stop-opacity="0.3"></stop><stop id="SvgjsStop2179" offset="1" data-stoptype="tone" stop-color="#daa488" stop-opacity="0"></stop></radialGradient><radialGradient id="SvgjsRadialGradient2181" class="svga-on-canvas-eyesfront-gradient-left-4" gradientUnits="userSpaceOnUse" gradientTransform="matrix(-0.8746 -0.4848 -0.3636 0.656 221.3328 94.1879)" r="25.824" cy="100.958" cx="122.636"><stop id="SvgjsStop2182" offset="0.94" data-stoptype="#000000" stop-color="#000000" stop-opacity="0"></stop><stop id="SvgjsStop2183" offset="1" data-stoptype="#000000" stop-color="#000000" stop-opacity="0.2"></stop></radialGradient><radialGradient id="SvgjsRadialGradient2187" class="svga-on-canvas-eyesfront-gradient-right-0" gradientUnits="userSpaceOnUse" r="10.213" cy="84.497" cx="125.861"><stop id="SvgjsStop2188" offset="0" data-stoptype="#ffffff" stop-color="#ffffff" stop-opacity="1"></stop><stop id="SvgjsStop2189" offset="0.544" data-stoptype="#fdfefe" stop-color="#fdfefe" stop-opacity="1"></stop><stop id="SvgjsStop2190" offset="0.74" data-stoptype="#f6f8f9" stop-color="#f6f8f9" stop-opacity="1"></stop><stop id="SvgjsStop2191" offset="0.879" data-stoptype="#eaeff2" stop-color="#eaeff2" stop-opacity="1"></stop><stop id="SvgjsStop2192" offset="0.992" data-stoptype="#d9e3e8" stop-color="#d9e3e8" stop-opacity="1"></stop><stop id="SvgjsStop2193" offset="1" data-stoptype="#d8e2e7" stop-color="#d8e2e7" stop-opacity="1"></stop></radialGradient><radialGradient id="SvgjsRadialGradient2197" class="svga-on-canvas-eyesfront-gradient-right-3" gradientUnits="userSpaceOnUse" gradientTransform="matrix(-0.9998 0.0208 -0.0166 -0.7998 248.8769 148.1393)" r="17.685" fy="83.773" fx="136.19" cy="83.738" cx="123.755"><stop id="SvgjsStop2198" offset="0" data-stoptype="sd1" stop-color="#cb8b6a" stop-opacity="1"></stop><stop id="SvgjsStop2199" offset="0.7" data-stoptype="sd1" stop-color="#cb8b6a" stop-opacity="0.3"></stop><stop id="SvgjsStop2200" offset="1" data-stoptype="tone" stop-color="#daa488" stop-opacity="0"></stop></radialGradient><radialGradient id="SvgjsRadialGradient2202" class="svga-on-canvas-eyesfront-gradient-right-4" gradientUnits="userSpaceOnUse" gradientTransform="matrix(0.8746 -0.4848 0.3636 0.656 -21.3328 94.1879)" r="25.824" cy="100.958" cx="122.636"><stop id="SvgjsStop2203" offset="0.94" data-stoptype="#000000" stop-color="#000000" stop-opacity="0"></stop><stop id="SvgjsStop2204" offset="1" data-stoptype="#000000" stop-color="#000000" stop-opacity="0.2"></stop></radialGradient></defs></svg>