<svg id="svga-svgcanvas" style="overflow: hidden; position: relative; left: -0.265625px; top: 0px; -webkit-user-select: none; -webkit-user-drag: none; -webkit-tap-highlight-color: rgba(0, 0, 0, 0); touch-action: none;" height="250" width="250" preserveAspectRatio="xMinYMin meet" viewBox="0 0 200 200" class="svga-svg" xlink="http://www.w3.org/1999/xlink" version="1.1" xmlns="http://www.w3.org/2000/svg"><g id="defs_node"><g id="svga-group-backs-single"><path id="SvgjsPath4152" d="M225 225H-25V-25h250V225z" data-colored="true" data-filltype="tone" data-stroketype="none" fill="#ce6130" stroke-width="none" opacity="1"></path><path id="SvgjsPath4153" d="M30.816 56.624l3.375 1.049 -2.886 2.041 0.045 3.535 -2.833-2.114 -3.347 1.136 1.134-3.348 -2.114-2.833 3.535 0.044 2.041-2.886L30.816 56.624zM40.051 33.259l-1.586 5.428 -5.372 1.771 4.672 3.187L37.79 49.3l4.475-3.458 5.385 1.725 -1.905-5.325 3.303-4.588 -5.653 0.168L40.051 33.259zM9.358 99.38l-2.422 3.986 -4.711 0.273 3.104 3.526 -1.17 4.508 4.344-1.807 3.987 2.514 -0.421-4.643 3.633-2.954 -4.602-1.063L9.358 99.38zM11.271 71.054l0.168 3.531 -2.814 2.14 3.41 0.932 1.166 3.337 1.939-2.955 3.534-0.077 -2.21-2.759 1.019-3.384 -3.306 1.25L11.271 71.054zM5.396 51.958l3.615-2.959 0.182 4.63 3.969 2.479L8.755 57.71 7.592 62.2l-2.905-3.641L0 58.856l2.612-3.853 -1.735-4.307L5.396 51.958zM5.222 135.998l2.556-1.095 -0.621 2.515 1.908 1.88 -2.799 0.256 -1.377 2.256 -1.111-2.357 -2.758-0.484 2.115-1.714 -0.329-2.556L5.222 135.998zM20.532 155.007l2.81 0.867 -2.402 1.688 0.038 2.922 -2.358-1.748 -2.785 0.939 0.943-2.768 -1.76-2.342 2.942 0.037 1.699-2.387L20.532 155.007zM31.034 83.795l4.647 0.739 -3.406 3.215 0.738 4.622 -4.139-2.236 -4.191 2.116 0.849-4.598 -3.329-3.312 4.666-0.606 2.132-4.164L31.034 83.795zM22.119 29.902l5.203 1.198 -4.104 3.329 0.474 5.232 -4.507-2.832 -4.909 2.035 1.322-5.08 -3.509-3.974 5.325-0.307 2.738-4.491L22.119 29.902zM26.758 136.314l4.432-0.083 -2.633 3.463 1.437 4.064 -4.2-1.354L22.251 145l0.04-4.301 -3.627-2.46 4.226-1.304 1.298-4.115L26.758 136.314zM56.458 148.571l4.296-0.914 -1.894 3.861 2.184 3.68 -4.349-0.525 -2.947 3.188 -0.792-4.187 -4.005-1.709 3.86-2.063 0.468-4.242L56.458 148.571zM41.369 162.985l5.203 1.198 -4.104 3.329 0.474 5.232 -4.507-2.832 -4.909 2.035 1.322-5.08 -3.509-3.975 5.325-0.307 2.738-4.491L41.369 162.985zM30.869 110.835l5.203 1.199 -4.104 3.328 0.474 5.232 -4.507-2.832 -4.909 2.035 1.322-5.08 -3.509-3.974 5.325-0.308 2.738-4.49L30.869 110.835zM45.782 133.007l2.81 0.867 -2.402 1.688 0.038 2.922 -2.358-1.748 -2.785 0.939 0.943-2.768 -1.76-2.342 2.942 0.037 1.699-2.387L45.782 133.007zM39.066 13.124l3.375 1.049 -2.886 2.041 0.045 3.535 -2.833-2.114 -3.347 1.136 1.134-3.348 -2.114-2.833 3.535 0.044 2.041-2.886L39.066 13.124zM60.934 3.517L65.4 3.387l-2.609 3.538 1.505 4.106 -4.255-1.331 -3.536 2.667 -0.019-4.36L52.795 5.55l4.244-1.365L58.293 0 60.934 3.517zM65.782 172.007l2.81 0.867 -2.402 1.688 0.038 2.922 -2.358-1.748 -2.785 0.939 0.943-2.768 -1.76-2.342 2.942 0.037 1.699-2.387L65.782 172.007zM49.908 108.489l4.072-0.469 -2.299 3.158 1.465 3.299 -3.91-0.764 -3.165 2.505 -0.116-3.63 -3.422-1.752 3.84-1.479 1.047-3.586L49.908 108.489zM169.184 120.86l-3.376-1.049 2.886-2.041 -0.045-3.535 2.833 2.113 3.347-1.135 -1.134 3.348 2.114 2.832 -3.535-0.045 -2.04 2.887L169.184 120.86zM159.948 144.224l1.587-5.428 5.371-1.771 -4.672-3.187 -0.024-5.655 -4.475 3.458 -5.386-1.725 1.905 5.325 -3.303 4.589 5.652-0.168L159.948 144.224zM190.642 78.103l2.422-3.986 4.712-0.273 -3.104-3.526 1.17-4.508 -4.345 1.807 -3.987-2.514 0.421 4.643 -3.633 2.954 4.602 1.063L190.642 78.103zM188.729 106.43l-0.168-3.531 2.814-2.14 -3.409-0.932L186.8 96.49l-1.939 2.955 -3.534 0.077 2.211 2.759 -1.02 3.384 3.307-1.25L188.729 106.43zM194.604 125.525l-3.615 2.959 -0.182-4.63 -3.969-2.479 4.406-1.602 1.163-4.49 2.905 3.642 4.688-0.298 -2.612 3.853 1.735 4.307L194.604 125.525zM194.778 41.485l-2.556 1.095 0.62-2.515 -1.907-1.88 2.799-0.256 1.377-2.256 1.11 2.357 2.759 0.484 -2.115 1.714 0.329 2.556L194.778 41.485zM179.468 22.477l-2.811-0.867 2.402-1.688L179.022 17l2.358 1.748 2.784-0.939 -0.943 2.768 1.76 2.342 -2.942-0.037 -1.699 2.387L179.468 22.477zM168.966 93.688l-4.647-0.739 3.406-3.215 -0.738-4.622 4.139 2.236 4.191-2.116 -0.85 4.598 3.329 3.312 -4.665 0.606 -2.132 4.164L168.966 93.688zM177.881 147.581l-5.203-1.198 4.104-3.329 -0.474-5.232 4.507 2.832 4.909-2.035 -1.322 5.08 3.509 3.975 -5.325 0.307 -2.737 4.491L177.881 147.581zM173.241 41.169l-4.432 0.083 2.634-3.463 -1.437-4.064 4.2 1.354 3.541-2.595 -0.039 4.301 3.627 2.46 -4.226 1.304 -1.299 4.115L173.241 41.169zM151.968 35.013l-4.296 0.914 1.894-3.861 -2.185-3.68 4.349 0.525 2.947-3.188 0.792 4.187 4.006 1.709 -3.86 2.063 -0.469 4.242L151.968 35.013zM158.631 14.498l-5.203-1.198 4.104-3.329 -0.474-5.232 4.507 2.832 4.909-2.035 -1.322 5.08 3.509 3.975 -5.325 0.307 -2.737 4.491L158.631 14.498zM169.131 66.648l-5.203-1.199 4.104-3.328 -0.474-5.232 4.507 2.832 4.909-2.035 -1.322 5.08 3.509 3.974 -5.325 0.308 -2.737 4.49L169.131 66.648zM131.544 149.7l-2.81-0.867 2.402-1.688 -0.038-2.922 2.358 1.748 2.784-0.939 -0.943 2.768 1.76 2.342 -2.942-0.037 -1.699 2.387L131.544 149.7zM160.934 164.36l-3.376-1.049 2.886-2.041 -0.045-3.535 2.833 2.113 3.347-1.135 -1.134 3.348 2.114 2.832 -3.535-0.045 -2.04 2.887L160.934 164.36zM139.065 173.967l-4.466 0.13 2.609-3.539 -1.505-4.105 4.255 1.33 3.535-2.667 0.019 4.36 3.691 2.457 -4.243 1.365 -1.254 4.186L139.065 173.967zM134.218 5.477l-2.811-0.867 2.402-1.688L133.772 0l2.358 1.748 2.784-0.939 -0.943 2.768 1.76 2.342 -2.942-0.037 -1.699 2.387L134.218 5.477zM151.776 111.519l-4.072 0.469 2.299-3.158 -1.465-3.299 3.91 0.764 3.165-2.505 0.115 3.63 3.423 1.752 -3.84 1.479 -1.048 3.586L151.776 111.519z" data-colored="true" data-filltype="hl1" data-stroketype="none" fill="#dd774a" stroke-width="none" opacity="1"></path></g><g id="svga-group-subwrapper" data-rotate="0" data-scaley="1" data-scalex="1" data-dist="0" data-leftright="0" data-updown="0"><g id="svga-group-hair-back" data-rotate="0" data-scaley="1" data-scalex="1" data-dist="0" data-leftright="0" data-updown="-2.0000002" transform="matrix(0.9577952700000012 0 0 1.037395270000003 4.220472999999885 -3.664736456260769) translate(0 -2.0000001000000003)"><path id="SvgjsPath2704" d="M100.5,100.5h-1v-1h1V100.5z" data-colored="true" data-filltype="tone" data-stroketype="none" fill="#eaeaea" stroke-width="none" opacity="1"></path></g><g id="svga-group-humanbody-single" data-rotate="0" data-scaley="1" data-scalex="1" data-dist="0" data-leftright="0" data-updown="0" transform="matrix(0.9159996699999999 0 0 0.99559967 8.400033040054481 0.7808451587264074)"><path id="SvgjsPath1057" d="M190.858 199.866c-6.008-10.158-13.474-11.973-19.628-13.936 -6.323-2.016-19.346-3.178-26.449-4.6 -6.86-1.373-23.153-5.789-23.339-13.488 -0.192-8.066 4.291-40.09 4.291-40.09H74.005c0 0 4.487 32.023 4.294 40.09 -0.184 7.699-16.48 12.115-23.341 13.488 -7.104 1.422-20.125 2.584-26.448 4.6 -6.156 1.963-13.624 3.777-19.632 13.936 -3.644 6.16-6.008 16.133-6.008 27.133h194C196.869 215.999 194.509 206.026 190.858 199.866z" opacity="1" stroke-width="none" fill="#f5af95" data-fromskin="true" data-stroketype="none" data-filltype="tone" data-colored="true" stroke="none"></path><path id="SvgjsPath1058" d="M121.442 167.843c2.495 10.929 18.165 13.698 26.293 15.325 21.909 4.379 33.772 5.134 42.297 19.539 2.903 4.916 5.459 15.864 5.962 24.153 1.835 0.291 0.531-17.432-5.136-26.994 -9.742-16.472-29.089-15.135-46.077-18.535C137.921 179.958 121.628 175.542 121.442 167.843L121.442 167.843zM78.558 167.843c-0.186 7.699-16.479 12.115-23.339 13.488 -16.988 3.4-36.335 2.063-46.077 18.535 -5.667 9.563-6.971 27.285-5.136 26.994 0.503-8.289 3.059-19.237 5.962-24.153 8.524-14.405 20.388-15.16 42.297-19.539C60.393 181.541 76.063 178.771 78.558 167.843L78.558 167.843z" opacity="1" stroke-width="none" fill="#ffc9b5" data-fromskin="true" data-stroketype="none" data-filltype="hl1" data-colored="true" stroke="none"></path><path id="SvgjsPath1059" d="M51.206 189.513c0 0 28.641 0.299 33.473 1.885 2.314 0.758 8.372 5.633 8.372 5.633s-6.556-3.17-8.658-3.758C79.51 191.909 51.206 189.513 51.206 189.513zM99.795 199.999c2.053-0.041 7.887-3.799 7.887-3.799s-5.574 2.059-7.342 2.16c-1.491 0.086-6.366-1.238-6.366-1.238S98.112 200.032 99.795 199.999zM117.008 192.757c6.75-1.818 29.786-3.23 29.786-3.23s-23.791-0.516-30.51 1.725c-2.252 0.752-7.562 5.16-7.562 5.16S114.786 193.354 117.008 192.757z" opacity="1" stroke-width="none" fill="#e69375" data-fromskin="true" data-stroketype="none" data-filltype="sd1" data-colored="true" stroke="none"></path><path id="SvgjsPath1060" d="M190.858 199.866c-9.741-16.471-29.122-15.142-46.077-18.535 -6.86-1.373-23.153-5.789-23.339-13.488 -0.192-8.066 4.291-40.09 4.291-40.09H74.005c0 0 4.487 32.023 4.294 40.09 -0.184 7.699-16.48 12.115-23.341 13.488 -7.104 1.422-20.125 2.584-26.448 4.6 -6.156 1.963-13.624 3.777-19.632 13.936 -3.644 6.16-6.008 16.133-6.008 27.133h194C196.869 215.999 194.509 206.026 190.858 199.866z" opacity="1" stroke="#c7633d" stroke-width="1.5" fill="none" data-fromskin="true" data-stroketype="sd3" data-filltype="none" data-colored="true"></path></g><g id="svga-group-chinshadow-single" data-rotate="0" data-scaley="1" data-scalex="1" data-dist="0" data-leftright="0" data-updown="0" transform="matrix(0.9159996699999999 0 0 0.99559967 8.389112867377975 0.6587492285367489)"><path id="SvgjsPath6045" d="M75.602 162.779c7.126 5.302 15.497 9.087 24.401 9.087 8.902 0 17.269-3.781 24.394-9.08 -0.104-0.358-0.17-0.718-0.175-1.053 -0.088-6.862 1.561-20.607 2.82-30.025 -15.654-1.97-38.431-1.97-54.084 0 1.26 9.419 2.908 23.163 2.819 30.024C75.773 162.063 75.707 162.42 75.602 162.779z" data-colored="false" data-filltype="gradient" data-stroketype="none" data-fromskin="true" fill="url(#SvgjsLinearGradient6046)" opacity="1"></path></g><g id="svga-group-clothes-single" data-rotate="0" data-scaley="1" data-scalex="1" data-dist="0" data-leftright="0" data-updown="0" transform="matrix(0.9159996699999999 0 0 0.99559967 8.278316411600088 0.8453826494320538)"><path id="SvgjsPath3120" d="M-0.35 235.399c-5.397-68.442 34.095-42.726 62.751-62.455 0.43-2.869 2.012-4.49 4.209-6.688 8.539-8.537 3.556-12.475 6.837-16.225 0.061 0.682 0.121 1.609 0.203 2.609 14.335 15.54 41.122 21.975 52.534 1.957 0.057-1.388 0.281-4.84 0.455-6.532 2.596 1.968 2.467 4.504 2.671 7.165 0.952 12.423 8.132 15.523 9.356 18.519 29.112 18.84 64.362-8.488 61.582 61.22C190.104 235.4 82.543 236.083-0.35 235.399z" data-colored="true" data-filltype="tone" data-stroketype="none" fill="#9d69bc" stroke-width="none" opacity="1"></path><path id="SvgjsPath3121" d="M200.249 234.97c-0.493 0.021-1.225 0.043-2.165 0.064C197.343 222.419 196.966 209.61 190 198c-10-16-30-10-46-18 -12.592-5.396-14.666-18.072-15.685-30.026 0.869 1.59 0.853 3.393 0.995 5.258 0.952 12.423 8.132 15.523 9.356 18.519C167.779 192.59 203.029 165.262 200.249 234.97zM12 194.805c11.883-11.718 38-5.801 51-20.801 2.369-5.019 8.619-7.769 9.354-21.899 -0.828 3.247 1.257 7.153-5.743 14.152 -2.197 2.197-3.779 3.818-4.209 6.688 -28.656 19.729-68.148-5.987-62.751 62.455 0.475 0.004 0.955 0.008 1.432 0.012C0.058 220.805 2.523 204.149 12 194.805zM73.869 166.735c14.154 9.8 28.403 14.222 47.5 6.75C98.572 180.314 85.85 173.819 73.869 166.735zM93.095 170.59c12.673 4 24.608 2.148 35.774-6.604C117.411 171.174 106.868 173.999 93.095 170.59zM67.786 176.957c11.886 10.565 44.754 17.908 69.083-1.222C111.67 193.004 79.525 186.392 67.786 176.957zM86.209 180.108c16.699 7.246 43.293-0.997 47.602-5.373C129.232 178.65 101.399 185.549 86.209 180.108z" data-colored="true" data-filltype="hl1" data-stroketype="none" fill="#b186cb" stroke-width="none" opacity="1"></path><path id="SvgjsPath3122" d="M139.439 173.615h-0.011c-0.119-0.06-0.239-0.13-0.359-0.2 -0.018-0.054-0.39-0.846-0.851-1.3 -13.21-13.021-4.921-19.103-11.609-24.479 -0.035 0.62-0.531 4.908-0.62 6.819 -11.334 19.824-38.513 12.837-52.13-1.939 -0.045-0.542-0.211-2.664-0.29-3.221 -1.843 1.843-2.156 3.686-2.122 6.281 0.117 9.025-8.533 10.548-9.508 17.079 -28.303 19.487-68.409-6.355-62.75 63.24 84.796 0.705 195.013-0.026 201.541-0.45C203.572 167.624 173.061 191.379 139.439 173.615zM126.739 148.365c0.092 0.092 0.661 0.819 1.11 1.521 -0.366 1-0.638 2.347-1.53 3.93C126.651 149.852 126.667 149.771 126.739 148.365zM73.379 150.216c0.037 0.463 0.12 1.46 0.16 1.949 -0.29-0.31-0.57-0.6-0.82-0.88C72.919 150.905 73.129 150.545 73.379 150.216zM65.859 167.075c18.439 21.978 40.26 18.955 62.26 11.08 -30.612 9.414-44.329 5.81-61.99-11.37 7.46-6.32 5.691-8.829 6.35-15.01 20.39 23.21 50.375 17.96 55.81-1.13h0.01c1.958 11.071-2.637 8.336 10.301 23.06 -12.049 15.935-54.963 20.369-76.121-0.739C62.904 170.416 64.056 168.941 65.859 167.075zM0.109 234.838C0 165.37 32.869 196.235 62.059 173.204c18.395 20.038 59.684 22.314 76.89 0.892 24.883 17.816 61.965-6.61 60.533 60.223C140.951 233.913 65.786 234.118 0.109 234.838zM120.929 174.306c-5.603 3.779-29.402 8.238-44-5.38h-0.01l-0.07-0.061c0.235 0.061 0.513 0.131 0.73 0.46 -0.01-0.01-0.03-0.03-0.06-0.05 -0.085-0.105-0.354-0.32-0.5-0.32C103.716 186.869 130.316 168.975 120.929 174.306zM128.089 164.665c-17.654 15.185-38.134 9.989-54.24-3.34C89.656 172.72 108.896 177.796 128.089 164.665z" data-colored="true" data-filltype="sd3" data-stroketype="none" fill="#67258e" stroke-width="none" opacity="1"></path></g><g id="svga-group-head" data-rotate="0" data-scaley="1" data-scalex="1" data-dist="0" data-leftright="0" data-updown="0"><g id="svga-group-ears-left" data-rotate="0" data-scaley="1" data-scalex="1" data-dist="0" data-leftright="9.000000600000002" data-updown="0" transform="matrix(0.8190995600000001 0 0 0.8190995600000001 7.7420868638329665 17.442240672653796) translate(9.000000500000002 0)"><path id="SvgjsPath2038" d="M47.001 83.231c-1.376-2.453-5.638-8.48-9.98-7.003 -2.749 0.935-3.293 3.993-3.735 6.693 -0.588 3.591 0.471 10.694 1.389 13.26 0.881 2.467 3.533 7.23 5.264 9.045 2.13 2.225 4.775 9.324 5.194 10.061 0.66 1.162 1.536 2.911 4.122 2.692 2.853-0.244 4.584-1.85 5.856-2.121C58.253 115.192 50.582 89.616 47.001 83.231z" data-colored="true" data-filltype="tone" data-stroketype="sd3" fill="#f5af95" stroke="#c7633d" stroke-width="1.5" opacity="1"></path><path id="SvgjsPath2039" d="M44.197 98.104c-0.132-0.581 0.007-1.56 0.142-2.504 0.124-0.861 0.24-1.675 0.169-2.251 -0.267-2.154-1.773-6.249-2.757-8.467 -1.132-2.554-2.963-5.77-5.262-6.599 -0.95-0.343-1.575 0.067-1.938 0.484 -0.266 0.305-0.325 0.665-0.238 0.707 0.086 0.042 0.285-0.254 0.572-0.535 0.235-0.229 0.579-0.426 1.051-0.385 -0.19 1.073-1.167 6.883-0.744 10.845 0.333 3.115 1.593 5.442 1.79 5.791 0.029 0.367 0.077 0.726 0.148 1.075 0.929 4.547 4.971 9.717 6.378 11.409 0.259 0.313 0.531 0.497 0.598 0.423 0.066-0.076-0.094-0.387-0.353-0.7 -1.388-1.679-5.391-6.831-6.289-11.218 -0.952-4.656 2.318-11.556 3.048-13.017 0.371 0.685 0.687 1.344 0.93 1.893 0.19 0.431 0.402 0.936 0.619 1.479 -0.429 0.762-3.434 6.32-2.338 10.767 0.406 1.641 2.235 3.755 3.447 4.333 0.667 0.32 0.919 0.797 1.209 1.349 0.336 0.64 0.718 1.365 1.828 1.892 0.225 0.108 0.429 0.151 0.61 0.151 0.313 0 0.551-0.135 0.725-0.293 0.018 0.28 0.017 0.64 0.009 0.97 -0.012 0.431 0.042 0.783 0.137 0.791 0.094 0.008 0.196-0.332 0.207-0.76 0.016-0.526 0.013-1.177-0.072-1.488 -0.248-0.917-1.008-1.953-1.813-3.048C45.221 100.116 44.403 99.003 44.197 98.104zM36.95 94.073c-2.177-7.139 0.656-13.3 1.144-14.28 0.85 0.822 1.6 1.919 2.21 2.995C39.86 83.646 37.041 89.271 36.95 94.073zM46.341 104.515c-1.004-0.475-1.339-1.115-1.666-1.733 -0.293-0.559-0.598-1.136-1.369-1.505 -0.168-0.081-0.352-0.203-0.542-0.343 -2.486-6.263 0.272-9.001 0.963-9.562 0.211 0.766 0.369 1.468 0.439 2.031 0.063 0.517-0.052 1.339-0.167 2.134 -0.142 0.985-0.286 2.004-0.137 2.664 0.226 0.982 1.069 2.131 1.884 3.242 0.723 0.986 1.466 2.003 1.721 2.832C47.359 104.439 47.017 104.836 46.341 104.515z" data-colored="true" data-filltype="sd3" data-stroketype="none" fill="#c7633d" stroke-width="none" opacity="1" stroke="none"></path></g><g id="svga-group-ears-right" data-rotate="0" data-scaley="1" data-scalex="1" data-dist="0" data-leftright="-9.000000600000002" data-updown="0" transform="matrix(0.91009967 0 0 0.91009967 14.109002592213812 8.668100488926385) translate(-9.000000500000002 0)"><path id="SvgjsPath2040" d="M152.736 83.231c1.377-2.453 5.639-8.48 9.98-7.003 2.75 0.935 3.293 3.993 3.736 6.693 0.588 3.591-0.471 10.694-1.389 13.26 -0.881 2.467-3.533 7.23-5.266 9.045 -2.129 2.225-4.775 9.324-5.193 10.061 -0.658 1.162-1.535 2.911-4.121 2.692 -2.854-0.244-4.584-1.85-5.857-2.121C141.484 115.192 149.156 89.616 152.736 83.231z" data-colored="true" data-filltype="tone" data-stroketype="sd3" fill="#f5af95" stroke="#c7633d" stroke-width="1.5" opacity="1"></path><path id="SvgjsPath2041" d="M153.727 101.196c-0.805 1.096-1.564 2.131-1.813 3.048 -0.086 0.311-0.088 0.962-0.072 1.488 0.012 0.428 0.113 0.768 0.207 0.76s0.148-0.36 0.137-0.791c-0.008-0.331-0.008-0.69 0.01-0.97 0.174 0.158 0.412 0.293 0.725 0.293 0.182 0 0.385-0.043 0.609-0.151 1.109-0.526 1.492-1.252 1.828-1.892 0.289-0.552 0.543-1.028 1.209-1.349 1.213-0.578 3.041-2.692 3.447-4.333 1.096-4.447-1.908-10.005-2.338-10.767 0.217-0.544 0.43-1.049 0.619-1.479 0.244-0.549 0.559-1.208 0.93-1.893 0.73 1.46 4 8.361 3.049 13.017 -0.896 4.387-4.9 9.539-6.289 11.218 -0.258 0.313-0.418 0.624-0.352 0.7 0.066 0.074 0.338-0.109 0.598-0.423 1.406-1.692 5.449-6.862 6.379-11.409 0.07-0.35 0.117-0.708 0.146-1.075 0.197-0.349 1.459-2.676 1.791-5.791 0.422-3.961-0.555-9.772-0.744-10.845 0.473-0.042 0.814 0.156 1.051 0.385 0.287 0.281 0.486 0.577 0.572 0.535 0.086-0.042 0.027-0.402-0.238-0.707 -0.363-0.417-0.988-0.827-1.938-0.484 -2.299 0.83-4.131 4.045-5.262 6.599 -0.984 2.218-2.49 6.313-2.758 8.467 -0.072 0.576 0.045 1.39 0.17 2.251 0.135 0.945 0.273 1.924 0.141 2.504C155.336 99.003 154.518 100.116 153.727 101.196zM159.434 82.787c0.611-1.075 1.361-2.173 2.211-2.995 0.488 0.98 3.32 7.141 1.145 14.28C162.697 89.271 159.879 83.646 159.434 82.787zM152.27 104.275c0.254-0.829 0.998-1.846 1.721-2.832 0.816-1.111 1.658-2.26 1.885-3.242 0.148-0.66 0.004-1.679-0.137-2.664 -0.115-0.795-0.23-1.617-0.166-2.134 0.068-0.563 0.227-1.266 0.438-2.031 0.691 0.561 3.449 3.299 0.965 9.562 -0.191 0.14-0.375 0.263-0.543 0.343 -0.771 0.369-1.074 0.946-1.369 1.505 -0.326 0.618-0.662 1.258-1.666 1.733C152.721 104.836 152.379 104.439 152.27 104.275z" data-colored="true" data-filltype="sd3" data-stroketype="none" fill="#c7633d" stroke-width="none" opacity="1" stroke="none"></path></g><g id="svga-group-faceshape-wrap" data-rotate="0" data-scaley="1" data-scalex="1" data-dist="0" data-leftright="0" data-updown="0" transform="matrix(0.8739994499999999 0 0 0.9933994500000001 12.59942534332086 0.528390499037755)"><g id="svga-group-faceshape-single" data-rotate="0" data-scaley="1" data-scalex="1" data-dist="0" data-leftright="0" data-updown="0"><path id="SvgjsPath6042" d="M158.918 78.006l-0.005 0c-0.012 0.054-9.983 41.375-18.186 54.159 -6.452 10.056-28.899 29.684-40.573 29.701 -11.671 0.021-34.17-19.539-40.652-29.576 -8.242-12.758-18.353-54.042-18.365-54.096h-0.001c-1.298-4.992-1.994-10.231-2.002-15.634C39.082 28.536 66.289 0.92 99.907 0.867c33.621-0.053 60.913 27.476 60.963 61.499C160.879 67.769 160.201 73.01 158.918 78.006z" data-colored="true" data-filltype="tone" data-stroketype="sd3" fill="#f5af95" stroke="#c7633d" stroke-width="0.5" opacity="1"></path><path id="SvgjsPath6043" d="M124.597 6.119c18.568 10.001 31.371 30.966 31.404 55.247 0.008 5.403-0.616 10.644-1.796 15.641l-0.005 0c-0.011 0.054-9.185 41.375-16.73 54.159 -5.937 10.056-26.588 29.684-37.327 29.701 -10.737 0.021-31.437-19.539-37.4-29.576 -7.582-12.758-16.885-54.042-16.896-54.096h-0.001c-1.195-4.992-1.835-10.231-1.842-15.634C43.969 37.217 56.775 16.161 75.391 6.126 54.006 15.706 39.096 37.37 39.134 62.56c0.008 5.403 0.704 10.643 2.002 15.634h0.001c0.012 0.054 10.123 41.338 18.365 54.096 6.482 10.037 28.981 29.597 40.652 29.576 11.673-0.018 34.121-19.646 40.573-29.701 8.202-12.784 18.174-54.105 18.186-54.159l0.005 0c1.283-4.997 1.961-10.237 1.952-15.641C160.833 37.238 145.928 15.667 124.597 6.119z" data-colored="true" data-filltype="tone" data-stroketype="none" fill="#f5af95" stroke="none" opacity="1"></path><path id="SvgjsPath6044" d="M158.918 78.006l-0.005 0c-0.012 0.054-9.983 41.375-18.186 54.159 -6.452 10.056-28.899 29.684-40.573 29.701 -11.671 0.021-34.17-19.539-40.652-29.576 -8.242-12.758-18.353-54.042-18.365-54.096h-0.001c-1.298-4.992-1.994-10.231-2.002-15.634C39.082 28.536 66.289 0.92 99.907 0.867c33.621-0.053 60.913 27.476 60.963 61.499C160.879 67.769 160.201 73.01 158.918 78.006z" data-colored="true" data-filltype="tone" data-stroketype="#c27b55" fill="#f5af95" stroke="#f5af95" opacity="1"></path></g></g><g id="svga-group-mouth-single" data-rotate="0" data-scaley="1" data-scalex="1" data-dist="0" data-leftright="0" data-updown="0"><path id="SvgjsPath3719" d="M90.1,139.4c0,0,3.2-2.3,4.9-2.5c1.7-0.2,3.3,1.4,5,1.3c1.4-0.1,2.6-1.7,4.1-1.7
	c1.8,0,3.4,1.3,5.1,1.9c0.6,0.2,1.9,0.6,1.9,0.6c-0.1,1.5-0.7,0.8-1.2,1.4c-2.2,2.3-4.5,7.4-9.7,7.9c-3.2,0.4-6.1-3.3-8.5-6.1
	C91,141.5,90.1,139.4,90.1,139.4L90.1,139.4z" data-colored="true" data-filltype="tone" data-stroketype="none" data-author="rones~openclipart.org" fill="#e2929b" stroke-width="none" stroke="none"></path><path id="SvgjsPath3720" d="M90.4,139.4c0,0,3.5-0.5,5.2,0.1c1.1,0.4,1.6,0.3,2.5,0.3c0.7,0,1.6,0.9,2.3,0.6
	c1-0.5,2.7-1.1,4.9-1.4c1.6-0.2,3.7-0.1,5.1,0c0,0-0.7,0.4-1,0.3c-0.7-0.3-3.1,0.1-3.8,0.2c-0.6,0.1-1.7,0.3-2.4,0.5
	c-1.2,0.4-2.1,1-3,1.1c-0.7,0-1.6-0.8-2.3-0.8c-1,0.1-2.1-0.5-2.9-0.6C93.3,139.4,90.4,139.4,90.4,139.4L90.4,139.4z" data-colored="true" data-filltype="sd3" data-stroketype="none" data-fromskin="true" fill="#c7633d" stroke-width="none" stroke="none"></path></g><g id="svga-group-eyes-left" data-rotate="0" data-scaley="1" data-scalex="1" data-dist="0" data-leftright="0" data-updown="0"><g id="svga-group-eyesback-left"><path id="SvgjsPath1105" d="M60.956 84.178c11.334-7.516 23.563-3.623 26.092 3.5 0.994 2.798 0.327 5.276-1.739 6.934C70.023 100.123 62.391 92.664 60.956 84.178z" opacity="1" fill="url(#SvgjsRadialGradient1106)" data-stroketype="none" data-filltype="gradient" data-colored="false"></path></g><g id="svga-group-eyesiriswrapper-left" transform="translate(-0.5 1.5)"><g id="svga-group-eyesiriscontrol-left" data-rotate="0" data-scaley="1" data-scalex="1" data-dist="0" data-leftright="0" data-updown="0"><g id="svga-group-eyesiris-left" data-rotate="0" data-scaley="1" data-scalex="1" data-dist="0" data-leftright="0" data-updown="0"><path id="SvgjsPath1095" d="M83.199 89.25c-1.231 4.522-5.896 7.187-10.429 5.944 -4.528-1.241-7.203-5.918-5.97-10.442 1.23-4.526 5.905-7.19 10.434-5.947C81.761 80.045 84.433 84.723 83.199 89.25z" fill="#9fae70" opacity="1" stroke="#6c802c" stroke-width="0.5" data-stroketype="sd3" data-filltype="tone" data-colored="true"></path><path id="SvgjsPath1096" d="M81.878 89.354c-1.202 3.473-4.827 5.499-8.357 4.531 -3.258-0.894-5.315-4.02-5.048-7.325 1.209-0.096 2.532-0.124 3.904-0.056 -0.014 0.047-0.039 0.087-0.051 0.136 -0.434 1.594 0.576 3.265 2.256 3.726 1.685 0.461 3.401-0.462 3.835-2.056 0.055-0.208 0.085-0.417 0.093-0.623C79.66 88.108 80.792 88.651 81.878 89.354z" opacity="1" stroke-width="none" fill="#b2bd8d" data-stroketype="none" data-filltype="hl1" data-colored="true"></path><path id="SvgjsPath1097" d="M76.151 84.464c-1.703-0.487-3.44 0.485-3.88 2.181 -0.44 1.687 0.584 3.454 2.286 3.942 1.705 0.489 3.443-0.484 3.884-2.173C78.884 86.719 77.855 84.953 76.151 84.464zM76.523 90.46c-0.708 0.22-1.441-0.072-1.636-0.655 -0.188-0.582 0.231-1.228 0.945-1.443 0.712-0.22 1.442 0.073 1.639 0.651C77.665 89.593 77.241 90.24 76.523 90.46z" opacity="0.9" stroke-width="none" fill="#000000" data-stroketype="none" data-filltype="#000000" data-colored="false"></path><path id="SvgjsPath1098" d="M70.482 91.476c-0.523 0.314-1.307 0.034-1.754-0.633 -0.448-0.66-0.381-1.451 0.145-1.767 0.521-0.311 1.311-0.03 1.755 0.632C71.07 90.37 71.006 91.162 70.482 91.476z" opacity="0.6" stroke-width="none" fill="#ffffff" data-stroketype="none" data-filltype="#ffffff" data-colored="false"></path><path id="SvgjsPath1099" d="M81.673 86.632c-1.198 0.718-2.999 0.072-4.02-1.445 -1.02-1.518-0.867-3.331 0.332-4.047 1.196-0.721 3-0.074 4.015 1.444C83.019 84.101 82.871 85.913 81.673 86.632z" opacity="0.9" stroke-width="none" fill="#ffffff" data-stroketype="none" data-filltype="#ffffff" data-colored="false"></path></g></g></g><g id="svga-group-eyesfront-left"><path id="SvgjsPath1130" d="M56 88c0 13.808 8.06 24.999 18 24.999S92 101.808 92 88c0-13.809-8.06-25.001-18-25.001S56 74.191 56 88zM60.956 84.178c11.334-7.516 23.563-3.623 26.092 3.5 0.994 2.798 0.327 5.276-1.739 6.934C70.023 100.123 62.391 92.664 60.956 84.178z" opacity="1" stroke-width="none" fill="#f5af95" data-fromskin="true" data-stroketype="none" data-filltype="tone" data-colored="true" stroke="none"></path><path id="SvgjsPath1131" d="M58.286 88.081c0.025 8.284 8.099 14.961 18.043 14.918 9.939-0.047 17.979-6.796 17.957-15.08 -0.025-8.286-8.101-14.963-18.043-14.92C66.3 73.046 58.264 79.795 58.286 88.081zM60.956 84.178c11.334-7.516 23.563-3.623 26.092 3.5 0.994 2.798 0.327 5.276-1.739 6.934C70.023 100.123 62.391 92.664 60.956 84.178z" opacity="1" fill="url(#SvgjsRadialGradient1132)" data-fromskin="true" data-stroketype="none" data-filltype="gradient" data-colored="false"></path><path id="SvgjsPath1136" d="M60.956 84.178c11.334-7.516 23.563-3.623 26.092 3.5 0.994 2.798 0.327 5.276-1.739 6.934C70.023 100.123 62.391 92.664 60.956 84.178z" opacity="1" fill="url(#SvgjsRadialGradient1137)" data-stroketype="none" data-filltype="gradient" data-colored="false"></path><path id="SvgjsPath1140" d="M67.99 77.86c6.02-0.57 13.485-1.112 20.077 3.386C79.514 77.213 75.347 77.714 67.99 77.86z" opacity="1" stroke-width="none" fill="#c7633d" data-fromskin="true" data-stroketype="none" data-filltype="sd3" data-colored="true" stroke="none"></path><path id="SvgjsPath1141" d="M91.581 88.655c-1.807-2.671-3.564-4.351-6.535-6.319 1.776 0.43 3.052 0.963 5.007 1.944 -9.685-6.58-18.436-6.346-25.183-5.36l4.046 0.469 -2.973 0.675c-1.69 0.179-4.387-0.234-5.708-0.369l3.727 1.265c-1.922 0.919-4.02 0.629-6.643 0.475l2.031 1.622C57.485 83.25 55.904 82.72 54 82.067c2.144 3.765 4.103 5.901 7.695 7.897 1.612 2.208 2.915 3.317 5.439 4.805 -0.137 0.221-0.366 0.468-0.778 0.633 1.035-0.03 1.458-0.112 1.822 0 0.855 0.469 1.561 0.759 2.384 1.054 -0.377 0.269-0.646 0.381-1.173 0.474 1.02-0.094 1.959-0.311 2.554-0.158 2.582 0.303 4.583 0.346 7.408-0.211 1.183-0.263 2.188 0.03 3.111-0.053 -0.473-0.116-1.036-0.276-1.265-0.316l4.11-1.738C70.023 99.83 62.391 92.556 60.956 84.28c11.334-7.33 23.563-3.533 26.092 3.414 0.07-1.258-0.429-2.536-1.792-3.678C87.487 85.082 89.774 86.723 91.581 88.655z" fill="#747171" opacity="1" stroke-width="none" data-stroketype="none" data-filltype="tone" data-colored="true" stroke="none"></path></g></g><g id="svga-group-eyes-right" data-rotate="0" data-scaley="1" data-scalex="1" data-dist="0" data-leftright="0" data-updown="0"><g id="svga-group-eyesback-right"><path id="SvgjsPath1113" d="M139.044 84.178c-11.334-7.516-23.563-3.623-26.092 3.5 -0.994 2.798-0.327 5.276 1.739 6.934C129.977 100.123 137.609 92.664 139.044 84.178z" opacity="1" fill="url(#SvgjsRadialGradient1114)" data-stroketype="none" data-filltype="gradient" data-colored="false"></path></g><g id="svga-group-eyesiriswrapper-right" transform="translate(0.5 1.5)"><g id="svga-group-eyesiriscontrol-right" data-rotate="0" data-scaley="1" data-scalex="1" data-dist="0" data-leftright="0" data-updown="0"><g id="svga-group-eyesiris-right" data-rotate="0" data-scaley="1" data-scalex="1" data-dist="0" data-leftright="0" data-updown="0"><path id="SvgjsPath1100" d="M133.199 89.25c-1.231 4.522-5.896 7.187-10.429 5.944 -4.528-1.241-7.203-5.918-5.97-10.442 1.23-4.526 5.905-7.19 10.434-5.947C131.761 80.045 134.433 84.723 133.199 89.25z" fill="#9fae70" opacity="1" stroke="#6c802c" stroke-width="0.5" data-stroketype="sd3" data-filltype="tone" data-colored="true"></path><path id="SvgjsPath1101" d="M131.878 89.354c-1.202 3.473-4.827 5.499-8.357 4.531 -3.258-0.894-5.315-4.02-5.048-7.325 1.209-0.096 2.532-0.124 3.904-0.056 -0.014 0.047-0.039 0.087-0.051 0.136 -0.434 1.594 0.576 3.265 2.256 3.726 1.685 0.461 3.401-0.462 3.835-2.056 0.055-0.208 0.085-0.417 0.093-0.623C129.66 88.108 130.792 88.651 131.878 89.354z" opacity="1" stroke-width="none" fill="#b2bd8d" data-stroketype="none" data-filltype="hl1" data-colored="true"></path><path id="SvgjsPath1102" d="M126.151 84.464c-1.703-0.487-3.44 0.485-3.88 2.181 -0.44 1.687 0.584 3.454 2.286 3.942 1.705 0.489 3.443-0.484 3.884-2.173C128.884 86.719 127.855 84.953 126.151 84.464zM126.523 90.46c-0.708 0.22-1.441-0.072-1.636-0.655 -0.188-0.582 0.231-1.228 0.945-1.443 0.712-0.22 1.442 0.073 1.639 0.651C127.665 89.593 127.241 90.24 126.523 90.46z" opacity="0.9" stroke-width="none" fill="#000000" data-stroketype="none" data-filltype="#000000" data-colored="false"></path><path id="SvgjsPath1103" d="M120.482 91.476c-0.523 0.314-1.307 0.034-1.754-0.633 -0.448-0.66-0.381-1.451 0.145-1.767 0.521-0.311 1.311-0.03 1.755 0.632C121.07 90.37 121.006 91.162 120.482 91.476z" opacity="0.6" stroke-width="none" fill="#ffffff" data-stroketype="none" data-filltype="#ffffff" data-colored="false"></path><path id="SvgjsPath1104" d="M131.673 86.632c-1.198 0.718-2.999 0.072-4.02-1.445 -1.02-1.518-0.867-3.331 0.332-4.047 1.196-0.721 3-0.074 4.015 1.444C133.019 84.101 132.871 85.913 131.673 86.632z" opacity="0.9" stroke-width="none" fill="#ffffff" data-stroketype="none" data-filltype="#ffffff" data-colored="false"></path></g></g></g><g id="svga-group-eyesfront-right"><path id="SvgjsPath1151" d="M126 62.999c-9.94 0-18 11.193-18 25.001 0 13.808 8.06 24.999 18 24.999S144 101.808 144 88C144 74.191 135.94 62.999 126 62.999zM114.691 94.612c-2.066-1.658-2.733-4.135-1.739-6.934 2.528-7.123 14.758-11.016 26.092-3.5C137.609 92.664 129.977 100.123 114.691 94.612z" opacity="1" stroke-width="none" fill="#f5af95" data-fromskin="true" data-stroketype="none" data-filltype="tone" data-colored="true" stroke="none"></path><path id="SvgjsPath1152" d="M123.757 72.999c-9.942-0.043-18.018 6.635-18.043 14.92 -0.022 8.284 8.018 15.032 17.957 15.08 9.944 0.043 18.018-6.635 18.043-14.918C141.736 79.795 133.7 73.046 123.757 72.999zM114.691 94.612c-2.066-1.658-2.733-4.135-1.739-6.934 2.528-7.123 14.758-11.016 26.092-3.5C137.609 92.664 129.977 100.123 114.691 94.612z" opacity="1" fill="url(#SvgjsRadialGradient1153)" data-fromskin="true" data-stroketype="none" data-filltype="gradient" data-colored="false"></path><path id="SvgjsPath1157" d="M139.044 84.178c-11.334-7.516-23.563-3.623-26.092 3.5 -0.994 2.798-0.327 5.276 1.739 6.934C129.977 100.123 137.609 92.664 139.044 84.178z" opacity="1" fill="url(#SvgjsRadialGradient1158)" data-stroketype="none" data-filltype="gradient" data-colored="false"></path><path id="SvgjsPath1161" d="M111.933 81.247c6.592-4.498 14.058-3.956 20.077-3.386C124.653 77.714 120.486 77.213 111.933 81.247z" opacity="1" stroke-width="none" fill="#c7633d" data-fromskin="true" data-stroketype="none" data-filltype="sd3" data-colored="true" stroke="none"></path><path id="SvgjsPath1162" d="M108.419 88.655c1.807-2.671 3.564-4.351 6.535-6.319 -1.776 0.43-3.052 0.963-5.007 1.944 9.685-6.58 18.436-6.346 25.183-5.36l-4.046 0.469 2.973 0.675c1.69 0.179 4.387-0.234 5.708-0.369l-3.727 1.265c1.922 0.919 4.02 0.629 6.643 0.475l-2.031 1.622c1.865 0.194 3.446-0.335 5.351-0.989 -2.144 3.765-4.103 5.901-7.695 7.897 -1.612 2.208-2.915 3.317-5.439 4.805 0.137 0.221 0.366 0.468 0.778 0.633 -1.035-0.03-1.458-0.112-1.822 0 -0.855 0.469-1.561 0.759-2.384 1.054 0.377 0.269 0.646 0.381 1.173 0.474 -1.02-0.094-1.959-0.311-2.554-0.158 -2.582 0.303-4.583 0.346-7.408-0.211 -1.183-0.263-2.188 0.03-3.111-0.053 0.473-0.116 1.036-0.276 1.265-0.316l-4.11-1.738c15.285 5.374 22.918-1.899 24.353-10.175 -11.334-7.33-23.563-3.533-26.092 3.414 -0.07-1.258 0.429-2.536 1.792-3.678C112.513 85.082 110.226 86.723 108.419 88.655z" fill="#747171" opacity="1" stroke-width="none" data-stroketype="none" data-filltype="tone" data-colored="true" stroke="none"></path></g></g><g id="svga-group-facehighlight-single" data-rotate="0" data-scaley="1" data-scalex="1" data-dist="0" data-leftright="0" data-updown="0"><path id="SvgjsPath1049" d="M140.204 113.007c0.035 22.275-17.995 40.365-40.273 40.396 -22.274 0.036-40.361-17.993-40.396-40.272C59.501 90.857 77.53 72.77 99.808 72.735 122.083 72.701 140.171 90.73 140.204 113.007z" opacity="1" fill="url(#SvgjsRadialGradient1050)" data-fromskin="true" data-stroketype="none" data-filltype="gradient" data-colored="false"></path><path id="SvgjsPath1053" d="M135,55.999c0,19.329-15.671,35-35,35c-19.329,0-35-15.671-35-35s15.671-35,35-35C119.329,20.999,135,36.67,135,55.999z" opacity="1" fill="url(#SvgjsRadialGradient1054)" data-fromskin="true" data-stroketype="none" data-filltype="gradient" data-colored="false"></path></g><g id="svga-group-eyebrows-left" data-rotate="7.5000001" data-scaley="1" data-scalex="1" data-dist="0" data-leftright="0" data-updown="1.0000001000000005" transform="rotate(7.500000200000001 74.67199897766113 71.54949951171875) translate(0 1.0000000000000004)"><path id="SvgjsPath6116" d="M93.7 78.245c-9.176-3.435-12.813-6.732-20.729-9.713 -6.51-2.452-13.342-2.906-20.071-1.49 8.225 0.87 11.916 0.9 20.316 4.263C80.024 74.03 86.37 77.873 93.7 78.245z" data-colored="true" data-filltype="#000000" data-stroketype="none" fill="#a68469" stroke-width="none" opacity="1"></path></g><g id="svga-group-eyebrows-right" data-rotate="-7.4999999" data-scaley="1" data-scalex="1" data-dist="0" data-leftright="0" data-updown="1.0000001000000005" transform="rotate(-7.5 125.13199996948242 71.5719985961914) translate(0 1.0000000000000004)"><path id="SvgjsPath6117" d="M106.5 78.545c9.176-3.62 13.013-7.447 20.929-10.589 6.51-2.584 13.342-3.063 20.071-1.57 -8.225 0.917-11.916 0.948-20.316 4.493C120.376 73.751 113.83 78.153 106.5 78.545z" data-colored="true" data-filltype="#000000" data-stroketype="none" fill="#a68469" stroke-width="none" opacity="1"></path></g><g id="svga-group-nose-single" data-rotate="0" data-scaley="1" data-scalex="1" data-dist="0" data-leftright="0" data-updown="0"><path id="SvgjsPath1168" d="M97.363 92.602c0 0 0.055 7.962-0.458 9.512 -1.129 3.405-6.123 11.297-5.49 13.486 0.985 3.403 5.817 3.652 8.259 3.771 2.338 0.115 7.091-0.055 7.857-2.267 0.312-0.9-0.361-3.197-0.361-3.197s-2.165 2.228-7.266 1.98c-1.456-0.07-3.824-1.5-3.851-3.517 -0.036-2.734 1.805-5.87 2.135-8.583C98.438 101.726 97.363 92.602 97.363 92.602z" opacity="1" stroke-width="none" fill="#e69375" data-fromskin="true" data-stroketype="none" data-filltype="sd1" data-colored="true" stroke="none"></path><path id="SvgjsPath1169" d="M104.209 117.032c0.881 0 1.119 0.234 1.119 0.522 0 0.29-0.274 0.735-1.119 0.522 -0.928-0.231-2.548-0.124-2.548-0.124S103.328 117.032 104.209 117.032zM95.8 117.032c-0.881 0.001-1.119 0.236-1.119 0.525 0 0.288 0.265 0.704 1.119 0.521 0.941-0.201 2.548-0.125 2.548-0.125S96.682 117.035 95.8 117.032zM107.169 113.906c0 0 1.22 1.384 0.966 2.847 -0.246 1.421-2.709 2.047-2.709 2.047s1.71-1.085 1.917-2.403C107.439 115.781 107.169 113.906 107.169 113.906zM92.12 112.482c0 0-0.89 1.938-0.632 3.117 0.467 2.13 3.032 2.982 3.032 2.982s-1.601-1.462-2.17-2.753C91.729 114.42 92.12 112.482 92.12 112.482z" opacity="1" stroke-width="none" fill="#c7633d" data-fromskin="true" data-stroketype="none" data-filltype="sd3" data-colored="true" stroke="none"></path><path id="SvgjsPath1170" d="M104.166 114.937c0.854-0.637 0.939-1 0.763-1.237 -0.176-0.238-0.688-0.389-1.403 0.379 -0.788 0.846-2.502 1.47-2.502 1.47S103.312 115.574 104.166 114.937z" opacity="1" stroke-width="none" fill="#ffc9b5" data-fromskin="true" data-stroketype="none" data-filltype="hl1" data-colored="true" stroke="none"></path></g><g id="svga-group-beardwrap" data-rotate="0" data-scaley="1" data-scalex="1" data-dist="0" data-leftright="0" data-updown="0"><g id="svga-group-beard-single" data-rotate="0" data-scaley="1" data-scalex="1" data-dist="0" data-leftright="0" data-updown="0"></g></g><g id="svga-group-mustache-single" data-rotate="0" data-scaley="1" data-scalex="1" data-dist="0" data-leftright="0" data-updown="0"></g><g id="svga-group-hair-front" data-rotate="0" data-scaley="1" data-scalex="1" data-dist="0" data-leftright="0" data-updown="-2.0000002" transform="matrix(0.9577952700000012 0 0 1.037395270000003 4.450911028657686 -1.3695269748913503) translate(0 -2.0000001000000003)"><path id="SvgjsPath2706" d="M80.709 34.557c4.12-3.041 9.715-3.693 16.558-2.323 5.292-3.294 15.869-3.224 21.709 0.397l3.457-11.98 -52.341 4.046L80.709 34.557z" data-colored="true" data-filltype="sd2" data-stroketype="none" fill="#cba3a3" stroke-width="none" opacity="1"></path><path id="SvgjsPath2707" d="M37.21 85.336C30.116 58.218 25.398 27.461 56.669 4.26c8.853-6.426 19.862-7.773 27.538-7.773 7.993 0 14.477 1.499 16.341 2.514l0.208 0.113 0.226-0.074c3.118-0.994 6.957-1.523 11.105-1.523 12.853 0 30.869 5.057 42.893 19.25 9.14 10.794 17.774 30.855 7.105 65.169h-0.021c0 0-0.148 0.557-0.178 0.658 -3.457-1.473-6.839-2.475-10.114-3.446 -9.063-2.684-16.885-5.001-21.658-16.18 -0.145-0.351-0.324-1.477-0.555-2.901 -1.291-7.984-4.308-26.68-17.779-32.709 -1.935-0.786-3.569-1.147-5.168-1.147 -3.145 0-6.156 1.448-9.458 4.553 -2.634-1.141-4.917-1.696-6.969-1.696 -6.327 0-11.363 5.228-17.386 18.047 -1.894 3.907-3.031 7.417-4.033 10.513 -2.585 7.979-4.453 13.746-16.391 20.029 -2.946 1.61-6.195 3.212-9.339 4.763C40.965 83.44 38.999 84.41 37.21 85.336z" data-colored="true" data-filltype="tone" data-stroketype="none" fill="#eaeaea" stroke-width="none" opacity="1"></path><path id="SvgjsPath2708" d="M105.614 18.714c28.229-5.106 32.704 52.078 48.686 56.757 -5.396-12.071-9.353-23.835-10.437-39.693 5.436 18.565 9.51 26.904 15.007 32.183 1.502-24.864-0.523-39.573-10.287-57.487 -11.435-9.425-25.767-12.957-36.496-12.957 -4.148 0-7.987 0.529-11.105 1.523l-0.226 0.074L100.548-1c-1.864-1.016-8.348-2.514-16.341-2.514 -6.564 0-15.56 0.996-23.566 5.299C44.492 23.09 37.96 48.715 42.436 74.345c4.621-11.663 6.659-23.953 13.344-38.567 -4.635 14.005-4.171 23.974-8.25 35.83 18.181-11.603 12.193-26.447 24.42-41.95 5.769-7.744 24.145-8.777 25.393 0.941 0.185-0.172 0.368-0.331 0.552-0.493C98.856 25.257 100.164 19.701 105.614 18.714z" data-colored="true" data-filltype="sd1" data-stroketype="none" fill="#dbc5c5" stroke-width="none" opacity="1"></path><path id="SvgjsPath2709" d="M57.586 48.567c2.488-7.87 2.448-9.899 3.634-14.406C68.14 7.454 91.744 13.425 95.94 19.491c0.239 0.326 0.37 0.502 0.37 0.502s-0.153-0.164-0.432-0.462c-3.573-4.105-21.731-9.218-30.48 8.441C61.823 35.41 61.965 39.194 57.586 48.567zM67.335 10.732c1.352-1.039 2.308-1.662 2.308-1.662 9.619-6.638 18.8-7.501 28.365-4.885C96.314 3.531 93.51 2.37 89.562 1.91 54.374-0.636 48.087 38.732 45.361 47.047 50.857 35.582 53.241 21.804 67.335 10.732zM128.416 21.714c-8.457-10.152-18.242-13.946-30.749-8.106 28.427-9.983 38.845 27.518 44.156 36.784C138.385 41.934 138.155 33.32 128.416 21.714zM95.291 12.393c11.223-9.433 43.926-13.407 59.469 34.102 0.619 1.863 0.991 2.984 0.991 2.984C145.496-6.657 105.58 1.864 95.291 12.393z" data-colored="true" data-filltype="sd2" data-stroketype="none" fill="#cba3a3" stroke-width="none" opacity="1"></path><path id="SvgjsPath2710" d="M148.279 73.767c-8.26-3.9-13.81-8.055-16.069-17.367 -2.688-11.38-8.134-37.877-29.107-32.761 19.153-6.747 27.954 14.231 31.313 32.346C136.066 64.264 140.184 68.684 148.279 73.767zM72.228 42.1c0.617-1.427 1.069-2.362 1.069-2.362 5.09-10.386 9.833-15.72 20.634-12.144 -10.938-4.992-17.75 1.245-22.704 11.35 -11.184 23.131-1.875 18.542-22.472 36.376C68.963 61.573 63.204 62.519 72.228 42.1zM160.167 34.585c2.018 13.188 2.591 19.962-0.066 40.124C164.908 55.843 163.698 47.01 160.167 34.585zM38.838 48.115c0.58-8.917 2.583-20.242 8.558-27.817 -14.095 14.207-11.714 45.655-7.811 57.147C38.436 71.414 38.339 54.667 38.838 48.115z" data-colored="true" data-filltype="hl1" data-stroketype="none" fill="#f9f9f9" stroke-width="none" opacity="1"></path><path id="SvgjsPath2711" d="M100.813-1.388c-4.242-2.307-28.469-6.317-44.469 5.297C25.671 26.666 29.109 56.563 36.87 86.039c4.602-2.415 10.669-5.203 15.765-7.989 16.905-8.898 13.998-17.051 20.636-30.759 8.125-17.298 14.163-19.455 23.996-15.057 5.525-5.315 9.678-6.338 14.285-4.468 15.916 7.123 17.097 32.984 18.091 35.366 6.675 15.644 19.279 14.258 32.586 20.117 0.081-0.283 0.162-0.565 0.235-0.856h0.009C185.522 8.91 123.951-8.793 100.813-1.388zM164.491 59.637c-0.694 9.357-2.821 21.306-2.965 22.217 -11.304-6.112-22.484-4.722-29.412-20.063 -0.037-0.099-0.007 0.036-0.037-0.182 -4.062-30.844-22.014-44.849-34.902-30.933 -8.594-4.358-14.148-2.036-19.747 4.896C63.429 52.96 70.694 64.903 51.31 76.41c-4.381 2.677-10.079 5.823-13.695 8.081C32.947 61.476 25.994 26.095 62.417 3.194c19.817-10.18 35.362-4.166 37.066-4.166 4.143 1.02 5.63 1.567 9.75 3.413 -3.416-1.949-5.337-2.747-6.782-3.256C131.262-4.742 169.093 13.586 164.491 59.637z" data-colored="true" data-filltype="sd3" data-stroketype="none" fill="#bc8484" stroke-width="none" opacity="1"></path></g><g id="svga-group-glasses-single" data-rotate="0" data-scaley="1" data-scalex="1" data-dist="0" data-leftright="0" data-updown="0"><path id="SvgjsPath4727" d="M107.18 85.7c0.25 0.34 0.26 0.68 0.32 1.27 0.06 0.58 0.08 1.01 0.08 1.01s0.11 1.46 0.24 2.33c0.13 0.88 0 1.63-1.2 1.63 -1.48 0-1.56-3.82-1.69-4.67C104.62 85.27 105.99 84.07 107.18 85.7zM92.82 85.7c-0.25 0.34-0.26 0.68-0.32 1.27 -0.06 0.58-0.08 1.01-0.08 1.01s-0.11 1.46-0.24 2.33c-0.13 0.88 0 1.63 1.2 1.63 1.48 0 1.56-3.82 1.69-4.67C95.38 85.27 94.01 84.07 92.82 85.7z" opacity="0.5" stroke-width="none" fill="#000000" data-stroketype="none" data-filltype="tone" data-colored="true"></path><path id="SvgjsPath4728" d="M148.51 85.14c-0.54 5.69-4.31 13.57-21.04 13.58h-0.04c-7.37 0-13.2-1.97-16.85-5.71 -2.77-2.83-4.15-6.52-4.15-10.94C116.3 76.92 140.48 77.34 148.51 85.14zM51.42 83.67c0.04 5.68 2.88 15.03 21.11 15.05h0.04c7.37 0 13.2-1.97 16.85-5.71 2.5-2.56 3.88-5.81 4.12-9.68C82.89 76.69 58.36 77.42 51.42 83.67z" opacity="0.2" stroke-width="none" fill="#ffffff" data-stroketype="none" data-filltype="#ffffff" data-colored="false"></path><path id="SvgjsPath4729" d="M148.59 83.53c0 0.51-0.02 1.05-0.08 1.6 -8.03-7.8-32.21-8.22-42.07-3.07 0-0.16-0.01-0.31-0.01-0.47 0-0.09 1.62-9.54 19.19-9.54C142.35 72.05 148.59 79.09 148.59 83.53zM74.38 72.05c-16.73 0-22.97 7.04-22.97 11.48 0 0.04 0 0.09 0 0.13 6.95-6.25 31.48-6.98 42.12-0.34 0.04-0.57 0.05-1.14 0.03-1.73C93.57 81.5 91.95 72.05 74.38 72.05z" opacity="0.4" stroke-width="none" fill="#ffffff" data-stroketype="none" data-filltype="#ffffff" data-colored="false"></path><path id="SvgjsPath4730" d="M125.62 71.84c-15.58 0-18.72 7.28-19.28 9.27 -0.84-0.18-1.19-0.23-1.73-0.74 -2.59-2.44-6.69-2.37-9.21 0 -0.54 0.51-0.9 0.56-1.73 0.74 -0.56-1.99-3.7-9.27-19.28-9.27 -16.89 0-23.18 7.17-23.18 11.69 0 5.75 2.77 15.4 21.33 15.4 18.84 0 21.17-11.69 21.25-17.04 1.38-0.29 1.78-0.33 2.51-1.01 2.23-2.09 5.19-2.11 7.42 0 0.74 0.69 1.14 0.72 2.51 1.01 0.08 5.35 2.41 17.04 21.25 17.04 18.55 0 21.33-9.65 21.33-15.4C148.8 79.01 142.51 71.84 125.62 71.84zM72.53 98.22c-17.93-0.02-20.61-9.2-20.61-14.69 0-4.24 6.1-10.98 22.47-10.98 17 0 18.69 8.96 18.69 9.06C93.31 92.22 85.3 98.23 72.53 98.22zM127.47 98.22c-12.77 0.01-20.79-6-20.54-16.61 0-0.09 1.69-9.06 18.69-9.06 16.37 0 22.47 6.74 22.47 10.98C148.09 89.02 145.41 98.2 127.47 98.22z" opacity="1" stroke-width="none" fill="#000000" data-stroketype="none" data-filltype="tone" data-colored="true"></path></g></g></g><g id="svga-group-bubble-single" data-rotate="0" data-scaley="1" data-scalex="1" data-dist="0" data-leftright="0" data-updown="0"></g></g><defs id="defs_node"><radialGradient id="SvgjsRadialGradient1050" class="svga-on-canvas-facehighlight-gradient-single-0" gradientUnits="userSpaceOnUse" r="40" cy="113" cx="100"><stop id="SvgjsStop1051" offset="0" data-stoptype="hl1" stop-color="#ffc9b5" stop-opacity="0.5"></stop><stop id="SvgjsStop1052" offset="0.9" data-stoptype="tone" stop-color="#f5af95" stop-opacity="0"></stop></radialGradient><radialGradient id="SvgjsRadialGradient1054" class="svga-on-canvas-facehighlight-gradient-single-1" gradientUnits="userSpaceOnUse" r="36" cy="57" cx="100"><stop id="SvgjsStop1055" offset="0" data-stoptype="hl1" stop-color="#ffc9b5" stop-opacity="0.5"></stop><stop id="SvgjsStop1056" offset="0.9" data-stoptype="tone" stop-color="#f5af95" stop-opacity="0"></stop></radialGradient><radialGradient id="SvgjsRadialGradient1106" class="svga-on-canvas-eyesback-gradient-left-0" gradientUnits="userSpaceOnUse" gradientTransform="matrix(-1.0357 0 0 1.0357 204.6606 -3.2718)" r="14.058" cy="88.669" cx="126.672"><stop id="SvgjsStop1107" offset="0" data-stoptype="#ffffff" stop-color="#ffffff" stop-opacity="1"></stop><stop id="SvgjsStop1108" offset="0.544" data-stoptype="#fdfefe" stop-color="#fdfefe" stop-opacity="1"></stop><stop id="SvgjsStop1109" offset="0.74" data-stoptype="#f6f8f9" stop-color="#f6f8f9" stop-opacity="1"></stop><stop id="SvgjsStop1110" offset="0.879" data-stoptype="#eaeff2" stop-color="#eaeff2" stop-opacity="1"></stop><stop id="SvgjsStop1111" offset="0.992" data-stoptype="#d9e3e8" stop-color="#d9e3e8" stop-opacity="1"></stop><stop id="SvgjsStop1112" offset="1" data-stoptype="#d8e2e7" stop-color="#d8e2e7" stop-opacity="1"></stop></radialGradient><radialGradient id="SvgjsRadialGradient1114" class="svga-on-canvas-eyesback-gradient-right-0" gradientUnits="userSpaceOnUse" gradientTransform="matrix(1.0357 0 0 1.0357 -4.6606 -3.2718)" r="14.058" cy="88.669" cx="126.672"><stop id="SvgjsStop1115" offset="0" data-stoptype="#ffffff" stop-color="#ffffff" stop-opacity="1"></stop><stop id="SvgjsStop1116" offset="0.544" data-stoptype="#fdfefe" stop-color="#fdfefe" stop-opacity="1"></stop><stop id="SvgjsStop1117" offset="0.74" data-stoptype="#f6f8f9" stop-color="#f6f8f9" stop-opacity="1"></stop><stop id="SvgjsStop1118" offset="0.879" data-stoptype="#eaeff2" stop-color="#eaeff2" stop-opacity="1"></stop><stop id="SvgjsStop1119" offset="0.992" data-stoptype="#d9e3e8" stop-color="#d9e3e8" stop-opacity="1"></stop><stop id="SvgjsStop1120" offset="1" data-stoptype="#d8e2e7" stop-color="#d8e2e7" stop-opacity="1"></stop></radialGradient><radialGradient id="SvgjsRadialGradient1122" class="svga-on-canvas-eyesfront-gradient-left-0" gradientUnits="userSpaceOnUse" gradientTransform="matrix(-1.0357 0 0 1.0357 204.6606 -3.2718)" r="14.058" cy="88.669" cx="126.672"><stop id="SvgjsStop1123" offset="0" data-stoptype="#ffffff" stop-color="#ffffff" stop-opacity="1"></stop><stop id="SvgjsStop1124" offset="0.544" data-stoptype="#fdfefe" stop-color="#fdfefe" stop-opacity="1"></stop><stop id="SvgjsStop1125" offset="0.74" data-stoptype="#f6f8f9" stop-color="#f6f8f9" stop-opacity="1"></stop><stop id="SvgjsStop1126" offset="0.879" data-stoptype="#eaeff2" stop-color="#eaeff2" stop-opacity="1"></stop><stop id="SvgjsStop1127" offset="0.992" data-stoptype="#d9e3e8" stop-color="#d9e3e8" stop-opacity="1"></stop><stop id="SvgjsStop1128" offset="1" data-stoptype="#d8e2e7" stop-color="#d8e2e7" stop-opacity="1"></stop></radialGradient><radialGradient id="SvgjsRadialGradient1132" class="svga-on-canvas-eyesfront-gradient-left-3" gradientUnits="userSpaceOnUse" gradientTransform="matrix(0.9998 0.0208 0.0166 -0.7998 -48.6744 154.7508)" r="18.203" fy="87.446" fx="136.422" cy="87.41" cx="123.623"><stop id="SvgjsStop1133" offset="0" data-stoptype="sd1" stop-color="#e69375" stop-opacity="1"></stop><stop id="SvgjsStop1134" offset="0.7" data-stoptype="sd1" stop-color="#e69375" stop-opacity="0.3"></stop><stop id="SvgjsStop1135" offset="1" data-stoptype="tone" stop-color="#f5af95" stop-opacity="0"></stop></radialGradient><radialGradient id="SvgjsRadialGradient1137" class="svga-on-canvas-eyesfront-gradient-left-4" gradientUnits="userSpaceOnUse" gradientTransform="matrix(0.9878 -0.0515 0.0518 0.9833 -2.5169 7.7255)" r="22.89" cy="102.21" cx="72.134"><stop id="SvgjsStop1138" offset="0.95" data-stoptype="#000000" stop-color="#000000" stop-opacity="0"></stop><stop id="SvgjsStop1139" offset="1" data-stoptype="#000000" stop-color="#000000" stop-opacity="0.3"></stop></radialGradient><radialGradient id="SvgjsRadialGradient1143" class="svga-on-canvas-eyesfront-gradient-right-0" gradientUnits="userSpaceOnUse" gradientTransform="matrix(1.0357 0 0 1.0357 -4.6606 -3.2718)" r="14.058" cy="88.669" cx="126.672"><stop id="SvgjsStop1144" offset="0" data-stoptype="#ffffff" stop-color="#ffffff" stop-opacity="1"></stop><stop id="SvgjsStop1145" offset="0.544" data-stoptype="#fdfefe" stop-color="#fdfefe" stop-opacity="1"></stop><stop id="SvgjsStop1146" offset="0.74" data-stoptype="#f6f8f9" stop-color="#f6f8f9" stop-opacity="1"></stop><stop id="SvgjsStop1147" offset="0.879" data-stoptype="#eaeff2" stop-color="#eaeff2" stop-opacity="1"></stop><stop id="SvgjsStop1148" offset="0.992" data-stoptype="#d9e3e8" stop-color="#d9e3e8" stop-opacity="1"></stop><stop id="SvgjsStop1149" offset="1" data-stoptype="#d8e2e7" stop-color="#d8e2e7" stop-opacity="1"></stop></radialGradient><radialGradient id="SvgjsRadialGradient1153" class="svga-on-canvas-eyesfront-gradient-right-3" gradientUnits="userSpaceOnUse" gradientTransform="matrix(-0.9998 0.0208 -0.0166 -0.7998 248.6744 154.7508)" r="18.203" fy="87.446" fx="136.422" cy="87.41" cx="123.623"><stop id="SvgjsStop1154" offset="0" data-stoptype="sd1" stop-color="#e69375" stop-opacity="1"></stop><stop id="SvgjsStop1155" offset="0.7" data-stoptype="sd1" stop-color="#e69375" stop-opacity="0.3"></stop><stop id="SvgjsStop1156" offset="1" data-stoptype="tone" stop-color="#f5af95" stop-opacity="0"></stop></radialGradient><radialGradient id="SvgjsRadialGradient1158" class="svga-on-canvas-eyesfront-gradient-right-4" gradientUnits="userSpaceOnUse" gradientTransform="matrix(-0.9878 -0.0515 -0.0518 0.9833 202.5169 7.7255)" r="22.89" cy="102.21" cx="72.134"><stop id="SvgjsStop1159" offset="0.95" data-stoptype="#000000" stop-color="#000000" stop-opacity="0"></stop><stop id="SvgjsStop1160" offset="1" data-stoptype="#000000" stop-color="#000000" stop-opacity="0.3"></stop></radialGradient><linearGradient id="SvgjsLinearGradient1164" class="svga-on-canvas-mouth-gradient-single-0" gradientUnits="userSpaceOnUse" y2="137" x2="100" y1="141" x1="100"><stop id="SvgjsStop1165" offset="0.1" data-stoptype="sd05" stop-color="#eda184" stop-opacity="1"></stop><stop id="SvgjsStop1166" offset="1" data-stoptype="sd1" stop-color="#e69375" stop-opacity="1"></stop></linearGradient><linearGradient id="SvgjsLinearGradient6046" x1="100" y1="171" x2="100" y2="130" gradientUnits="userSpaceOnUse" class="svga-on-canvas-chinshadow-gradient-single-0"><stop id="SvgjsStop6047" stop-opacity="0.8" stop-color="#e69375" offset="0" data-stoptype="sd1"></stop><stop id="SvgjsStop6048" stop-opacity="1" stop-color="#c7633d" offset="0.7" data-stoptype="sd3"></stop></linearGradient></defs></svg>