<svg id="svga-svgcanvas" style="overflow: hidden; position: relative; left: -0.265625px; top: 0px; -webkit-user-select: none; -webkit-user-drag: none; -webkit-tap-highlight-color: rgba(0, 0, 0, 0); touch-action: none;" height="250" width="250" preserveAspectRatio="xMinYMin meet" viewBox="0 0 200 200" class="svga-svg" xlink="http://www.w3.org/1999/xlink" version="1.1" xmlns="http://www.w3.org/2000/svg"><g id="SvgjsDefs1001"><g id="svga-group-backs-single"><path id="SvgjsPath5120" d="M225 225H-25V-25h250V225z" data-colored="true" data-filltype="tone" data-stroketype="none" fill="#c4c7f3" stroke-width="none" opacity="1" stroke="none"></path><path id="SvgjsPath5121" d="M103-37.266L99.131 71.999 96.536-37.598 103-37.266zM73.203-36.265L91.025 71.904 79.65-36.835 73.203-36.265zM66.869-16.598l24.577 89.921L68.869-17.931 66.869-16.598zM26.203-29.931L87.817 74.773 32.243-32.257 26.203-29.931zM23.545-16.454l60.278 91.568L25.536-20.265 23.545-16.454zM-11.865-28.757l57.2 61.532L-6.7-32.658 -11.865-28.757zM-15.464-0.265l94.073 82.174 -89.74-88.174L-15.464-0.265zM-30.131 2.069l85.667 64.667 -85.11-67.506L-30.131 2.069zM-25.19 42.794l99.642 45.712 -96.509-51.375L-25.19 42.794zM-44.131 43.402L56.536 85.069 -44.797 39.735 -44.131 43.402zM-54.775 75.518L53.607 91.994l-109.599-19.45L-54.775 75.518zM-44.102 97.566l109.62 1.232 -109.063-7.68L-44.102 97.566zM-58.131 52.069l89 27.333 -89.667-31L-58.131 52.069zM79.65 236.833l11.375-108.739L73.203 236.263 79.65 236.833zM68.869 217.929l22.577-91.254 -24.577 89.921L68.869 217.929zM30.826 240.293l47.61-91.392 -53.65 89.065L30.826 240.293zM25.536 220.263l58.287-95.379 -60.278 91.568L25.536 220.263zM-11.212 239.563l67.27-86.188 -72.435 82.287L-11.212 239.563zM-11.131 206.263l89.74-88.174 -94.073 82.174L-11.131 206.263zM-29.574 200.769l85.11-67.506 -85.667 64.666L-29.574 200.769zM-22.058 162.867l96.509-51.376 -99.642 45.713L-22.058 162.867zM-44.797 160.263l101.333-45.334 -100.667 41.667L-44.797 160.263zM-55.992 127.454l109.599-19.449L-54.775 124.48 -55.992 127.454zM-58.797 151.597l89.667-31.001 -89 27.333L-58.797 151.597zM120.438-43.631L106.913 64.863l14.599-89.479L120.438-43.631zM141.813-31.87L113.32 73.685l34.767-103.968L141.813-31.87zM149.456-11.494L112.68 75.019 151.219-9.86 149.456-11.494zM187.892-19.824l-71.859 96.851 77.454-93.596L187.892-19.824zM192.61-6.919l-72.688 84.917 74.049-80.838L192.61-6.919zM226.479-19.459l-61.838 61.764 66.318-57.093L226.479-19.459zM226.59 12.723L123.991 85.534l105.924-66.199L226.59 12.723zM243.926 21.075l-94.745 53.14 94.846-50.248L243.926 21.075zM230.489 57.303L127.048 92.708l105.635-29.315L230.489 57.303zM252.527 63.484L145.283 92.157l106.004-25.158L252.527 63.484zM255.805 96.376l-109.623-0.937 112.19 2.214L255.805 96.376zM239.29 109.779l-108.899-9.73 108.426 16.185L239.29 109.779zM241.298 126.083l-67.52-9.087 66.28 12.603L241.298 126.083zM104.827 238.789l-0.426-109.627 -6.031 109.166L104.827 238.789zM114.202 220.376l-9.991-92.682 7.806 93.681L114.202 220.376zM162.61 237.612l-54.587-110.773 48.254 112.112L162.61 237.612zM167.971 224.657l-55.949-97.521L165.4 228.103 167.971 224.657zM198.084 217.32l-79.836-96.065 74.605 101.301L198.084 217.32zM212.936 217.344l-74.315-77.444 73.314 80.159L212.936 217.344zM214.521 176.351l-91.122-60.95 87.131 66.045L214.521 176.351zM233.319 178.757l-92.776-57.118 92.852 60.845L233.319 178.757zM248.926 148.738l-104.393-33.471 105.123 36.601L248.926 148.738zM248.518 172.422l-83.533-41.113 83.608 44.841L248.518 172.422z" data-colored="true" data-filltype="sd1" data-stroketype="none" fill="#a1a5e4" stroke-width="none" opacity="1" stroke="none"></path></g><g id="svga-group-subwrapper" data-rotate="0" data-scaley="1.2193964800000017" data-scalex="1.2193964800000017" data-dist="0" data-leftright="0" data-updown="0" transform="matrix(1.1360954900000024 0 0 1.1360954900000024 -13.020557600750408 -13.983733593245447) translate(-0.8000000000000003 -12.599999999999994)" data-scaleX="1.1371954900000025" data-scaleY="1.1371954900000025"><g id="svga-group-hair-back" data-rotate="1e-7" data-scaley="1.0208992300000002" data-scalex="1.1402992300000003" data-dist="0" data-leftright="0" data-updown="0" transform="matrix(1.1391992300000002 0 0 1.01979923 0 0) rotate(1e-7 0 0)"></g><g id="svga-group-humanbody-single" data-rotate="0" data-scaley="0.9812981300000002" data-scalex="0.6429981299999997" data-dist="0" data-leftright="0" data-updown="0" transform="matrix(0.6429982399999997 0 0 0.9812982400000002 35.700174808378094 3.336188263498485)"><path id="SvgjsPath1051" d="M195.417 199.778c-2.196-4.746-8.195-11.779-14.86-13.722 -8.239-2.403-26.837-5.308-33.733-6.923 -5.528-1.296-16.662-11.294-20.564-14.65 -0.7-0.6-1.273-1.839-1.287-2.76 -0.139-10.864 4.195-39.724 4.195-39.724H100 70.833c0 0 4.334 28.859 4.193 39.724 -0.011 0.921-0.587 2.16-1.285 2.76 -3.902 3.356-15.036 13.354-20.564 14.65 -6.897 1.615-25.495 4.619-33.733 7.022 -6.667 1.942-12.664 8.876-14.86 13.622 -3.708 8.008-4.584 22.5-4.584 35h100 100C200 222.278 199.123 207.786 195.417 199.778z" opacity="1" stroke-width="none" fill="#5cb872" data-fromskin="true" data-stroketype="none" data-filltype="tone" data-colored="true" stroke="none"></path><path id="SvgjsPath1052" d="M159.156 184.058c24.342 3.542 34.586 8.708 37.794 50.721H200c0-12.5-0.877-26.992-4.583-35 -2.196-4.746-8.195-11.779-14.86-13.722 -8.239-2.403-26.837-5.308-33.733-6.923 -5.528-1.296-18.242-12.069-21.643-16.35 3.36 4.704 12.791 15.605 21.054 18.46C150.188 182.61 153.48 183.232 159.156 184.058zM53.766 181.244c8.263-2.854 17.693-13.756 21.054-18.46 -3.4 4.28-16.114 15.054-21.643 16.35 -6.896 1.615-25.494 4.619-33.733 7.022 -6.665 1.942-12.664 8.876-14.86 13.622 -3.706 8.008-4.583 22.5-4.583 35h3.05c3.188-41.744 13.475-47.183 37.794-50.721C46.52 183.232 49.813 182.61 53.766 181.244z" opacity="1" stroke-width="none" fill="#78c78b" data-fromskin="true" data-stroketype="none" data-filltype="hl1" data-colored="true" stroke="none"></path><path id="SvgjsPath1053" d="M95.646 197.62c0 0-5.074-1.609-7.083-2.379 -10.449-4.009-44.395-6.607-44.395-6.607s35.754 1.419 43.644 2.779c-0.458-4.767-3.017-20.004-3.017-20.004s5.149 16.815 6.409 21.057C91.878 194.734 95.646 197.62 95.646 197.62zM106.445 196.278c-0.089 0.073-0.191 0.168-0.302 0.268C106.256 196.461 106.358 196.372 106.445 196.278zM95.646 197.62c0 0 2.893 2.992 4.347 3.03 1.91 0.051 4.828-2.899 6.151-4.104 -1.265 0.957-4.159 1.391-5.31 1.436C99.504 198.033 95.646 197.62 95.646 197.62zM116.664 190.101c-1.545 0.248-4.386 0.789-4.386 0.789l2.287-14.89c-0.646 3.071-4.474 16.211-8.12 20.278 1.91-1.616 6.158-2.391 8.324-2.704 10.236-1.484 10.232-1.483 41.062-4.94C155.831 188.634 126.76 188.479 116.664 190.101z" opacity="1" stroke-width="none" fill="#43a95c" data-fromskin="true" data-stroketype="none" data-filltype="sd1" data-colored="true" stroke="none"></path><path id="SvgjsPath1054" d="M195.417 199.778c-2.196-4.746-8.195-11.779-14.86-13.722 -8.239-2.403-26.837-5.308-33.733-6.923 -5.528-1.296-16.662-11.294-20.564-14.65 -0.7-0.6-1.273-1.839-1.287-2.76 -0.139-10.864 4.195-39.724 4.195-39.724H100 70.833c0 0 4.334 28.859 4.193 39.724 -0.011 0.921-0.587 2.16-1.285 2.76 -3.902 3.356-15.036 13.354-20.564 14.65 -6.897 1.615-25.495 4.619-33.733 7.022 -6.667 1.942-12.664 8.876-14.86 13.622 -3.708 8.008-4.584 22.5-4.584 35h100 100C200 222.278 199.123 207.786 195.417 199.778z" opacity="1" stroke="#1c8a36" stroke-width="1.5" fill="none" data-fromskin="true" data-stroketype="sd3" data-filltype="none" data-colored="true"></path></g><g id="svga-group-chinshadow-single" data-rotate="0" data-scaley="0.9812981300000002" data-scalex="0.6429981299999997" data-dist="0" data-leftright="0" data-updown="0" transform="matrix(0.6429982399999997 0 0 0.9812982400000002 35.70017600000003 2.7549188369677324)"><path id="SvgjsPath1657" d="M75.517 163.052c6.979 4.54 16.307 8.814 24.485 8.814 7.828 0 17.345-4.309 24.458-8.869 -0.145-0.428-0.233-0.862-0.239-1.264 -0.126-9.877 3.345-34.021 4.076-38.983H71.703c0.73 4.963 4.202 29.106 4.074 38.982C75.772 162.146 75.676 162.603 75.517 163.052z" opacity="1" fill="url(#SvgjsLinearGradient1658)" data-fromskin="true" data-stroketype="none" data-filltype="gradient" data-colored="false"></path></g><g id="svga-group-clothes-single" data-rotate="0" data-scaley="0.9812981300000002" data-scalex="0.6429981299999997" data-dist="0" data-leftright="0" data-updown="0" transform="matrix(0.6429982399999997 0 0 0.9812982400000002 35.88634854200457 3.6393998504369733)"><path id="SvgjsPath14344" d="M128.857 237.978H70.72v-56.183c22.25 4.699 36.88 4.337 58.138 0V237.978z" opacity="1" stroke-width="none" fill="#f3f1f3" data-stroketype="none" data-filltype="#f3f1f3" data-colored="false"></path><path id="SvgjsPath14345" d="M107.44 237.709c-2.775 0-10.727 0.208-16.512-0.23l-0.01-0.171c-0.818-18.658 1.129-30.719 4.537-39.288l0.048-0.123 -0.093-0.093c-0.905-0.904-2.425-1.935-4.034-3.025 -1.611-1.093-3.275-2.221-4.336-3.246 0.625-0.732 1.395-1.454 2.348-2.201 0.245-0.125 1.162-0.843 5.974-4.971 0.214-0.184 0.345-0.296 0.362-0.31 0.818-0.178 2.138-0.293 3.738-0.293 2.183 0 4.731 0.221 6.512 0.563 1.561 1.458 3.451 5.329 4.158 7.17 -0.976 2.291-2.128 3.129-3.717 4.284 -0.774 0.563-1.652 1.201-2.652 2.112l-0.083 0.075 0.021 0.111c4.026 20.31 4.027 25.054 4.027 29.642 0.001 2.021 0.001 6.609 0.339 9.985C107.917 237.707 107.704 237.709 107.44 237.709z" opacity="1" stroke-width="none" fill="#131111" data-stroketype="none" data-filltype="#131111" data-colored="false"></path><path id="SvgjsPath14346" d="M110.35 191.495c-0.754-1.995-2.71-5.93-4.28-7.359 -2.876-0.563-7.983-0.843-10.47-0.24 -0.108 0.088-6.248 5.383-6.31 5.26 -0.906 0.708-1.788 1.504-2.52 2.39 2.061 2.076 6.655 4.556 8.5 6.4 -3.65 9.18-5.33 21.59-4.55 39.38 0.01 0.11 0.01 0.23 0.02 0.34 6.756 0.52 16.55 0.331 17.55 0.223 -1.16-11.307 1.438-10.455-4.39-39.853C106.968 195.241 108.865 195.04 110.35 191.495zM105.1 210.535c-0.021-0.05-0.04-0.1-0.051-0.13 2 10.55 1.38 18.632 2.891 26.972 -4.736-0.318-12.014-0.052-16.771-0.052 0.369-7.198 1.188-31.684 4.74-39.74 0.17-0.046 0.339-0.084 0.509-0.125l-1.032 34.736 2.747-35.066c0.02-0.002 0.04-0.005 0.06-0.008l1.801 32.605 0.417-32.734c0.026 0.001 0.051-0.001 0.077 0l4.199 36.355 -2.3-36.137c0.314 0.063 0.629 0.141 0.942 0.233 0.03 0 0.07 0.01 0.1 0.03C103.533 198.476 104.365 205.876 105.1 210.535zM104.219 196.726c-2.774-1.251-6.363-1.026-9.129 0.24 -1.681-1.813-4.08-3.077-7.53-5.391 0.55-0.479 1.26-1.07 2.21-1.81 0.08 0 3.48-2.771 3.54-2.83 0.92-0.84 1.74-1.79 2.52-2.62 2.93-0.12 7.23 0.02 9.82 0.14 1.5 1.876 2.931 4.696 4.01 6.94C107.699 194.266 105.759 195.545 104.219 196.726z" opacity="1" stroke-width="none" fill="#000000" data-stroketype="none" data-filltype="#000000" data-colored="false"></path><path id="SvgjsPath14347" d="M78.196 213.077c-11.534-40.071-6.325-29.581-9.399-45.32 2.028-4.813 3.958-10.44 5.042-11.598l0.08-0.086c2.292 24.007 8.958 13.636 23.784 27.722C89.228 189.449 81.372 204.127 78.196 213.077zM131.193 167.758c-1.448-3.702-4.077-9.127-5.215-10.331 1.424 20.678-15.146 16.551-24.35 26.2 8.812 5.713 17.173 20.66 20.172 29.455C134.92 169.568 127.85 188.673 131.193 167.758z" opacity="1" stroke-width="none" fill="#f3f1f4" data-stroketype="none" data-filltype="#f3f1f4" data-colored="false"></path><path id="SvgjsPath14348" d="M125.801 156.967c0 5.137-0.42 9.162-1.262 10.339 -2.443 5.809-13.103 9.853-16.39 11.51 -2.495 1.227-4.942 2.809-6.83 4.85 3.813 2.476 5.705 3.383 12.93 14.44 4.246 7.109 6.539 12.448 7.561 15.64 13.378-44.331 6.222-24.978 9.59-46.01C129.814 163.65 126.801 157.885 125.801 156.967zM129.449 176.495c-1.957 18.078-3.491 14.485-7.74 34.181 -2.716-8.644-11.075-22.913-19.43-27.091 3.937-2.957 5.031-3.131 9.729-5.279 14.396-6.42 14.985-12.385 14.138-20.271 1.207 1.423 3.125 6.161 4.692 9.521C129.979 170.702 129.589 175.194 129.449 176.495zM79.199 171.896c-4.408-3.649-3.16-8.162-5.189-16.215 -0.902 1-3.146 6.632-5.42 12.055 0.557 2.796 0.681 7.389 0.76 8.84 0.559 12.202 1.75 12.765 8.83 37.16 3.031-8.905 11.558-24.37 20.24-30.009C91.489 177.401 82.765 174.999 79.199 171.896zM84.659 197.405c-2.221 3.666-4.517 7.48-6.37 13.28 -4.442-20.269-5.999-16.964-7.73-34.16 -0.32-2.971-0.617-6.027-1.4-8.96 1.638-3.588 3.981-10.281 4.731-10.995 1.366 7.078 0.066 13.462 5.669 16.995 2.621 1.996 11.104 5.32 17.52 10.36C93.188 186.235 91.094 187.596 84.659 197.405z" opacity="1" stroke-width="none" fill="#cfc8d7" data-stroketype="none" data-filltype="#cfc8d7" data-colored="false"></path><path id="SvgjsPath14349" d="M120.319 209.824l-1.209-2.654c0 0 9.148-28.175 10.743-36.225C130.765 179.299 120.319 209.824 120.319 209.824zM78.879 208.721l1.436-3.259c0 0-8.573-26.467-10.168-34.517C69.235 179.299 78.879 208.721 78.879 208.721z" opacity="1" stroke-width="none" fill="#e1e0e1" data-stroketype="none" data-filltype="#e1e0e1" data-colored="false"></path><path id="SvgjsPath14350" d="M124.787 195.605c7.065-20.834 2.756-22.551 6.305-29.469 0.134-0.261 1.396 1.046 1.533 1.64 1.306 5.658 53.349 17.338 54.994 18.598 1.456 1.058 5.65 3.137 5.65 3.137 4.937 9.07 7.762 10.698 9.15 34.984 0.13 3.083-0.061 11.801-0.061 14.141l-85.559-0.676C117.004 230.169 117.999 216.15 124.787 195.605zM75.213 195.605c-7.065-20.834-2.756-22.551-6.305-29.469 -0.134-0.261-1.396 1.046-1.533 1.64 -1.306 5.658-53.349 17.338-54.994 18.598 -1.456 1.058-5.65 3.137-5.65 3.137 -4.937 9.07-7.762 10.698-9.15 34.984 -0.13 3.083 0.061 11.801 0.061 14.141l85.559-0.676C82.996 230.169 82.001 216.15 75.213 195.605z" opacity="1" stroke-width="none" fill="#1f0402" data-stroketype="none" data-filltype="tone" data-colored="true" stroke="none"></path><path id="SvgjsPath14351" d="M130.307 190c-4.552 16.387-10.771 31.116-13.506 47.96 -0.89-0.007 1.491-22.695 7.986-42.354 7.065-20.834 2.756-22.551 6.305-29.469 0.077-0.15-0.619 1.976-0.223 2.432C130.723 176.296 132.625 182.272 130.307 190zM69.693 190c4.552 16.387 10.771 31.116 13.506 47.96 0.89-0.007-1.491-22.695-7.986-42.354 -7.065-20.834-2.756-22.551-6.305-29.469 -0.077-0.15 0.619 1.976 0.223 2.432C69.277 176.296 67.375 182.272 69.693 190z" opacity="1" stroke-width="none" fill="#100100" data-stroketype="none" data-filltype="sd1" data-colored="true" stroke="none"></path><path id="SvgjsPath14352" d="M152.436 186.031c0 0-2.284 2.561-8.636 6.923 5.313-5.885 7.761-8.249 7.761-8.249L152.436 186.031zM154.611 197.906l-1.528-1.367c-4.538 13.781-7.571 20.587-12.828 36.618C147.799 218.831 149.599 213.745 154.611 197.906zM48.439 184.705c0 0 2.447 2.364 7.761 8.249 -6.352-4.362-8.636-6.923-8.636-6.923L48.439 184.705zM59.745 233.157c-5.257-16.031-8.29-22.837-12.828-36.618l-1.528 1.367C50.401 213.745 52.201 218.831 59.745 233.157z" opacity="1" stroke-width="none" fill="#000000" data-stroketype="none" data-filltype="sd2" data-colored="true" stroke="none"></path><path id="SvgjsPath14353" d="M179.409 219.335c0-11.596 3.11-18.351 9.615-28.142 0.608 0.372 0.931 0.543 1.345 0.875C183.452 200.651 182.078 208.659 179.409 219.335zM141.312 230.703c6.113-16.703 8.06-23.228 12.107-34.388 -1.15-0.351-8.671-2.985-9.819-3.346 0.41 1 3.113 1.822 7.822 4.709C151.422 197.679 146.333 213.082 141.312 230.703zM149.533 184.577c0 0-3.352 4.14-6.664 8.328 3.388-2.67 5.748-5.644 8.691-8.2 -3.994-3.368-10.511-8.524-14.721-12.089C140.163 176.188 149.533 184.577 149.533 184.577zM202.073 238.634l0.286 0.002c0-2.34 0.19-11.058 0.061-14.141 -1.389-24.286-4.214-25.914-9.15-34.984 0 0-4.194-2.079-5.65-3.137 -1.334-1.021-38.794-9.922-52.49-15.88 16.011 10.971 46.282 15.027 55.24 21.574C194.702 195.235 200.535 222.337 202.073 238.634zM9.613 192.037c0.542-0.383 0.619-0.366 1.168-0.729 6.505 9.791 9.809 16.431 9.809 28.026C17.922 208.659 16.08 200.318 9.613 192.037zM48.578 197.679c4.709-2.887 7.412-3.709 7.822-4.709 -1.148 0.36-8.669 2.995-9.819 3.346 4.048 11.16 5.994 17.685 12.107 34.388C53.667 213.082 48.578 197.679 48.578 197.679zM63.16 172.616c-4.21 3.564-10.727 8.721-14.721 12.089 2.943 2.557 5.304 5.53 8.691 8.2 -3.313-4.188-6.664-8.328-6.664-8.328S59.837 176.188 63.16 172.616zM9.631 192.068c8.958-6.547 39.229-10.604 55.24-21.574 -13.696 5.958-51.156 14.858-52.49 15.88 -1.456 1.058-5.65 3.137-5.65 3.137 -4.937 9.07-7.762 10.698-9.15 34.984 -0.13 3.083 0.061 11.801 0.061 14.141l0.286-0.002C-0.535 222.337 5.298 195.235 9.631 192.068z" opacity="1" stroke-width="none" fill="#2e0a08" data-stroketype="none" data-filltype="hl1" data-colored="true" stroke="none"></path><path id="SvgjsPath14354" d="M132.246 166.374c-0.049-0.293-0.443-0.634-0.738-0.657 -0.296-0.023-0.432 0.458-0.567 0.722 -3.549 6.918 0.414 8.333-6.651 29.167 -6.788 20.545-7.584 34.862-7.787 42.653l85.857 0.377c0-2.34 0.489-11.058 0.359-14.141 -1.389-24.286-4.313-26.113-9.25-35.184 0 0-4.394-2.179-5.85-3.236 -4.889-3.742-0.59 0.023-22.03-6 -17.576-5.135-18.525-6.577-24.899-8.35 -1.288-0.369-4.057-0.822-6.95-2.851C133.475 168.689 132.341 166.944 132.246 166.374zM116.974 237.31c3.729-23.564 6.085-29.73 11.296-47.274 3.522-11.104 1.576-17.408 3.254-22.54 0.088-0.268 0.467-0.282 0.571-0.017 2.434 6.214 9.238 7.656 18.834 17.047 -5.813 5.813-7.309 7.38-8.06 8.38 0.864 0.438 5.582 2.229 9.9 3.9 -0.245 0.767-13.415 38.02-13.57 38.52 10-21.578 11.292-28.211 14.22-39.01 -0.812-0.612-7.892-3.212-9.09-3.64 4.274-4.424 5.51-5.396 7.53-7.971 1.622 0-15.874-13.318-16.73-14.211 0.462 0.364 2.752 1.391 3.01 1.491 14.682 5.166 3.065 2.829 35.2 12.001 3.072 0.781 7.355 1.567 10.53 1.879 0.218 0.02 5.395 2.727 8.35 3.97 -7.189 7.475-11.797 17.133-12.81 29.5 3.219-12.666 4.951-19.29 13.14-28.819 7.62 15.422 6.755 13.195 9.23 47.71C181.167 237.413 149.559 237.227 116.974 237.31zM66.261 168.875c-2.894 2.028-5.662 2.481-6.95 2.851 -6.374 1.772-7.323 3.215-24.899 8.35 -21.44 6.023-17.142 2.258-22.03 6 -1.456 1.058-5.85 3.236-5.85 3.236 -4.937 9.07-7.861 10.897-9.25 35.184 -0.13 3.083 0.359 11.801 0.359 14.141l85.857-0.377c-0.203-7.791-0.999-22.108-7.787-42.653 -7.065-20.834-3.103-22.249-6.651-29.167 -0.136-0.264-0.271-0.745-0.567-0.722 -0.295 0.023-0.689 0.364-0.738 0.657C67.659 166.944 66.525 168.689 66.261 168.875zM-1.779 238.226c2.476-34.515 1.61-32.288 9.23-47.71 8.188 9.529 9.921 16.153 13.14 28.819 -1.013-12.367-5.62-22.025-12.81-29.5 2.955-1.243 8.132-3.95 8.35-3.97 3.175-0.312 7.458-1.098 10.53-1.879 32.135-9.172 20.519-6.835 35.2-12.001 0.258-0.101 2.548-1.127 3.01-1.491 -0.856 0.893-18.353 14.211-16.73 14.211 2.021 2.575 3.256 3.547 7.53 7.971 -1.198 0.428-8.278 3.027-9.09 3.64 2.928 10.799 4.22 17.432 14.22 39.01 -0.155-0.5-13.325-37.753-13.57-38.52 4.318-1.672 9.036-3.463 9.9-3.9 -0.751-1-2.247-2.567-8.06-8.38 9.596-9.391 16.4-10.833 18.834-17.047 0.104-0.266 0.483-0.251 0.571 0.017 1.678 5.132-0.269 11.436 3.254 22.54 5.211 17.544 7.567 23.71 11.296 47.274C50.441 237.227 18.833 237.413-1.779 238.226z" opacity="1" stroke-width="none" fill="#000000" data-stroketype="none" data-filltype="sd3" data-colored="true" stroke="none"></path></g><g id="svga-group-head" data-rotate="1e-7" data-scaley="1" data-scalex="1" data-dist="0" data-leftright="0" data-updown="0" transform="rotate(1e-7 98.87221956253052 76.90793514251709)"><g id="svga-group-ears-left" data-rotate="0" data-scaley="1" data-scalex="1" data-dist="0" data-leftright="-9.000000599999998" data-updown="0" transform="translate(-9.000000499999999 0)"></g><g id="svga-group-ears-right" data-rotate="0" data-scaley="1" data-scalex="1" data-dist="0" data-leftright="9.000000599999998" data-updown="0" transform="translate(9.000000499999999 0)"></g><g id="svga-group-faceshape-wrap" data-rotate="0" data-scaley="1.0208992300000002" data-scalex="1.1402992300000003" data-dist="0" data-leftright="0" data-updown="0" transform="matrix(1.1391992300000002 0 0 1.01979923 -13.919923000000026 -1.6195274572019258)"><g id="svga-group-faceshape-single" data-rotate="0" data-scaley="1" data-scalex="1" data-dist="0" data-leftright="0" data-updown="0"><path id="SvgjsPath1654" d="M144.004 126.306c-6.87 10.846-23.072 30.329-34.468 34.563 -4.474 1.663-14.594 1.663-19.067 0 -11.396-4.235-27.596-23.719-34.467-34.563 -6.753-10.657-14.852-48.287-14.863-48.341 -1.3-4.961-1.996-10.168-2.004-15.538C39.082 28.614 66.289 1.169 99.907 1.116c33.621-0.053 60.913 27.306 60.963 61.119 0.009 5.37-0.669 10.579-1.952 15.544C158.901 77.832 150.78 115.606 144.004 126.306z" opacity="1" stroke="#1c8a36" stroke-width="0.5" fill="#5cb872" data-stroketype="sd3" data-filltype="tone" data-colored="true"></path><path id="SvgjsPath1655" d="M110.152 1.978c26.994 6.303 47.097 30.644 47.052 59.708 -0.009 5.369-0.704 10.577-2.004 15.537 -0.012 0.054-7.377 37.684-14.13 48.341 -6.872 10.844-22.339 29.588-33.734 33.823 -1.476 0.549-5.027 1.103-7.334 1.103 -2.307 0-5.857-0.554-7.333-1.103 -11.396-4.235-26.863-22.979-33.734-33.823 -6.753-10.657-14.119-48.287-14.13-48.341 -1.3-4.96-1.996-10.168-2.004-15.537C42.756 32.622 62.857 8.281 89.853 1.978 61.03 6.845 39.087 32.061 39.134 62.427c0.008 5.369 0.704 10.576 2.004 15.538 0.012 0.054 8.11 37.684 14.863 48.341 6.871 10.845 23.072 30.328 34.467 34.563 2.239 0.833 5.889 1.247 9.537 1.244 3.646 0.001 7.292-0.411 9.53-1.244 11.396-4.235 27.596-23.719 34.468-34.563 6.753-10.657 14.852-48.287 14.862-48.341 1.3-4.961 1.996-10.168 2.004-15.538C160.918 32.061 138.975 6.845 110.152 1.978z" opacity="1" stroke="none" fill="#5cb872" data-stroketype="none" data-filltype="tone" data-colored="true"></path><path id="SvgjsPath1656" d="M144.004 126.306c-6.87 10.846-23.072 30.329-34.468 34.563 -4.474 1.663-14.594 1.663-19.067 0 -11.396-4.235-27.596-23.719-34.467-34.563 -6.753-10.657-14.852-48.287-14.863-48.341 -1.3-4.961-1.996-10.168-2.004-15.538C39.082 28.614 66.289 1.169 99.907 1.116c33.621-0.053 60.913 27.306 60.963 61.119 0.009 5.37-0.669 10.579-1.952 15.544C158.901 77.832 150.78 115.606 144.004 126.306z" opacity="1" stroke="#5cb872" fill="#5cb872" data-stroketype="#c27b55" data-filltype="tone" data-colored="true"></path></g></g><g id="svga-group-eyes-left" data-rotate="0" data-scaley="2.3913990100000007" data-scalex="2.3913990100000007" data-dist="0" data-leftright="4.000000400000001" data-updown="-19.0000019" transform="matrix(2.3902990100000006 0 0 2.3902990100000006 -136.22011016479334 -110.51834405962092) translate(4.000000400000001 -19.0000018)"><g id="svga-group-eyesback-left"><path id="SvgjsPath15109" d="M76.732 78.383c4.587 0.679 7.931 3.488 10.773 7.94 0.004 0.005 0.013 0.004 0.018 0.008 0.007 0.027 0.021 0.053 0.026 0.08 0.255 1.007-0.816 1.819-2.155 2.438 -4.771 0.609-9.359 1.489-14.194 0.87 -9.681-1.241-9.855-5.509-10.326-6.629 -0.252-1.101-0.325-1.417-0.311-2.473 2.332-1.366 4.043-1.647 5.854-2.005C68.541 78.194 73.268 77.868 76.732 78.383z" opacity="1" fill="url(#SvgjsRadialGradient15110)" data-stroketype="none" data-filltype="gradient" data-colored="false"></path></g><g id="svga-group-eyesiriswrapper-left" transform="translate(0.25 0)"><g id="svga-group-eyesiriscontrol-left" data-rotate="0" data-scaley="1" data-scalex="1" data-dist="0" data-leftright="0" data-updown="0"><g id="svga-group-eyesiris-left" data-rotate="0" data-scaley="1" data-scalex="1" data-dist="0" data-leftright="0" data-updown="0"><path id="SvgjsPath5682" d="M81.235 86.646c-1.087 5.321-5.202 8.456-9.201 6.994 -3.996-1.46-6.356-6.964-5.269-12.286 1.086-5.324 5.211-8.458 9.207-6.996C79.965 75.818 82.323 81.322 81.235 86.646z" opacity="1" stroke="#8f0100" stroke-width="0.5" fill="#bd1c1b" data-stroketype="sd3" data-filltype="tone" data-colored="true"></path><path id="SvgjsPath5683" d="M80.068 86.771c-1.06 4.085-4.26 6.469-7.374 5.332 -2.875-1.053-4.689-4.732-4.454-8.62 1.068-0.112 2.233-0.146 3.444-0.066 -0.012 0.056-0.033 0.104-0.045 0.161 -0.381 1.875 0.509 3.841 1.991 4.384 1.487 0.542 3.001-0.545 3.385-2.419 0.047-0.245 0.073-0.49 0.081-0.732C78.112 85.304 79.109 85.942 80.068 86.771z" opacity="1" stroke-width="none" fill="#cc3332" data-stroketype="none" data-filltype="hl1" data-colored="true"></path><path id="SvgjsPath5684" d="M75.015 81.018c-1.501-0.574-3.035 0.569-3.422 2.564 -0.389 1.986 0.515 4.063 2.017 4.638 1.505 0.575 3.039-0.569 3.426-2.555C77.427 83.669 76.52 81.591 75.015 81.018zM75.344 88.071c-0.625 0.258-1.271-0.085-1.443-0.771 -0.166-0.685 0.205-1.444 0.833-1.698 0.629-0.259 1.273 0.086 1.447 0.767C76.35 87.05 75.978 87.812 75.344 88.071z" opacity="0.9" stroke-width="none" fill="#000000" data-stroketype="none" data-filltype="#000000" data-colored="false"></path><path id="SvgjsPath5685" d="M70.014 89.265c-0.463 0.37-1.152 0.04-1.548-0.744 -0.396-0.777-0.335-1.708 0.129-2.079 0.458-0.364 1.156-0.034 1.549 0.744C70.532 87.964 70.477 88.896 70.014 89.265z" opacity="0.6" stroke-width="none" fill="#ffffff" data-stroketype="none" data-filltype="#ffffff" data-colored="false"></path><path id="SvgjsPath5686" d="M79.888 83.568c-1.058 0.843-2.647 0.083-3.547-1.701 -0.9-1.786-0.764-3.92 0.293-4.762 1.056-0.849 2.646-0.087 3.542 1.699C81.074 80.589 80.945 82.721 79.888 83.568z" opacity="0.9" stroke-width="none" fill="#ffffff" data-stroketype="none" data-filltype="#ffffff" data-colored="false"></path></g></g></g><g id="svga-group-eyesfront-left"><path id="SvgjsPath15134" d="M55.112 83.583c3.224 11.315 7.475 23.313 17.685 23.669s22.135-7.239 22.29-22.238c0.173-16.767-10.474-23.381-20.684-23.737S50.307 66.714 55.112 83.583zM60.875 83.09c-0.252-1.101-0.325-1.417-0.311-2.473 2.027-1.21 4.04-1.547 5.851-1.905 2.123-0.418 6.853-0.845 10.317-0.329 4.587 0.679 7.931 3.488 10.773 7.94 0.004 0.005 0.013 0.004 0.018 0.008 0.007 0.027 0.021 0.053 0.026 0.08 0.255 1.007-0.816 1.819-2.155 2.438 -4.771 0.609-9.359 1.489-14.194 0.87C61.519 88.478 61.345 84.21 60.875 83.09z" opacity="1" stroke-width="none" fill="#5cb872" data-fromskin="true" data-stroketype="none" data-filltype="tone" data-colored="true" stroke="none"></path><path id="SvgjsPath15135" d="M74.225 95.171c9.256 1.401 17.847-3.01 19.186-9.859 1.34-6.849-5.072-13.537-14.329-14.94 -9.258-1.399-17.845 3.012-19.185 9.862C58.557 87.082 64.967 93.766 74.225 95.171zM60.563 80.617c2.125-1.141 4.04-1.547 5.851-1.905 2.123-0.418 6.853-0.845 10.317-0.329 4.587 0.679 7.931 3.488 10.773 7.94 0.004 0.005 0.013 0.004 0.018 0.008 0.007 0.027 0.021 0.053 0.026 0.08 0.255 1.007-0.816 1.819-2.155 2.438 -4.771 0.609-9.359 1.489-14.194 0.87 -9.681-1.241-9.855-5.509-10.326-6.629C60.622 81.989 60.55 81.672 60.563 80.617z" opacity="1" fill="url(#SvgjsRadialGradient15136)" data-fromskin="true" data-stroketype="none" data-filltype="gradient" data-colored="false"></path><path id="SvgjsPath15140" d="M60.875 83.09c-0.252-1.101-0.325-1.417-0.311-2.473 2.092-1.175 4.04-1.547 5.851-1.905 2.123-0.418 6.853-0.845 10.317-0.329 4.587 0.679 7.931 3.488 10.773 7.94 0.004 0.005 0.013 0.004 0.018 0.008 0.007 0.027 0.021 0.053 0.026 0.08 0.255 1.007-0.816 1.819-2.155 2.438 -4.771 0.609-9.359 1.489-14.194 0.87C61.519 88.478 61.345 84.21 60.875 83.09z" opacity="1" fill="url(#SvgjsRadialGradient15141)" data-stroketype="none" data-filltype="gradient" data-colored="false"></path><path id="SvgjsPath15144" d="M76.327 75.748c3.294 0.539 6.505 2.054 9.48 3.945 0.637 0.404 1.366 0.865 2.521 1.451 -0.828-0.188-1.594-0.617-2.309-1.011 0.736 0.698 1.422 1.529 1.982 2.334 -2.521-3.159-7.297-5.538-11.36-6.349 -3.902-0.779-10.989-0.264-16.251 2.042C65.208 75.449 72.237 75.08 76.327 75.748z" opacity="1" stroke-width="none" fill="#1c8a36" data-fromskin="true" data-stroketype="none" data-filltype="sd3" data-colored="true" stroke="none"></path><path id="SvgjsPath15145" d="M87.508 86.277c-2.847-4.34-6.193-7.082-10.781-7.747 -4.833-0.705-11.271-0.221-15.034 1.843 -0.308 0.169-1.607 1.249-1.401 0.117 0.874-1.167 4.322-2.523 5.993-2.928C85.03 73.019 88.582 87.854 87.508 86.277zM60.646 82.841c-0.716 2.063 0.861 6.654 10.145 7.503 6.595 0.602 15.767-1.75 14.634-1.613 -4.779 0.589-9.375 1.449-14.219 0.839C60.224 88.19 61.468 83.023 60.646 82.841z" opacity="1" stroke-width="none" data-stroketype="none" data-filltype="tone" data-colored="true" stroke="none"></path></g></g><g id="svga-group-eyes-right" data-rotate="0" data-scaley="2.3913990100000007" data-scalex="2.3913990100000007" data-dist="0" data-leftright="-4.000000400000001" data-updown="-19.0000019" transform="matrix(2.3902990100000006 0 0 2.3902990100000006 -141.28427548456645 -110.51764929197293) translate(-4.000000400000001 -19.0000018)"><g id="svga-group-eyesback-right"><path id="SvgjsPath15117" d="M122.867 78.383c-4.586 0.679-7.931 3.488-10.773 7.94 -0.004 0.005-0.012 0.004-0.018 0.008 -0.006 0.027-0.02 0.053-0.025 0.08 -0.256 1.007 0.815 1.819 2.154 2.438 4.771 0.609 9.359 1.489 14.194 0.87 9.681-1.241 9.855-5.509 10.325-6.629 0.253-1.101 0.325-1.417 0.312-2.473 -2.331-1.366-4.043-1.647-5.854-2.005C131.059 78.194 126.332 77.868 122.867 78.383z" opacity="1" fill="url(#SvgjsRadialGradient15118)" data-stroketype="none" data-filltype="gradient" data-colored="false"></path></g><g id="svga-group-eyesiriswrapper-right" transform="translate(-0.25 0)"><g id="svga-group-eyesiriscontrol-right" data-rotate="0" data-scaley="1" data-scalex="1" data-dist="0" data-leftright="0" data-updown="0"><g id="svga-group-eyesiris-right" data-rotate="0" data-scaley="1" data-scalex="1" data-dist="0" data-leftright="0" data-updown="0"><path id="SvgjsPath5687" d="M133.234 86.646c-1.088 5.321-5.203 8.456-9.202 6.992 -3.994-1.458-6.356-6.963-5.267-12.284 1.087-5.324 5.21-8.458 9.204-6.994C131.966 75.818 134.324 81.323 133.234 86.646z" opacity="1" stroke="#8f0100" stroke-width="0.5" fill="#bd1c1b" data-stroketype="sd3" data-filltype="tone" data-colored="true"></path><path id="SvgjsPath5688" d="M132.069 86.771c-1.062 4.085-4.261 6.468-7.375 5.33 -2.875-1.052-4.69-4.73-4.454-8.618 1.067-0.111 2.235-0.146 3.445-0.066 -0.011 0.055-0.035 0.103-0.046 0.161 -0.381 1.875 0.508 3.84 1.99 4.383 1.489 0.542 3.001-0.547 3.385-2.42 0.049-0.244 0.073-0.49 0.083-0.732C130.11 85.305 131.108 85.943 132.069 86.771z" opacity="1" stroke-width="none" fill="#cc3332" data-stroketype="none" data-filltype="hl1" data-colored="true"></path><path id="SvgjsPath5689" d="M127.017 81.018c-1.504-0.573-3.036 0.569-3.425 2.564 -0.387 1.987 0.515 4.063 2.02 4.637 1.504 0.575 3.035-0.57 3.426-2.555C129.427 83.669 128.52 81.591 127.017 81.018zM127.343 88.071c-0.623 0.258-1.271-0.085-1.44-0.771 -0.168-0.684 0.204-1.445 0.833-1.697 0.629-0.26 1.272 0.085 1.445 0.766C128.351 87.049 127.978 87.811 127.343 88.071z" opacity="0.9" stroke-width="none" fill="#000000" data-stroketype="none" data-filltype="#000000" data-colored="false"></path><path id="SvgjsPath5690" d="M122.014 89.265c-0.461 0.368-1.15 0.039-1.547-0.745 -0.396-0.776-0.335-1.706 0.128-2.079 0.459-0.364 1.155-0.033 1.547 0.746C122.533 87.964 122.479 88.895 122.014 89.265z" opacity="0.6" stroke-width="none" fill="#ffffff" data-stroketype="none" data-filltype="#ffffff" data-colored="false"></path><path id="SvgjsPath5691" d="M131.888 83.568c-1.06 0.844-2.646 0.083-3.548-1.701 -0.897-1.786-0.766-3.919 0.293-4.761 1.056-0.85 2.646-0.088 3.54 1.698C133.074 80.591 132.945 82.722 131.888 83.568z" opacity="0.9" stroke-width="none" fill="#ffffff" data-stroketype="none" data-filltype="#ffffff" data-colored="false"></path></g></g></g><g id="svga-group-eyesfront-right"><path id="SvgjsPath15155" d="M125.197 61.277c-10.211 0.356-20.857 6.97-20.685 23.737 0.154 15 12.079 22.595 22.29 22.238 10.21-0.356 16.187-17.323 17.685-23.669C148.517 66.512 135.407 60.921 125.197 61.277zM128.399 89.719c-4.835 0.619-9.423-0.261-14.194-0.87 -1.339-0.618-2.41-1.43-2.154-2.438 0.006-0.027 0.02-0.053 0.025-0.08 0.006-0.004 0.014-0.003 0.018-0.008 2.843-4.452 6.188-7.261 10.773-7.94 3.465-0.516 8.195-0.089 10.318 0.329 1.811 0.357 3.824 0.694 5.851 1.905 0.014 1.055-0.059 1.372-0.312 2.473C138.255 84.21 138.08 88.478 128.399 89.719z" opacity="1" stroke-width="none" fill="#5cb872" data-fromskin="true" data-stroketype="none" data-filltype="tone" data-colored="true" stroke="none"></path><path id="SvgjsPath15156" d="M139.703 80.234c-1.34-6.85-9.928-11.261-19.186-9.862 -9.257 1.403-15.669 8.091-14.328 14.94 1.339 6.849 9.93 11.26 19.186 9.859C134.633 93.766 141.043 87.082 139.703 80.234zM138.725 83.09c-0.47 1.121-0.645 5.388-10.325 6.629 -4.835 0.619-9.423-0.261-14.194-0.87 -1.339-0.618-2.41-1.43-2.154-2.438 0.006-0.027 0.02-0.053 0.025-0.08 0.006-0.004 0.014-0.003 0.018-0.008 2.843-4.452 6.188-7.261 10.773-7.94 3.465-0.516 8.195-0.089 10.318 0.329 1.811 0.357 3.727 0.764 5.851 1.905C139.05 81.672 138.978 81.989 138.725 83.09z" opacity="1" fill="url(#SvgjsRadialGradient15157)" data-fromskin="true" data-stroketype="none" data-filltype="gradient" data-colored="false"></path><path id="SvgjsPath15161" d="M138.725 83.09c0.253-1.101 0.325-1.417 0.312-2.473 -2.092-1.175-4.04-1.547-5.851-1.905 -2.123-0.418-6.854-0.845-10.318-0.329 -4.586 0.679-7.931 3.488-10.773 7.94 -0.004 0.005-0.012 0.004-0.018 0.008 -0.006 0.027-0.02 0.053-0.025 0.08 -0.256 1.007 0.815 1.819 2.154 2.438 4.771 0.609 9.359 1.489 14.194 0.87C138.08 88.478 138.255 84.21 138.725 83.09z" opacity="1" fill="url(#SvgjsRadialGradient15162)" data-stroketype="none" data-filltype="gradient" data-colored="false"></path><path id="SvgjsPath15165" d="M123.273 75.748c-3.295 0.539-6.506 2.054-9.48 3.945 -0.637 0.404-1.367 0.865-2.521 1.451 0.828-0.188 1.594-0.617 2.309-1.011 -0.736 0.698-1.422 1.529-1.982 2.334 2.521-3.159 7.297-5.538 11.359-6.349 3.902-0.779 10.989-0.264 16.252 2.042C134.391 75.449 127.362 75.08 123.273 75.748z" opacity="1" stroke-width="none" fill="#1c8a36" data-fromskin="true" data-stroketype="none" data-filltype="sd3" data-colored="true" stroke="none"></path><path id="SvgjsPath15166" d="M133.314 77.563c1.672 0.405 5.119 1.761 5.994 2.928 0.205 1.132-1.094 0.052-1.402-0.117 -3.764-2.064-10.201-2.548-15.033-1.843 -4.588 0.665-7.936 3.407-10.781 7.747C111.018 87.854 114.57 73.019 133.314 77.563zM128.395 89.57c-4.844 0.61-9.439-0.25-14.219-0.839 -1.134-0.137 8.038 2.215 14.633 1.613 9.284-0.849 10.861-5.44 10.145-7.503C138.131 83.023 139.376 88.19 128.395 89.57z" opacity="1" stroke-width="none" data-stroketype="none" data-filltype="tone" data-colored="true" stroke="none"></path></g></g><g id="svga-group-facehighlight-single" data-rotate="0" data-scaley="1" data-scalex="1" data-dist="0" data-leftright="0" data-updown="0"><path id="SvgjsPath1043" d="M141 113.974c0.035 22.622-18.292 40.994-40.938 41.025 -22.642 0.037-41.028-18.273-41.063-40.9 -0.035-22.62 18.292-41.064 40.937-41.1C122.579 72.964 140.967 91.349 141 113.974z" opacity="1" fill="url(#SvgjsRadialGradient1044)" data-fromskin="true" data-stroketype="none" data-filltype="gradient" data-colored="false"></path><path id="SvgjsPath1047" d="M137.5 53.999c0 20.711-16.789 37.5-37.499 37.5 -20.711 0-37.501-16.789-37.501-37.5s16.79-37.5 37.501-37.5C120.711 16.499 137.5 33.288 137.5 53.999z" opacity="1" fill="url(#SvgjsRadialGradient1048)" data-fromskin="true" data-stroketype="none" data-filltype="gradient" data-colored="false"></path></g><g id="svga-group-eyebrows-left" data-rotate="0" data-scaley="1" data-scalex="1" data-dist="0" data-leftright="0" data-updown="0"></g><g id="svga-group-mouth-single" data-rotate="0" data-scaley="2.1073997800000006" data-scalex="2.1073997800000006" data-dist="0" data-leftright="-1.0000002" data-updown="-16.000001599999997" transform="matrix(2.1062997800000005 0 0 2.1062997800000005 -110.68530036409784 -139.22782407610086) translate(-1.0000002 -16.000001499999996)"><path id="SvgjsPath14157" d="M101.1,139.9v2.2h0.2v-2.2C101.3,139.9,101.2,139.9,101.1,139.9z" opacity="0.25" stroke-width="none" fill="#ffffff" data-author="vectorcharacters.net" data-stroketype="none" data-filltype="#ffffff" data-colored="false"></path><path id="SvgjsPath14158" d="M96.7,139.9v2h0.2v-2C96.8,139.9,96.7,139.9,96.7,139.9z" opacity="0.25" stroke="none" fill="#ffffff" data-stroketype="none" data-filltype="#ffffff" data-colored="false"></path><path id="SvgjsPath14159" d="M98.9,140v2.1h0.2v-2.1C99.1,140.1,99,140,98.9,140z" opacity="0.25" stroke="none" fill="#ffffff" data-stroketype="none" data-filltype="#ffffff" data-colored="false"></path><path id="SvgjsPath14160" d="M92.3,140.7v-1.7c-0.1,0-0.1,0-0.2,0v1.6C92.2,140.7,92.2,140.7,92.3,140.7z" opacity="0.25" stroke="none" fill="#ffffff" data-stroketype="none" data-filltype="#ffffff" data-colored="false"></path><path id="SvgjsPath14161" d="M94.7,141.5v-1.9h-0.2v1.8C94.6,141.5,94.6,141.5,94.7,141.5z" opacity="0.25" stroke="none" fill="#ffffff" data-stroketype="none" data-filltype="#ffffff" data-colored="false"></path><path id="SvgjsPath14162" d="M88.2,138.8v-1.2c-0.1,0-0.1,0-0.2,0v1.1C88.1,138.7,88.1,138.8,88.2,138.8z" opacity="0.25" stroke="none" fill="#ffffff" data-stroketype="none" data-filltype="#ffffff" data-colored="false"></path><path id="SvgjsPath14163" d="M90.1,139.8v-1.6c-0.1,0-0.1,0-0.2,0v1.6C89.9,139.8,90,139.8,90.1,139.8z" opacity="0.25" stroke="none" fill="#ffffff" data-stroketype="none" data-filltype="#ffffff" data-colored="false"></path><path id="SvgjsPath14164" d="M109.6,138.5v1.5c0.1,0,0.1,0,0.2-0.1v-1.4C109.7,138.5,109.7,138.5,109.6,138.5z" opacity="0.25" stroke="none" fill="#ffffff" data-stroketype="none" data-filltype="#ffffff" data-colored="false"></path><path id="SvgjsPath14165" d="M111.3,137.9v1.2c0.1,0,0.1,0,0.2-0.1v-1.1C111.5,137.9,111.4,137.9,111.3,137.9z" opacity="0.25" stroke="none" fill="#ffffff" data-stroketype="none" data-filltype="#ffffff" data-colored="false"></path><path id="SvgjsPath14166" d="M104.1,141.9v-2.1c-0.1,0-0.1,0-0.2,0v2.1L104.1,141.9C104,141.9,104,141.9,104.1,141.9z" opacity="0.25" stroke="none" fill="#ffffff" data-stroketype="none" data-filltype="#ffffff" data-colored="false"></path><path id="SvgjsPath14167" d="M105.5,139.4v2.1c0.1,0,0.1,0,0.2,0v-2.1C105.6,139.4,105.6,139.4,105.5,139.4z" opacity="0.25" stroke="none" fill="#ffffff" data-stroketype="none" data-filltype="#ffffff" data-colored="false"></path><path id="SvgjsPath14168" d="M107.9,138.9v1.8c0.1,0,0.1,0,0.2,0v-1.8C108.1,138.9,108,138.9,107.9,138.9z" opacity="0.25" stroke="none" fill="#ffffff" data-stroketype="none" data-filltype="#ffffff" data-colored="false"></path><path id="SvgjsPath14169" d="M118,135.4c-2.6,0.7-9.8,2.1-11.8,1.8c-2.6-0.3-2.6-0.9-4.5-0.2c-0.4,0.1-2.1,0-2.6-0.2
		c-0.5-0.2-1.5,0-2.5,0.3c-2.7,0.7-3.4,0.3-7.6-0.6c-4.2-0.9-7-2.8-6.7-2.1c0.3,0.7,5.1,8.5,6.9,10.8c1.7,2.3,5.9,7.2,13.3,6
		c7.4-1.2,9-6.2,10.4-8c1.4-1.8,5.1-7.4,5.2-7.7C118.3,135.2,118.8,135.1,118,135.4z" stroke-width="none" fill="#8b8b8b" data-stroketype="none" data-filltype="tone" data-colored="true" stroke="none"></path><path id="SvgjsPath14170" d="M118,134.3c-2.6,0.7-9.9,1.4-11.9,1.1c-2.6-0.3-2.6-0.9-4.5-0.2c-0.4,0.1-2.1,0-2.6-0.2
		c-0.5-0.2-1.5,0-2.5,0.3c-2.7,0.7-3.5,0.6-7.7-0.3c-4.2-0.9-6.6-1-6.2-0.3c0.3,0.7,4.8,6.3,6.6,8.7c1.7,2.3,5.9,7.2,13.3,6
		c7.4-1.2,9-6.2,10.4-8c1.4-1.8,4.8-5.6,4.9-5.8C117.9,135.3,118.9,134.1,118,134.3z" stroke-width="none" fill="#1c8a36" data-fromskin="true" data-stroketype="none" data-filltype="sd3" data-colored="true" stroke="none"></path><path id="SvgjsPath14171" d="M118.1,134.1c-2.6,0.7-9.8,2.1-11.8,1.8c-2.6-0.3-2.6-0.9-4.5-0.2c-0.4,0.1-2.1,0-2.6-0.2
		c-0.5-0.2-1.5,0-2.5,0.3c-2.7,0.7-3.4,0.3-7.6-0.6c-4.2-0.9-7.1-1.6-6.8-0.9c0.3,0.7,5.3,7.3,7,9.6c1.7,2.3,5.9,7.2,13.3,6
		c7.4-1.2,9-6.2,10.4-8c1.4-1.8,5.2-6.6,5.4-6.8C118.6,134.8,118.9,133.9,118.1,134.1z" stroke-width="none" fill="#939393" data-stroketype="none" data-filltype="hl05" data-colored="true" stroke="none"></path><path id="SvgjsPath14172" d="M113.7,136.3c-1.8,0.5-3.5,1-5.3,1.4c-1.9,0.4-3.9,0.8-5.8,1.1
		c-2,0.3-3.9,0.3-5.9,0.1c-1.8-0.2-3.5-0.6-5.2-1.1c-1.7-0.5-3.5-1-5.3-1.5c-0.9-0.2-1.7-0.5-2.6-0.8c-0.1-0.1-0.3-0.1-0.4-0.2
		c0.8,0.8,1.7,1.4,2.6,2.1c1.7,1.1,3.5,2.1,5.2,3.1c1.9,1,3.8,1.9,5.8,2.6c0,0,0.1,0,0.1,0c2,0,4-0.2,5.9-0.5
		c2.3-0.5,4.6-1.2,6.8-2.2c1.4-0.7,2.7-1.5,3.9-2.5c0.4-0.4,0.9-0.8,1.3-1.2c0.5-0.5,0.9-0.9,1.4-1.4
		C115.6,135.7,114.7,136,113.7,136.3z" opacity="0.3" stroke="none" fill="url(#SVGID_1_)" data-stroketype="none" data-filltype="url(#SVGID_1_)" data-colored="false"></path><path id="SvgjsPath14173" d="M115.2,136.2c-2,1.1-7.8,3.7-14.8,3.8c-7,0.1-7.7-0.7-11.4-2.1c-3.7-1.4-5.9-3.3-4.5-1.7
		c0.6,0.7,5.3,6.6,9.2,7.8c3.9,1.2,8.7,1.4,12,0.2c3.3-1.2,9.1-6.7,9.4-7C117.1,135.2,115.2,136.2,115.2,136.2z" stroke="none" fill="#2d0911" data-stroketype="none" data-filltype="#2d0911" data-colored="false"></path><path id="SvgjsPath14174" d="M103.1,143.8c-1.6,0.2-3.1,0.4-4.7,0.3c-0.8-0.1-1.7-0.2-2.5-0.3c-0.4-0.1-0.8-0.1-1.2-0.2
		c-0.2,0-0.4,0-0.5-0.1c-0.1,0-0.2,0-0.3,0c0,0,0,0,0,0c-0.4,0-0.8,0-1.2,0c0.4,0.2,0.7,0.3,1.1,0.4c3.9,1.2,8.7,1.4,12,0.2
		c0.4-0.1,0.8-0.3,1.2-0.6C105.6,143.5,104.4,143.7,103.1,143.8z" stroke-width="none" fill="#1c8a36" data-fromskin="true" data-stroketype="none" data-filltype="sd3" data-colored="true" stroke="none"></path><path id="SvgjsPath14175" d="M113.6,137c-2.7,1.2-7.6,2.9-13.3,3c-7,0.1-7.7-0.7-11.4-2.1c-0.9-0.3-1.7-0.7-2.3-1
		c0.1,0.2,0.2,0.5,0.3,0.7c0,0,0,0.1,0.1,0.1c0,0,0.1,0.1,0.1,0.1c0.3,0.4,0.7,0.7,1.1,1.1c0.2,0.2,0.4,0.3,0.6,0.5
		c0.1,0,0.1,0.1,0.2,0.1c0.1,0,0.2,0.1,0.2,0.1c0.9,0.6,1.8,1,2.8,1.4c0,0,0.1,0,0.1,0c0.1,0,0.2,0.1,0.4,0.1
		c0.2,0.1,0.5,0.2,0.7,0.2c0.5,0.1,1.1,0.3,1.6,0.4C107,144,113.2,138.1,113.6,137z" stroke="none" fill="#f4efef" data-stroketype="none" data-filltype="#f4efef" data-colored="false"></path><path id="SvgjsPath14176" d="M118.2,132.1c0.1-0.1,0.2-0.2,0.3-0.2c0.1,0,0.3-0.1,0.4,0c0.3,0.1,0.5,0.3,0.7,0.5
		c0.4,0.4,0.6,0.9,0.7,1.5c0.1,0.5,0.1,1.1,0,1.6c0,0.3-0.1,0.5-0.2,0.8c-0.1,0.2-0.2,0.5-0.3,0.7c0.1-0.5,0.1-1,0.1-1.5
		c0-0.5,0-1-0.1-1.4c-0.1-0.5-0.2-0.9-0.5-1.3c0-0.1-0.1-0.1-0.1-0.1c0,0-0.1-0.1-0.1-0.1c-0.1-0.1-0.2-0.2-0.3-0.2
		c-0.1-0.1-0.2-0.1-0.3-0.1C118.4,132,118.3,132,118.2,132.1z" stroke-width="none" fill="#1c8a36" data-fromskin="true" data-stroketype="none" data-filltype="sd3" data-colored="true" stroke="none"></path><path id="SvgjsPath14177" d="M82.4,132.4c-0.1,0-0.2,0-0.4,0c-0.1,0-0.2,0.1-0.3,0.1c-0.1,0.1-0.2,0.1-0.2,0.2c0,0-0.1,0.1-0.1,0.1
		c0,0,0,0.1-0.1,0.2c-0.2,0.4-0.3,0.9-0.3,1.4c0,0.5,0,1,0.1,1.4c0.1,0.5,0.2,1,0.3,1.5c-0.2-0.2-0.3-0.4-0.4-0.6
		c-0.1-0.2-0.2-0.5-0.3-0.7c-0.2-0.5-0.2-1-0.2-1.6c0-0.5,0.2-1.1,0.5-1.5c0.1-0.2,0.3-0.5,0.6-0.6c0.1-0.1,0.3-0.1,0.4,0
		C82.2,132.2,82.3,132.3,82.4,132.4z" stroke-width="none" fill="#1c8a36" data-fromskin="true" data-stroketype="none" data-filltype="sd3" data-colored="true" stroke="none"></path></g><g id="svga-group-eyebrows-right" data-rotate="0" data-scaley="1" data-scalex="1" data-dist="0" data-leftright="0" data-updown="0"></g><g id="svga-group-nose-single" data-rotate="0" data-scaley="1" data-scalex="1" data-dist="0" data-leftright="0" data-updown="-15.000001499999996" transform="translate(0 -15.000001399999997)"><path id="SvgjsPath5650" d="M91.115 115.499c-0.878 2.064 5.934 4.292 8.519 4.429 2.8 0.147 10.646-2.9 9.316-4.992 -1.399-2.195-6.643-0.286-8.906-0.286C97.792 114.649 92.291 112.745 91.115 115.499z" data-colored="true" data-filltype="sd1" data-stroketype="none" data-fromskin="true" fill="#43a95c" stroke-width="none" opacity="1"></path><path id="SvgjsPath5651" d="M101.857 117.058c-0.23-0.759 1.876-1.584 2.657-1.694 1.101-0.16 3.36 0.802 3.158 1.592 -0.184 0.698-2.148-0.533-2.86-0.429C104.078 116.634 102.075 117.769 101.857 117.058zM94.974 116.811c0.968 0 2.404 0.623 2.668 0.074 0.315-0.655-2.139-1.461-2.86-1.372 -0.596 0.07-2.733 1.315-2.439 1.839C92.617 117.833 93.698 116.811 94.974 116.811z" data-colored="true" data-filltype="sd3" data-stroketype="none" data-fromskin="true" fill="#1c8a36" stroke-width="none" opacity="1"></path><path id="SvgjsPath5652" d="M100.089 111.999c0.607 0 1.742-0.74 1.792-2.23 0.201-6.008-0.956-23.833-1.792-23.77 -0.78 0.059-2.267 17.637-1.948 23.77C98.22 111.271 99.404 111.999 100.089 111.999z" data-colored="true" data-filltype="hl2" data-stroketype="none" data-fromskin="true" fill="#96d7a6" stroke-width="none" opacity="0.2"></path></g><g id="svga-group-beardwrap" data-rotate="0" data-scaley="1" data-scalex="1" data-dist="0" data-leftright="0" data-updown="0"><g id="svga-group-beard-single" data-rotate="0" data-scaley="1" data-scalex="1" data-dist="0" data-leftright="0" data-updown="6.000000600000001" transform="matrix(0.7269997800000001 0 0 0.7269997800000001 27.298656707304303 42.43924969997832) translate(0 6.0000005000000005)" data-scaleX="0.7269996700000001" data-scaleY="0.7269996700000001"></g></g><g id="svga-group-mustache-single" data-rotate="0" data-scaley="1.9210000000000007" data-scalex="1.9210000000000007" data-dist="0" data-leftright="0" data-updown="-9.000000900000002" transform="matrix(1.9199000000000006 0 0 1.9199000000000006 -91.99000000000007 -125.15238553208204) translate(0 -9.000001000000001)"></g><g id="svga-group-hair-front" data-rotate="0" data-scaley="1.0208992300000002" data-scalex="1.1402992300000003" data-dist="0" data-leftright="0" data-updown="0" transform="matrix(1.1391992300000002 0 0 1.01979923 0 0)"></g><g id="svga-group-glasses-single" data-rotate="0" data-scaley="1" data-scalex="1" data-dist="0" data-leftright="0" data-updown="0"></g></g></g><g id="svga-group-bubble-single" data-rotate="0" data-scaley="1" data-scalex="1" data-dist="0" data-leftright="0" data-updown="0"></g></g><defs id="defs_node"><radialGradient id="SvgjsRadialGradient1044" class="svga-on-canvas-facehighlight-gradient-single-0" gradientUnits="userSpaceOnUse" r="41" cy="114" cx="100"><stop id="SvgjsStop1045" offset="0" data-stoptype="hl1" stop-color="#78c78b" stop-opacity="0.5"></stop><stop id="SvgjsStop1046" offset="0.9" data-stoptype="tone" stop-color="#5cb872" stop-opacity="0"></stop></radialGradient><radialGradient id="SvgjsRadialGradient1048" class="svga-on-canvas-facehighlight-gradient-single-1" gradientUnits="userSpaceOnUse" r="37" cy="54" cx="100"><stop id="SvgjsStop1049" offset="0" data-stoptype="hl1" stop-color="#78c78b" stop-opacity="0.5"></stop><stop id="SvgjsStop1050" offset="0.9" data-stoptype="tone" stop-color="#5cb872" stop-opacity="0"></stop></radialGradient><linearGradient id="SvgjsLinearGradient1658" class="svga-on-canvas-chinshadow-gradient-single-0" gradientUnits="userSpaceOnUse" y2="123" x2="100" y1="172" x1="100"><stop id="SvgjsStop1659" offset="0" data-stoptype="sd1" stop-color="#43a95c" stop-opacity="0.8"></stop><stop id="SvgjsStop1660" offset="0.7" data-stoptype="sd3" stop-color="#1c8a36" stop-opacity="1"></stop></linearGradient><linearGradient id="SvgjsLinearGradient5635" class="svga-on-canvas-eyesiris-gradient-left-6" gradientUnits="userSpaceOnUse" gradientTransform="matrix(1 0 0 1 -50 0)" y2="84" x2="126" y1="78" x1="132"><stop id="SvgjsStop5636" offset="0" data-stoptype="#ffffff" stop-color="#ffffff" stop-opacity="1"></stop><stop id="SvgjsStop5637" offset="1" data-stoptype="#ffffff" stop-color="#ffffff" stop-opacity="0"></stop></linearGradient><linearGradient id="SvgjsLinearGradient5645" class="svga-on-canvas-eyesiris-gradient-right-6" gradientUnits="userSpaceOnUse" y2="84" x2="126" y1="78" x1="132"><stop id="SvgjsStop5646" offset="0" data-stoptype="#ffffff" stop-color="#ffffff" stop-opacity="1"></stop><stop id="SvgjsStop5647" offset="1" data-stoptype="#ffffff" stop-color="#ffffff" stop-opacity="0"></stop></linearGradient><radialGradient id="SvgjsRadialGradient14436" class="svga-on-canvas-backs-gradient-single-1" gradientUnits="userSpaceOnUse" r="150" cy="100" cx="100"><stop id="SvgjsStop14437" offset="0" data-stoptype="tone" stop-color="#8cbded" stop-opacity="0"></stop><stop id="SvgjsStop14438" offset="0.2" data-stoptype="sd1" stop-color="#6da6de" stop-opacity="1"></stop><stop id="SvgjsStop14439" offset="1" data-stoptype="sd1" stop-color="#6da6de" stop-opacity="0"></stop></radialGradient><radialGradient id="SvgjsRadialGradient15110" class="svga-on-canvas-eyesback-gradient-left-0" gradientUnits="userSpaceOnUse" gradientTransform="matrix(-1.0996 0.0423 0.0635 0.9207 206.5488 0.5932)" r="13.25" cy="85.096" cx="125.903"><stop id="SvgjsStop15111" offset="0" data-stoptype="#ffffff" stop-color="#ffffff" stop-opacity="1"></stop><stop id="SvgjsStop15112" offset="0.544" data-stoptype="#fdfefe" stop-color="#fdfefe" stop-opacity="1"></stop><stop id="SvgjsStop15113" offset="0.74" data-stoptype="#f6f8f9" stop-color="#f6f8f9" stop-opacity="1"></stop><stop id="SvgjsStop15114" offset="0.879" data-stoptype="#eaeff2" stop-color="#eaeff2" stop-opacity="1"></stop><stop id="SvgjsStop15115" offset="0.992" data-stoptype="#d9e3e8" stop-color="#d9e3e8" stop-opacity="1"></stop><stop id="SvgjsStop15116" offset="1" data-stoptype="#d8e2e7" stop-color="#d8e2e7" stop-opacity="1"></stop></radialGradient><radialGradient id="SvgjsRadialGradient15118" class="svga-on-canvas-eyesback-gradient-right-0" gradientUnits="userSpaceOnUse" gradientTransform="matrix(1.0996 0.0423 -0.0635 0.9207 -6.5488 0.5932)" r="13.249" cy="85.113" cx="125.541"><stop id="SvgjsStop15119" offset="0" data-stoptype="#ffffff" stop-color="#ffffff" stop-opacity="1"></stop><stop id="SvgjsStop15120" offset="0.544" data-stoptype="#fdfefe" stop-color="#fdfefe" stop-opacity="1"></stop><stop id="SvgjsStop15121" offset="0.74" data-stoptype="#f6f8f9" stop-color="#f6f8f9" stop-opacity="1"></stop><stop id="SvgjsStop15122" offset="0.879" data-stoptype="#eaeff2" stop-color="#eaeff2" stop-opacity="1"></stop><stop id="SvgjsStop15123" offset="0.992" data-stoptype="#d9e3e8" stop-color="#d9e3e8" stop-opacity="1"></stop><stop id="SvgjsStop15124" offset="1" data-stoptype="#d8e2e7" stop-color="#d8e2e7" stop-opacity="1"></stop></radialGradient><radialGradient id="SvgjsRadialGradient15126" class="svga-on-canvas-eyesfront-gradient-left-0" gradientUnits="userSpaceOnUse" gradientTransform="matrix(-1.0996 0.0423 0.0635 0.9207 206.5488 0.5932)" r="13.25" cy="85.096" cx="125.903"><stop id="SvgjsStop15127" offset="0" data-stoptype="#ffffff" stop-color="#ffffff" stop-opacity="1"></stop><stop id="SvgjsStop15128" offset="0.544" data-stoptype="#fdfefe" stop-color="#fdfefe" stop-opacity="1"></stop><stop id="SvgjsStop15129" offset="0.74" data-stoptype="#f6f8f9" stop-color="#f6f8f9" stop-opacity="1"></stop><stop id="SvgjsStop15130" offset="0.879" data-stoptype="#eaeff2" stop-color="#eaeff2" stop-opacity="1"></stop><stop id="SvgjsStop15131" offset="0.992" data-stoptype="#d9e3e8" stop-color="#d9e3e8" stop-opacity="1"></stop><stop id="SvgjsStop15132" offset="1" data-stoptype="#d8e2e7" stop-color="#d8e2e7" stop-opacity="1"></stop></radialGradient><radialGradient id="SvgjsRadialGradient15136" class="svga-on-canvas-eyesfront-gradient-left-3" gradientUnits="userSpaceOnUse" gradientTransform="matrix(0.9884 0.1367 0.1336 -0.7354 -56.0677 125.3)" r="17.038" fy="80.36" fx="136.805" cy="81.442" cx="123.371"><stop id="SvgjsStop15137" offset="0" data-stoptype="sd1" stop-color="#43a95c" stop-opacity="1"></stop><stop id="SvgjsStop15138" offset="0.7" data-stoptype="sd1" stop-color="#43a95c" stop-opacity="0.3"></stop><stop id="SvgjsStop15139" offset="1" data-stoptype="tone" stop-color="#5cb872" stop-opacity="0"></stop></radialGradient><radialGradient id="SvgjsRadialGradient15141" class="svga-on-canvas-eyesfront-gradient-left-4" gradientUnits="userSpaceOnUse" gradientTransform="matrix(0.7183 -0.06 0.0803 0.6143 8.7915 49.2595)" r="26.237" cy="81.143" cx="78.965"><stop id="SvgjsStop15142" offset="0.95" data-stoptype="#000000" stop-color="#000000" stop-opacity="0"></stop><stop id="SvgjsStop15143" offset="1" data-stoptype="#000000" stop-color="#000000" stop-opacity="0.2"></stop></radialGradient><radialGradient id="SvgjsRadialGradient15147" class="svga-on-canvas-eyesfront-gradient-right-0" gradientUnits="userSpaceOnUse" gradientTransform="matrix(1.0996 0.0423 -0.0635 0.9207 -6.5488 0.5932)" r="13.249" cy="85.113" cx="125.541"><stop id="SvgjsStop15148" offset="0" data-stoptype="#ffffff" stop-color="#ffffff" stop-opacity="1"></stop><stop id="SvgjsStop15149" offset="0.544" data-stoptype="#fdfefe" stop-color="#fdfefe" stop-opacity="1"></stop><stop id="SvgjsStop15150" offset="0.74" data-stoptype="#f6f8f9" stop-color="#f6f8f9" stop-opacity="1"></stop><stop id="SvgjsStop15151" offset="0.879" data-stoptype="#eaeff2" stop-color="#eaeff2" stop-opacity="1"></stop><stop id="SvgjsStop15152" offset="0.992" data-stoptype="#d9e3e8" stop-color="#d9e3e8" stop-opacity="1"></stop><stop id="SvgjsStop15153" offset="1" data-stoptype="#d8e2e7" stop-color="#d8e2e7" stop-opacity="1"></stop></radialGradient><radialGradient id="SvgjsRadialGradient15157" class="svga-on-canvas-eyesfront-gradient-right-3" gradientUnits="userSpaceOnUse" gradientTransform="matrix(-0.9884 0.1367 -0.1336 -0.7354 255.271 125.3424)" r="17.037" fy="80.344" fx="136.406" cy="81.425" cx="122.972"><stop id="SvgjsStop15158" offset="0" data-stoptype="sd1" stop-color="#43a95c" stop-opacity="1"></stop><stop id="SvgjsStop15159" offset="0.7" data-stoptype="sd1" stop-color="#43a95c" stop-opacity="0.3"></stop><stop id="SvgjsStop15160" offset="1" data-stoptype="tone" stop-color="#5cb872" stop-opacity="0"></stop></radialGradient><radialGradient id="SvgjsRadialGradient15162" class="svga-on-canvas-eyesfront-gradient-right-4" gradientUnits="userSpaceOnUse" gradientTransform="matrix(-0.7183 -0.06 -0.0803 0.6143 191.2076 49.2665)" r="26.237" cy="81.186" cx="79.515"><stop id="SvgjsStop15163" offset="0.95" data-stoptype="#000000" stop-color="#000000" stop-opacity="0"></stop><stop id="SvgjsStop15164" offset="1" data-stoptype="#000000" stop-color="#000000" stop-opacity="0.2"></stop></radialGradient></defs></svg>