<svg id="svga-svgcanvas" style="overflow: hidden; position: relative; left: -0.265625px; top: 0px; -webkit-user-select: none; -webkit-user-drag: none; -webkit-tap-highlight-color: rgba(0, 0, 0, 0); touch-action: none;" xmlns="http://www.w3.org/2000/svg" version="1.1" xlink="http://www.w3.org/1999/xlink" class="svga-svg" viewBox="0 0 200 200" preserveAspectRatio="xMinYMin meet" width="250" height="250"><g id="defs_node"><g id="svga-group-backs-single"><path id="SvgjsPath3492" d="M225 225H-25V-25h250V225z" opacity="1" stroke-width="none" fill="#d2e2f4" data-stroketype="none" data-filltype="tone" data-colored="true"></path><path id="SvgjsPath3493" d="M100 85c-8.284 0-15 6.716-15 15s6.716 15 15 15 15-6.716 15-15S108.284 85 100 85zM100 110c-5.522 0-10-4.478-10-10s4.478-10 10-10 10 4.478 10 10S105.522 110 100 110zM100 70c-16.568 0-30 13.432-30 30s13.432 30 30 30 30-13.432 30-30S116.568 70 100 70zM100 125c-13.807 0-25-11.193-25-25s11.193-25 25-25 25 11.193 25 25S113.807 125 100 125zM100 55c-24.853 0-45 20.147-45 45s20.147 45 45 45 45-20.147 45-45S124.853 55 100 55zM100 140c-22.091 0-40-17.909-40-40s17.909-40 40-40 40 17.909 40 40S122.091 140 100 140zM100 40c-33.137 0-60 26.863-60 60s26.863 60 60 60 60-26.863 60-60S133.137 40 100 40zM100 155c-30.375 0-55-24.625-55-55s24.625-55 55-55 55 24.625 55 55S130.375 155 100 155zM100 25c-41.421 0-75 33.579-75 75s33.579 75 75 75 75-33.579 75-75S141.421 25 100 25zM100 170c-38.658 0-70-31.342-70-70s31.342-70 70-70 70 31.342 70 70S138.658 170 100 170zM100 10c-49.705 0-90 40.295-90 90s40.295 90 90 90 90-40.295 90-90S149.705 10 100 10zM100 184.999c-46.943 0-85-38.057-85-84.999s38.057-85.001 85-85.001S185 53.058 185 100 146.943 184.999 100 184.999zM100-5C42.011-5-5 42.011-5 100s47.011 105 105 105 105-47.011 105-105S157.989-5 100-5zM100 199.998C44.772 199.998 0 155.226 0 100 0 44.773 44.772-0.001 100-0.001S200 44.773 200 100C200 155.226 155.228 199.998 100 199.998zM100-35C25.442-35-35 25.442-35 100s60.442 135 135 135 135-60.442 135-135S174.558-35 100-35zM100 229.998c-71.795 0-130-58.205-130-129.998 0-71.795 58.205-130.002 130-130.002 71.794 0 130 58.207 130 130.002C230 171.793 171.794 229.998 100 229.998zM100-20C33.727-20-20 33.727-20 100s53.727 120 120 120 120-53.727 120-120S166.273-20 100-20zM100 214.998C36.489 214.998-15 163.51-15 100c0-63.511 51.489-115.002 115-115.002S215 36.489 215 100C215 163.51 163.511 214.998 100 214.998z" opacity="1" stroke-width="none" fill="#aec8e5" data-stroketype="none" data-filltype="sd1" data-colored="true"></path></g><g id="svga-group-subwrapper" data-updown="0" data-leftright="60.00000300000003" data-dist="0" data-scalex="1" data-scaley="1" data-rotate="0" transform="matrix(1.9199000000000006 0 0 1.9199000000000006 -100.6515425637453 -109.68037419593817) translate(20.000002900000027 6.799999999999999)" data-scaleX="1.9210000000000007" data-scaleY="1.9210000000000007"><g id="svga-group-hair-back" data-updown="0" data-leftright="0" data-dist="0" data-scalex="1" data-scaley="1" data-rotate="-14.9999999" transform="matrix(1.0905998900000002 0 0 1.0109998900000001 0 0) rotate(-15 100 150)"></g><g id="svga-group-humanbody-single" data-updown="5.0000005" data-leftright="0" data-dist="0" data-scalex="1" data-scaley="1" data-rotate="0" transform="translate(0 5.000000399999999)"><path id="SvgjsPath1057" d="M190.858 199.866c-6.008-10.158-13.474-11.973-19.628-13.936 -6.323-2.016-19.346-3.178-26.449-4.6 -6.86-1.373-23.153-5.789-23.339-13.488 -0.192-8.066 4.291-40.09 4.291-40.09H74.005c0 0 4.487 32.023 4.294 40.09 -0.184 7.699-16.48 12.115-23.341 13.488 -7.104 1.422-20.125 2.584-26.448 4.6 -6.156 1.963-13.624 3.777-19.632 13.936 -3.644 6.16-6.008 16.133-6.008 27.133h194C196.869 215.999 194.509 206.026 190.858 199.866z" data-colored="true" data-filltype="tone" data-stroketype="none" data-fromskin="true" fill="#932896" stroke-width="none" opacity="1" stroke="none"></path><path id="SvgjsPath1058" d="M121.442 167.843c2.495 10.929 18.165 13.698 26.293 15.325 21.909 4.379 33.772 5.134 42.297 19.539 2.903 4.916 5.459 15.864 5.962 24.153 1.835 0.291 0.531-17.432-5.136-26.994 -9.742-16.472-29.089-15.135-46.077-18.535C137.921 179.958 121.628 175.542 121.442 167.843L121.442 167.843zM78.558 167.843c-0.186 7.699-16.479 12.115-23.339 13.488 -16.988 3.4-36.335 2.063-46.077 18.535 -5.667 9.563-6.971 27.285-5.136 26.994 0.503-8.289 3.059-19.237 5.962-24.153 8.524-14.405 20.388-15.16 42.297-19.539C60.393 181.541 76.063 178.771 78.558 167.843L78.558 167.843z" data-colored="true" data-filltype="hl1" data-stroketype="none" data-fromskin="true" fill="#a23da5" stroke-width="none" opacity="1" stroke="none"></path><path id="SvgjsPath1059" d="M51.206 189.513c0 0 28.641 0.299 33.473 1.885 2.314 0.758 8.372 5.633 8.372 5.633s-6.556-3.17-8.658-3.758C79.51 191.909 51.206 189.513 51.206 189.513zM99.795 199.999c2.053-0.041 7.887-3.799 7.887-3.799s-5.574 2.059-7.342 2.16c-1.491 0.086-6.366-1.238-6.366-1.238S98.112 200.032 99.795 199.999zM117.008 192.757c6.75-1.818 29.786-3.23 29.786-3.23s-23.791-0.516-30.51 1.725c-2.252 0.752-7.562 5.16-7.562 5.16S114.786 193.354 117.008 192.757z" data-colored="true" data-filltype="sd1" data-stroketype="none" data-fromskin="true" fill="#841687" stroke-width="none" opacity="1" stroke="none"></path><path id="SvgjsPath1060" d="M190.858 199.866c-9.741-16.471-29.122-15.142-46.077-18.535 -6.86-1.373-23.153-5.789-23.339-13.488 -0.192-8.066 4.291-40.09 4.291-40.09H74.005c0 0 4.487 32.023 4.294 40.09 -0.184 7.699-16.48 12.115-23.341 13.488 -7.104 1.422-20.125 2.584-26.448 4.6 -6.156 1.963-13.624 3.777-19.632 13.936 -3.644 6.16-6.008 16.133-6.008 27.133h194C196.869 215.999 194.509 206.026 190.858 199.866z" data-colored="true" data-filltype="none" data-stroketype="sd3" data-fromskin="true" fill="none" stroke="#650068" stroke-width="1.5" opacity="1"></path></g><g id="svga-group-chinshadow-single" data-updown="5.0000005" data-leftright="0" data-dist="0" data-scalex="1" data-scaley="1" data-rotate="0" transform="translate(0 5.000000399999999)"><path id="SvgjsPath1045" d="M100.002 171.27c11.208 0 16.588-3.813 20.938-7.778 0.582-8.897 2.669-24.918 3.646-32.155 -14.784-1.753-34.708-1.742-49.43 0.032 0.971 7.183 3.024 22.934 3.628 31.864C83.185 167.29 88.551 171.27 100.002 171.27z" data-colored="false" data-filltype="gradient" data-stroketype="none" data-fromskin="true" fill="url(#SvgjsLinearGradient1046)" opacity="1"></path></g><g id="svga-group-clothes-single" data-updown="5.0000005" data-leftright="0" data-dist="0" data-scalex="1" data-scaley="1" data-rotate="0" transform="translate(0 5.000000399999999)"></g><g id="svga-group-head" data-updown="0" data-leftright="0" data-dist="0" data-scalex="1" data-scaley="1" data-rotate="-14.9999999" transform="rotate(-15 100 150)"><g id="svga-group-ears-left" data-updown="0" data-leftright="-6.000000400000001" data-dist="0" data-scalex="1" data-scaley="1" data-rotate="0" transform="translate(-6.000000500000001 0)"></g><g id="svga-group-ears-right" data-updown="0" data-leftright="6.000000400000001" data-dist="0" data-scalex="1" data-scaley="1" data-rotate="0" transform="translate(6.000000500000001 0)"></g><g id="svga-group-faceshape-wrap" data-updown="0" data-leftright="0" data-dist="0" data-scalex="1" data-scaley="1" data-rotate="0" transform="matrix(1.0905998900000002 0 0 1.0109998900000001 -9.060215720916162 -0.8807446922709374)"><g id="svga-group-faceshape-single" data-updown="0" data-leftright="0" data-dist="0" data-scalex="1" data-scaley="1" data-rotate="0"><path id="SvgjsPath1038" d="M100.002 0.867C66.384 0.919 39.082 28.09 39.134 61.564c0.008 5.316 0.704 10.471 2.002 15.382h0.001C41.15 77 52.68 114.915 55.158 127.369c1.382 6.945 9.063 15.403 16.531 20.513 6.967 4.767 11.263 11.388 28.313 11.388s21.346-6.621 28.313-11.388c7.468-5.109 15.149-13.567 16.531-20.513 2.479-12.454 14.009-50.37 14.02-50.423h0.002c1.298-4.911 1.994-10.066 2.002-15.382C160.923 28.09 133.62 0.919 100.002 0.867z" data-colored="true" data-filltype="tone" data-stroketype="none" stroke-width="none" opacity="1" fill="#932896" stroke="none"></path><path id="SvgjsPath1039" d="M146.772 22.738c7.478 10.183 11.917 22.87 11.898 36.626 -0.009 5.316-0.679 10.471-1.93 15.382h-0.002c-0.011 0.053-11.124 37.969-13.512 50.423 -1.335 6.945-8.737 15.403-15.935 20.513 -6.718 4.767-10.854 11.388-27.291 11.388 -16.434 0-20.575-6.621-27.291-11.388 -7.197-5.109-14.602-13.567-15.931-20.513 -2.391-12.454-13.504-50.37-13.515-50.423h0c-1.252-4.911-1.922-10.066-1.931-15.382 -0.021-13.752 4.416-26.435 11.889-36.617 -8.812 10.525-14.112 24.056-14.089 38.817 0.008 5.316 0.704 10.471 2.002 15.382h0.001C41.15 77 52.68 114.915 55.158 127.369c1.382 6.945 9.063 15.403 16.531 20.513 6.967 4.767 11.263 11.388 28.313 11.388s21.346-6.621 28.313-11.388c7.468-5.109 15.149-13.567 16.531-20.513 2.479-12.454 14.009-50.37 14.02-50.423h0.002c1.298-4.911 1.994-10.066 2.002-15.382C160.894 46.799 155.589 33.264 146.772 22.738z" data-colored="true" data-filltype="sd05" data-stroketype="none" fill="#8b1f8e" stroke-width="none" opacity="1" stroke="none"></path><path id="SvgjsPath1040" d="M100.002 0.867C66.384 0.919 39.082 28.09 39.134 61.564c0.008 5.316 0.704 10.471 2.002 15.382h0.001C41.15 77 52.68 114.915 55.158 127.369c1.382 6.945 9.063 15.403 16.531 20.513 6.967 4.767 11.263 11.388 28.313 11.388s21.346-6.621 28.313-11.388c7.468-5.109 15.149-13.567 16.531-20.513 2.479-12.454 14.009-50.37 14.02-50.423h0.002c1.298-4.911 1.994-10.066 2.002-15.382C160.923 28.09 133.62 0.919 100.002 0.867z" data-colored="true" data-filltype="none" data-stroketype="sd3" fill="none" stroke="#650068" stroke-width="1.5" opacity="1"></path></g></g><g id="svga-group-eyes-left" data-updown="0" data-leftright="-2.0000001999999992" data-dist="0" data-scalex="1" data-scaley="1" data-rotate="0" transform="matrix(1.5515000000000003 0 0 1.5515000000000003 -41.05393473085603 -48.531448802948034) translate(-2.0000000999999994 0)"><g id="svga-group-eyesback-left"><path id="SvgjsPath4187" d="M60.986 83.262c0.405-0.904 2.145-2.183 5.923-3.078 1.724-0.409 4.107-0.321 6.578-0.143 5.98 0.429 11.736 4.248 13.547 7.316 0.004 0 0.008 0 0.012 0 0.351 0.611 0.565 1.192 0.585 1.702 0.041 1.082-0.444 1.94-1.316 2.623 0.001-0.001 0.002-0.002 0.003-0.004 -2.256 1.847-8.541 2.244-12.319 2.213 -7.52-0.063-9.723-2.969-9.723-2.969 -0.938-1.243-2.008-2.639-2.695-4.086 0.018 0.023 0.028 0.036 0.028 0.036 -0.715-1.591-0.636-2.143-0.719-3.156C60.904 83.566 60.938 83.414 60.986 83.262z" opacity="1" fill="url(#SvgjsRadialGradient4188)" data-stroketype="none" data-filltype="gradient" data-colored="false"></path></g><g id="svga-group-eyesiriswrapper-left" transform="translate(-0.75 0.25)"><g id="svga-group-eyesiriscontrol-left" data-updown="0" data-leftright="0" data-dist="0" data-scalex="1" data-scaley="1" data-rotate="0"><g id="svga-group-eyesiris-left" data-updown="0" data-leftright="0" data-dist="0" data-scalex="1" data-scaley="1" data-rotate="0"><path id="SvgjsPath2780" d="M85.129 90.705c-1.521 7.45-7.283 11.838-12.882 9.792 -5.594-2.044-8.899-9.75-7.376-17.2 1.521-7.454 7.296-11.841 12.89-9.794C83.351 75.546 86.652 83.251 85.129 90.705z" opacity="1" stroke="#af8400" stroke-width="0.5" fill="#ddb332" data-stroketype="sd3" data-filltype="tone" data-colored="true"></path><path id="SvgjsPath2781" d="M83.496 90.879c-1.484 5.719-5.964 9.057-10.323 7.465 -4.024-1.474-6.565-6.625-6.235-12.067 1.495-0.156 3.126-0.205 4.822-0.093 -0.017 0.078-0.047 0.145-0.063 0.225 -0.533 2.626 0.713 5.377 2.787 6.138 2.081 0.759 4.202-0.764 4.738-3.387 0.066-0.343 0.103-0.687 0.113-1.025C80.757 88.826 82.153 89.72 83.496 90.879z" opacity="1" stroke-width="none" fill="#ecc54d" data-stroketype="none" data-filltype="hl1" data-colored="true"></path><path id="SvgjsPath2782" d="M76.421 82.826c-2.102-0.804-4.249 0.797-4.791 3.59 -0.544 2.781 0.721 5.689 2.823 6.493 2.107 0.805 4.254-0.797 4.797-3.577C79.798 86.537 78.527 83.627 76.421 82.826zM76.882 92.7c-0.875 0.362-1.78-0.119-2.021-1.079 -0.232-0.958 0.286-2.022 1.167-2.377 0.881-0.362 1.782 0.12 2.025 1.073C78.29 91.271 77.769 92.337 76.882 92.7z" opacity="0.9" stroke-width="none" fill="#000000" data-stroketype="none" data-filltype="#000000" data-colored="false"></path><path id="SvgjsPath2783" d="M69.42 94.372c-0.648 0.518-1.613 0.056-2.168-1.042 -0.554-1.088-0.47-2.391 0.181-2.911 0.641-0.51 1.618-0.047 2.168 1.042C70.145 92.551 70.067 93.855 69.42 94.372z" opacity="0.6" stroke-width="none" fill="#ffffff" data-stroketype="none" data-filltype="#ffffff" data-colored="false"></path><path id="SvgjsPath2784" d="M83.243 86.395c-1.481 1.181-3.707 0.116-4.966-2.38 -1.26-2.5-1.07-5.489 0.41-6.667 1.478-1.188 3.704-0.123 4.958 2.378C84.904 82.226 84.723 85.209 83.243 86.395z" opacity="0.9" stroke-width="none" fill="#ffffff" data-stroketype="none" data-filltype="#ffffff" data-colored="false"></path></g></g></g><g id="svga-group-eyesfront-left"><path id="SvgjsPath4212" d="M56 88c0 13.808 8.06 24.999 18 24.999S92 101.808 92 88c0-13.809-8.06-25.001-18-25.001S56 74.191 56 88zM61.58 86.836c0.018 0.023 0.028 0.036 0.028 0.036 -0.715-1.591-0.636-2.143-0.719-3.156 0.015-0.149 0.048-0.301 0.097-0.454 0.405-0.904 2.145-2.183 5.923-3.078 1.724-0.409 4.107-0.321 6.578-0.143 5.98 0.429 11.736 4.248 13.547 7.316 0.004 0 0.008 0 0.012 0 0.351 0.611 0.565 1.192 0.585 1.702 0.041 1.082-0.444 1.94-1.316 2.623 0.001-0.001 0.002-0.002 0.003-0.004 -2.256 1.847-8.541 2.244-12.319 2.213 -7.52-0.063-9.723-2.969-9.723-2.969C63.337 89.679 62.268 88.283 61.58 86.836z" opacity="1" stroke-width="none" fill="#932896" data-fromskin="true" data-stroketype="none" data-filltype="tone" data-colored="true" stroke="none"></path><path id="SvgjsPath4213" d="M57.143 85.081c0.027 8.284 8.484 14.962 18.902 14.919 10.414-0.047 18.836-6.796 18.813-15.08C94.83 76.635 86.371 69.957 75.955 70 65.539 70.047 57.119 76.796 57.143 85.081zM61.608 86.872c-0.715-1.591-0.636-2.143-0.719-3.156 0.015-0.149 0.048-0.301 0.097-0.454 0.405-0.904 2.145-2.183 5.923-3.078 1.724-0.409 4.107-0.321 6.578-0.143 5.98 0.429 11.736 4.248 13.547 7.316 0.004 0 0.008 0 0.012 0 0.351 0.611 0.565 1.192 0.585 1.702 0.041 1.082-0.444 1.94-1.316 2.623 0.001-0.001 0.002-0.002 0.003-0.004 -2.256 1.847-8.541 2.244-12.319 2.213 -7.52-0.063-9.723-2.969-9.723-2.969 -0.938-1.243-2.008-2.639-2.695-4.086C61.598 86.859 61.608 86.872 61.608 86.872z" opacity="1" fill="url(#SvgjsRadialGradient4214)" data-fromskin="true" data-stroketype="none" data-filltype="gradient" data-colored="false"></path><path id="SvgjsPath4218" d="M64.275 90.922c-0.938-1.243-2.008-2.639-2.695-4.086 0.018 0.023 0.028 0.036 0.028 0.036 -0.715-1.591-0.636-2.143-0.719-3.156 0.015-0.149 0.048-0.301 0.097-0.454 0.405-0.904 2.145-2.183 5.923-3.078 1.724-0.409 4.107-0.321 6.578-0.143 5.98 0.429 11.736 4.248 13.547 7.316 0.004 0 0.008 0 0.012 0 0.351 0.611 0.565 1.192 0.585 1.702 0.041 1.082-0.444 1.94-1.316 2.623 0.001-0.001 0.002-0.002 0.003-0.004 -2.256 1.847-8.541 2.244-12.319 2.213C66.479 93.828 64.275 90.922 64.275 90.922z" opacity="1" fill="url(#SvgjsRadialGradient4219)" data-stroketype="none" data-filltype="gradient" data-colored="false"></path><path id="SvgjsPath4222" d="M88.256 84.111c-6.821-5.453-10.878-7.558-19.341-7.756 5.832-0.553 11.102 1.27 14.204 3.22C84.57 80.487 87.256 83.237 88.256 84.111z" opacity="1" stroke-width="none" fill="#650068" data-fromskin="true" data-stroketype="none" data-filltype="sd3" data-colored="true" stroke="none"></path><path id="SvgjsPath4223" d="M73.998 93.782c3.778 0.031 10.063-0.36 12.319-2.179 -3.322 2.549-8.594 2.881-11.579 2.931 -1.947 0.032-5.992-0.08-7.732-0.953 -0.844-0.423-2.398-1.754-2.73-2.721C64.275 90.86 66.479 93.721 73.998 93.782zM60.151 79.638c-2.637 0.1-4.002-0.024-4.002-0.024 1.445 1.008 1.701 1.207 2.362 2.363 1.348 2.355 3.097 4.895 3.097 4.895 -0.715-1.567-0.636-2.11-0.719-3.107 -0.071-0.864 1.554-2.436 6.02-3.477 1.724-0.402 4.107-0.315 6.578-0.141 5.98 0.423 11.736 4.183 13.547 7.204 0.27-0.012 0.587-0.017 0.693-0.13 0.106-0.114 0.056-0.489-0.021-0.626 -2.488-4.434-11.123-9.373-18.236-9C64.524 77.854 61.992 79.568 60.151 79.638z" opacity="1" stroke-width="none" data-stroketype="none" data-filltype="tone" data-colored="true" stroke="none"></path></g></g><g id="svga-group-eyes-right" data-updown="0" data-leftright="2.0000001999999992" data-dist="0" data-scalex="1" data-scaley="1" data-rotate="0" transform="matrix(1.5515000000000003 0 0 1.5515000000000003 -69.2463387638645 -48.531448802948034) translate(2.0000000999999994 0)"><g id="svga-group-eyesback-right"><path id="SvgjsPath4195" d="M139.014 83.262c-0.405-0.904-2.145-2.183-5.923-3.078 -1.724-0.409-4.107-0.321-6.578-0.143 -5.98 0.429-11.736 4.248-13.547 7.316 -0.004 0-0.008 0-0.012 0 -0.351 0.611-0.565 1.192-0.585 1.702 -0.041 1.082 0.444 1.94 1.316 2.623 -0.001-0.001-0.002-0.002-0.003-0.004 2.256 1.847 8.541 2.244 12.319 2.213 7.52-0.063 9.723-2.969 9.723-2.969 0.938-1.243 2.008-2.639 2.695-4.086 -0.018 0.023-0.028 0.036-0.028 0.036 0.715-1.591 0.636-2.143 0.719-3.156C139.096 83.566 139.063 83.414 139.014 83.262z" opacity="1" fill="url(#SvgjsRadialGradient4196)" data-stroketype="none" data-filltype="gradient" data-colored="false"></path></g><g id="svga-group-eyesiriswrapper-right" transform="translate(0.75 0.25)"><g id="svga-group-eyesiriscontrol-right" data-updown="0" data-leftright="0" data-dist="0" data-scalex="1" data-scaley="1" data-rotate="0"><g id="svga-group-eyesiris-right" data-updown="0" data-leftright="0" data-dist="0" data-scalex="1" data-scaley="1" data-rotate="0"><path id="SvgjsPath2785" d="M135.129 90.705c-1.521 7.45-7.283 11.838-12.882 9.792 -5.594-2.044-8.899-9.75-7.376-17.2 1.521-7.454 7.296-11.841 12.89-9.794C133.351 75.546 136.652 83.251 135.129 90.705z" opacity="1" stroke="#af8400" stroke-width="0.5" fill="#ddb332" data-stroketype="sd3" data-filltype="tone" data-colored="true"></path><path id="SvgjsPath2786" d="M133.496 90.879c-1.484 5.719-5.964 9.057-10.323 7.465 -4.024-1.474-6.565-6.625-6.235-12.067 1.495-0.156 3.126-0.205 4.822-0.093 -0.017 0.078-0.047 0.145-0.063 0.225 -0.533 2.626 0.713 5.377 2.787 6.138 2.081 0.759 4.202-0.764 4.738-3.387 0.066-0.343 0.103-0.687 0.113-1.025C130.757 88.826 132.153 89.72 133.496 90.879z" opacity="1" stroke-width="none" fill="#ecc54d" data-stroketype="none" data-filltype="hl1" data-colored="true"></path><path id="SvgjsPath2787" d="M126.421 82.826c-2.102-0.804-4.249 0.797-4.791 3.59 -0.544 2.781 0.721 5.689 2.823 6.493 2.107 0.805 4.254-0.797 4.797-3.577C129.798 86.537 128.527 83.627 126.421 82.826zM126.882 92.7c-0.875 0.362-1.78-0.119-2.021-1.079 -0.232-0.958 0.286-2.022 1.167-2.377 0.881-0.362 1.782 0.12 2.025 1.073C128.29 91.271 127.769 92.337 126.882 92.7z" opacity="0.9" stroke-width="none" fill="#000000" data-stroketype="none" data-filltype="#000000" data-colored="false"></path><path id="SvgjsPath2788" d="M119.42 94.372c-0.648 0.518-1.613 0.056-2.168-1.042 -0.554-1.088-0.47-2.391 0.181-2.911 0.641-0.51 1.618-0.047 2.168 1.042C120.145 92.551 120.067 93.855 119.42 94.372z" opacity="0.6" stroke-width="none" fill="#ffffff" data-stroketype="none" data-filltype="#ffffff" data-colored="false"></path><path id="SvgjsPath2789" d="M133.243 86.395c-1.481 1.181-3.707 0.116-4.966-2.38 -1.26-2.5-1.07-5.489 0.41-6.667 1.478-1.188 3.704-0.123 4.958 2.378C134.904 82.226 134.723 85.209 133.243 86.395z" opacity="0.9" stroke-width="none" fill="#ffffff" data-stroketype="none" data-filltype="#ffffff" data-colored="false"></path></g></g></g><g id="svga-group-eyesfront-right"><path id="SvgjsPath4233" d="M126 62.999c-9.94 0-18 11.193-18 25.001 0 13.808 8.06 24.999 18 24.999S144 101.808 144 88C144 74.191 135.94 62.999 126 62.999zM135.725 90.922c0 0-2.203 2.906-9.723 2.969 -3.778 0.031-10.063-0.366-12.319-2.213 0.001 0.001 0.002 0.002 0.003 0.004 -0.872-0.682-1.357-1.541-1.316-2.623 0.02-0.509 0.234-1.09 0.585-1.702 0.004 0 0.008 0 0.012 0 1.811-3.068 7.566-6.887 13.547-7.316 2.471-0.178 4.854-0.266 6.578 0.143 3.778 0.895 5.518 2.173 5.923 3.078 0.049 0.152 0.082 0.305 0.097 0.454 -0.083 1.013-0.004 1.565-0.719 3.156 0 0 0.011-0.013 0.028-0.036C137.732 88.283 136.663 89.679 135.725 90.922z" opacity="1" stroke-width="none" fill="#932896" data-fromskin="true" data-stroketype="none" data-filltype="tone" data-colored="true" stroke="none"></path><path id="SvgjsPath4234" d="M124.045 70c-10.416-0.043-18.875 6.635-18.902 14.92 -0.023 8.284 8.398 15.033 18.813 15.08 10.418 0.043 18.875-6.635 18.902-14.919C142.881 76.796 134.461 70.047 124.045 70zM138.42 86.836c-0.688 1.447-1.757 2.843-2.695 4.086 0 0-2.203 2.906-9.723 2.969 -3.778 0.031-10.063-0.366-12.319-2.213 0.001 0.001 0.002 0.002 0.003 0.004 -0.872-0.682-1.357-1.541-1.316-2.623 0.02-0.509 0.234-1.09 0.585-1.702 0.004 0 0.008 0 0.012 0 1.811-3.068 7.566-6.887 13.547-7.316 2.471-0.178 4.854-0.266 6.578 0.143 3.778 0.895 5.518 2.173 5.923 3.078 0.049 0.152 0.082 0.305 0.097 0.454 -0.083 1.013-0.004 1.565-0.719 3.156C138.392 86.872 138.402 86.859 138.42 86.836z" opacity="1" fill="url(#SvgjsRadialGradient4235)" data-fromskin="true" data-stroketype="none" data-filltype="gradient" data-colored="false"></path><path id="SvgjsPath4239" d="M135.725 90.922c0.938-1.243 2.008-2.639 2.695-4.086 -0.018 0.023-0.028 0.036-0.028 0.036 0.715-1.591 0.636-2.143 0.719-3.156 -0.015-0.149-0.048-0.301-0.097-0.454 -0.405-0.904-2.145-2.183-5.923-3.078 -1.724-0.409-4.107-0.321-6.578-0.143 -5.98 0.429-11.736 4.248-13.547 7.316 -0.004 0-0.008 0-0.012 0 -0.351 0.611-0.565 1.192-0.585 1.702 -0.041 1.082 0.444 1.94 1.316 2.623 -0.001-0.001-0.002-0.002-0.003-0.004 2.256 1.847 8.541 2.244 12.319 2.213C133.521 93.828 135.725 90.922 135.725 90.922z" opacity="1" fill="url(#SvgjsRadialGradient4240)" data-stroketype="none" data-filltype="gradient" data-colored="false"></path><path id="SvgjsPath4243" d="M111.744 84.111c6.821-5.453 10.878-7.558 19.341-7.756 -5.832-0.553-11.102 1.27-14.204 3.22C115.43 80.487 112.744 83.237 111.744 84.111z" opacity="1" stroke-width="none" fill="#650068" data-fromskin="true" data-stroketype="none" data-filltype="sd3" data-colored="true" stroke="none"></path><path id="SvgjsPath4244" d="M135.725 90.86c-0.332 0.966-1.887 2.297-2.73 2.721 -1.74 0.873-5.785 0.985-7.732 0.953 -2.985-0.049-8.257-0.381-11.579-2.931 2.256 1.819 8.541 2.21 12.319 2.179C133.521 93.721 135.725 90.86 135.725 90.86zM130.529 77.594c-7.113-0.373-15.748 4.565-18.236 9 -0.076 0.137-0.127 0.512-0.021 0.626 0.106 0.114 0.424 0.118 0.693 0.13 1.811-3.021 7.566-6.781 13.547-7.204 2.471-0.174 4.854-0.261 6.578 0.141 4.466 1.041 6.091 2.613 6.02 3.477 -0.083 0.997-0.004 1.541-0.719 3.107 0 0 1.749-2.54 3.097-4.895 0.661-1.156 0.917-1.355 2.362-2.363 0 0-1.365 0.124-4.002 0.024C138.008 79.568 135.476 77.854 130.529 77.594z" opacity="1" stroke-width="none" data-stroketype="none" data-filltype="tone" data-colored="true" stroke="none"></path></g></g><g id="svga-group-facehighlight-single" data-updown="0" data-leftright="0" data-dist="0" data-scalex="1" data-scaley="1" data-rotate="0"><path id="SvgjsPath1049" d="M140.204 113.007c0.035 22.275-17.995 40.365-40.273 40.396 -22.274 0.036-40.361-17.993-40.396-40.272C59.501 90.857 77.53 72.77 99.808 72.735 122.083 72.701 140.171 90.73 140.204 113.007z" data-colored="false" data-filltype="gradient" data-stroketype="none" data-fromskin="true" fill="url(#SvgjsRadialGradient1050)" opacity="1"></path><path id="SvgjsPath1053" d="M135,55.999c0,19.329-15.671,35-35,35c-19.329,0-35-15.671-35-35s15.671-35,35-35C119.329,20.999,135,36.67,135,55.999z" data-colored="false" data-filltype="gradient" data-stroketype="none" data-fromskin="true" fill="url(#SvgjsRadialGradient1054)" opacity="1"></path></g><g id="svga-group-nose-single" data-updown="0" data-leftright="0" data-dist="0" data-scalex="1" data-scaley="1" data-rotate="0"><path id="SvgjsPath6479" d="M92.281 116.235c-0.745 2.063 5.028 4.289 7.218 4.426 2.374 0.147 9.024-2.899 7.896-4.991 -1.185-2.197-5.63-0.286-7.547-0.286C97.94 115.384 93.276 113.479 92.281 116.235z" data-colored="true" data-filltype="sd1" data-stroketype="none" data-fromskin="true" fill="#841687" stroke-width="none" opacity="1"></path><path id="SvgjsPath6480" d="M102.207 117.221c-0.243-0.522 1.194-1.333 1.748-1.493 0.777-0.226 2.505 0.238 2.438 0.831 -0.06 0.521-1.603-0.169-2.105-0.022C103.767 116.687 102.435 117.712 102.207 117.221zM95.214 116.742c0.706 0 1.753 0.457 1.945 0.057 0.229-0.479-1.56-1.065-2.086-1 -0.434 0.052-1.991 0.958-1.777 1.338C93.496 117.49 94.284 116.742 95.214 116.742z" data-colored="true" data-filltype="sd3" data-stroketype="none" data-fromskin="true" fill="#650068" stroke-width="none" opacity="1"></path><path id="SvgjsPath6481" d="M99.857 113.479c0.669 0 1.807-0.637 1.978-1.9 0.754-5.575-0.521-20.246-1.978-20.246 -1.365 0-2.508 15.024-2.155 20.246C97.789 112.86 99.099 113.479 99.857 113.479" data-colored="true" data-filltype="hl2" data-stroketype="none" data-fromskin="true" fill="#b254b5" stroke-width="none" opacity="0.2"></path></g><g id="svga-group-mouth-single" data-updown="-5.838672220806777e-17" data-leftright="-1.0000002" data-dist="0" data-scalex="1" data-scaley="1" data-rotate="0" transform="matrix(0.6359996700000001 0 0 0.6359996700000001 36.78278008510874 49.77012177549716) translate(-1.0000002 -1.0000000005838672e-7)"><path id="SvgjsPath2595" d="M111.009,139.15c1.067,0.022,1.304-0.971,2.068-1.32
		c-0.387,1.99-1.795,3.742-3.301,4.749c-2.066,1.383-5.069,2.292-8.373,1.69c1.68-0.411,4.007-0.029,5.208-1.026
		c-3.228,0.426-8.406-0.314-11.787-1.605c-2.012-0.768-3.289-2.02-3.798-3.865c2.142-5.433,10.267-9.182,16.527-4.54
		c0.987,0.732,2.043,1.75,2.469,2.831C110.407,137.038,110.303,138.141,111.009,139.15z M108.773,138.879
		c0.854-3.377-0.839-5.41-3.226-6.326c-1.086-0.417-1.638-0.849-2.888-0.874c-3.448-0.069-8.237,2.449-9.339,5.152
		c-0.3,0.735-0.4,1.687-0.271,2.236c0.324,1.388,4.263,2.932,6.406,3.309c4.515,0.794,7.97,0.602,9.953-1.236
		c0.349-0.326,0.806-0.716,0.762-1.042c-0.942-0.002-1.447,0.533-2.342,0.589C108.277,139.938,108.591,139.604,108.773,138.879z" stroke-width="none" fill="#650068" data-fromskin="true" data-author="vectorcharacters.net" data-stroketype="none" data-filltype="sd3" data-colored="true" stroke="none"></path><path id="SvgjsPath2596" d="M107.827,140.685c0.895-0.056,1.4-0.591,2.342-0.589
		c0.045,0.326-0.412,0.716-0.762,1.042c-1.982,1.839-5.438,2.03-9.953,1.236c-2.143-0.376-6.082-1.921-6.406-3.309
		c-0.129-0.549-0.029-1.501,0.271-2.236c1.102-2.703,5.891-5.221,9.339-5.152c1.25,0.025,1.803,0.457,2.888,0.874
		c2.387,0.917,4.08,2.95,3.226,6.326C108.591,139.604,108.277,139.938,107.827,140.685z" stroke="none" fill="#000000" data-stroketype="none" data-filltype="#000000" data-colored="false"></path><path id="SvgjsPath2597" d="M94.259,142.818c1.88,0.462,3.812,0.884,5.741,1.308
		c-1.605-0.304-4.095-0.359-5.504-1.017C94.375,143.053,94.215,143.136,94.259,142.818z" stroke-width="none" fill="#650068" data-fromskin="true" data-stroketype="none" data-filltype="sd3" data-colored="true" stroke="none"></path></g><g id="svga-group-eyebrows-left" data-updown="-15.000001499999996" data-leftright="-5.0000005000000005" data-dist="0" data-scalex="1" data-scaley="1" data-rotate="-10.714285614285716" transform="rotate(-10.714285714285715 70.01350172097168 52.19799845422364) translate(-5.0000004 -15.000001499999996)"><path id="SvgjsPath4379" d="M90.857 72.446c-12.948-4.229-18.875-4.225-33.252-2.519 -0.434 0.051-2.459 0.548-2.637 0.221 11.896-2.694 21.942-3.566 33.164 0.925C88.531 71.233 90.911 72.118 90.857 72.446z" opacity="1" stroke-width="none" fill="#504543" data-stroketype="none" data-filltype="#000000" data-colored="true"></path></g><g id="svga-group-eyebrows-right" data-updown="-15.000001499999996" data-leftright="5.0000005000000005" data-dist="0" data-scalex="1" data-scaley="1" data-rotate="10.714285814285715" transform="rotate(10.714285914285714 131.78450052207032 57.585997035156254) translate(5.0000004 -15.000001499999996)"><path id="SvgjsPath4380" d="M108.978 72.414c9.882-6.264 21.947-6.458 33.14-3.238 0.444 0.128 2.899 0.624 2.915 1.026C120.586 64.812 108.978 72.414 108.978 72.414z" opacity="1" stroke-width="none" fill="#504543" data-stroketype="none" data-filltype="#000000" data-colored="true"></path></g><g id="svga-group-beardwrap" data-updown="0" data-leftright="0" data-dist="0" data-scalex="1" data-scaley="1" data-rotate="0"><g id="svga-group-beard-single" data-updown="0" data-leftright="0" data-dist="0" data-scalex="1" data-scaley="1" data-rotate="0"></g></g><g id="svga-group-mustache-single" data-updown="0" data-leftright="0" data-dist="0" data-scalex="1" data-scaley="1" data-rotate="0"></g><g id="svga-group-hair-front" data-updown="0" data-leftright="0" data-dist="0" data-scalex="1" data-scaley="1" data-rotate="0" transform="matrix(1.0905998900000002 0 0 1.0109998900000001 0 0)"></g><g id="svga-group-glasses-single" data-updown="0" data-leftright="0" data-dist="0" data-scalex="1" data-scaley="1" data-rotate="0"></g></g></g><g id="svga-group-bubble-single" data-updown="0" data-leftright="0" data-dist="0" data-scalex="1" data-scaley="1" data-rotate="0"></g></g><defs id="defs_node"><linearGradient id="SvgjsLinearGradient1046" x1="99.98" y1="171.27" x2="99.98" y2="136.351" gradientUnits="userSpaceOnUse" class="svga-on-canvas-chinshadow-gradient-single-0"><stop id="SvgjsStop1047" offset="0" stop-opacity="0.8" stop-color="#841687" data-stoptype="sd1"></stop><stop id="SvgjsStop1048" offset="0.7" stop-opacity="1" stop-color="#650068" data-stoptype="sd3"></stop></linearGradient><radialGradient id="SvgjsRadialGradient1050" cx="100" cy="113" r="40" gradientUnits="userSpaceOnUse" class="svga-on-canvas-facehighlight-gradient-single-0"><stop id="SvgjsStop1051" offset="0" stop-opacity="0.5" stop-color="#a23da5" data-stoptype="hl1"></stop><stop id="SvgjsStop1052" offset="0.9" stop-opacity="0" stop-color="#932896" data-stoptype="tone"></stop></radialGradient><radialGradient id="SvgjsRadialGradient1054" cx="100" cy="57" r="36" gradientUnits="userSpaceOnUse" class="svga-on-canvas-facehighlight-gradient-single-1"><stop id="SvgjsStop1055" offset="0" stop-opacity="0.5" stop-color="#a23da5" data-stoptype="hl1"></stop><stop id="SvgjsStop1056" offset="0.9" stop-opacity="0" stop-color="#932896" data-stoptype="tone"></stop></radialGradient><radialGradient id="SvgjsRadialGradient1170" cx="109.0539" cy="152.3812" r="18.9207" gradientUnits="userSpaceOnUse" class="svga-on-canvas-mouth-gradient-single-1"><stop id="SvgjsStop1171" offset="0" stop-opacity="1" stop-color="#8f0d00" data-stoptype="#8f0d00"></stop><stop id="SvgjsStop1172" offset="0.6446" stop-opacity="1" stop-color="#450d00" data-stoptype="#450d00"></stop><stop id="SvgjsStop1173" offset="0.988" stop-opacity="1" stop-color="#000000" data-stoptype="#000000"></stop></radialGradient><linearGradient id="SvgjsLinearGradient2767" class="svga-on-canvas-eyesiris-gradient-left-6" gradientUnits="userSpaceOnUse" gradientTransform="matrix(1 0 0 1 -50 0)" y2="85" x2="126" y1="81" x1="130"><stop id="SvgjsStop2768" offset="0" data-stoptype="#ffffff" stop-color="#ffffff" stop-opacity="1"></stop><stop id="SvgjsStop2769" offset="1" data-stoptype="#ffffff" stop-color="#ffffff" stop-opacity="0"></stop></linearGradient><linearGradient id="SvgjsLinearGradient2777" class="svga-on-canvas-eyesiris-gradient-right-6" gradientUnits="userSpaceOnUse" y2="85" x2="126" y1="81" x1="130"><stop id="SvgjsStop2778" offset="0" data-stoptype="#ffffff" stop-color="#ffffff" stop-opacity="1"></stop><stop id="SvgjsStop2779" offset="1" data-stoptype="#ffffff" stop-color="#ffffff" stop-opacity="0"></stop></linearGradient><radialGradient id="SvgjsRadialGradient4188" class="svga-on-canvas-eyesback-gradient-left-0" gradientUnits="userSpaceOnUse" gradientTransform="matrix(-0.9148 0.0479 0.0523 0.9986 184.4314 -6.6017)" r="15.179" cy="87.605" cx="125.675"><stop id="SvgjsStop4189" offset="0" data-stoptype="#ffffff" stop-color="#ffffff" stop-opacity="1"></stop><stop id="SvgjsStop4190" offset="0.544" data-stoptype="#fdfefe" stop-color="#fdfefe" stop-opacity="1"></stop><stop id="SvgjsStop4191" offset="0.74" data-stoptype="#f6f8f9" stop-color="#f6f8f9" stop-opacity="1"></stop><stop id="SvgjsStop4192" offset="0.879" data-stoptype="#eaeff2" stop-color="#eaeff2" stop-opacity="1"></stop><stop id="SvgjsStop4193" offset="0.992" data-stoptype="#d9e3e8" stop-color="#d9e3e8" stop-opacity="1"></stop><stop id="SvgjsStop4194" offset="1" data-stoptype="#d8e2e7" stop-color="#d8e2e7" stop-opacity="1"></stop></radialGradient><radialGradient id="SvgjsRadialGradient4196" class="svga-on-canvas-eyesback-gradient-right-0" gradientUnits="userSpaceOnUse" gradientTransform="matrix(0.9148 0.0479 -0.0523 0.9986 15.5691 -6.6017)" r="15.179" cy="87.605" cx="125.674"><stop id="SvgjsStop4197" offset="0" data-stoptype="#ffffff" stop-color="#ffffff" stop-opacity="1"></stop><stop id="SvgjsStop4198" offset="0.544" data-stoptype="#fdfefe" stop-color="#fdfefe" stop-opacity="1"></stop><stop id="SvgjsStop4199" offset="0.74" data-stoptype="#f6f8f9" stop-color="#f6f8f9" stop-opacity="1"></stop><stop id="SvgjsStop4200" offset="0.879" data-stoptype="#eaeff2" stop-color="#eaeff2" stop-opacity="1"></stop><stop id="SvgjsStop4201" offset="0.992" data-stoptype="#d9e3e8" stop-color="#d9e3e8" stop-opacity="1"></stop><stop id="SvgjsStop4202" offset="1" data-stoptype="#d8e2e7" stop-color="#d8e2e7" stop-opacity="1"></stop></radialGradient><radialGradient id="SvgjsRadialGradient4204" class="svga-on-canvas-eyesfront-gradient-left-0" gradientUnits="userSpaceOnUse" gradientTransform="matrix(-0.9148 0.0479 0.0523 0.9986 184.4314 -6.6017)" r="15.179" cy="87.605" cx="125.675"><stop id="SvgjsStop4205" offset="0" data-stoptype="#ffffff" stop-color="#ffffff" stop-opacity="1"></stop><stop id="SvgjsStop4206" offset="0.544" data-stoptype="#fdfefe" stop-color="#fdfefe" stop-opacity="1"></stop><stop id="SvgjsStop4207" offset="0.74" data-stoptype="#f6f8f9" stop-color="#f6f8f9" stop-opacity="1"></stop><stop id="SvgjsStop4208" offset="0.879" data-stoptype="#eaeff2" stop-color="#eaeff2" stop-opacity="1"></stop><stop id="SvgjsStop4209" offset="0.992" data-stoptype="#d9e3e8" stop-color="#d9e3e8" stop-opacity="1"></stop><stop id="SvgjsStop4210" offset="1" data-stoptype="#d8e2e7" stop-color="#d8e2e7" stop-opacity="1"></stop></radialGradient><radialGradient id="SvgjsRadialGradient4214" class="svga-on-canvas-eyesfront-gradient-left-3" gradientUnits="userSpaceOnUse" gradientTransform="matrix(0.9998 0.0208 0.0166 -0.7998 -49.1889 149.3472)" r="18.705" fy="82.292" fx="137.93" cy="84.411" cx="123.905"><stop id="SvgjsStop4215" offset="0" data-stoptype="sd1" stop-color="#841687" stop-opacity="1"></stop><stop id="SvgjsStop4216" offset="0.7" data-stoptype="sd1" stop-color="#841687" stop-opacity="0.3"></stop><stop id="SvgjsStop4217" offset="1" data-stoptype="tone" stop-color="#932896" stop-opacity="0"></stop></radialGradient><radialGradient id="SvgjsRadialGradient4219" class="svga-on-canvas-eyesfront-gradient-left-4" gradientUnits="userSpaceOnUse" gradientTransform="matrix(1.0322 -0.0541 0.0541 1.0322 -5.8927 5.4187)" r="29.508" cy="106.952" cx="69.404"><stop id="SvgjsStop4220" offset="0.95" data-stoptype="#000000" stop-color="#000000" stop-opacity="0"></stop><stop id="SvgjsStop4221" offset="1" data-stoptype="#000000" stop-color="#000000" stop-opacity="0.3"></stop></radialGradient><radialGradient id="SvgjsRadialGradient4225" class="svga-on-canvas-eyesfront-gradient-right-0" gradientUnits="userSpaceOnUse" gradientTransform="matrix(0.9148 0.0479 -0.0523 0.9986 15.5691 -6.6017)" r="15.179" cy="87.605" cx="125.674"><stop id="SvgjsStop4226" offset="0" data-stoptype="#ffffff" stop-color="#ffffff" stop-opacity="1"></stop><stop id="SvgjsStop4227" offset="0.544" data-stoptype="#fdfefe" stop-color="#fdfefe" stop-opacity="1"></stop><stop id="SvgjsStop4228" offset="0.74" data-stoptype="#f6f8f9" stop-color="#f6f8f9" stop-opacity="1"></stop><stop id="SvgjsStop4229" offset="0.879" data-stoptype="#eaeff2" stop-color="#eaeff2" stop-opacity="1"></stop><stop id="SvgjsStop4230" offset="0.992" data-stoptype="#d9e3e8" stop-color="#d9e3e8" stop-opacity="1"></stop><stop id="SvgjsStop4231" offset="1" data-stoptype="#d8e2e7" stop-color="#d8e2e7" stop-opacity="1"></stop></radialGradient><radialGradient id="SvgjsRadialGradient4235" class="svga-on-canvas-eyesfront-gradient-right-3" gradientUnits="userSpaceOnUse" gradientTransform="matrix(-0.9998 0.0208 -0.0166 -0.7998 249.1889 149.3472)" r="18.705" fy="82.292" fx="137.93" cy="84.411" cx="123.905"><stop id="SvgjsStop4236" offset="0" data-stoptype="sd1" stop-color="#841687" stop-opacity="1"></stop><stop id="SvgjsStop4237" offset="0.7" data-stoptype="sd1" stop-color="#841687" stop-opacity="0.3"></stop><stop id="SvgjsStop4238" offset="1" data-stoptype="tone" stop-color="#932896" stop-opacity="0"></stop></radialGradient><radialGradient id="SvgjsRadialGradient4240" class="svga-on-canvas-eyesfront-gradient-right-4" gradientUnits="userSpaceOnUse" gradientTransform="matrix(-1.0322 -0.0541 -0.0541 1.0322 205.8927 5.4187)" r="29.508" cy="106.952" cx="69.404"><stop id="SvgjsStop4241" offset="0.95" data-stoptype="#000000" stop-color="#000000" stop-opacity="0"></stop><stop id="SvgjsStop4242" offset="1" data-stoptype="#000000" stop-color="#000000" stop-opacity="0.3"></stop></radialGradient></defs></svg>