<svg id="svga-svgcanvas" style="overflow: hidden; position: relative; left: -0.265625px; top: 0px; -webkit-user-select: none; -webkit-user-drag: none; -webkit-tap-highlight-color: rgba(0, 0, 0, 0); touch-action: none;" xmlns="http://www.w3.org/2000/svg" version="1.1" xlink="http://www.w3.org/1999/xlink" class="svga-svg" viewBox="0 0 200 200" preserveAspectRatio="xMinYMin meet" width="250" height="250"><g id="defs_node"><g id="svga-group-backs-single"><path id="SvgjsPath5150" d="M225,225H-25V-25h250V225z" data-colored="true" data-filltype="tone" data-stroketype="none" fill="#88a65e" stroke-width="none" opacity="1"></path><path id="SvgjsPath5151" d="M225,66.045V46.523c-8.393-7.17-16.444-14.676-24.006-22.532C206.423,16.09,215.705,4.264,225,0.533v-16.039c-3.896,1.01-7.948,3.157-10.891,4.849c-9.592,5.514-16.968,14.41-23.396,23.297C180.981,1.161,172.431-11.375,166.43-25h-16.256c7.101,18.589,18.696,35.418,31.924,50.498c-3.762,6.007-7.353,12.13-11.097,18.132c-6.771,10.854-13.008,21.979-18.061,33.713c-1.74-0.122-3.482-0.236-5.227-0.348c-0.102-11.296-1.301-22.637-2.591-33.427C142.364,20.495,137.825-2.268,133.128-25h-15.287c3.512,16.925,6.991,33.854,9.757,50.925c2.627,16.216,5.104,33.229,5.117,49.989c-17.066-1.536-33.684-4.704-47.991-15.619c-22.846-17.429-21.9-26.78-25.009-40.538C68.462,4.662,80.021-9.181,83.404-25H67.848c-2.288,7.421-6.745,14.566-10.568,20.732c-1.766,2.849-3.54,5.708-5.319,8.565C41.416-4.602,16.985-1.963,3.134-5.856c-8.089-2.274-17.358-7.185-25.183-11.213c-0.973-0.501-1.96-1.017-2.951-1.55v16.811c7.296,3.502,14.678,6.469,20.881,9.151c12.571,5.436,27.6,2.613,42.814,7.009c2.774,0.801,3.976,1.791,4.725,3.446C37.528,26.922,30.89,33.68,18.638,36.037C6.717,38.331-9.568,36.45-25,35.374V50.51c14.17,0.911,30.442,2.151,42.378,0.754c12.875-1.506,23.256-6.821,30.822-14.903c3.926,13.052,9.926,23.987,32.905,39.741c15.079,10.337,32.932,13.381,50.891,14.876c-2.058,20.178-10.428,37.32-32.693,54.405c-10.407,7.985-21.317,14.728-34.237,24.035c-2.063-0.633-4.131-1.247-6.204-1.832c-14.62-4.125-46.417-6.59-53.1-6.965c8.508-6.75,17.07-13.123,22.152-23.144c11.073-21.834,0.773-48.529-17.324-59.654C2.211,72.673-11.466,69.181-25,64.823v15.465c6.097,2.013,12.208,3.99,18.242,6.175c3.371,1.221,7.316,2.72,10.326,4.67c-1.389-0.644,14.647,9.087,13.954,28.72c-0.661,18.694-21.119,26.841-34.167,41.017c-2.763,0.267-5.568,0.658-8.354,1.198V225h8.315c-2.877-17.495-2.37-34.53,8.331-50.064c8.69-0.111,43.984,2.377,59.317,6.059C37.81,193.899,34.342,209.025,34.122,225H48.77c0.262-8.053,1.59-15.874,5.038-23.062c3.074-6.407,8.375-11.441,14.043-15.887c6.325,2.192,12.58,4.603,18.827,6.916c21.501,7.963,39.663-16.236,68.072-27.625c0.472-0.189,0.954-0.367,1.429-0.554c10.135,21.642,24.926,41.005,40.126,60.211H215.3c-16.396-20.788-33.895-42.817-44.951-65.021c25.817-7.328,33.013-2.973,40.158,3.964c5.458,5.298,10.602,12.362,14.493,20.076v-26.446c-0.996-1.161-2.006-2.287-3.028-3.367c-7.024-7.418-15.717-12.491-26.009-13.126c-10.466-0.645-21.483,2.115-31.569,5.142c-7.333-20.176-7.046-36.563-1.767-53.077c15.35,1.577,40.417,6.625,48.157,20.097c5.229,9.103,8.712,18.285,14.216,28.972v-34.389c-1.05-1.908-2.147-3.734-3.344-5.472c-10.035-14.583-35.667-21.38-53.283-23.575c5.96-12.576,12.812-22.861,24.354-41.835C202.896,47.331,213.716,56.986,225,66.045z M147.094,92c0.152,0.009,0.306,0.019,0.459,0.028c-0.258,0.887-0.503,1.777-0.737,2.671C146.924,93.802,147.006,92.901,147.094,92z M109.519,173.981c-4.553,2.729-9.252,6.184-14.766,5.801c-3.813-0.264-8.413-2.824-12.214-4.384c23.267-16.107,52.827-33.469,61.801-67.581c-1.749,15.194,0.747,28.782,6.11,43.354C135.916,157.305,124.394,165.065,109.519,173.981z" data-colored="true" data-filltype="sd1" data-stroketype="none" fill="#759746" stroke-width="none" opacity="1"></path></g><g id="svga-group-subwrapper" data-updown="0" data-leftright="0" data-dist="0" data-scalex="1" data-scaley="1" data-rotate="0"><g id="svga-group-hair-back" data-updown="0" data-leftright="0" data-dist="0" data-scalex="1" data-scaley="1" data-rotate="0" transform="matrix(1.0021998900000002 0 0 1.0021998900000002 -0.21682226076188726 -0.280223984099365) scale(1 1.183999779999993)" data-scaleY="1.1850997799999932" data-scaleX="1.0021997800000002"><path id="SvgjsPath11855" d="M100.5,100.5h-1v-1h1V100.5z" data-colored="true" data-filltype="tone" data-stroketype="none" fill="#b84131" stroke-width="none" opacity="1" stroke="none"></path></g><g id="svga-group-humanbody-single" data-updown="0" data-leftright="0" data-dist="0" data-scalex="1" data-scaley="1" data-rotate="0"><path id="SvgjsPath1057" d="M195.417 199.778c-2.196-4.746-8.195-11.779-14.86-13.722 -8.239-2.403-26.837-5.308-33.733-6.923 -5.528-1.296-16.662-11.294-20.564-14.65 -0.7-0.6-1.273-1.839-1.287-2.76 -0.139-10.864 4.195-39.724 4.195-39.724H100 70.833c0 0 4.334 28.859 4.193 39.724 -0.011 0.921-0.587 2.16-1.285 2.76 -3.902 3.356-15.036 13.354-20.564 14.65 -6.897 1.615-25.495 4.619-33.733 7.022 -6.667 1.942-12.664 8.876-14.86 13.622 -3.708 8.008-4.584 22.5-4.584 35h100 100C200 222.278 199.123 207.786 195.417 199.778z" data-colored="true" data-filltype="tone" data-stroketype="none" data-fromskin="true" fill="#d9a494" stroke-width="none" opacity="1" stroke="none"></path><path id="SvgjsPath1058" d="M159.156 184.058c24.342 3.542 34.586 8.708 37.794 50.721H200c0-12.5-0.877-26.992-4.583-35 -2.196-4.746-8.195-11.779-14.86-13.722 -8.239-2.403-26.837-5.308-33.733-6.923 -5.528-1.296-18.242-12.069-21.643-16.35 3.36 4.704 12.791 15.605 21.054 18.46C150.188 182.61 153.48 183.232 159.156 184.058zM53.766 181.244c8.263-2.854 17.693-13.756 21.054-18.46 -3.4 4.28-16.114 15.054-21.643 16.35 -6.896 1.615-25.494 4.619-33.733 7.022 -6.665 1.942-12.664 8.876-14.86 13.622 -3.706 8.008-4.583 22.5-4.583 35h3.05c3.188-41.744 13.475-47.183 37.794-50.721C46.52 183.232 49.813 182.61 53.766 181.244z" data-colored="true" data-filltype="hl1" data-stroketype="none" data-fromskin="true" fill="#e8c1b6" stroke-width="none" opacity="1" stroke="none"></path><path id="SvgjsPath1059" d="M95.646 197.62c0 0-5.074-1.609-7.083-2.379 -10.449-4.009-44.395-6.607-44.395-6.607s35.754 1.419 43.644 2.779c-0.458-4.767-3.017-20.004-3.017-20.004s5.149 16.815 6.409 21.057C91.878 194.734 95.646 197.62 95.646 197.62zM106.445 196.278c-0.089 0.073-0.191 0.168-0.302 0.268C106.256 196.461 106.358 196.372 106.445 196.278zM95.646 197.62c0 0 2.893 2.992 4.347 3.03 1.91 0.051 4.828-2.899 6.151-4.104 -1.265 0.957-4.159 1.391-5.31 1.436C99.504 198.033 95.646 197.62 95.646 197.62zM116.664 190.101c-1.545 0.248-4.386 0.789-4.386 0.789l2.287-14.89c-0.646 3.071-4.474 16.211-8.12 20.278 1.91-1.616 6.158-2.391 8.324-2.704 10.236-1.484 10.232-1.483 41.062-4.94C155.831 188.634 126.76 188.479 116.664 190.101z" data-colored="true" data-filltype="sd1" data-stroketype="none" data-fromskin="true" fill="#ca8975" stroke-width="none" opacity="1" stroke="none"></path><path id="SvgjsPath1060" d="M195.417 199.778c-2.196-4.746-8.195-11.779-14.86-13.722 -8.239-2.403-26.837-5.308-33.733-6.923 -5.528-1.296-16.662-11.294-20.564-14.65 -0.7-0.6-1.273-1.839-1.287-2.76 -0.139-10.864 4.195-39.724 4.195-39.724H100 70.833c0 0 4.334 28.859 4.193 39.724 -0.011 0.921-0.587 2.16-1.285 2.76 -3.902 3.356-15.036 13.354-20.564 14.65 -6.897 1.615-25.495 4.619-33.733 7.022 -6.667 1.942-12.664 8.876-14.86 13.622 -3.708 8.008-4.584 22.5-4.584 35h100 100C200 222.278 199.123 207.786 195.417 199.778z" data-colored="true" data-filltype="none" data-stroketype="sd3" data-fromskin="true" fill="none" stroke="#ab5a41" stroke-width="1.5" opacity="1"></path></g><g id="svga-group-chinshadow-single" data-updown="0" data-leftright="0" data-dist="0" data-scalex="1" data-scaley="1" data-rotate="0"><path id="SvgjsPath1045" d="M104.195 172.932c4.251-2.437 12.243-7.528 20.043-13.21 0.164-6.313 1.287-16.273 2.33-24.397 -15.295-1.845-37.566-1.875-53.149-0.101 1.065 8.292 2.218 18.521 2.347 24.837 7.892 5.542 15.885 10.48 20.046 12.87C97.569 173.939 102.438 173.939 104.195 172.932z" data-colored="false" data-filltype="gradient" data-stroketype="none" data-fromskin="true" fill="url(#SvgjsLinearGradient1046)" opacity="1"></path></g><g id="svga-group-clothes-single" data-updown="0" data-leftright="0" data-dist="0" data-scalex="1" data-scaley="1" data-rotate="0"><path id="SvgjsPath4043" d="M197.798 201.546c-10.478-20.278-30.653-17.404-49.968-22.843 -0.468 3.585-13.251 20.479-16.287 30.061 -1.705-1.423-3.74-3.325-5.209-5.066 -7.188-8.443-17.841-35.76-21.416-14.428 0.777-9.576 5.003-11.686 10.871-3.659 6.308 8.638 6.542 13.098 15.542 22.491 1.59-6.601 5.032-11.259 9.036-17.104 3.875-5.663 6.705-8.217 7.119-13.258 -1.445-2.408-1.099-3.486-3.434-5.046 -14.655-9.912-4.192-19.97-17.476-22.365 -0.104 1.198-0.235 2.54-0.345 3.549 2.841 1.462 3.691 7.152-0.683 11.318 -6.951 7.631-18.12 8.01-21.032 19.723l-0.007-0.001c-0.927 3.477-1.669 8.799-2.021 11.919l-2.455 24.898 -2.47-24.457c-2.003-18.359-4.621-20.155-13.183-25.828 -5.673-3.76-14.943-9.433-11.917-15.847 0.345-0.742 0.765-1.198 1.286-1.541 -0.15-1.466-0.238-2.316-0.354-3.678 -10.967 0.467-9.281 15.982-17.586 21.69 -2.177 1.496-3.287 2.879-4.068 5.129 0.531 6.281 14.504 20.476 16.945 30.899 9.085-9.592 9.155-13.783 15.5-22.459 5.465-7.465 9.928-6.699 10.867 3.403 -0.516-3.035-1.738-7.681-4.386-7.681 -2.182 0-4.456 3.218-5.581 4.771 -6.299 8.678-7.311 14.885-16.647 22.633 -0.646-1.941-1.404-3.891-2.308-5.706 -3.7-7.474-13.719-22.555-14.858-24.017 -4.428 1.246-11.177 2.626-15.233 3.3 -26.504 4.411-36.778 12.969-40.685 53.031 97.202-0.984 136.811-0.556 209.21-0.556C203.66 225.907 201.881 209.46 197.798 201.546z" data-colored="true" data-filltype="tone" data-stroketype="none" fill="#37272b" stroke-width="none" opacity="1"></path><path id="SvgjsPath4044" d="M139.969 190.783c-3.461 5.054-6.201 9.3-7.908 14.621 1.967-10.979 14.436-21.374 13.086-27.939 -0.578-2.812-10.526-9.081-11.041-18.4 2.745 8.538 12.992 14.632 13.009 18.723C147.142 184.482 146.942 180.595 139.969 190.783zM204.486 234.028c0.347-8.682-2.572-25.584-6.19-32.598 -10.478-20.278-31.563-17.691-50.877-23.13 -0.171 0.218 0.49 1.66 0.027 2.28C192.595 188.9 197.736 198.817 204.486 234.028zM55.812 172.075c5.547-4.597 7.21-9.05 8.483-13.011 -2.85 16.28-7.111 10.123-10.22 18.276 -1.778 4.663 12.003 17.403 13.866 28.063 -2.442-4.175-5.06-9.313-8.521-14.367 -2.694-3.937-4.41-7.537-7.079-10.567C51.069 173.756 53.696 173.829 55.812 172.075zM52.34 180.47c-0.463-0.62-0.894-1.204-1.065-1.422 -19.314 5.438-38.594 2.104-49.071 22.383 -3.619 7.014-5.426 21.363-6.423 30.064 1.929-10.573 4.804-23.893 10.963-31.929C17.188 185.399 36.46 182.665 52.34 180.47z" data-colored="true" data-filltype="hl1" data-stroketype="none" fill="#46393c" stroke-width="none" opacity="1"></path><path id="SvgjsPath4045" d="M119.848 171.392c-4.863 2.82-8.981 5.588-11.713 9.481 6.567 0.362 11.421 12.099 12.734 13.695 -12.333-17.166-17-5.5-18.5 5.432 0.432-3.546 0.787-9.596 1.487-12.193 0.204-1.033 0.423-2.021 0.654-2.889l0.007 0.001c2.912-11.713 14.081-12.092 21.032-19.723 4.374-4.166 3.523-9.856 0.683-11.318 0.109-1.009 0.241-2.351 0.345-3.549 0.729 0.133 1.379 0.292 1.982 0.469C137.518 158.679 125.96 168.657 119.848 171.392zM78.965 171.392c4.864 2.82 10.812 6.162 13.536 9.717 -4.798-0.873-10.131 6.294-12.798 12.627 11.5-14.667 15-6.333 18.667 6.265 -0.431-3.545-1.524-9.596-2.224-12.193 -0.204-1.033-0.422-2.021-0.654-2.889l-0.006 0.001c-2.912-11.713-13.682-12.092-20.633-19.723 -4.374-4.166-3.622-9.856-0.781-11.318 -0.109-1.009-0.24-2.351-0.344-3.549 -0.729 0.133-1.379 0.292-1.982 0.469C64.238 159.967 73.472 168.06 78.965 171.392z" data-colored="true" data-filltype="sd1" data-stroketype="none" fill="#28181c" stroke-width="none" opacity="1"></path><path id="SvgjsPath4046" d="M125.876 163.323c0.031-5.701-0.159-2.538 0.418-8.99C128.518 155.526 128.801 160.423 125.876 163.323zM74.139 162.784c-2.323-3.04-2.61-6.145-0.347-8.49C74.334 159.352 74.059 158.742 74.139 162.784z" data-colored="true" data-filltype="sd2" data-stroketype="none" fill="#180c0f" stroke-width="none" opacity="1"></path><path id="SvgjsPath4047" d="M147.624 176.915c-0.206-3.542-7.813-6.496-11.188-14.175 -2.417-5.47-0.123-11.734-10.065-12.741 -0.545 3.187-1.028 10.193-0.883 13.579 -5.038 5.423-12.831 6.826-17.785 12.657 -5.288 6.224-7.58 19.7-7.667 47.667l1.232-0.801c0 0 1.372-26.485 1.382-26.563 3.084-26.427 12.888-20.185 22.979-31.263 4.521-4.332 3.441-10.072 0.722-11.463 0.118-1.12 0.228-2.229 0.325-3.35 8.552 1.571 6.109 6.605 8.784 12.753 3.556 8.174 10.297 9.959 10.732 13.923 0.69 6.281-3.058 8.947-6.817 14.434 -5.913 8.559-7.28 12.925-8.101 16.308 -8.975-9.426-8.98-13.558-15.398-22.338 -6.844-9.366-11.339-4.974-13.226 10.996 0.194-2.625 3.77-17.175 8.043-14.651 4.939 2.878 9.791 15.108 15.561 21.886 1.539 1.823 3.521 3.652 5.345 5.182 3.407-11.897 16-24.465 16.408-30.205 19.695 5.556 53.439-0.145 56.441 55.963 -41.138 0.22-85.815-0.682-208.97 0.554 1.785-18.437 4.804-36.508 15.723-44.653 4.685-3.507 10.117-5.341 15.712-6.508 7.797-1.616 16.522-2.655 24.253-4.747 0.788 1 14.205 21.198 17.224 29.597 10.863-8.503 15.207-24.459 21.188-27.214 4.164-1.913 7.559 11.938 7.753 14.553 -1.63-16.891-6.95-22.418-17.024-4.923 -4.964 8.624-6.28 10.962-11.56 16.51 -2.12-8.994-16.895-25.954-16.253-30.662 0.634-4.646 6.314-3.363 10.098-13.244 2.122-5.54 1.652-11.648 10.708-13.455 0.098 1.167 0.217 2.32 0.336 3.486 -2.479 1.631-3.109 7.111 0.852 10.942 3.567 4.085 10.004 6.416 14.255 9.676 5.011 3.867 6.993 7.827 8.588 21.67 0.035 0.302 1.37 26.942 1.37 26.942l1.333 0.667c-0.667-27.833-3.335-44.568-8.721-49.258 -4.652-4.15-12.775-6.796-16.717-11.429 0.12-3.476-0.565-10.518-0.993-13.171 -9.009 0.918-9.264 6.638-11.196 11.632 -5.165 13.351-10.134 9.527-10.957 15.059 -0.077 0.517 0.042 0.906 0.167 1.594 -7.58 1.548-17.04 2.563-24.641 3.953 -11.343 2.071-22.045 8.058-26.925 19.452 -3.707 8.647-4.781 24.051-5.053 33.543 -0.011 0.068-0.011 0.147-0.011 0.215 0.152 0.012 0.314 0.012 0.466 0.012 130.475 1.387 208.449-0.578 209.534-0.578C205.369 181.568 176.202 183.902 147.624 176.915zM125.976 163.024c0.016-2.933 0.105-6.329 0.318-8.691C127.892 155.473 129.133 159.262 125.976 163.024zM74.088 162.593c-2.652-3.471-1.6-6.836-0.396-8C73.943 156.939 74.042 160.224 74.088 162.593z" data-colored="true" data-filltype="sd3" data-stroketype="none" fill="#090405" stroke-width="none" opacity="1"></path></g><g id="svga-group-head" data-updown="0" data-leftright="0" data-dist="0" data-scalex="1" data-scaley="1" data-rotate="0"><g id="svga-group-ears-left" data-updown="0" data-leftright="0" data-dist="0" data-scalex="1.1842000000000001" data-scaley="1.1842000000000001" data-rotate="0" transform="matrix(1.1831 0 0 1.1831 -8.215880153083802 -17.70485444412232)"><path id="SvgjsPath1072" d="M47.69 83.08c-1.588-2.376-8.025-7.833-11.703-6.994 -4.355 0.993-5.708 4.372-5.603 6.475 0.606 12.025 4.426 12.016 6.71 16.64 1.709 3.459 3.126 5.044 4.172 11.958 0.598 3.953 4.427 6.984 7.217 6.835 3.908-0.21 6.994-3.716 8.291-7.173C59.463 103.643 51.823 89.265 47.69 83.08z" data-colored="true" data-filltype="tone" data-stroketype="sd3" fill="#d9a494" stroke="#ab5a41" stroke-width="1.5" opacity="1"></path><path id="SvgjsPath1073" d="M43.274 100.336c-0.15-0.554-0.062-1.507 0.024-2.43 0.077-0.84 1.438-3.888 1.348-4.44 -0.344-2.068-1.931-5.94-2.949-8.031 -1.169-2.403-3.604-5.409-5.79-6.078 -0.904-0.278-3.479 0.04-3.781 0.639 -1.131 2.241-0.615 4.411 1.1 10.21 0.85 2.873 3.915 6.207 3.998 6.54 1.067 4.343 5.099 11.284 6.488 12.839 0.256 0.288 0.519 0.452 0.579 0.376 0.059-0.077-0.104-0.368-0.361-0.656 -1.372-1.547-5.367-8.471-6.396-12.662 -1.092-4.446 2.313-11.346 2.93-12.8 0.379 0.642 0.703 1.261 0.954 1.777 0.198 0.406 0.417 0.881 0.645 1.396 -0.367 0.76-4.245 6.367-3.026 10.606 0.451 1.563 2.054 4.592 3.432 6.187 0.483 0.559 0.893 0.717 1.19 1.234 0.341 0.599 0.732 1.279 1.792 1.726 0.215 0.091 0.408 0.121 0.577 0.111 0.293-0.02 0.51-0.161 0.667-0.326 0.029 0.271 0.044 0.617 0.051 0.94 0.007 0.413 0.073 0.752 0.162 0.755s0.168-0.333 0.161-0.746c-0.009-0.509-0.04-1.14-0.132-1.437 -0.273-0.873-1.028-1.832-1.829-2.844C44.319 102.226 43.505 101.193 43.274 100.336zM36.96 94.639c-2.347-6.779-1.518-13.668-1.103-14.643 1.345 0 3.778 2.495 4.397 3.498C39.874 84.351 36.837 89.99 36.96 94.639zM45.559 106.414c-0.961-0.403-1.303-1.001-1.635-1.58 -0.299-0.524-1.018-1.022-1.346-1.378 -0.191-0.209-0.531-0.767-0.715-0.892 -1.762-7.606 1.345-10.382 1.967-10.964 0.231 0.729 0.411 1.399 0.5 1.939 0.082 0.496-1.28 3.552-1.352 4.327 -0.089 0.961-0.182 1.954-0.012 2.583 0.253 0.938 1.093 2 1.904 3.028 0.72 0.912 1.459 1.852 1.732 2.639C46.509 106.282 46.204 106.686 45.559 106.414z" data-colored="true" data-filltype="sd3" data-stroketype="none" fill="#ab5a41" stroke-width="none" opacity="1" stroke="none"></path></g><g id="svga-group-ears-right" data-updown="0" data-leftright="0" data-dist="0" data-scalex="1.1842000000000001" data-scaley="1.1842000000000001" data-rotate="0" transform="matrix(1.1831 0 0 1.1831 -28.35614710769653 -17.70485444412232)"><path id="SvgjsPath1074" d="M152.049 83.08c1.588-2.376 8.025-7.833 11.701-6.994 4.357 0.993 5.709 4.372 5.604 6.475 -0.605 12.025-4.426 12.016-6.709 16.64 -1.711 3.459-3.127 5.044-4.174 11.958 -0.598 3.953-4.428 6.984-7.217 6.835 -3.908-0.21-6.994-3.716-8.291-7.173C140.275 103.643 147.916 89.265 152.049 83.08z" data-colored="true" data-filltype="tone" data-stroketype="sd3" fill="#d9a494" stroke="#ab5a41" stroke-width="1.5" opacity="1"></path><path id="SvgjsPath1075" d="M154.633 103.222c-0.801 1.013-1.557 1.972-1.83 2.844 -0.092 0.297-0.123 0.928-0.131 1.437 -0.008 0.413 0.072 0.749 0.16 0.746 0.09-0.003 0.154-0.342 0.162-0.755 0.008-0.323 0.021-0.67 0.051-0.94 0.156 0.165 0.373 0.307 0.666 0.326 0.17 0.01 0.361-0.021 0.578-0.111 1.061-0.446 1.449-1.126 1.791-1.726 0.297-0.517 0.709-0.675 1.191-1.234 1.377-1.594 2.98-4.624 3.432-6.187 1.219-4.239-2.66-9.846-3.027-10.606 0.229-0.515 0.447-0.989 0.645-1.396 0.252-0.516 0.576-1.136 0.955-1.777 0.617 1.454 4.021 8.354 2.93 12.8 -1.029 4.191-5.025 11.115-6.396 12.662 -0.256 0.288-0.42 0.579-0.361 0.656 0.061 0.076 0.322-0.088 0.578-0.376 1.391-1.556 5.422-8.496 6.49-12.839 0.082-0.333 3.146-3.667 3.996-6.54 1.715-5.799 2.232-7.969 1.102-10.21 -0.303-0.599-2.877-0.917-3.783-0.639 -2.186 0.669-4.619 3.675-5.789 6.078 -1.018 2.09-2.605 5.963-2.949 8.031 -0.09 0.552 1.271 3.6 1.348 4.44 0.086 0.922 0.176 1.875 0.025 2.43C156.232 101.193 155.42 102.226 154.633 103.222zM159.484 83.494c0.619-1.003 3.053-3.498 4.396-3.498 0.416 0.975 1.244 7.864-1.104 14.643C162.902 89.99 159.863 84.351 159.484 83.494zM153.137 106.116c0.273-0.788 1.012-1.728 1.732-2.639 0.811-1.028 1.65-2.09 1.904-3.028 0.168-0.629 0.076-1.623-0.014-2.583 -0.07-0.775-1.434-3.831-1.352-4.327 0.09-0.54 0.27-1.21 0.5-1.939 0.623 0.582 3.729 3.358 1.967 10.964 -0.184 0.125-0.523 0.683-0.715 0.892 -0.328 0.356-1.047 0.854-1.346 1.378 -0.332 0.579-0.674 1.177-1.635 1.58C153.533 106.686 153.23 106.282 153.137 106.116z" data-colored="true" data-filltype="sd3" data-stroketype="none" fill="#ab5a41" stroke-width="none" opacity="1" stroke="none"></path></g><g id="svga-group-faceshape-wrap" data-updown="0" data-leftright="0" data-dist="0" data-scalex="1" data-scaley="1" data-rotate="0"><g id="svga-group-faceshape-single" data-updown="0" data-leftright="0" data-dist="0" data-scalex="1" data-scaley="1" data-rotate="0"><path id="SvgjsPath1038" d="M100.103 0.867C66.481 0.814 39.286 28.147 39.234 61.929c-0.008 5.365 0.669 10.569 1.953 15.53l0.004 0c0.011 0.054 8.121 28.575 9.808 43.634 1.244 11.102 12.587 40.796 49.103 40.773 36.515 0.022 46.938-29.431 48.897-40.773 2.58-14.929 10.001-43.58 10.013-43.634l0.005 0c1.283-4.961 1.961-10.165 1.952-15.53C160.919 28.147 133.723 0.814 100.103 0.867z" data-colored="true" data-filltype="tone" data-stroketype="sd3" stroke="#ab5a41" stroke-width="0.5" opacity="1" fill="#d9a494"></path><path id="SvgjsPath1039" d="M135.855 12.494c11.761 11.195 19.223 27.819 19.246 46.408 0.008 5.365-0.602 10.569-1.761 15.53l-0.005 0c-0.011 0.054-6.717 28.706-9.05 43.634 -1.771 11.343-11.189 40.795-44.184 40.773 -32.996 0.021-43.246-29.672-44.369-40.773 -1.526-15.059-8.853-43.581-8.863-43.634l-0.004 0c-1.162-4.961-1.772-10.165-1.765-15.53 0.026-18.59 7.489-35.215 19.25-46.41 -15.199 11.093-25.086 29.09-25.117 49.438 -0.008 5.365 0.669 10.569 1.953 15.53l0.004 0c0.011 0.054 8.121 28.575 9.808 43.634 1.244 11.102 12.587 40.796 49.103 40.773 36.515 0.022 46.938-29.431 48.897-40.773 2.58-14.929 10.001-43.58 10.013-43.634l0.005 0c1.283-4.961 1.961-10.165 1.952-15.53C160.939 41.583 151.053 23.587 135.855 12.494z" data-colored="true" data-filltype="tone" data-stroketype="none" stroke="none" opacity="1" fill="#d9a494"></path><path id="SvgjsPath1040" d="M100.103 0.867C66.481 0.814 39.286 28.147 39.234 61.929c-0.008 5.365 0.669 10.569 1.953 15.53l0.004 0c0.011 0.054 8.121 28.575 9.808 43.634 1.244 11.102 12.587 40.796 49.103 40.773 36.515 0.022 46.938-29.431 48.897-40.773 2.58-14.929 10.001-43.58 10.013-43.634l0.005 0c1.283-4.961 1.961-10.165 1.952-15.53C160.919 28.147 133.723 0.814 100.103 0.867z" data-colored="true" data-filltype="tone" data-stroketype="#c27b55" opacity="1" fill="#d9a494" stroke="#d9a494"></path></g></g><g id="svga-group-mouth-single" data-updown="0" data-leftright="0" data-dist="0" data-scalex="1.2763000000000002" data-scaley="1.2763000000000002" data-rotate="0" transform="matrix(1.2752000000000001 0 0 1.2752000000000001 -27.60256083984376 -39.06464755859378)"><path id="SvgjsPath3159" d="M98,142.2c0.1,0.2,0.1,0.3,0.1,0.3s0.1-0.1,0.2-0.3C98.2,142.2,98.1,142.2,98,142.2z" data-colored="false" data-filltype="#000000" data-stroketype="none" data-author="rones~openclipart.org" fill="#000000" stroke-width="none"></path><path id="SvgjsPath3160" d="M95.7,142.2c0,0,0.1-0.1,0.2-0.2c-0.1,0-0.2,0-0.3,0.1C95.7,142.2,95.7,142.2,95.7,142.2z" data-colored="false" data-filltype="#000000" data-stroketype="none" fill="#000000" stroke="none"></path><path id="SvgjsPath3161" d="M109.4,139.2c0,0-0.2,0.9-0.6,1.1c-0.1,0.1-0.4-0.1-0.4-0.1s-0.5,0.8-1,0.9c-0.4,0-0.9-0.6-0.9-0.6s-0.8,1.1-1.4,1.1
		c-0.5,0-1.3-0.8-1.3-0.8s-0.9,0.8-1.4,0.9c-0.5,0.1-1.5-0.3-1.5-0.3s-0.1,0.6-0.5,0.8c-0.1,0-0.2,0.1-0.3,0.1
		c0.1,0.1,0.1,0.2,0.1,0.2s1.2-0.6,1.9-0.4c0.1,0.1,0.6,0.2,0.6,0.2s0.8-0.5,1.3-0.5c0.5,0,1.4,0.8,1.4,0.8s0.2-0.7,0.5-0.7
		c0.4-0.1,0.8,0.5,1,0.8l0.2-0.1c0.2-0.4,0.6-1,1-1.2c0.3-0.1,0.9,0.2,0.9,0.2s-0.3-0.5-0.2-0.7c0.2-0.5,0.8-0.7,1.4-0.8
		c0.2,0,0.5,0.1,0.5,0.1s-0.3-0.3-0.3-0.5c0-0.1,0-0.2,0.1-0.4c0,0-0.1,0-0.1,0C110.1,139.5,109.4,139.2,109.4,139.2z" data-colored="false" data-filltype="#000000" data-stroketype="none" fill="#000000" stroke="none"></path><path id="SvgjsPath3162" d="M93.6,141.3c0,0-0.6,0.2-0.9,0.1c-0.5-0.2-0.8-1.3-0.8-1.3s-0.4,0.7-0.8,0.7c-0.2,0-0.7-0.3-1-0.5c0,0,0,0.1,0,0.1
		c0.2,1.2,1.7,0.5,2.7,1.2c0.2,0.1,0.4,0.3,0.6,0.5c0.1-0.1,0.2-0.1,0.3-0.2C93.6,141.5,93.6,141.3,93.6,141.3z" data-colored="false" data-filltype="#000000" data-stroketype="none" fill="#000000" stroke="none"></path><path id="SvgjsPath3163" d="M95.3,143.4l-0.6-0.3c0,0,0,0-0.1,0c0.6,0.6,1.2,1.1,1.8,1.4c0,0,0.1,0,0.1,0
		C96,144.1,95.3,143.4,95.3,143.4z" data-colored="false" data-filltype="#e08ba4" data-stroketype="none" fill="#e08ba4" stroke="none"></path><path id="SvgjsPath3164" d="M107,142.7c0,0,0-0.1,0.1-0.2l-0.2,0.1C106.9,142.7,107,142.7,107,142.7z" data-colored="false" data-filltype="#e08ba4" data-stroketype="none" fill="#e08ba4" stroke="none"></path><path id="SvgjsPath3165" d="M110.4,144.5c0.8-1,1.6-2.3,1.7-3.6l-0.5,0.5c0,0,0.1,0.6,0,0.9c-0.2,0.6-0.5,1.4-1.1,1.7
		c-0.2,0.1-0.6-0.1-0.6-0.1s0.1,0.4,0,0.6c-0.1,0.4-0.3,0.9-0.8,1c-0.5,0.1-1.3-0.7-1.3-0.7s0.3,1,0,1.3c-0.2,0.3-0.8,0.3-1.1,0.2
		c-0.8-0.3-1.7-2-1.7-2s-0.2,1.3-0.7,1.5c-0.4,0.2-0.9,0-1.2-0.2c-0.2-0.2-0.3-0.8-0.3-0.8s-0.2,1-0.7,1.2c-0.3,0.1-0.6,0-0.9-0.2
		c-0.4-0.3-0.9-1.2-0.9-1.2s-0.1,0.9-0.4,1c-0.6,0.2-1.3-0.3-1.7-0.8c-0.1-0.2-0.1-0.6-0.1-0.6s-0.4,0.5-0.7,0.5c-0.1,0-0.2,0-0.2,0
		c1.7,0.8,3.2,1.9,5,2.3c1.6,0.4,3.3,0.6,4.8,0.2C108.4,146.7,109.6,145.7,110.4,144.5z" data-colored="false" data-filltype="#e08ba4" data-stroketype="none" fill="#e08ba4" stroke="none"></path><path id="SvgjsPath3166" d="M98,144.3c0,0,0,0.4,0.1,0.6c0.4,0.5,1.1,1,1.7,0.8c0.3-0.1,0.4-1,0.4-1s0.5,0.9,0.9,1.2
		c0.3,0.2,0.6,0.3,0.9,0.2c0.4-0.2,0.7-1.2,0.7-1.2s0.1,0.6,0.3,0.8c0.3,0.2,0.8,0.4,1.2,0.2c0.5-0.3,0.7-1.5,0.7-1.5s0.9,1.7,1.7,2
		c0.4,0.1,0.9,0.1,1.1-0.2c0.3-0.3,0-1.3,0-1.3s0.8,0.8,1.3,0.7c0.4-0.1,0.7-0.6,0.8-1c0.1-0.2,0-0.6,0-0.6s0.4,0.2,0.6,0.1
		c0.6-0.3,0.9-1,1.1-1.7c0.1-0.3,0-0.9,0-0.9l0.5-0.5c0-0.2,0-0.5,0-0.7c-0.1-0.6-0.4-1.1-0.8-1.5c-0.2,0.2-0.5,0.5-0.7,0.7
		c-0.1,0.1-0.1,0.3-0.1,0.4c0,0.2,0.3,0.5,0.3,0.5s-0.3-0.1-0.5-0.1c-0.5,0.1-1.1,0.3-1.4,0.8c-0.1,0.2,0.2,0.7,0.2,0.7
		s-0.6-0.3-0.9-0.2c-0.4,0.1-0.8,0.8-1,1.2c-0.1,0.1-0.1,0.2-0.1,0.2s0-0.1-0.1-0.2c-0.2-0.3-0.6-0.8-1-0.8c-0.3,0-0.5,0.7-0.5,0.7
		s-0.9-0.7-1.4-0.8c-0.5,0-1.3,0.5-1.3,0.5s-0.4-0.2-0.6-0.2c-0.7-0.2-1.9,0.4-1.9,0.4s-0.1-0.1-0.1-0.2c-0.5,0.1-1.3,0-1.8,0
		c-0.1,0.1-0.2,0.3-0.2,0.3s-0.1-0.1-0.1-0.3c0,0,0,0,0,0c-0.7,0-0.9-0.7-0.9-0.7s-0.5,0.3-1.1,0.5c-0.1,0.1-0.2,0.2-0.2,0.2
		s0-0.1-0.1-0.2c-0.1,0-0.1,0-0.2,0c-0.2,0-1.3,0.1-1.5-0.1c-0.1-0.1-0.2-0.2-0.2-0.3c-0.1,0.1-0.2,0.2-0.3,0.2
		c0.4,0.3,0.8,0.8,1.2,1.2c0,0,0.1,0,0.1,0l0.6,0.3c0,0,0.6,0.7,1.3,1.1c0.2,0.1,0.3,0.1,0.5,0.2c0.1,0,0.2,0,0.2,0
		C97.6,144.8,98,144.3,98,144.3z" data-colored="false" data-filltype="#cccccc" data-stroketype="none" fill="#cccccc" stroke="none"></path><path id="SvgjsPath3167" d="M91.1,140.8c0.4-0.1,0.8-0.7,0.8-0.7s0.3,1.1,0.8,1.3c0.3,0.1,0.9-0.1,0.9-0.1s0,0.2,0.1,0.4
		c0.1,0.1,0.1,0.2,0.2,0.3c0.2,0.1,1.3,0.1,1.5,0.1c0.1,0,0.1,0,0.2,0c0.1,0,0.2,0,0.3-0.1c0.6-0.2,1.1-0.5,1.1-0.5s0.2,0.7,0.9,0.7
		c0,0,0,0,0,0c0.1,0,0.2,0,0.3,0c0.5,0,1.3,0.1,1.8,0c0.1,0,0.3-0.1,0.3-0.1c0.4-0.2,0.5-0.8,0.5-0.8s1,0.4,1.5,0.3
		c0.5-0.1,1.4-0.9,1.4-0.9s0.8,0.8,1.3,0.8c0.6,0,1.4-1.1,1.4-1.1s0.6,0.6,0.9,0.6c0.4,0,1-0.9,1-0.9s0.3,0.1,0.4,0.1
		c0.4-0.2,0.6-1.1,0.6-1.1s0.7,0.3,1.1,0.2c0,0,0.1,0,0.1,0c0.3-0.1,0.5-0.4,0.7-0.7c-0.4-0.4-0.8-0.8-1.3-1.2l-0.1-0.1l-0.6,0.9
		c0,0-0.1-0.5-0.3-0.5c-0.2,0-0.5,0.4-0.5,0.4s-0.1-0.8-0.5-0.9c-0.7-0.1-1.6,1.2-1.6,1.2s0.3-1.1-0.1-1.3c-0.4-0.2-0.9,0.2-1.2,0.4
		c-0.4,0.3-0.9,1-0.9,1s0-1.1-0.4-1.4c-0.3-0.2-0.8-0.2-1.2,0c-0.7,0.3-1.5,1.6-1.5,1.6s-0.4-1.3-1-1.5c-0.4-0.2-1-0.1-1.5,0.1
		c-0.6,0.3-1.5,1.3-1.5,1.3s-0.6-1-1.1-1.3c-0.5-0.3-1.2-0.5-1.8-0.2c-0.4,0.2-0.8,1.2-0.8,1.2s-0.5-1.1-1-1.2
		c-0.2,0-0.4,0.1-0.5,0.3c-0.1,0.2,0,0.6,0,0.6l-1.4-1c0,0.5,0.2,1,0.2,1.5c-0.1,0.7-0.6,1.2-0.5,1.8
		C90.4,140.5,90.9,140.8,91.1,140.8z" data-colored="false" data-filltype="#e6e6e6" data-stroketype="none" fill="#e6e6e6" stroke="none"></path><path id="SvgjsPath3168" d="M110.3,136.7c-0.2-0.2-0.5-0.4-0.7-0.6c-1.1-0.9-2.4-1.6-3.8-2c-0.9-0.3-1.9-0.5-2.8-0.5l0,0
		c-0.1,0-0.3,0-0.4,0c-1.9,0.1-3.6,1.1-5.4,1.5c-2.2,0.4-5.3-1-6.6,0.7c-0.1,0.1-0.1,0.3-0.2,0.5l0.3,0.2c0,0-0.1,0.1-0.1,0.1
		c-0.1,0.1-0.1,0.3-0.2,0.5l1.4,1c0,0-0.1-0.4,0-0.6c0.1-0.2,0.3-0.3,0.5-0.3c0.5,0.1,1,1.2,1,1.2s0.4-1,0.8-1.2
		c0.6-0.2,1.3-0.1,1.8,0.2c0.5,0.3,1.1,1.3,1.1,1.3s0.9-1.1,1.5-1.3c0.5-0.2,1-0.3,1.5-0.1c0.6,0.3,1,1.5,1,1.5s0.8-1.3,1.5-1.6
		c0.4-0.2,0.9-0.2,1.2,0c0.4,0.3,0.4,1.4,0.4,1.4s0.5-0.8,0.9-1c0.4-0.2,0.9-0.7,1.2-0.4c0.4,0.2,0.1,1.3,0.1,1.3s1-1.3,1.6-1.2
		c0.3,0.1,0.5,0.9,0.5,0.9s0.3-0.5,0.5-0.4c0.2,0,0.3,0.5,0.3,0.5l0.6-0.9l0.1,0.1c-0.1-0.1-0.2-0.1-0.3-0.2l0.4-0.6L110.3,136.7z" data-colored="false" data-filltype="#e08ba4" data-stroketype="none" fill="#e08ba4" stroke="none"></path><path id="SvgjsPath3169" d="M114,140.1c-0.8-2.4-2.8-4.6-5.1-5.9c-2.1-1.2-4.8-1.2-7.3-1.4c-1.7-0.2-3.3-0.1-5-0.2
		c-1.7-0.1-3.5-0.7-5.1-0.7l0,0c-0.6,0-1.1,0-1.7,0.2c-1.2,0.4-2.6,1.1-3,2.3c-0.6,1.5,0.3,3.3,0.9,4.7c1.9,4.1,4.6,8.4,8.5,10.8
		c2.7,1.6,6.1,2.1,9.3,2c2.2-0.1,4.6-0.6,6.1-2.1c1.5-1.4,1.7-3.8,2.2-5.8C114,142.6,114.4,141.3,114,140.1z M102.1,147
		c-1.8-0.4-3.4-1.5-5-2.3c-0.2-0.1-0.3-0.2-0.5-0.2c0,0-0.1,0-0.1,0c-0.6-0.2-1.2-0.8-1.8-1.4c-0.4-0.4-0.8-0.8-1.2-1.2
		c-0.2-0.2-0.4-0.3-0.6-0.5c-1.1-0.7-2.5,0.1-2.7-1.2c0,0,0-0.1,0-0.1c-0.1-0.7,0.4-1.1,0.5-1.8c0.1-0.5-0.2-1-0.2-1.5
		c0-0.2,0.1-0.3,0.2-0.5c1.3-1.7,4.4-0.3,6.5-0.7c1.8-0.3,3.5-1.4,5.3-1.5c0.1,0,0.3,0,0.4,0l0,0c0.9,0,1.9,0.2,2.8,0.5
		c1.3,0.5,2.6,1.1,3.7,2c0.2,0.2,0.5,0.4,0.7,0.6c0.5,0.4,0.9,0.8,1.3,1.2c0.4,0.5,0.7,0.9,0.8,1.5c0,0.2,0,0.5,0,0.7
		c-0.1,1.3-0.9,2.5-1.7,3.6c-0.9,1.2-2.1,2.2-3.5,2.7C105.4,147.7,103.7,147.4,102.1,147z" data-colored="true" data-filltype="tone" data-stroketype="none" fill="#6f147c" stroke-width="none" stroke="none"></path></g><g id="svga-group-eyes-left" data-updown="0" data-leftright="-3.0000002999999995" data-dist="0" data-scalex="1.4605000000000004" data-scaley="1.4605000000000004" data-rotate="0" transform="matrix(1.4594000000000003 0 0 1.4594000000000003 -33.74155290756228 -39.09493929901126) translate(-3.0000001999999997 0)"><g id="svga-group-eyesback-left"><path id="SvgjsPath2572" d="M59.782 80.154c0 3.552 5.88 11.295 15.32 11.458 7.043 0.123 12.184-3.747 12.184-7.301 0-3.552-1.83-5.008-12.283-4.747C67.962 79.742 58.67 78.157 59.782 80.154z" data-colored="false" data-filltype="gradient" data-stroketype="none" fill="url(#SvgjsRadialGradient2573)" opacity="1"></path></g><g id="svga-group-eyesiriswrapper-left" transform="translate(0.5 0)"><g id="svga-group-eyesiriscontrol-left" data-updown="-2.0000001999999992" data-leftright="-3.0000003" data-dist="0" data-scalex="1" data-scaley="1" data-rotate="0" transform="translate(-3.0000002 -2.0000001999999992)"><g id="svga-group-eyesiris-left" data-updown="0" data-leftright="0" data-dist="0" data-scalex="1.3368000000000002" data-scaley="1.3368000000000002" data-rotate="0" transform="matrix(1.3357 0 0 1.3357 -24.94150575828553 -28.375043012237555)"><path id="SvgjsPath1094" d="M80 84c0 3.313-2.687 5.999-6 5.999S68 87.313 68 84c0-3.316 2.687-6.001 6-6.001S80 80.685 80 84z" data-colored="true" data-filltype="tone" data-stroketype="none" stroke-width="none" opacity="1" fill="#bababa"></path><path id="SvgjsPath1095" d="M70.512 86.805c0.875-0.072 0.1-0.306 0.1-0.306 -0.433-0.233-1.248-0.592-1.248-0.921 0-1.031 1.414-1.299-0.034-1.705 -1.504-1.38 1.167-1.352 1.147-1.398 -0.975-2.376 0.299-1.071 0.835-1.773 1.988-2.599 0.554 0.267 1.633 0 0.391-0.096-0.78-1.531 0.034-1.33 0.539 0.132 0.662 0.58 0.662 0.58 0.393-0.077 1.008-0.682 1.008-0.682 0.749 0.226 1.275 1.29 1.043 1.091 0.368-0.045 0.884-0.221 1.286-0.341 0 0 0.07-0.239 0.139-0.033 0.917 2.661 3.284 2.47 0.559 3.24 0 0-0.176 0 0.382 0.442 2.71 2.164-2.102 1.495 0.451 2.49 0.104-0.104-1.53 0.965-1.53 1.261 0 0.501-1.042 1.818-1.946 1.3 -0.504-0.288-0.581 0.6-0.877 0.19 -0.581-0.803-1.742-0.035-1.313-0.773 0.634-0.521-0.654 0.204-0.904 0.204 -0.828 0 1.083-2.783 3.894-0.715 0.822 0.602-0.864-1.433 0.625-1.433 0.149 0.049 0.104-0.521 0.104-0.682 -0.774-0.151 1.39-0.003 1.39-1.262 0.137 0.027 0.509-0.35-1.635 0 0 0-0.068-0.75-0.034-0.886 0.11-0.438 1.214-0.298 0.904-0.75 0-0.001-0.799-1.604-0.799-1.604 -2.573-0.414-1.102-0.672-2.711-0.341 -0.076 0.378-3.445 1.984-3.338 2.729 0.1 0.702 2.115 0.938 0.208 2.182C73.405 91.051 68.437 85.454 70.512 86.805z" data-colored="true" data-filltype="hl1" data-stroketype="none" fill="#c9c9c9" stroke-width="none" opacity="1"></path><path id="SvgjsPath1096" d="M74 78.749l0.171 4.393 1.837-3.993 -1.523 4.123 3.227-2.985 -2.985 3.226 4.124-1.523 -3.992 1.839 4.392 0.17 -4.392 0.17 3.992 1.839 -4.124-1.523 2.985 3.226 -3.227-2.985 1.523 4.123 -1.837-3.993L74 89.249l-0.171-4.393 -1.838 3.993 1.522-4.123 -3.226 2.985 2.985-3.226 -4.124 1.523 3.992-1.839 -4.39-0.17 4.39-0.17 -3.992-1.839 4.124 1.523 -2.985-3.226 3.226 2.985 -1.522-4.123 1.838 3.993L74 78.749z" data-colored="true" data-filltype="sd2" data-stroketype="none" fill="#9b7c7c" stroke-width="none" opacity="1"></path><path id="SvgjsPath1097" d="M74.796 80.067l-0.539 3.315 1.981-2.711 -1.766 2.857 2.87-1.748 -2.725 1.964 3.319-0.515L74.668 84l3.266 0.794 -3.317-0.538 2.712 1.982 -2.858-1.765 1.748 2.869 -1.964-2.725 0.516 3.319 -0.771-3.27 -0.795 3.264 0.539-3.315 -1.984 2.711 1.768-2.857 -2.869 1.748 2.725-1.964 -3.319 0.516 3.269-0.771 -3.264-0.793 3.315 0.537 -2.712-1.982 2.858 1.765 -1.747-2.869 1.964 2.725 -0.516-3.318 0.772 3.27L74.796 80.067z" data-colored="true" data-filltype="sd3" data-stroketype="none" fill="#8c6262" stroke-width="none" opacity="1"></path><path id="SvgjsPath1098" d="M76.25 84c0 1.243-1.008 2.25-2.25 2.25s-2.25-1.007-2.25-2.25 1.008-2.25 2.25-2.25S76.25 82.757 76.25 84z" data-colored="false" data-filltype="#000000" data-stroketype="none" fill="#000000" stroke-width="none" opacity="0.9"></path><path id="SvgjsPath1099" d="M71.637 88.311c-0.331 0.332-0.985 0.215-1.46-0.261 -0.476-0.475-0.593-1.129-0.261-1.461 0.331-0.331 0.985-0.214 1.46 0.261C71.852 87.326 71.969 87.979 71.637 88.311z" data-colored="false" data-filltype="#ffffff" data-stroketype="none" fill="#ffffff" stroke-width="none" opacity="0.7"></path><path id="SvgjsPath1100" d="M78.806 82.818c-0.496 0.496-1.697 0.1-2.682-0.886 -0.986-0.986-1.382-2.187-0.886-2.683 0.496-0.496 1.697-0.1 2.682 0.886C78.906 81.122 79.302 82.322 78.806 82.818z" data-colored="false" data-filltype="#ffffff" data-stroketype="none" fill="#ffffff" stroke-width="none" opacity="0.9"></path></g></g></g><g id="svga-group-eyesfront-left"><path id="SvgjsPath2597" d="M73.8 63.098c-10.217 0-20.628 5.505-20.07 22 0.106 3.15 9.854 22.004 20.07 22.004s19.5-5.292 19.5-22.003C93.3 67.31 84.017 63.098 73.8 63.098zM75.103 91.612c-9.44-0.163-15.32-7.906-15.32-11.458 -1.112-1.997 8.18-0.412 15.221-0.589 10.453-0.261 12.283 1.195 12.283 4.747C87.286 87.865 82.146 91.735 75.103 91.612z" data-colored="true" data-filltype="tone" data-stroketype="none" data-fromskin="true" fill="#d9a494" stroke-width="none" opacity="1" stroke="none"></path><path id="SvgjsPath2598" d="M58.8 83.338c1.352 7.412 8.545 13.677 17.936 13.64 9.389-0.043 16.986-6.179 16.961-13.713 -0.023-7.533-7.646-13.605-17.039-13.566C67.265 69.743 57.445 75.91 58.8 83.338zM75.003 79.564c10.453-0.261 12.283 1.195 12.283 4.747 0 3.554-5.141 7.423-12.184 7.301 -9.44-0.163-15.32-7.906-15.32-11.458C58.67 78.157 67.962 79.742 75.003 79.564z" data-colored="false" data-filltype="gradient" data-stroketype="none" data-fromskin="true" fill="url(#SvgjsRadialGradient2599)" opacity="1"></path><path id="SvgjsPath2603" d="M88.286 84.312c0-3.552-2.83-5.008-13.283-4.747 -2.826 0.071-6.013-0.141-8.746-0.292 -1.321-0.058-2.62-0.11-3.879-0.136 -1.918 0.014-5.022 0.252-4.596 1.018 0 3.552 7.88 11.295 17.32 11.458C82.146 91.735 88.286 87.865 88.286 84.312z" data-colored="false" data-filltype="gradient" data-stroketype="none" fill="url(#SvgjsRadialGradient2604)" opacity="1"></path><path id="SvgjsPath2607" d="M85.282 77.731l-2.203-1.308 -14.833-0.24c4.185 0.378 7.805 0.588 14.763 0.648L85.282 77.731z" data-colored="true" data-filltype="sd3" data-stroketype="none" data-fromskin="true" fill="#ab5a41" stroke-width="none" opacity="1" stroke="none"></path><path id="SvgjsPath2608" d="M84.116 80.285c-8.54 0.143-14.196 0.14-24.105-0.622 0.348 1.872 0.926 3.215 1.795 5.207 -1.956-2.832-3.342-4.561-4.507-7.138 10.536 0.781 17.356 1.315 27.309 1.342l3.691 3.372L84.116 80.285zM85.554 88.437c-8.885 3.274-13.098 4.615-21.361-0.982C68.829 93.348 80.101 92.856 85.554 88.437z" data-colored="true" data-filltype="tone" data-stroketype="none" stroke-width="none" opacity="1" stroke="none"></path></g></g><g id="svga-group-eyes-right" data-updown="0" data-leftright="3.0000002999999995" data-dist="0" data-scalex="1.4605000000000004" data-scaley="1.4605000000000004" data-rotate="0" transform="matrix(1.4594000000000003 0 0 1.4594000000000003 -57.95514729156497 -39.09493929901126) translate(3.0000001999999997 0)"><g id="svga-group-eyesback-right"><path id="SvgjsPath2580" d="M139.818 80.154c0 3.552-5.88 11.295-15.32 11.458 -7.043 0.123-12.184-3.747-12.184-7.301 0-3.552 1.83-5.008 12.283-4.747C131.639 79.742 140.931 78.157 139.818 80.154z" data-colored="false" data-filltype="gradient" data-stroketype="none" fill="url(#SvgjsRadialGradient2581)" opacity="1"></path></g><g id="svga-group-eyesiriswrapper-right" transform="translate(-0.5 0)"><g id="svga-group-eyesiriscontrol-right" data-updown="-2.0000001999999992" data-leftright="-3.0000003" data-dist="0" data-scalex="1" data-scaley="1" data-rotate="0" transform="translate(-3.0000002 -2.0000001999999992)"><g id="svga-group-eyesiris-right" data-updown="0" data-leftright="0" data-dist="0" data-scalex="1.3368000000000002" data-scaley="1.3368000000000002" data-rotate="0" transform="matrix(1.3357 0 0 1.3357 -42.39673145370486 -28.375546285629284)"><path id="SvgjsPath1101" d="M132,83.999c0,3.316-2.684,6-6,6s-6-2.684-6-6s2.684-6,6-6S132,80.683,132,83.999z" data-colored="true" data-filltype="tone" data-stroketype="none" stroke-width="none" opacity="1" fill="#bababa"></path><path id="SvgjsPath1102" d="M122.508 86.806c0.879-0.076 0.105-0.305 0.105-0.305 -0.434-0.234-1.254-0.592-1.254-0.926 0-1.031 1.418-1.295-0.023-1.705 -1.512-1.377 1.16-1.348 1.137-1.395 -0.973-2.379 0.305-1.072 0.844-1.775 1.98-2.596 0.551 0.27 1.629 0 0.387-0.094-0.785-1.529 0.035-1.33 0.539 0.135 0.656 0.58 0.656 0.58 0.398-0.076 1.008-0.68 1.008-0.68 0.75 0.223 1.277 1.289 1.043 1.09 0.375-0.047 0.891-0.223 1.289-0.34 0 0 0.07-0.24 0.141-0.035 0.914 2.66 3.281 2.473 0.563 3.24 0 0-0.176 0 0.375 0.439 2.707 2.168-2.098 1.494 0.457 2.49 0.105-0.1-1.535 0.967-1.535 1.266 0 0.498-1.043 1.816-1.945 1.295 -0.504-0.287-0.586 0.604-0.879 0.193 -0.574-0.803-1.746-0.035-1.313-0.773 0.633-0.521-0.656 0.205-0.902 0.205 -0.832 0 1.078-2.783 3.891-0.715 0.82 0.598-0.867-1.436 0.633-1.436 0.141 0.047 0.105-0.521 0.105-0.68 -0.785-0.152 1.383-0.006 1.383-1.266 0.141 0.029 0.516-0.346-1.629 0 0 0-0.07-0.75-0.035-0.885 0.105-0.439 1.207-0.299 0.902-0.75l-0.797-1.605c-2.578-0.41-1.102-0.668-2.719-0.34 -0.07 0.381-3.445 1.986-3.34 2.73 0.105 0.703 2.121 0.938 0.211 2.18C125.402 91.054 120.434 85.452 122.508 86.806z" data-colored="true" data-filltype="hl1" data-stroketype="none" fill="#c9c9c9" stroke-width="none" opacity="1"></path><path id="SvgjsPath1103" d="M126 78.749l0.176 4.395 1.828-3.996 -1.523 4.125 3.234-2.988 -2.988 3.229 4.125-1.523 -3.996 1.84 4.395 0.17 -4.395 0.17 3.996 1.84 -4.125-1.523 2.988 3.229 -3.234-2.988 1.523 4.125 -1.828-3.996L126 89.249l-0.176-4.395 -1.84 3.996 1.523-4.125 -3.223 2.988 2.988-3.229 -4.125 1.523 3.996-1.84 -4.395-0.17 4.395-0.17 -3.996-1.84 4.125 1.523 -2.988-3.229 3.223 2.988 -1.523-4.125 1.84 3.996L126 78.749z" data-colored="true" data-filltype="sd2" data-stroketype="none" fill="#9b7c7c" stroke-width="none" opacity="1"></path><path id="SvgjsPath1104" d="M126.797 80.067l-0.539 3.316 1.98-2.713 -1.77 2.859 2.871-1.752 -2.719 1.969 3.316-0.516 -3.27 0.768 3.27 0.797 -3.316-0.539 2.707 1.98 -2.859-1.764 1.746 2.871 -1.957-2.725 0.516 3.316L126 84.667l-0.797 3.264 0.539-3.316 -1.98 2.713 1.77-2.859 -2.871 1.752 2.719-1.969 -3.316 0.516 3.27-0.768 -3.27-0.797 3.316 0.539 -2.707-1.98 2.859 1.764 -1.746-2.871 1.957 2.725 -0.516-3.316 0.773 3.27L126.797 80.067z" data-colored="true" data-filltype="sd3" data-stroketype="none" fill="#8c6262" stroke-width="none" opacity="1"></path><path id="SvgjsPath1105" d="M128.25 83.999c0 1.242-1.008 2.25-2.25 2.25s-2.25-1.008-2.25-2.25 1.008-2.25 2.25-2.25S128.25 82.757 128.25 83.999z" data-colored="false" data-filltype="#000000" data-stroketype="none" fill="#000000" stroke-width="none" opacity="0.9"></path><path id="SvgjsPath1106" d="M123.633 88.312c-0.328 0.328-0.984 0.217-1.453-0.264 -0.48-0.475-0.598-1.125-0.258-1.459 0.328-0.328 0.984-0.211 1.453 0.264C123.855 87.327 123.973 87.978 123.633 88.312z" data-colored="false" data-filltype="#ffffff" data-stroketype="none" fill="#ffffff" stroke-width="none" opacity="0.7"></path><path id="SvgjsPath1107" d="M130.805 82.815c-0.492 0.498-1.699 0.105-2.684-0.885 -0.984-0.984-1.383-2.186-0.879-2.678 0.492-0.498 1.688-0.105 2.672 0.885C130.91 81.122 131.297 82.323 130.805 82.815z" data-colored="false" data-filltype="#ffffff" data-stroketype="none" fill="#ffffff" stroke-width="none" opacity="0.9"></path></g></g></g><g id="svga-group-eyesfront-right"><path id="SvgjsPath2618" d="M106.301 85.099c0 16.711 9.283 22.003 19.5 22.003s19.964-18.854 20.07-22.004c0.558-16.495-9.854-22-20.07-22S106.301 67.31 106.301 85.099zM112.314 84.312c0-3.552 1.83-5.008 12.283-4.747 7.041 0.178 16.333-1.408 15.221 0.589 0 3.552-5.88 11.295-15.32 11.458C117.455 91.735 112.314 87.865 112.314 84.312z" data-colored="true" data-filltype="tone" data-stroketype="none" data-fromskin="true" fill="#d9a494" stroke-width="none" opacity="1" stroke="none"></path><path id="SvgjsPath2619" d="M122.943 69.699c-9.393-0.04-17.016 6.033-17.039 13.566 -0.025 7.535 7.572 13.67 16.961 13.713 9.391 0.037 16.584-6.228 17.936-13.64C142.155 75.91 132.336 69.743 122.943 69.699zM139.818 80.154c0 3.552-5.88 11.295-15.32 11.458 -7.043 0.123-12.184-3.747-12.184-7.301 0-3.552 1.83-5.008 12.283-4.747C131.639 79.742 140.931 78.157 139.818 80.154z" data-colored="false" data-filltype="gradient" data-stroketype="none" data-fromskin="true" fill="url(#SvgjsRadialGradient2620)" opacity="1"></path><path id="SvgjsPath2624" d="M111.314 84.312c0-3.552 2.83-5.008 13.283-4.747 2.826 0.071 6.013-0.141 8.746-0.292 1.321-0.058 2.62-0.11 3.879-0.136 1.918 0.014 5.022 0.252 4.596 1.018 0 3.552-7.88 11.295-17.32 11.458C117.455 91.735 111.314 87.865 111.314 84.312z" data-colored="false" data-filltype="gradient" data-stroketype="none" fill="url(#SvgjsRadialGradient2625)" opacity="1"></path><path id="SvgjsPath2628" d="M114.318 77.731l2.203-1.308 14.833-0.24c-4.185 0.378-7.805 0.588-14.763 0.648L114.318 77.731z" data-colored="true" data-filltype="sd3" data-stroketype="none" data-fromskin="true" fill="#ab5a41" stroke-width="none" opacity="1" stroke="none"></path><path id="SvgjsPath2629" d="M111.302 82.446l3.691-3.372c9.952-0.027 16.772-0.561 27.309-1.342 -1.165 2.578-2.551 4.307-4.507 7.138 0.869-1.992 1.447-3.335 1.795-5.207 -9.909 0.762-15.565 0.765-24.105 0.622L111.302 82.446zM135.408 87.455c-8.264 5.598-12.477 4.257-21.361 0.982C119.5 92.856 130.771 93.348 135.408 87.455z" data-colored="true" data-filltype="tone" data-stroketype="none" stroke-width="none" opacity="1" stroke="none"></path></g></g><g id="svga-group-facehighlight-single" data-updown="0" data-leftright="0" data-dist="0" data-scalex="1" data-scaley="1" data-rotate="0"><path id="SvgjsPath1049" d="M141 113.974c0.035 22.622-18.292 40.994-40.938 41.025 -22.642 0.037-41.028-18.273-41.063-40.9 -0.035-22.62 18.292-41.064 40.937-41.1C122.579 72.964 140.967 91.349 141 113.974z" data-colored="false" data-filltype="gradient" data-stroketype="none" data-fromskin="true" fill="url(#SvgjsRadialGradient1050)" opacity="1"></path><path id="SvgjsPath1053" d="M137.5 53.999c0 20.711-16.789 37.5-37.499 37.5 -20.711 0-37.501-16.789-37.501-37.5s16.79-37.5 37.501-37.5C120.711 16.499 137.5 33.288 137.5 53.999z" data-colored="false" data-filltype="gradient" data-stroketype="none" data-fromskin="true" fill="url(#SvgjsRadialGradient1054)" opacity="1"></path></g><g id="svga-group-eyebrows-left" data-updown="-9.0000009" data-leftright="3.0000002999999995" data-dist="0" data-scalex="1.1842000000000001" data-scaley="1.1842000000000001" data-rotate="0" transform="matrix(1.1831 0 0 1.1831 -22.795949301528935 -11.379665132908436) translate(3.0000001999999997 -9.0000009)"><path id="SvgjsPath3428" d="M108.2,70c1.9,1,4,1.6,5.9,2c1,0.2,2.7,0.2,5,0c2.7-0.2,4.6-0.3,5.6-0.2c1.3,0.1,3.4,0.7,6.2,1.6
	c2.8,1,4.7,1.4,5.5,1.5l5,0.2c-0.9-1-2.1-2-3.4-3.1c-2.8-2.2-5.6-3.5-8.3-4.1c-2.7-0.5-5.2-0.7-7.7-0.5c-1.3,0.1-3.1,0.2-5.3,0.5
	c-1.9,0.1-4,0.4-5.9,0.8C108.5,69.3,107.6,69.7,108.2,70z" data-colored="true" data-filltype="#000000" data-stroketype="none" fill="#080806" stroke-width="none" opacity="1"></path></g><g id="svga-group-eyebrows-right" data-updown="-9.0000009" data-leftright="-3.0000002999999995" data-dist="0" data-scalex="1.1842000000000001" data-scaley="1.1842000000000001" data-rotate="0" transform="matrix(1.1831 0 0 1.1831 -13.75996493015289 -11.407129713825789) translate(-3.0000001999999997 -9.0000009)"><path id="SvgjsPath3429" d="M88.8,68.8c-1.9-0.3-4-0.7-5.9-0.8c-2.2-0.3-4-0.4-5.3-0.5c-2.5-0.1-5,0-7.7,0.5c-2.7,0.5-5.5,1.9-8.3,4.1
	c-1.3,1.1-2.5,2.1-3.4,3.1l5-0.2c0.7-0.1,2.7-0.5,5.5-1.5c2.8-1,4.9-1.5,6.2-1.6c1-0.1,3,0,5.6,0.2c2.4,0.2,4,0.2,5,0
	c1.9-0.3,4-1,5.9-2C92.1,69.7,91.2,69.3,88.8,68.8z" data-colored="true" data-filltype="#000000" data-stroketype="none" fill="#080806" stroke-width="none" opacity="1"></path></g><g id="svga-group-nose-single" data-updown="0" data-leftright="0" data-dist="0" data-scalex="1" data-scaley="1" data-rotate="0"><path id="SvgjsPath5951" d="M92.142 118.55c3.337-3.304 12.982-2.522 15.725-0.181C102.043 121.145 98.509 120.354 92.142 118.55z" opacity="1" stroke-width="none" fill="#d19684" data-fromskin="true" data-stroketype="none" data-filltype="sd05" data-colored="true" stroke="none"></path><path id="SvgjsPath5952" d="M100.067 120.999c-1.354 0-2.731-0.479-3.924-0.945 -0.485-0.188-0.961-0.339-1.495-0.417 -0.667-0.099-1.898 0.078-2.391-0.322 -0.524-0.428-0.097-1.101 0.619-1.126 0.883 0.011 1.778 0.062 2.635 0.241 1.5 0.317 2.783 1.135 4.373 1.236 1.205 0.076 2.544-0.524 3.622-0.883 0.847-0.282 3.679-1.335 4.362-0.414 0.423 0.568-0.255 0.973-0.905 1.002 -0.805 0.035-1.598 0.251-2.342 0.483C103.183 120.304 101.65 120.999 100.067 120.999z" opacity="1" stroke-width="none" fill="#ab5a41" data-fromskin="true" data-stroketype="none" data-filltype="sd3" data-colored="true" stroke="none"></path><path id="SvgjsPath5953" d="M99.985 116.39c0.637 0 2.125-0.742 1.881-2.181 -1.445-8.496-1.881-23.21-1.881-23.21s-1.105 17.234-2.049 23.21C97.707 115.664 99.265 116.39 99.985 116.39z" opacity="0.2" stroke-width="none" fill="#f8e1da" data-fromskin="true" data-stroketype="none" data-filltype="hl2" data-colored="true" stroke="none"></path></g><g id="svga-group-beardwrap" data-updown="0" data-leftright="0" data-dist="0" data-scalex="1" data-scaley="1" data-rotate="0"><g id="svga-group-beard-single" data-updown="15.000001499999996" data-leftright="0" data-dist="0" data-scalex="1" data-scaley="1" data-rotate="0" transform="translate(0 15.000001399999997)"><path id="SvgjsPath3908" d="M99.85 166.08c-2.22-0.47-8.06-2.32-9.81-3.06 -3.4-1.4-5.58-3.23-6.66-5.6 -2.05-4.93 3.17-20.64 16.6-16.63 7.8-1.63 11.89 1.02 15.57 8.27 1.78 3.7 2.09 6.36 1 8.62C114.83 161.24 109.52 163.91 99.85 166.08z" data-colored="true" data-filltype="tone" data-stroketype="none" fill="#b84131" stroke-width="none" opacity="1"></path><path id="SvgjsPath3909" d="M99.85 166.19c-2.28-0.48-8.17-2.36-9.85-3.07 -3-1.24-5.48-2.96-6.71-5.65 -1.58-3.8 1.05-13.58 8.13-16.55 -4.28 4.4-8.02 10.63-4.37 16.37 3.07 4.61 10.53 5.99 12.74 7.37 4.23-2.06 10.67-2.5 13.69-8.47 1.79-3.22-0.1-10.47-3.77-14.45 2.41 1.47 4.25 3.96 5.94 7.28C119.18 156.38 118.28 162.04 99.85 166.19zM100.15 166.07c-0.76-1-0.73-0.92-1.48-2.34 -4.08-7.98-10.23-9.82-7.86-15.14 -0.82 4.29 4.11 7.17 6.02 9.59 0.31 0.39 0.47 0.66 0.47 0.66C99.37 162.37 98.98 163.23 100.15 166.07zM106.05 160.08c4.17-2.78 4.82-8.72 1.29-11.88C109.7 151.63 108.97 157.48 106.05 160.08zM97.76 144.34c-0.13-1.33 0.56-1.54 0.56-1.54s-0.53 0.11-0.81 0.81c-1.17 3.12 1.94 4.92 3.38 11.55C101.21 149.27 98.18 148.11 97.76 144.34z" data-colored="true" data-filltype="sd1" data-stroketype="none" fill="#a92d1c" stroke-width="none" opacity="1"></path><path id="SvgjsPath3910" d="M115.63 149.02c-3.42-6.73-7.48-10.09-15.63-8.32 -13.45-4.02-18.82 11.7-16.72 16.77 1.23 2.69 3.71 4.41 6.71 5.65 1.68 0.71 7.57 2.59 9.85 3.07C118.28 162.04 119.18 156.38 115.63 149.02zM100.46 165.72c-0.2 0.07-0.4 0.13-0.59 0.18 -7.9-2.59-13.7-4.63-15.58-8.77 -1.76-4.2 1.86-19.08 15.7-16.2 8.03-1.15 11.27 1.89 14.68 8.48C119.3 159.27 112.58 161.69 100.46 165.72z" data-colored="true" data-filltype="sd3" data-stroketype="none" fill="#8a1000" stroke-width="none" opacity="1"></path></g></g><g id="svga-group-mustache-single" data-updown="0" data-leftright="0" data-dist="0" data-scalex="1" data-scaley="1" data-rotate="0"></g><g id="svga-group-hair-front" data-updown="0" data-leftright="0" data-dist="0" data-scalex="1" data-scaley="1" data-rotate="0" transform="matrix(1.0021998900000002 0 0 1.0021998900000002 -0.2224913765534069 -0.08431819283341468) scale(1 1.183999779999993)" data-scaleY="1.1850997799999932" data-scaleX="1.0021997800000002"><path id="SvgjsPath11857" d="M152.983 98.604c-4.563-12.435 0.717-31.506-8.205-45.615 -4.064-6.762-7.597-11.409-6.95-19.276l-0.368-0.124c-0.862 1.352-1.994 2.82-2.745 3.76 0.427-1.091 1.123-2.762 1.753-4.023l-0.332-0.218c-2.585 3.073-4.805 4.649-7.859 5.5 3.3-2.32 6.949-6.357 8.546-8.595l-0.271-0.284c-11.319 7.283-24.164 7.382-35.496 7.471 -10.227 0.076-16.579-0.155-23.953-4.441 -5.321 1.764-9.511 1.539-14.116-1.635 -14.414 27.947-8.01 13.957-16.627 65.764 -5.004-6.67-6.458-10.912-7.642-17.267 -0.313-2.027-0.619-5.154-0.429-7.215l-0.063-0.065c-4.452-9.77-6.553-15.333-5.495-34.712 0.785-8.04 2.533-14.076 7.574-20.398 -0.665-3.435-0.729-6.898-0.277-10.21 -2.64-4.827-4.457-9.795-5.165-11.57 3.688 2.823 3.993 2.986 7.07 3.957 0.704-1.937 1.73-3.861 2.387-4.865 0.297 2.238 0.533 3.75 1.203 5.925 0.228 0.055 1.313 0.349 1.66 0.442 -0.199-1.324-0.381-1.938-0.353-3.125 0.571 1.302 1.053 1.604 2.71 3.626 1.834 0.385 1.394 0.328 1.944 0.328 -2.669-4.183-4.47-7.885-4.927-13.515 3.653 2.081 8.764 3.27 14.101 3.27 12.539 0 25.369-9.412 43.169-9.412 15.425 0 28.771 8.558 34.683 18.303 -0.006-2.514-0.113-4.594 0.794-7.178 0 0 0.105 3.705 0.105 6.592l0.396 0.037c0.62-3.301 1.928-6.115 4.088-8.773 -1.918 5.158-1.188 2.404-3.334 8.702l0.348 0.187c1.431-1.839 2.603-3.139 6.019-4.862 -2.468 2.473-4.355 3.89-5.522 5.639l0.301 0.259c1.456-1.32 2.971-1.82 4.512-0.613 -2.481-0.902-3.946 0.679-5.648 2.675 6.619 1.091 10.21 4.91 14.864 10.015 10.712 12.352 13.533 24.411 7.723 41.506 2.435 5.263 2.06 17.125-3.375 26.686C159.779 86.867 155.941 93.789 152.983 98.604z" data-colored="true" data-filltype="tone" data-stroketype="none" fill="#b84131" stroke-width="none" opacity="1" stroke="none"></path><path id="SvgjsPath11858" d="M62.299 30.371c0.359 0.334 0.718 0.668 1.074 1.004 -0.129-0.085-0.258-0.164-0.388-0.253 -14.414 27.947-8.01 13.957-16.627 65.764 -5.004-6.67-6.458-10.912-7.642-17.267 -0.313-2.027-0.619-5.154-0.429-7.215l-0.063-0.065c-4.452-9.77-6.553-15.333-5.495-34.712 0.785-8.04 2.533-14.076 7.574-20.398 -0.654-3.378-0.72-6.782-0.293-10.044 0.597 0.874 1.223 1.725 1.863 2.565C42.304 12.374 42.669 14.933 42 17c-9.539 29.478-4 43 2 64 -2.464-15.931-7.142-36.185 5.619-48C44.168 46.096 45.673 52.034 47 61 47.917 49.082 52.195 37.996 62.299 30.371zM155.432 13.06c-0.376-0.412-0.742-0.812-1.106-1.207 -0.382 0.255-0.774 0.489-1.159 0.737 14.956 30.661 0.594 27.717 4.017 41.409C161.183 63.999 156 70 156 80c0-15-0.681-25.439-8.96-37.175 -2.796-3.963-3.581-17.423-5.465-24.074C118.373 33 84.002 35.981 47.916 7.183c17 6 51.649 1.35 63.543-6.316 -13.558 2.461-41.862 2.608-54.59-2.631 30.5-2.37 30.131-12.16 56.131-14C100.5-20.431 73.196-8.51 60.658-8.51c-5.336 0-10.447-1.188-14.101-3.27 0.457 5.63 2.258 9.333 4.927 13.515 -0.551 0-0.11 0.057-1.944-0.328 -1.658-2.022-2.14-2.325-2.71-3.626 -0.029 1.187 0.154 1.801 0.353 3.125 -0.347-0.093-1.433-0.387-1.66-0.442 -0.67-2.175-0.906-3.687-1.203-5.925 -0.656 1.004-1.683 2.928-2.387 4.865 -3.078-0.971-3.382-1.134-7.07-3.957 0.708 1.775 2.525 6.744 5.165 11.57 -0.007 0.055-0.009 0.111-0.016 0.166 6.305 9.235 15.169 16.471 23.363 24.192 4.454 2.924 8.558 3.096 13.729 1.382 7.374 4.286 13.727 4.517 23.953 4.441 11.332-0.088 24.177-0.188 35.496-7.471l0.271 0.284c-1.597 2.238-5.246 6.275-8.546 8.595 3.055-0.852 5.274-2.428 7.859-5.5l0.332 0.218c-0.63 1.262-1.326 2.932-1.753 4.023 0.751-0.94 1.883-2.408 2.745-3.76l0.368 0.124c-0.646 7.868 2.886 12.514 6.95 19.276 8.922 14.109 3.643 33.181 8.205 45.615 2.958-4.815 6.796-11.736 6.796-17.352 5.435-9.561 5.81-21.423 3.375-26.686C168.965 37.471 166.144 25.412 155.432 13.06zM156.165 38.709c-0.33-9.524-6.633-21.612-6.633-21.612 -2.946-5.204-5.579-7.687-9.996-8.695 12.426 0.619 17.306 19.179 16.769 28.875C156.254 38.177 156.165 38.709 156.165 38.709zM127.907-1.507c3.283 2.663 4.067 3.423 7.296 7.909 -16.653-29.889-49.333-7.27-59.667-8C86.041 0.573 109.793-14.79 127.907-1.507zM136.369 11.485C116.408 28.033 85.929 21.023 61 13.21 85.827 24.581 117.435 30.734 136.369 11.485zM57.869 29.485c-6.539 3.425-9.616 12.05-9.9 17.75C49.19 42.316 52.854 33.291 57.869 29.485zM49.619 24.735c-9.359 5.699-11.174 18.771-10.25 29.75C40.353 44.343 42.181 31.11 49.619 24.735zM117.064 12.34c-1.006 0.215-7.259 1.072-10.672 1.195 -2.661 0.155-13.037 0.328-22.391-0.048 9.655 2.069 15.454 2.454 22.496 2.045 8.106-0.293 15.36-1.898 21.371-6.796C123.633 11.067 121.828 11.399 117.064 12.34zM150.609 38.885c0 0-0.256-0.441-0.588-1.102 -0.911-1.527-1.945-5.681-5.938-18.736 2.966 24.195 7.817 19.782 9.991 32.283C154.075 46.834 153.761 44.529 150.609 38.885z" data-colored="true" data-filltype="sd1" data-stroketype="none" fill="#a92d1c" stroke-width="none" opacity="1" stroke="none"></path><path id="SvgjsPath11859" d="M157.853 68.131c0.364-3.246 0.217-1.758 0.257-3.61 0.306-6.244-3.426-11.479-1.154-18.987 1.854-5.453 2.925-6.308 2.113-15.801 -0.119-1.37-0.474-4.774-1.102-5.998 0.856 1.489 1.422 4.245 1.725 5.934 1.687 9.543 0.268 10.992-1.521 16.267C155.781 53.906 160.368 57.422 157.853 68.131zM141.575 18.751c1.117 30.37 7.276 23.316 12.717 41.752C150.598 38.757 147.181 56.786 141.575 18.751zM48.369 34.235c-9.19 11.563-8.262 19.899-6 37C42.165 53.925 40.055 47.355 48.369 34.235zM41.772 17.714c-5.274 16.319-6.429 23.684-3.897 41.285C37.406 41.353 37.518 37.458 41.772 17.714zM61.952 30.641C52.322 37.56 47.295 50.217 47 61 48.482 50.695 54.012 37.697 61.952 30.641zM128.855 24.594c-12.051 4.437-31.667 5.625-45.988 1.322C71.706 22.661 54.279 11.723 44.905 4.845c8.498 6.765 23.471 16.807 33.926 20.776 10.863 4.059 27.887 5.567 41.081 2.245 9.248-2.324 14.041-4.52 21.663-9.114C138.182 20.612 133.184 23.242 128.855 24.594zM102.813-11.594c12.167-2.285 26.509 5.558 34.057 14.83 -7.897-11.318-20.837-16.949-28.562-17.083C95.629-14.067 82.513-3.204 56.869-2.265 80.982-1.203 92.573-9.936 102.813-11.594zM112.369 1.235c-17.289 6.143-30.64 7.613-48.807 8.58C82.325 10.97 95.739 9.15 112.369 1.235zM130.536 4.738c-10.662 5.027-15.33 5.851-37.337 7.191C106.996 12.486 119.885 11.769 130.536 4.738zM95.248 20.023c10.644 1.237 29.289-0.105 38.621-9.788 -11.27 9.494-32.119 9.154-48.38 8.508C91.713 19.714 90.59 19.552 95.248 20.023zM140.869 10.735c7.629 2.809 9.489 16.193 12.5 27C152.022 28.156 149.721 12.813 140.869 10.735z" data-colored="true" data-filltype="hl1" data-stroketype="none" fill="#c75849" stroke-width="none" opacity="1" stroke="none"></path><path id="SvgjsPath11860" d="M155.579 12.925c-4.348-4.769-8.252-8.97-14.63-10.02 2.094-2.463 3.566-3.379 6.25-1.85 -1.59-1.871-3.417-2.226-5.63-0.22 1.271-1.905 3.468-3.46 6.3-6.43 -4.231 1.985-5.503 3.34-7.12 5.42 2.285-6.703 1.3-3.128 3.72-9.75 -2.529 2.836-4.146 5.92-4.859 9.72 0-5.903-0.185-5.14-0.07-7.72 -1.387 3.089-1.229 5.81-1.229 7.59 -2.233-3.682-5.514-6.8-9.051-9.35 -25.054-18.289-50.039-1.456-63.58 0.58 -5.489 0.927-13.714 0.338-19.35-3.04 0.398 5.764 2.183 9.592 4.79 13.68 -0.001 0-1.47-0.31-1.47-0.31 -2.019-2.434-2.214-2.356-2.96-4.33 -0.191 1.763 0.101 2.74 0.25 3.74 -0.498-0.13-0.957-0.268-1.26-0.34 -0.743-2.414-0.958-4.25-1.23-6.29 -0.614 0.785-1.922 3.18-2.64 5.15 -2.999-0.948-3.214-1.099-7.43-4.33 0.5 1 2.309 6.461 5.44 12.23 -0.47 3.534-0.328 7.06 0.27 10.12 -5.025 6.312-6.77 12.346-7.56 20.44 -1.041 19.059 0.867 24.611 5.53 34.82 0.01 0.01 0.01 0.03 0.02 0.04 -0.177 1.971 0.119 5.102 0.44 7.18 1.179 6.332 2.625 10.693 7.91 17.65 0.02 0.02 0.03 0.05 0.05 0.07 3.395-20.368 3.045-20.867 3.77-25.89 3.572-25.712 3.417-21.872 12.81-40.07 3.813 2.628 8.035 3.552 14.02 1.56 4.342 2.524 8.776 4.45 21.06 4.45 12.171-0.152 26.176 0.412 38.52-7.53 -1.87 2.622-6.118 7.154-9.46 9.18 3.479-0.736 5.975-2.137 9.09-5.84 -0.957 1.915-2.083 4.814-2.17 5.16 0.15-0.18 2.15-2.57 3.51-4.7 -0.653 7.945 2.894 12.597 6.98 19.4 8.956 14.163 3.511 33.521 8.33 45.96 3.09-4.996 7.04-12.086 7.04-17.75 5.21-9.086 5.956-21.111 3.39-26.75C168.587 38.924 167.533 26.708 155.579 12.925zM46.789-2.465c0.488 1.389 0.595 1.359 2.49 3.61 -0.94-0.195-1.565-0.332-2.13-0.46C46.93-0.371 46.789-1.375 46.789-2.465zM44.279-5.125c0.094 1.532 0.459 3.542 0.99 5.31 -2.865-0.737-1.8-0.504-2.8-0.8C43.292-3.089 43.602-3.715 44.279-5.125zM45.999 95.095c-4.216-7.605-5.323-10.191-6.49-17.89 -0.114-0.886-0.472-3.446-0.49-4.67 -6.07-13.88-8.352-40.236 1.21-54.74 0-0.01 0-0.01 0-0.01s0.399-0.624 1.12-1.52c-0.267-1.344-0.531-4.18-0.44-7.28 0.74 1.32 1.58 2.52 2.33 3.67 0-0.003 0.59 0.781 0.59 0.8 4.551 5.79 8.754 10.604 18.92 17.75C50.544 50.979 51.301 44.3 45.999 95.095zM163.639 48.206c-0.356 2.358-1.123 5.583-1.539 6.99 2.78 7.068-0.257 20.417-3.061 26.38 -1.226 7.093-2.545 8.521-6.01 15.59 -2.477-11 2.583-30.519-6.76-45.08 -6.059-10.044-8.657-11.36-7.23-23.77 0 0 0.061-0.675 0.08-0.85 -12.628 7.721-26.576 8.594-44.97 8.2 -5.317 0-12.5-0.668-16.98-3.44 -9.081 2.583-12.45-1.437-20.01-7.34 -8.163-6.937-13.709-12.994-20.55-27.27 3.843 3.118 11.537 4.689 16.39 5.5 -3.273-4.363-5.199-8.349-6.07-14 3.48 2.32 11.82 4.603 19.17 3.79 13.534-1.271 32.484-15.167 55.77-4.63 10.804 4.767 16.286 11.476 17.57 15 0.01 0 0.02 0.01 0.04 0.01 0.06 0.02 0.12 0.03 0.189 0.04 0.017 0.018 0.332 0.09 0.36 0.09 6.976 2.325 7.443 2.759 14.2 10.64C158.026 18.715 167.168 28.016 163.639 48.206z" data-colored="true" data-filltype="sd3" data-stroketype="none" fill="#8a1000" stroke-width="none" opacity="1" stroke="none"></path></g><g id="svga-group-glasses-single" data-updown="0" data-leftright="0" data-dist="0" data-scalex="1" data-scaley="1" data-rotate="0"></g></g></g><g id="svga-group-bubble-single" data-updown="0" data-leftright="0" data-dist="0" data-scalex="1" data-scaley="1" data-rotate="0"></g></g><defs id="defs_node"><linearGradient id="SvgjsLinearGradient1046" x1="100" y1="173" x2="100" y2="134" gradientUnits="userSpaceOnUse" class="svga-on-canvas-chinshadow-gradient-single-0"><stop id="SvgjsStop1047" offset="0" stop-opacity="0.8" stop-color="#ca8975" data-stoptype="sd1"></stop><stop id="SvgjsStop1048" offset="0.7" stop-opacity="1" stop-color="#ab5a41" data-stoptype="sd3"></stop></linearGradient><radialGradient id="SvgjsRadialGradient1050" cx="100" cy="114" r="41" gradientUnits="userSpaceOnUse" class="svga-on-canvas-facehighlight-gradient-single-0"><stop id="SvgjsStop1051" offset="0" stop-opacity="0.5" stop-color="#e8c1b6" data-stoptype="hl1"></stop><stop id="SvgjsStop1052" offset="0.9" stop-opacity="0" stop-color="#d9a494" data-stoptype="tone"></stop></radialGradient><radialGradient id="SvgjsRadialGradient1054" cx="100" cy="54" r="37" gradientUnits="userSpaceOnUse" class="svga-on-canvas-facehighlight-gradient-single-1"><stop id="SvgjsStop1055" offset="0" stop-opacity="0.5" stop-color="#e8c1b6" data-stoptype="hl1"></stop><stop id="SvgjsStop1056" offset="0.9" stop-opacity="0" stop-color="#d9a494" data-stoptype="tone"></stop></radialGradient><radialGradient id="SvgjsRadialGradient2573" cx="73.488" cy="85.375" r="10.708" gradientUnits="userSpaceOnUse" class="svga-on-canvas-eyesback-gradient-left-0"><stop id="SvgjsStop2574" offset="0" stop-opacity="1" stop-color="#ffffff" data-stoptype="#ffffff"></stop><stop id="SvgjsStop2575" offset="0.544" stop-opacity="1" stop-color="#fdfefe" data-stoptype="#fdfefe"></stop><stop id="SvgjsStop2576" offset="0.74" stop-opacity="1" stop-color="#f6f8f9" data-stoptype="#f6f8f9"></stop><stop id="SvgjsStop2577" offset="0.879" stop-opacity="1" stop-color="#eaeff2" data-stoptype="#eaeff2"></stop><stop id="SvgjsStop2578" offset="0.992" stop-opacity="1" stop-color="#d9e3e8" data-stoptype="#d9e3e8"></stop><stop id="SvgjsStop2579" offset="1" stop-opacity="1" stop-color="#d8e2e7" data-stoptype="#d8e2e7"></stop></radialGradient><radialGradient id="SvgjsRadialGradient2581" cx="73.888" cy="85.375" r="10.708" gradientTransform="matrix(-1 0 0 1 200 0)" gradientUnits="userSpaceOnUse" class="svga-on-canvas-eyesback-gradient-right-0"><stop id="SvgjsStop2582" offset="0" stop-opacity="1" stop-color="#ffffff" data-stoptype="#ffffff"></stop><stop id="SvgjsStop2583" offset="0.544" stop-opacity="1" stop-color="#fdfefe" data-stoptype="#fdfefe"></stop><stop id="SvgjsStop2584" offset="0.74" stop-opacity="1" stop-color="#f6f8f9" data-stoptype="#f6f8f9"></stop><stop id="SvgjsStop2585" offset="0.879" stop-opacity="1" stop-color="#eaeff2" data-stoptype="#eaeff2"></stop><stop id="SvgjsStop2586" offset="0.992" stop-opacity="1" stop-color="#d9e3e8" data-stoptype="#d9e3e8"></stop><stop id="SvgjsStop2587" offset="1" stop-opacity="1" stop-color="#d8e2e7" data-stoptype="#d8e2e7"></stop></radialGradient><radialGradient id="SvgjsRadialGradient2589" cx="73.488" cy="85.375" r="10.708" gradientUnits="userSpaceOnUse" class="svga-on-canvas-eyesfront-gradient-left-0"><stop id="SvgjsStop2590" offset="0" stop-opacity="1" stop-color="#ffffff" data-stoptype="#ffffff"></stop><stop id="SvgjsStop2591" offset="0.544" stop-opacity="1" stop-color="#fdfefe" data-stoptype="#fdfefe"></stop><stop id="SvgjsStop2592" offset="0.74" stop-opacity="1" stop-color="#f6f8f9" data-stoptype="#f6f8f9"></stop><stop id="SvgjsStop2593" offset="0.879" stop-opacity="1" stop-color="#eaeff2" data-stoptype="#eaeff2"></stop><stop id="SvgjsStop2594" offset="0.992" stop-opacity="1" stop-color="#d9e3e8" data-stoptype="#d9e3e8"></stop><stop id="SvgjsStop2595" offset="1" stop-opacity="1" stop-color="#d8e2e7" data-stoptype="#d8e2e7"></stop></radialGradient><radialGradient id="SvgjsRadialGradient2599" cx="123.727" cy="82.803" fx="133.913" fy="79.051" r="17.225" gradientTransform="matrix(0.9998 0.0208 0.0166 -0.7998 -48.8047 146.4561)" gradientUnits="userSpaceOnUse" class="svga-on-canvas-eyesfront-gradient-left-3"><stop id="SvgjsStop2600" offset="0" stop-opacity="1" stop-color="#ca8975" data-stoptype="sd1"></stop><stop id="SvgjsStop2601" offset="0.7" stop-opacity="0.3" stop-color="#ca8975" data-stoptype="sd1"></stop><stop id="SvgjsStop2602" offset="1" stop-opacity="0" stop-color="#d9a494" data-stoptype="tone"></stop></radialGradient><radialGradient id="SvgjsRadialGradient2604" cx="71.717" cy="117.05" r="39.091" gradientTransform="matrix(0.0542 -0.9985 0.7911 0.043 -24.769 183.6334)" gradientUnits="userSpaceOnUse" class="svga-on-canvas-eyesfront-gradient-left-4"><stop id="SvgjsStop2605" offset="0.95" stop-opacity="0" stop-color="#000000" data-stoptype="#000000"></stop><stop id="SvgjsStop2606" offset="1" stop-opacity="0.2" stop-color="#000000" data-stoptype="#000000"></stop></radialGradient><radialGradient id="SvgjsRadialGradient2610" cx="73.888" cy="85.375" r="10.708" gradientTransform="matrix(-1 0 0 1 200 0)" gradientUnits="userSpaceOnUse" class="svga-on-canvas-eyesfront-gradient-right-0"><stop id="SvgjsStop2611" offset="0" stop-opacity="1" stop-color="#ffffff" data-stoptype="#ffffff"></stop><stop id="SvgjsStop2612" offset="0.544" stop-opacity="1" stop-color="#fdfefe" data-stoptype="#fdfefe"></stop><stop id="SvgjsStop2613" offset="0.74" stop-opacity="1" stop-color="#f6f8f9" data-stoptype="#f6f8f9"></stop><stop id="SvgjsStop2614" offset="0.879" stop-opacity="1" stop-color="#eaeff2" data-stoptype="#eaeff2"></stop><stop id="SvgjsStop2615" offset="0.992" stop-opacity="1" stop-color="#d9e3e8" data-stoptype="#d9e3e8"></stop><stop id="SvgjsStop2616" offset="1" stop-opacity="1" stop-color="#d8e2e7" data-stoptype="#d8e2e7"></stop></radialGradient><radialGradient id="SvgjsRadialGradient2620" cx="123.328" cy="82.803" fx="133.514" fy="79.051" r="17.225" gradientTransform="matrix(-0.9998 0.0208 -0.0166 -0.7998 248.0079 146.4644)" gradientUnits="userSpaceOnUse" class="svga-on-canvas-eyesfront-gradient-right-3"><stop id="SvgjsStop2621" offset="0" stop-opacity="1" stop-color="#ca8975" data-stoptype="sd1"></stop><stop id="SvgjsStop2622" offset="0.7" stop-opacity="0.3" stop-color="#ca8975" data-stoptype="sd1"></stop><stop id="SvgjsStop2623" offset="1" stop-opacity="0" stop-color="#d9a494" data-stoptype="tone"></stop></radialGradient><radialGradient id="SvgjsRadialGradient2625" cx="72.116" cy="117.05" r="39.092" gradientTransform="matrix(-0.0542 -0.9985 -0.7911 0.043 224.3918 184.0318)" gradientUnits="userSpaceOnUse" class="svga-on-canvas-eyesfront-gradient-right-4"><stop id="SvgjsStop2626" offset="0.95" stop-opacity="0" stop-color="#000000" data-stoptype="#000000"></stop><stop id="SvgjsStop2627" offset="1" stop-opacity="0.2" stop-color="#000000" data-stoptype="#000000"></stop></radialGradient></defs></svg>