<svg id="svga-svgcanvas" xmlns="http://www.w3.org/2000/svg" version="1.1" xlink="http://www.w3.org/1999/xlink" style="position:relative;overflow:hidden;left:-0.265625px;top:0px;" class="svga-svg" viewBox="0 0 200 200" preserveAspectRatio="xMinYMin meet" width="250" height="250"><g id="svga-group-wrapper"><g id="svga-group-backs-single"><path id="SvgjsPath6190" d="M225,225H-25V-25h250V225z" data-colored="true" data-filltype="tone" data-stroketype="none" fill="#aee239" stroke-width="none" opacity="1"></path><path id="SvgjsPath6191" d="M55.036,79.068h-29v-26h29V79.068z M84.203,33H43.536v33.068h40.667V33z M63.869,99.999H100V56.401H63.869V99.999z M76.869,95.734H40.536v31.333h36.333V95.734z M175.536,13.401H126v56.667h49.536V13.401z M119.536,39.068h-12v14h12V39.068z M155.818-4.266h-48.282v28.667h48.282V-4.266z M100,5.734H74v36h26V5.734z M40.536,8.401h-14.5v15.333h14.5V8.401z M21.171,33H-1.246v34.434h22.417V33z M47.536,99.999H8.203v43.735h39.333V99.999z M26.036,173.734h44.167v-26H26.036V173.734z M131.536,163.734H100.5v22.667h31.037V163.734z M206.792,141.067h-28.718v34h28.718V141.067z M159.536,156.491h-24.667v22.667h24.667V156.491z M183.178,111.733h-35.975v40.668h35.975V111.733z M192.202,181.734h-44.999v29.333h44.999V181.734z M43.536,163.734H-5.262v44h48.797V163.734z M202.869,53.068h-33.166v26h33.166V53.068z M183.178,90.401h-14.359v14.835h14.359V90.401z M-5.262,118h27.339V79.299H-5.262V118z M33.493-5.599l-49.291,1.333V33h49.291V-5.599z M211.536-4.266h-32v40.667h32V-4.266z M61-8.266H47.536v29.333H61V-8.266z M208.869,97.818h-32.871v26.667h32.871V97.818z" data-colored="true" data-filltype="sd1" data-stroketype="hl05" fill="#9cd320" stroke="#b7ea47" stroke-width="0.5" opacity="1"></path></g><g id="svga-group-subwrapper" data-updown="0" data-leftright="0" data-dist="0" data-scaleX="1.103098900000001" data-scaleY="1.103098900000001" data-rotate="0" transform="matrix(1.101998900000001 0 0 1.101998900000001 -10.199889659542038 -12.343164531574757)"><g id="svga-group-hair-back" data-updown="-2.0000002" data-leftright="0" data-dist="0" data-scaleX="1.0949993400000007" data-scaleY="1.0153993400000005" data-rotate="0" transform="matrix(1.0949994500000007 0 0 1.0153994500000005 -9.499945000000068 -1.5399450000000598) translate(0 -2.0000001000000003)"></g><g id="svga-group-humanbody-single" data-updown="0" data-leftright="0" data-dist="0" data-scaleX="1" data-scaleY="1" data-rotate="0"><path id="SvgjsPath2254" d="M195.417 199.778c-2.196-4.746-8.195-11.779-14.86-13.722 -8.239-2.403-26.837-5.308-33.733-6.923 -5.528-1.296-16.662-11.294-20.564-14.65 -0.7-0.6-1.273-1.839-1.287-2.76 -0.139-10.864 4.195-39.724 4.195-39.724H100 70.833c0 0 4.334 28.859 4.193 39.724 -0.011 0.921-0.587 2.16-1.285 2.76 -3.902 3.356-15.036 13.354-20.564 14.65 -6.897 1.615-25.495 4.619-33.733 7.022 -6.667 1.942-12.664 8.876-14.86 13.622 -3.708 8.008-4.584 22.5-4.584 35h100 100C200 222.278 199.123 207.786 195.417 199.778z" data-colored="true" data-filltype="tone" data-stroketype="none" data-fromskin="true" fill="#279e7e" stroke-width="none" opacity="1" stroke="none"></path><path id="SvgjsPath2255" d="M159.156 184.058c24.342 3.542 34.586 8.708 37.794 50.721H200c0-12.5-0.877-26.992-4.583-35 -2.196-4.746-8.195-11.779-14.86-13.722 -8.239-2.403-26.837-5.308-33.733-6.923 -5.528-1.296-18.242-12.069-21.643-16.35 3.36 4.704 12.791 15.605 21.054 18.46C150.188 182.61 153.48 183.232 159.156 184.058zM53.766 181.244c8.263-2.854 17.693-13.756 21.054-18.46 -3.4 4.28-16.114 15.054-21.643 16.35 -6.896 1.615-25.494 4.619-33.733 7.022 -6.665 1.942-12.664 8.876-14.86 13.622 -3.706 8.008-4.583 22.5-4.583 35h3.05c3.188-41.744 13.475-47.183 37.794-50.721C46.52 183.232 49.813 182.61 53.766 181.244z" data-colored="true" data-filltype="hl1" data-stroketype="none" data-fromskin="true" fill="#3cad8f" stroke-width="none" opacity="1" stroke="none"></path><path id="SvgjsPath2256" d="M95.646 197.62c0 0-5.074-1.609-7.083-2.379 -10.449-4.009-44.395-6.607-44.395-6.607s35.754 1.419 43.644 2.779c-0.458-4.767-3.017-20.004-3.017-20.004s5.149 16.815 6.409 21.057C91.878 194.734 95.646 197.62 95.646 197.62zM106.445 196.278c-0.089 0.073-0.191 0.168-0.302 0.268C106.256 196.461 106.358 196.372 106.445 196.278zM95.646 197.62c0 0 2.893 2.992 4.347 3.03 1.91 0.051 4.828-2.899 6.151-4.104 -1.265 0.957-4.159 1.391-5.31 1.436C99.504 198.033 95.646 197.62 95.646 197.62zM116.664 190.101c-1.545 0.248-4.386 0.789-4.386 0.789l2.287-14.89c-0.646 3.071-4.474 16.211-8.12 20.278 1.91-1.616 6.158-2.391 8.324-2.704 10.236-1.484 10.232-1.483 41.062-4.94C155.831 188.634 126.76 188.479 116.664 190.101z" data-colored="true" data-filltype="sd1" data-stroketype="none" data-fromskin="true" fill="#158f6e" stroke-width="none" opacity="1" stroke="none"></path><path id="SvgjsPath2257" d="M195.417 199.778c-2.196-4.746-8.195-11.779-14.86-13.722 -8.239-2.403-26.837-5.308-33.733-6.923 -5.528-1.296-16.662-11.294-20.564-14.65 -0.7-0.6-1.273-1.839-1.287-2.76 -0.139-10.864 4.195-39.724 4.195-39.724H100 70.833c0 0 4.334 28.859 4.193 39.724 -0.011 0.921-0.587 2.16-1.285 2.76 -3.902 3.356-15.036 13.354-20.564 14.65 -6.897 1.615-25.495 4.619-33.733 7.022 -6.667 1.942-12.664 8.876-14.86 13.622 -3.708 8.008-4.584 22.5-4.584 35h100 100C200 222.278 199.123 207.786 195.417 199.778z" data-colored="true" data-filltype="none" data-stroketype="sd3" data-fromskin="true" fill="none" stroke="#007052" stroke-width="1.5" opacity="1"></path></g><g id="svga-group-chinshadow-single" data-updown="0" data-leftright="0" data-dist="0" data-scaleX="1" data-scaleY="1" data-rotate="0"><path id="SvgjsPath2259" d="M100.002 170.866c11.391 0 16.629-6.36 24.218-9.638 -0.008-7.932 2.039-23.933 3.282-32.907 -16.136-1.852-38.871-1.852-55.006 0.001 1.243 8.973 3.29 24.972 3.281 32.903C83.37 164.502 88.608 170.866 100.002 170.866z" data-colored="false" data-filltype="gradient" data-stroketype="none" data-fromskin="true" fill="url(#SvgjsLinearGradient2260)" opacity="1"></path></g><g id="svga-group-clothes-single" data-updown="0" data-leftright="0" data-dist="0" data-scaleX="1" data-scaleY="1" data-rotate="0"></g><g id="svga-group-head" data-updown="0" data-leftright="0" data-dist="0" data-scaleX="1" data-scaleY="1" data-rotate="0"><g id="svga-group-ears-left" data-updown="0" data-leftright="-9.000000600000002" data-dist="0" data-scaleX="1" data-scaleY="1" data-rotate="0" transform="translate(-9.000000500000002 0)"></g><g id="svga-group-ears-right" data-updown="0" data-leftright="9.000000600000002" data-dist="0" data-scaleX="1" data-scaleY="1" data-rotate="0" transform="translate(9.000000500000002 0)"></g><g id="svga-group-faceshape-wrap" data-updown="0" data-leftright="0" data-dist="0" data-scaleX="1.1369995600000005" data-scaleY="1.0175995600000003" data-rotate="0" transform="matrix(1.1358995600000004 0 0 1.0164995600000002 -13.590023394038425 -1.5726884567935429)"><g id="svga-group-faceshape-single" data-updown="0" data-leftright="0" data-dist="0" data-scaleX="1" data-scaleY="1" data-rotate="0"><path id="SvgjsPath2258" d="M100.001,181.958c-23.491,0-38.084-5.319-43.905-10.297c-18.695-15.989-17.823-48.256-16.901-82.415
	c0.195-7.165,0.394-14.572,0.394-21.751c0-51.83,30.54-58.819,60.413-58.819c29.873,0,60.411,6.989,60.411,58.819
	c0,7.179,0.199,14.589,0.394,21.753c0.921,34.159,1.793,66.425-16.902,82.412C138.083,176.638,123.492,181.958,100.001,181.958
	L100.001,181.958z" data-colored="true" data-filltype="tone" data-stroketype="sd3" fill="#279e7e" stroke="#007052" stroke-width="0.5"></path></g></g><g id="svga-group-eyes-left" data-updown="0" data-leftright="26.00000260000001" data-dist="0" data-scaleX="2.38589956" data-scaleY="2.38589956" data-rotate="0" transform="matrix(2.38479956 0 0 2.38479956 -137.83464341642838 -116.46164088296354) translate(26.000002500000008 0)"><g id="svga-group-eyesback-left"></g><g id="svga-group-eyesiriswrapper-left" transform="translate(0.25 0.25)"><g id="svga-group-eyesiriscontrol-left" data-updown="0" data-leftright="-1.0000001" data-dist="0" data-scaleX="1" data-scaleY="1" data-rotate="0" transform="translate(-1.0000002000000001 0)"><g id="svga-group-eyesiris-left" data-updown="0" data-leftright="0" data-dist="0" data-scaleX="1.8841000000000006" data-scaleY="1.8841000000000006" data-rotate="0" transform="matrix(1.8830000000000005 0 0 1.8830000000000005 -65.34420628738405 -74.17111074829106)"><path id="SvgjsPath5429" d="M79.788 85.588c-0.869 3.192-4.16 5.073-7.358 4.196 -3.195-0.876-5.083-4.178-4.212-7.371 0.868-3.195 4.167-5.076 7.362-4.198C78.773 79.09 80.658 82.392 79.788 85.588z" data-colored="true" data-filltype="tone" data-stroketype="sd3" fill="#00f0f1" stroke="#00c2c3" stroke-width="0.5" opacity="1"></path><path id="SvgjsPath5430" d="M73.265 80.413l-0.156-0.279c-0.548 0.218-1.076 0.445-1.575 0.687l0.37 0.894 -0.047 0.517 -1.426-0.839c-0.466 0.259-0.898 0.529-1.318 0.804l0.004 0.009 -0.489 0.55 0.781 0.799 -1.052 0.574 0.398 0.657 1.857 0.185 -1.741 1.181 1.863-0.103 -0.982 1.693 2.297-1.39 -0.618 2.364 1.329-2.184 0.256 2.343 0.384-2.072 0.353-0.043 0.5 2.35 0.152-0.705c0.201-0.052 0.718 0.704 0.915 0.651L74.736 86.5l1.282 2.556 -0.52-2.651 1.578 2.05c0.057-0.018 0.196-0.85 0.252-0.867l-0.982-1.469 1.785 0.539 -1.071-1.16 -0.86-0.712 3.586 0.803 -1.997-1.217 1.411-0.577 -3.055-0.309 3.021-1.602 -2.734 0.698 -0.736-0.399 -0.181-0.354 0.052-0.846 0.061-1.389 -1.248 2.198 -0.11-1.609 -0.157-0.421c-0.25 0.087-0.495 0.172-0.736 0.265L73.265 80.413z" data-colored="true" data-filltype="hl1" data-stroketype="none" fill="#19feff" stroke-width="none" opacity="1"></path><path id="SvgjsPath5431" d="M79.856 82.755c-5.242 0.239-7.907 1.36-11.707 2.631 -0.732-3.229 1.298-6.438 4.53-7.164S79.125 79.525 79.856 82.755z" data-colored="true" data-filltype="sd1" data-stroketype="none" fill="#00e1e2" stroke-width="none" opacity="0.9"></path><path id="SvgjsPath5432" d="M74.869 81.998c-1.319-0.378-2.666 0.375-3.005 1.69 -0.342 1.308 0.452 2.678 1.771 3.056 1.32 0.379 2.667-0.375 3.009-1.684C76.987 83.745 76.19 82.376 74.869 81.998z" data-colored="false" data-filltype="#000000" data-stroketype="none" fill="#000000" stroke-width="none" opacity="0.8"></path><path id="SvgjsPath5433" d="M74.869 81.998c-1.319-0.378-2.666 0.375-3.005 1.69 -0.342 1.308 0.452 2.678 1.771 3.056 1.32 0.379 2.667-0.375 3.009-1.684C76.987 83.745 76.19 82.376 74.869 81.998z" data-colored="true" data-filltype="none" data-stroketype="sd3" fill="none" stroke="#00c2c3" stroke-width="0.75" opacity="1"></path><path id="SvgjsPath5434" d="M69.631 87.56c0.613 0.973 1.426 1.706 2.578 1.95 1.326 0.281 1.477-1.483 0.528-1.685 -0.72-0.152-1.176-0.505-1.552-1.102C70.497 85.63 69.079 86.684 69.631 87.56L69.631 87.56z" data-colored="false" data-filltype="#ffffff" data-stroketype="none" fill="#ffffff" stroke-width="none" opacity="0.4"></path><path id="SvgjsPath5435" d="M75.033 81.493c0.929 0.187 1.469 0.768 1.938 1.64 0.862 1.604 3.299 0.178 2.437-1.425 -0.757-1.408-2.019-2.613-3.625-2.938C73.726 78.355 73.438 81.171 75.033 81.493L75.033 81.493z" data-colored="false" data-filltype="gradient" data-stroketype="none" fill="url(#SvgjsLinearGradient5436)" opacity="1"></path></g></g></g><g id="svga-group-eyesfront-left"></g></g><g id="svga-group-eyes-right" data-updown="0" data-leftright="-26.00000260000001" data-dist="0" data-scaleX="2.38589956" data-scaleY="2.38589956" data-rotate="0" transform="matrix(2.38479956 0 0 2.38479956 -138.8233843502673 -116.46164088296354) translate(-26.000002500000008 0)"><g id="svga-group-eyesback-right"></g><g id="svga-group-eyesiriswrapper-right" transform="translate(-0.25 0.25)"><g id="svga-group-eyesiriscontrol-right" data-updown="0" data-leftright="-1.0000001" data-dist="0" data-scaleX="1" data-scaleY="1" data-rotate="0" transform="translate(-1.0000002000000001 0)"><g id="svga-group-eyesiris-right" data-updown="0" data-leftright="0" data-dist="0" data-scaleX="1.8841000000000006" data-scaleY="1.8841000000000006" data-rotate="0" transform="matrix(1.8830000000000005 0 0 1.8830000000000005 -111.26064754486089 -74.17067285919194)"><path id="SvgjsPath5439" d="M131.788 85.587c-0.869 3.193-4.16 5.074-7.358 4.196 -3.195-0.876-5.082-4.178-4.212-7.371 0.867-3.195 4.167-5.076 7.361-4.198C130.774 79.091 132.658 82.393 131.788 85.587z" data-colored="true" data-filltype="tone" data-stroketype="sd3" fill="#00f0f1" stroke="#00c2c3" stroke-width="0.5" opacity="1"></path><path id="SvgjsPath5440" d="M125.266 80.413l-0.155-0.278c-0.548 0.217-1.076 0.445-1.576 0.686l0.37 0.894 -0.047 0.517 -1.426-0.839c-0.467 0.259-0.898 0.529-1.317 0.804l0.004 0.009 -0.49 0.551 0.782 0.799 -1.052 0.573 0.397 0.657 1.857 0.185 -1.741 1.181 1.863-0.103 -0.982 1.692 2.296-1.39 -0.616 2.364 1.328-2.184 0.257 2.343 0.384-2.073 0.353-0.043 0.501 2.35 0.151-0.704c0.201-0.052 0.719 0.703 0.915 0.651l-0.585-2.556 1.283 2.556 -0.521-2.651 1.577 2.05c0.057-0.018 0.197-0.85 0.253-0.867l-0.982-1.469 1.786 0.538 -1.071-1.16 -0.859-0.712 3.586 0.802 -1.997-1.216 1.411-0.577 -3.054-0.308 3.021-1.603 -2.734 0.698 -0.736-0.399 -0.18-0.354 0.052-0.847 0.061-1.388 -1.247 2.198 -0.11-1.609 -0.156-0.422c-0.25 0.087-0.495 0.173-0.735 0.265L125.266 80.413z" data-colored="true" data-filltype="hl1" data-stroketype="none" fill="#19feff" stroke-width="none" opacity="1"></path><path id="SvgjsPath5441" d="M131.855 82.755c-5.24 0.239-7.906 1.36-11.706 2.631 -0.731-3.229 1.298-6.438 4.53-7.164C127.911 77.495 131.126 79.525 131.855 82.755z" data-colored="true" data-filltype="sd1" data-stroketype="none" fill="#00e1e2" stroke-width="none" opacity="0.9"></path><path id="SvgjsPath5442" d="M126.87 81.998c-1.319-0.378-2.666 0.376-3.005 1.69 -0.343 1.308 0.451 2.678 1.77 3.056 1.322 0.379 2.668-0.375 3.009-1.684C128.987 83.745 128.189 82.376 126.87 81.998z" data-colored="false" data-filltype="#000000" data-stroketype="none" fill="#000000" stroke-width="none" opacity="0.8"></path><path id="SvgjsPath5443" d="M126.87 81.998c-1.319-0.378-2.666 0.376-3.005 1.69 -0.343 1.308 0.451 2.678 1.77 3.056 1.322 0.379 2.668-0.375 3.009-1.684C128.987 83.745 128.189 82.376 126.87 81.998z" data-colored="true" data-filltype="none" data-stroketype="sd3" fill="none" stroke="#00c2c3" stroke-width="0.75" opacity="1"></path><path id="SvgjsPath5444" d="M121.632 87.56c0.612 0.973 1.426 1.706 2.577 1.95 1.326 0.281 1.478-1.482 0.528-1.685 -0.72-0.152-1.177-0.504-1.552-1.102C122.498 85.63 121.079 86.684 121.632 87.56L121.632 87.56z" data-colored="false" data-filltype="#ffffff" data-stroketype="none" fill="#ffffff" stroke-width="none" opacity="0.4"></path><path id="SvgjsPath5445" d="M127.034 81.493c0.929 0.187 1.469 0.767 1.938 1.639 0.862 1.604 3.3 0.178 2.437-1.425 -0.757-1.408-2.018-2.613-3.625-2.938C125.727 78.355 125.438 81.171 127.034 81.493L127.034 81.493z" data-colored="false" data-filltype="gradient" data-stroketype="none" fill="url(#SvgjsLinearGradient5446)" opacity="1"></path></g></g></g><g id="svga-group-eyesfront-right"></g></g><g id="svga-group-facehighlight-single" data-updown="0" data-leftright="0" data-dist="0" data-scaleX="1" data-scaleY="1" data-rotate="0"></g><g id="svga-group-nose-single" data-updown="0" data-leftright="0" data-dist="0" data-scaleX="1" data-scaleY="1" data-rotate="0"></g><g id="svga-group-mouth-single" data-updown="5.0000005000000005" data-leftright="-1.0000002" data-dist="0" data-scaleX="2.3815" data-scaleY="2.3815" data-rotate="0" transform="matrix(2.3804 0 0 2.3804 -138.45412421264646 -195.9478179138183) translate(-1.0000000999999998 5.0000005000000005)"><path id="SvgjsPath5978" d="M111.009,139.15c1.067,0.022,1.304-0.971,2.068-1.32
		c-0.387,1.99-1.795,3.742-3.301,4.749c-2.066,1.383-5.069,2.292-8.373,1.69c1.68-0.411,4.007-0.029,5.208-1.026
		c-3.228,0.426-8.406-0.314-11.787-1.605c-2.012-0.768-3.289-2.02-3.798-3.865c2.142-5.433,10.267-9.182,16.527-4.54
		c0.987,0.732,2.043,1.75,2.469,2.831C110.407,137.038,110.303,138.141,111.009,139.15z M108.773,138.879
		c0.854-3.377-0.839-5.41-3.226-6.326c-1.086-0.417-1.638-0.849-2.888-0.874c-3.448-0.069-8.237,2.449-9.339,5.152
		c-0.3,0.735-0.4,1.687-0.271,2.236c0.324,1.388,4.263,2.932,6.406,3.309c4.515,0.794,7.97,0.602,9.953-1.236
		c0.349-0.326,0.806-0.716,0.762-1.042c-0.942-0.002-1.447,0.533-2.342,0.589C108.277,139.938,108.591,139.604,108.773,138.879z" data-colored="true" data-filltype="sd3" data-stroketype="none" data-author="vectorcharacters.net" data-fromskin="true" fill="#007052" stroke-width="none"></path><path id="SvgjsPath5979" d="M107.827,140.685c0.895-0.056,1.4-0.591,2.342-0.589
		c0.045,0.326-0.412,0.716-0.762,1.042c-1.982,1.839-5.438,2.03-9.953,1.236c-2.143-0.376-6.082-1.921-6.406-3.309
		c-0.129-0.549-0.029-1.501,0.271-2.236c1.102-2.703,5.891-5.221,9.339-5.152c1.25,0.025,1.803,0.457,2.888,0.874
		c2.387,0.917,4.08,2.95,3.226,6.326C108.591,139.604,108.277,139.938,107.827,140.685z" data-colored="false" data-filltype="#000000" data-stroketype="none" fill="#000000" stroke="none"></path><path id="SvgjsPath5980" d="M94.259,142.818c1.88,0.462,3.812,0.884,5.741,1.308
		c-1.605-0.304-4.095-0.359-5.504-1.017C94.375,143.053,94.215,143.136,94.259,142.818z" data-colored="true" data-filltype="sd3" data-stroketype="none" data-fromskin="true" fill="#007052" stroke-width="none"></path></g><g id="svga-group-eyebrows-left" data-updown="0" data-leftright="0" data-dist="0" data-scaleX="1" data-scaleY="1" data-rotate="7.5000001" transform="rotate(7.500000200000001 0 0)"></g><g id="svga-group-eyebrows-right" data-updown="0" data-leftright="0" data-dist="0" data-scaleX="1" data-scaleY="1" data-rotate="3.7500001" transform="rotate(3.7500001999999997 0 0)"></g><g id="svga-group-beardwrap" data-updown="0" data-leftright="0" data-dist="0" data-scaleX="1" data-scaleY="1" data-rotate="0"><g id="svga-group-beard-single" data-updown="20.000002000000002" data-leftright="0" data-dist="0" data-scaleX="1" data-scaleY="1" data-rotate="0" transform="translate(0 20.0000019)"></g></g><g id="svga-group-mustache-single" data-updown="0" data-leftright="0" data-dist="0" data-scaleX="1" data-scaleY="1" data-rotate="0"></g><g id="svga-group-hair-front" data-updown="-2.0000002" data-leftright="0" data-dist="0" data-scaleX="1.0949993400000007" data-scaleY="1.0153993400000005" data-rotate="0" transform="matrix(1.0949994500000007 0 0 1.0153994500000005 -9.501702611589494 -0.6702841638909334) translate(0 -2.0000001000000003)"></g><g id="svga-group-glasses-single" data-updown="0" data-leftright="0" data-dist="0" data-scaleX="1" data-scaleY="1" data-rotate="0"></g></g></g><g id="svga-group-bubble-single" data-updown="0" data-leftright="0" data-dist="0" data-scaleX="1" data-scaleY="1" data-rotate="0"></g></g><defs id="defs_node"><linearGradient id="SvgjsLinearGradient2260" x1="100" y1="171" x2="100" y2="127" gradientUnits="userSpaceOnUse" class="svga-on-canvas-chinshadow-gradient-single-0"><stop id="SvgjsStop2261" stop-opacity="0.8" stop-color="#158f6e" offset="0" data-stoptype="sd1"></stop><stop id="SvgjsStop2262" stop-opacity="1" stop-color="#007052" offset="0.7" data-stoptype="sd3"></stop></linearGradient><linearGradient id="SvgjsLinearGradient4289" x1="127.637" y1="79.822" x2="125.91" y2="81.88" gradientTransform="matrix(1 0 0 1 -50 0)" gradientUnits="userSpaceOnUse" class="svga-on-canvas-eyesiris-gradient-left-1"><stop id="SvgjsStop4290" stop-opacity="1" stop-color="#ffffff" offset="0" data-stoptype="#ffffff"></stop><stop id="SvgjsStop4291" stop-opacity="0" stop-color="#ffffff" offset="1" data-stoptype="#ffffff"></stop></linearGradient><linearGradient id="SvgjsLinearGradient4294" x1="129.637" y1="79.823" x2="127.91" y2="81.881" gradientUnits="userSpaceOnUse" class="svga-on-canvas-eyesiris-gradient-right-1"><stop id="SvgjsStop4295" stop-opacity="1" stop-color="#ffffff" offset="0" data-stoptype="#ffffff"></stop><stop id="SvgjsStop4296" stop-opacity="0" stop-color="#ffffff" offset="1" data-stoptype="#ffffff"></stop></linearGradient><radialGradient id="SvgjsRadialGradient4650" cx="125.379" cy="82.93" r="12.84" gradientTransform="matrix(-1.0592 4.000000e-004 -4.000000e-004 0.9318 206.5112 5.1767)" gradientUnits="userSpaceOnUse" class="svga-on-canvas-eyesback-gradient-left-0"><stop id="SvgjsStop4651" stop-opacity="1" stop-color="#ffffff" offset="0" data-stoptype="#ffffff"></stop><stop id="SvgjsStop4652" stop-opacity="1" stop-color="#fdfefe" offset="0.544" data-stoptype="#fdfefe"></stop><stop id="SvgjsStop4653" stop-opacity="1" stop-color="#f6f8f9" offset="0.74" data-stoptype="#f6f8f9"></stop><stop id="SvgjsStop4654" stop-opacity="1" stop-color="#eaeff2" offset="0.879" data-stoptype="#eaeff2"></stop><stop id="SvgjsStop4655" stop-opacity="1" stop-color="#d9e3e8" offset="0.992" data-stoptype="#d9e3e8"></stop><stop id="SvgjsStop4656" stop-opacity="1" stop-color="#d8e2e7" offset="1" data-stoptype="#d8e2e7"></stop></radialGradient><radialGradient id="SvgjsRadialGradient4658" cx="125.001" cy="82.93" r="12.841" gradientTransform="matrix(1.0592 4.000000e-004 4.000000e-004 0.9318 -6.5112 5.1767)" gradientUnits="userSpaceOnUse" class="svga-on-canvas-eyesback-gradient-right-0"><stop id="SvgjsStop4659" stop-opacity="1" stop-color="#ffffff" offset="0" data-stoptype="#ffffff"></stop><stop id="SvgjsStop4660" stop-opacity="1" stop-color="#fdfefe" offset="0.544" data-stoptype="#fdfefe"></stop><stop id="SvgjsStop4661" stop-opacity="1" stop-color="#f6f8f9" offset="0.74" data-stoptype="#f6f8f9"></stop><stop id="SvgjsStop4662" stop-opacity="1" stop-color="#eaeff2" offset="0.879" data-stoptype="#eaeff2"></stop><stop id="SvgjsStop4663" stop-opacity="1" stop-color="#d9e3e8" offset="0.992" data-stoptype="#d9e3e8"></stop><stop id="SvgjsStop4664" stop-opacity="1" stop-color="#d8e2e7" offset="1" data-stoptype="#d8e2e7"></stop></radialGradient><radialGradient id="SvgjsRadialGradient4666" cx="125.379" cy="82.93" r="12.84" gradientTransform="matrix(-1.0592 4.000000e-004 -4.000000e-004 0.9318 206.5112 5.1767)" gradientUnits="userSpaceOnUse" class="svga-on-canvas-eyesfront-gradient-left-0"><stop id="SvgjsStop4667" stop-opacity="1" stop-color="#ffffff" offset="0" data-stoptype="#ffffff"></stop><stop id="SvgjsStop4668" stop-opacity="1" stop-color="#fdfefe" offset="0.544" data-stoptype="#fdfefe"></stop><stop id="SvgjsStop4669" stop-opacity="1" stop-color="#f6f8f9" offset="0.74" data-stoptype="#f6f8f9"></stop><stop id="SvgjsStop4670" stop-opacity="1" stop-color="#eaeff2" offset="0.879" data-stoptype="#eaeff2"></stop><stop id="SvgjsStop4671" stop-opacity="1" stop-color="#d9e3e8" offset="0.992" data-stoptype="#d9e3e8"></stop><stop id="SvgjsStop4672" stop-opacity="1" stop-color="#d8e2e7" offset="1" data-stoptype="#d8e2e7"></stop></radialGradient><radialGradient id="SvgjsRadialGradient4676" cx="123.218" cy="81.096" fx="133.802" fy="77.197" r="17.898" gradientTransform="matrix(0.9998 0.0183 0.0166 -0.7038 -47.7588 136.6255)" gradientUnits="userSpaceOnUse" class="svga-on-canvas-eyesfront-gradient-left-3"><stop id="SvgjsStop4677" stop-opacity="1" stop-color="#df9164" offset="0" data-stoptype="sd1"></stop><stop id="SvgjsStop4678" stop-opacity="0.3" stop-color="#df9164" offset="0.7" data-stoptype="sd1"></stop><stop id="SvgjsStop4679" stop-opacity="0" stop-color="#eeaa83" offset="1" data-stoptype="tone"></stop></radialGradient><radialGradient id="SvgjsRadialGradient4681" cx="79.496" cy="81.496" r="23.208" gradientTransform="matrix(1.0971 -0.0499 0.0576 0.9543 -20.1632 27.912)" gradientUnits="userSpaceOnUse" class="svga-on-canvas-eyesfront-gradient-left-4"><stop id="SvgjsStop4682" stop-opacity="0" stop-color="#000000" offset="0.9" data-stoptype="#000000"></stop><stop id="SvgjsStop4683" stop-opacity="0.2" stop-color="#000000" offset="1" data-stoptype="#000000"></stop></radialGradient><radialGradient id="SvgjsRadialGradient4687" cx="125.001" cy="82.93" r="12.841" gradientTransform="matrix(1.0592 4.000000e-004 4.000000e-004 0.9318 -6.5112 5.1767)" gradientUnits="userSpaceOnUse" class="svga-on-canvas-eyesfront-gradient-right-0"><stop id="SvgjsStop4688" stop-opacity="1" stop-color="#ffffff" offset="0" data-stoptype="#ffffff"></stop><stop id="SvgjsStop4689" stop-opacity="1" stop-color="#fdfefe" offset="0.544" data-stoptype="#fdfefe"></stop><stop id="SvgjsStop4690" stop-opacity="1" stop-color="#f6f8f9" offset="0.74" data-stoptype="#f6f8f9"></stop><stop id="SvgjsStop4691" stop-opacity="1" stop-color="#eaeff2" offset="0.879" data-stoptype="#eaeff2"></stop><stop id="SvgjsStop4692" stop-opacity="1" stop-color="#d9e3e8" offset="0.992" data-stoptype="#d9e3e8"></stop><stop id="SvgjsStop4693" stop-opacity="1" stop-color="#d8e2e7" offset="1" data-stoptype="#d8e2e7"></stop></radialGradient><radialGradient id="SvgjsRadialGradient4697" cx="122.818" cy="81.096" fx="133.402" fy="77.197" r="17.898" gradientTransform="matrix(-0.9998 0.0183 -0.0166 -0.7038 246.9601 136.6328)" gradientUnits="userSpaceOnUse" class="svga-on-canvas-eyesfront-gradient-right-3"><stop id="SvgjsStop4698" stop-opacity="1" stop-color="#df9164" offset="0" data-stoptype="sd1"></stop><stop id="SvgjsStop4699" stop-opacity="0.3" stop-color="#df9164" offset="0.7" data-stoptype="sd1"></stop><stop id="SvgjsStop4700" stop-opacity="0" stop-color="#eeaa83" offset="1" data-stoptype="tone"></stop></radialGradient><radialGradient id="SvgjsRadialGradient4702" cx="79.859" cy="81.511" r="23.208" gradientTransform="matrix(-1.0971 -0.0499 -0.0576 0.9543 220.163 27.9157)" gradientUnits="userSpaceOnUse" class="svga-on-canvas-eyesfront-gradient-right-4"><stop id="SvgjsStop4703" stop-opacity="0" stop-color="#000000" offset="0.9" data-stoptype="#000000"></stop><stop id="SvgjsStop4704" stop-opacity="0.2" stop-color="#000000" offset="1" data-stoptype="#000000"></stop></radialGradient><linearGradient id="SvgjsLinearGradient5436" x1="132" y1="78" x2="126" y2="84" gradientTransform="matrix(1 0 0 1 -50 0)" gradientUnits="userSpaceOnUse" class="svga-on-canvas-eyesiris-gradient-left-6"><stop id="SvgjsStop5437" stop-opacity="1" stop-color="#ffffff" offset="0" data-stoptype="#ffffff"></stop><stop id="SvgjsStop5438" stop-opacity="0" stop-color="#ffffff" offset="1" data-stoptype="#ffffff"></stop></linearGradient><linearGradient id="SvgjsLinearGradient5446" x1="132" y1="78" x2="126" y2="84" gradientUnits="userSpaceOnUse" class="svga-on-canvas-eyesiris-gradient-right-6"><stop id="SvgjsStop5447" stop-opacity="1" stop-color="#ffffff" offset="0" data-stoptype="#ffffff"></stop><stop id="SvgjsStop5448" stop-opacity="0" stop-color="#ffffff" offset="1" data-stoptype="#ffffff"></stop></linearGradient><radialGradient id="SvgjsRadialGradient6179" cx="100" cy="225" r="250" gradientUnits="userSpaceOnUse" class="svga-on-canvas-backs-gradient-single-1"><stop id="SvgjsStop6180" stop-opacity="0" stop-color="#aee239" offset="0" data-stoptype="tone"></stop><stop id="SvgjsStop6181" stop-opacity="1" stop-color="#9cd320" offset="1" data-stoptype="sd1"></stop></radialGradient></defs></svg>