<svg id="svga-svgcanvas" style="overflow: hidden; position: relative; left: -0.265625px; top: 0px; -webkit-user-select: none; -webkit-user-drag: none; -webkit-tap-highlight-color: rgba(0, 0, 0, 0); touch-action: none;" height="250" width="250" preserveAspectRatio="xMinYMin meet" viewBox="0 0 200 200" class="svga-svg" xlink="http://www.w3.org/1999/xlink" version="1.1" xmlns="http://www.w3.org/2000/svg"><g id="defs_node"><g id="svga-group-backs-single"><path id="SvgjsPath6190" d="M225,225H-25V-25h250V225z" opacity="1" stroke-width="none" fill="#aee239" data-stroketype="none" data-filltype="tone" data-colored="true"></path><path id="SvgjsPath6191" d="M55.036,79.068h-29v-26h29V79.068z M84.203,33H43.536v33.068h40.667V33z M63.869,99.999H100V56.401H63.869V99.999z M76.869,95.734H40.536v31.333h36.333V95.734z M175.536,13.401H126v56.667h49.536V13.401z M119.536,39.068h-12v14h12V39.068z M155.818-4.266h-48.282v28.667h48.282V-4.266z M100,5.734H74v36h26V5.734z M40.536,8.401h-14.5v15.333h14.5V8.401z M21.171,33H-1.246v34.434h22.417V33z M47.536,99.999H8.203v43.735h39.333V99.999z M26.036,173.734h44.167v-26H26.036V173.734z M131.536,163.734H100.5v22.667h31.037V163.734z M206.792,141.067h-28.718v34h28.718V141.067z M159.536,156.491h-24.667v22.667h24.667V156.491z M183.178,111.733h-35.975v40.668h35.975V111.733z M192.202,181.734h-44.999v29.333h44.999V181.734z M43.536,163.734H-5.262v44h48.797V163.734z M202.869,53.068h-33.166v26h33.166V53.068z M183.178,90.401h-14.359v14.835h14.359V90.401z M-5.262,118h27.339V79.299H-5.262V118z M33.493-5.599l-49.291,1.333V33h49.291V-5.599z M211.536-4.266h-32v40.667h32V-4.266z M61-8.266H47.536v29.333H61V-8.266z M208.869,97.818h-32.871v26.667h32.871V97.818z" opacity="1" stroke="#b7ea47" stroke-width="0.5" fill="#9cd320" data-stroketype="hl05" data-filltype="sd1" data-colored="true"></path></g><g id="svga-group-subwrapper" data-rotate="0" data-scaley="1.103098900000001" data-scalex="1.103098900000001" data-dist="0" data-leftright="0" data-updown="0" transform="matrix(1.101998900000001 0 0 1.101998900000001 -10.199889659542038 -12.343164531574757) translate(0 -5)"><g id="svga-group-hair-back" data-rotate="0" data-scaley="1.0153993400000005" data-scalex="1.0949993400000007" data-dist="0" data-leftright="0" data-updown="-2.0000002" transform="matrix(1.0949994500000007 0 0 1.0153994500000005 -9.499945000000068 -1.5399450000000598) translate(0 -2.0000001000000003)"></g><g id="svga-group-humanbody-single" data-rotate="0" data-scaley="1" data-scalex="1" data-dist="0" data-leftright="0" data-updown="0"><path id="SvgjsPath2254" d="M195.417 199.778c-2.196-4.746-8.195-11.779-14.86-13.722 -8.239-2.403-26.837-5.308-33.733-6.923 -5.528-1.296-16.662-11.294-20.564-14.65 -0.7-0.6-1.273-1.839-1.287-2.76 -0.139-10.864 4.195-39.724 4.195-39.724H100 70.833c0 0 4.334 28.859 4.193 39.724 -0.011 0.921-0.587 2.16-1.285 2.76 -3.902 3.356-15.036 13.354-20.564 14.65 -6.897 1.615-25.495 4.619-33.733 7.022 -6.667 1.942-12.664 8.876-14.86 13.622 -3.708 8.008-4.584 22.5-4.584 35h100 100C200 222.278 199.123 207.786 195.417 199.778z" opacity="1" stroke-width="none" fill="#279e7e" data-fromskin="true" data-stroketype="none" data-filltype="tone" data-colored="true" stroke="none"></path><path id="SvgjsPath2255" d="M159.156 184.058c24.342 3.542 34.586 8.708 37.794 50.721H200c0-12.5-0.877-26.992-4.583-35 -2.196-4.746-8.195-11.779-14.86-13.722 -8.239-2.403-26.837-5.308-33.733-6.923 -5.528-1.296-18.242-12.069-21.643-16.35 3.36 4.704 12.791 15.605 21.054 18.46C150.188 182.61 153.48 183.232 159.156 184.058zM53.766 181.244c8.263-2.854 17.693-13.756 21.054-18.46 -3.4 4.28-16.114 15.054-21.643 16.35 -6.896 1.615-25.494 4.619-33.733 7.022 -6.665 1.942-12.664 8.876-14.86 13.622 -3.706 8.008-4.583 22.5-4.583 35h3.05c3.188-41.744 13.475-47.183 37.794-50.721C46.52 183.232 49.813 182.61 53.766 181.244z" opacity="1" stroke-width="none" fill="#3cad8f" data-fromskin="true" data-stroketype="none" data-filltype="hl1" data-colored="true" stroke="none"></path><path id="SvgjsPath2256" d="M95.646 197.62c0 0-5.074-1.609-7.083-2.379 -10.449-4.009-44.395-6.607-44.395-6.607s35.754 1.419 43.644 2.779c-0.458-4.767-3.017-20.004-3.017-20.004s5.149 16.815 6.409 21.057C91.878 194.734 95.646 197.62 95.646 197.62zM106.445 196.278c-0.089 0.073-0.191 0.168-0.302 0.268C106.256 196.461 106.358 196.372 106.445 196.278zM95.646 197.62c0 0 2.893 2.992 4.347 3.03 1.91 0.051 4.828-2.899 6.151-4.104 -1.265 0.957-4.159 1.391-5.31 1.436C99.504 198.033 95.646 197.62 95.646 197.62zM116.664 190.101c-1.545 0.248-4.386 0.789-4.386 0.789l2.287-14.89c-0.646 3.071-4.474 16.211-8.12 20.278 1.91-1.616 6.158-2.391 8.324-2.704 10.236-1.484 10.232-1.483 41.062-4.94C155.831 188.634 126.76 188.479 116.664 190.101z" opacity="1" stroke-width="none" fill="#158f6e" data-fromskin="true" data-stroketype="none" data-filltype="sd1" data-colored="true" stroke="none"></path><path id="SvgjsPath2257" d="M195.417 199.778c-2.196-4.746-8.195-11.779-14.86-13.722 -8.239-2.403-26.837-5.308-33.733-6.923 -5.528-1.296-16.662-11.294-20.564-14.65 -0.7-0.6-1.273-1.839-1.287-2.76 -0.139-10.864 4.195-39.724 4.195-39.724H100 70.833c0 0 4.334 28.859 4.193 39.724 -0.011 0.921-0.587 2.16-1.285 2.76 -3.902 3.356-15.036 13.354-20.564 14.65 -6.897 1.615-25.495 4.619-33.733 7.022 -6.667 1.942-12.664 8.876-14.86 13.622 -3.708 8.008-4.584 22.5-4.584 35h100 100C200 222.278 199.123 207.786 195.417 199.778z" opacity="1" stroke="#007052" stroke-width="1.5" fill="none" data-fromskin="true" data-stroketype="sd3" data-filltype="none" data-colored="true"></path></g><g id="svga-group-chinshadow-single" data-rotate="0" data-scaley="1" data-scalex="1" data-dist="0" data-leftright="0" data-updown="0"><path id="SvgjsPath2259" d="M100.002 170.866c11.391 0 16.629-6.36 24.218-9.638 -0.008-7.932 2.039-23.933 3.282-32.907 -16.136-1.852-38.871-1.852-55.006 0.001 1.243 8.973 3.29 24.972 3.281 32.903C83.37 164.502 88.608 170.866 100.002 170.866z" opacity="1" fill="url(#SvgjsLinearGradient2260)" data-fromskin="true" data-stroketype="none" data-filltype="gradient" data-colored="false"></path></g><g id="svga-group-clothes-single" data-rotate="0" data-scaley="1" data-scalex="1" data-dist="0" data-leftright="0" data-updown="0"></g><g id="svga-group-head" data-rotate="0" data-scaley="1" data-scalex="1" data-dist="0" data-leftright="0" data-updown="0"><g id="svga-group-ears-left" data-rotate="0" data-scaley="1" data-scalex="1" data-dist="0" data-leftright="-9.000000600000002" data-updown="0" transform="translate(-9.000000500000002 0)"></g><g id="svga-group-ears-right" data-rotate="0" data-scaley="1" data-scalex="1" data-dist="0" data-leftright="9.000000600000002" data-updown="0" transform="translate(9.000000500000002 0)"></g><g id="svga-group-faceshape-wrap" data-rotate="0" data-scaley="1.0175995600000003" data-scalex="1.1369995600000005" data-dist="0" data-leftright="0" data-updown="0" transform="matrix(1.1358995600000004 0 0 1.0164995600000002 -13.590023394038425 -1.5726884567935429)"><g id="svga-group-faceshape-single" data-rotate="0" data-scaley="1" data-scalex="1" data-dist="0" data-leftright="0" data-updown="0"><path id="SvgjsPath2258" d="M100.001,181.958c-23.491,0-38.084-5.319-43.905-10.297c-18.695-15.989-17.823-48.256-16.901-82.415
	c0.195-7.165,0.394-14.572,0.394-21.751c0-51.83,30.54-58.819,60.413-58.819c29.873,0,60.411,6.989,60.411,58.819
	c0,7.179,0.199,14.589,0.394,21.753c0.921,34.159,1.793,66.425-16.902,82.412C138.083,176.638,123.492,181.958,100.001,181.958
	L100.001,181.958z" stroke="#007052" stroke-width="0.5" fill="#279e7e" data-stroketype="sd3" data-filltype="tone" data-colored="true"></path></g></g><g id="svga-group-eyes-left" data-rotate="0" data-scaley="2.38589956" data-scalex="2.38589956" data-dist="0" data-leftright="26.00000260000001" data-updown="0" transform="matrix(2.38479956 0 0 2.38479956 -137.83464341642838 -116.46164088296354) translate(26.000002500000008 0)"><g id="svga-group-eyesback-left"></g><g id="svga-group-eyesiriswrapper-left" transform="translate(0.25 0.25)"><g id="svga-group-eyesiriscontrol-left" data-rotate="0" data-scaley="1" data-scalex="1" data-dist="0" data-leftright="-1.0000001" data-updown="0" transform="translate(-1.0000002000000001 0)"><g id="svga-group-eyesiris-left" data-rotate="0" data-scaley="1.8841000000000006" data-scalex="1.8841000000000006" data-dist="0" data-leftright="0" data-updown="0" transform="matrix(1.8830000000000005 0 0 1.8830000000000005 -65.34420628738405 -74.17111074829106)"><path id="SvgjsPath5429" d="M79.788 85.588c-0.869 3.192-4.16 5.073-7.358 4.196 -3.195-0.876-5.083-4.178-4.212-7.371 0.868-3.195 4.167-5.076 7.362-4.198C78.773 79.09 80.658 82.392 79.788 85.588z" opacity="1" stroke="#00c2c3" stroke-width="0.5" fill="#00f0f1" data-stroketype="sd3" data-filltype="tone" data-colored="true"></path><path id="SvgjsPath5430" d="M73.265 80.413l-0.156-0.279c-0.548 0.218-1.076 0.445-1.575 0.687l0.37 0.894 -0.047 0.517 -1.426-0.839c-0.466 0.259-0.898 0.529-1.318 0.804l0.004 0.009 -0.489 0.55 0.781 0.799 -1.052 0.574 0.398 0.657 1.857 0.185 -1.741 1.181 1.863-0.103 -0.982 1.693 2.297-1.39 -0.618 2.364 1.329-2.184 0.256 2.343 0.384-2.072 0.353-0.043 0.5 2.35 0.152-0.705c0.201-0.052 0.718 0.704 0.915 0.651L74.736 86.5l1.282 2.556 -0.52-2.651 1.578 2.05c0.057-0.018 0.196-0.85 0.252-0.867l-0.982-1.469 1.785 0.539 -1.071-1.16 -0.86-0.712 3.586 0.803 -1.997-1.217 1.411-0.577 -3.055-0.309 3.021-1.602 -2.734 0.698 -0.736-0.399 -0.181-0.354 0.052-0.846 0.061-1.389 -1.248 2.198 -0.11-1.609 -0.157-0.421c-0.25 0.087-0.495 0.172-0.736 0.265L73.265 80.413z" opacity="1" stroke-width="none" fill="#19feff" data-stroketype="none" data-filltype="hl1" data-colored="true"></path><path id="SvgjsPath5431" d="M79.856 82.755c-5.242 0.239-7.907 1.36-11.707 2.631 -0.732-3.229 1.298-6.438 4.53-7.164S79.125 79.525 79.856 82.755z" opacity="0.9" stroke-width="none" fill="#00e1e2" data-stroketype="none" data-filltype="sd1" data-colored="true"></path><path id="SvgjsPath5432" d="M74.869 81.998c-1.319-0.378-2.666 0.375-3.005 1.69 -0.342 1.308 0.452 2.678 1.771 3.056 1.32 0.379 2.667-0.375 3.009-1.684C76.987 83.745 76.19 82.376 74.869 81.998z" opacity="0.8" stroke-width="none" fill="#000000" data-stroketype="none" data-filltype="#000000" data-colored="false"></path><path id="SvgjsPath5433" d="M74.869 81.998c-1.319-0.378-2.666 0.375-3.005 1.69 -0.342 1.308 0.452 2.678 1.771 3.056 1.32 0.379 2.667-0.375 3.009-1.684C76.987 83.745 76.19 82.376 74.869 81.998z" opacity="1" stroke="#00c2c3" stroke-width="0.75" fill="none" data-stroketype="sd3" data-filltype="none" data-colored="true"></path><path id="SvgjsPath5434" d="M69.631 87.56c0.613 0.973 1.426 1.706 2.578 1.95 1.326 0.281 1.477-1.483 0.528-1.685 -0.72-0.152-1.176-0.505-1.552-1.102C70.497 85.63 69.079 86.684 69.631 87.56L69.631 87.56z" opacity="0.4" stroke-width="none" fill="#ffffff" data-stroketype="none" data-filltype="#ffffff" data-colored="false"></path><path id="SvgjsPath5435" d="M75.033 81.493c0.929 0.187 1.469 0.768 1.938 1.64 0.862 1.604 3.299 0.178 2.437-1.425 -0.757-1.408-2.019-2.613-3.625-2.938C73.726 78.355 73.438 81.171 75.033 81.493L75.033 81.493z" opacity="1" fill="url(#SvgjsLinearGradient5436)" data-stroketype="none" data-filltype="gradient" data-colored="false"></path></g></g></g><g id="svga-group-eyesfront-left"></g></g><g id="svga-group-eyes-right" data-rotate="0" data-scaley="2.38589956" data-scalex="2.38589956" data-dist="0" data-leftright="-26.00000260000001" data-updown="0" transform="matrix(2.38479956 0 0 2.38479956 -138.8233843502673 -116.46164088296354) translate(-26.000002500000008 0)"><g id="svga-group-eyesback-right"></g><g id="svga-group-eyesiriswrapper-right" transform="translate(-0.25 0.25)"><g id="svga-group-eyesiriscontrol-right" data-rotate="0" data-scaley="1" data-scalex="1" data-dist="0" data-leftright="-1.0000001" data-updown="0" transform="translate(-1.0000002000000001 0)"><g id="svga-group-eyesiris-right" data-rotate="0" data-scaley="1.8841000000000006" data-scalex="1.8841000000000006" data-dist="0" data-leftright="0" data-updown="0" transform="matrix(1.8830000000000005 0 0 1.8830000000000005 -111.26064754486089 -74.17067285919194)"><path id="SvgjsPath5439" d="M131.788 85.587c-0.869 3.193-4.16 5.074-7.358 4.196 -3.195-0.876-5.082-4.178-4.212-7.371 0.867-3.195 4.167-5.076 7.361-4.198C130.774 79.091 132.658 82.393 131.788 85.587z" opacity="1" stroke="#00c2c3" stroke-width="0.5" fill="#00f0f1" data-stroketype="sd3" data-filltype="tone" data-colored="true"></path><path id="SvgjsPath5440" d="M125.266 80.413l-0.155-0.278c-0.548 0.217-1.076 0.445-1.576 0.686l0.37 0.894 -0.047 0.517 -1.426-0.839c-0.467 0.259-0.898 0.529-1.317 0.804l0.004 0.009 -0.49 0.551 0.782 0.799 -1.052 0.573 0.397 0.657 1.857 0.185 -1.741 1.181 1.863-0.103 -0.982 1.692 2.296-1.39 -0.616 2.364 1.328-2.184 0.257 2.343 0.384-2.073 0.353-0.043 0.501 2.35 0.151-0.704c0.201-0.052 0.719 0.703 0.915 0.651l-0.585-2.556 1.283 2.556 -0.521-2.651 1.577 2.05c0.057-0.018 0.197-0.85 0.253-0.867l-0.982-1.469 1.786 0.538 -1.071-1.16 -0.859-0.712 3.586 0.802 -1.997-1.216 1.411-0.577 -3.054-0.308 3.021-1.603 -2.734 0.698 -0.736-0.399 -0.18-0.354 0.052-0.847 0.061-1.388 -1.247 2.198 -0.11-1.609 -0.156-0.422c-0.25 0.087-0.495 0.173-0.735 0.265L125.266 80.413z" opacity="1" stroke-width="none" fill="#19feff" data-stroketype="none" data-filltype="hl1" data-colored="true"></path><path id="SvgjsPath5441" d="M131.855 82.755c-5.24 0.239-7.906 1.36-11.706 2.631 -0.731-3.229 1.298-6.438 4.53-7.164C127.911 77.495 131.126 79.525 131.855 82.755z" opacity="0.9" stroke-width="none" fill="#00e1e2" data-stroketype="none" data-filltype="sd1" data-colored="true"></path><path id="SvgjsPath5442" d="M126.87 81.998c-1.319-0.378-2.666 0.376-3.005 1.69 -0.343 1.308 0.451 2.678 1.77 3.056 1.322 0.379 2.668-0.375 3.009-1.684C128.987 83.745 128.189 82.376 126.87 81.998z" opacity="0.8" stroke-width="none" fill="#000000" data-stroketype="none" data-filltype="#000000" data-colored="false"></path><path id="SvgjsPath5443" d="M126.87 81.998c-1.319-0.378-2.666 0.376-3.005 1.69 -0.343 1.308 0.451 2.678 1.77 3.056 1.322 0.379 2.668-0.375 3.009-1.684C128.987 83.745 128.189 82.376 126.87 81.998z" opacity="1" stroke="#00c2c3" stroke-width="0.75" fill="none" data-stroketype="sd3" data-filltype="none" data-colored="true"></path><path id="SvgjsPath5444" d="M121.632 87.56c0.612 0.973 1.426 1.706 2.577 1.95 1.326 0.281 1.478-1.482 0.528-1.685 -0.72-0.152-1.177-0.504-1.552-1.102C122.498 85.63 121.079 86.684 121.632 87.56L121.632 87.56z" opacity="0.4" stroke-width="none" fill="#ffffff" data-stroketype="none" data-filltype="#ffffff" data-colored="false"></path><path id="SvgjsPath5445" d="M127.034 81.493c0.929 0.187 1.469 0.767 1.938 1.639 0.862 1.604 3.3 0.178 2.437-1.425 -0.757-1.408-2.018-2.613-3.625-2.938C125.727 78.355 125.438 81.171 127.034 81.493L127.034 81.493z" opacity="1" fill="url(#SvgjsLinearGradient5446)" data-stroketype="none" data-filltype="gradient" data-colored="false"></path></g></g></g><g id="svga-group-eyesfront-right"></g></g><g id="svga-group-facehighlight-single" data-rotate="0" data-scaley="1" data-scalex="1" data-dist="0" data-leftright="0" data-updown="0"></g><g id="svga-group-nose-single" data-rotate="0" data-scaley="1" data-scalex="1" data-dist="0" data-leftright="0" data-updown="0"></g><g id="svga-group-mouth-single" data-rotate="0" data-scaley="2.38259989" data-scalex="2.38259989" data-dist="0" data-leftright="-1.0000002" data-updown="5.0000005000000005" transform="matrix(2.3814998899999997 0 0 2.3814998899999997 -136.83756291234923 -201.69898463074992) translate(-1.0000000999999998 5.0000005000000005)"><path id="SvgjsPath8158" d="M90.1,139.4c0,0,3.2-2.3,4.9-2.5c1.7-0.2,3.3,1.4,5,1.3c1.4-0.1,2.6-1.7,4.1-1.7
	c1.8,0,3.4,1.3,5.1,1.9c0.6,0.2,1.9,0.6,1.9,0.6c-0.1,1.5-0.7,0.8-1.2,1.4c-2.2,2.3-4.5,7.4-9.7,7.9c-3.2,0.4-6.1-3.3-8.5-6.1
	C91,141.5,90.1,139.4,90.1,139.4L90.1,139.4z" stroke-width="none" fill="#ae8987" data-author="rones~openclipart.org" data-stroketype="none" data-filltype="tone" data-colored="true" stroke="none"></path><path id="SvgjsPath8159" d="M90.4,139.4c0,0,3.5-0.5,5.2,0.1c1.1,0.4,1.6,0.3,2.5,0.3c0.7,0,1.6,0.9,2.3,0.6
	c1-0.5,2.7-1.1,4.9-1.4c1.6-0.2,3.7-0.1,5.1,0c0,0-0.7,0.4-1,0.3c-0.7-0.3-3.1,0.1-3.8,0.2c-0.6,0.1-1.7,0.3-2.4,0.5
	c-1.2,0.4-2.1,1-3,1.1c-0.7,0-1.6-0.8-2.3-0.8c-1,0.1-2.1-0.5-2.9-0.6C93.3,139.4,90.4,139.4,90.4,139.4L90.4,139.4z" stroke-width="none" fill="#007052" data-fromskin="true" data-stroketype="none" data-filltype="sd3" data-colored="true" stroke="none"></path></g><g id="svga-group-eyebrows-left" data-rotate="7.5000001" data-scaley="1" data-scalex="1" data-dist="0" data-leftright="0" data-updown="0" transform="rotate(7.500000200000001 0 0)"></g><g id="svga-group-eyebrows-right" data-rotate="3.7500001" data-scaley="1" data-scalex="1" data-dist="0" data-leftright="0" data-updown="0" transform="rotate(3.7500001999999997 0 0)"></g><g id="svga-group-beardwrap" data-rotate="0" data-scaley="1" data-scalex="1" data-dist="0" data-leftright="0" data-updown="0"><g id="svga-group-beard-single" data-rotate="0" data-scaley="1" data-scalex="1" data-dist="0" data-leftright="0" data-updown="20.000002000000002" transform="translate(0 20.0000019)"></g></g><g id="svga-group-mustache-single" data-rotate="0" data-scaley="1" data-scalex="1" data-dist="0" data-leftright="0" data-updown="0"></g><g id="svga-group-hair-front" data-rotate="0" data-scaley="1.0153993400000005" data-scalex="1.0949993400000007" data-dist="0" data-leftright="0" data-updown="-2.0000002" transform="matrix(1.0949994500000007 0 0 1.0153994500000005 -9.501702611589494 -0.6702841638909334) translate(0 -2.0000001000000003)"></g><g id="svga-group-glasses-single" data-rotate="0" data-scaley="1" data-scalex="1" data-dist="0" data-leftright="0" data-updown="0"></g></g></g><g id="svga-group-bubble-single" data-rotate="0" data-scaley="1" data-scalex="1" data-dist="0" data-leftright="0" data-updown="0" transform="matrix(1 0 0 1 1 1) translate(-1 0)"><path id="SvgjsPath8201" d="M200,199.724H0v-38.5h200V199.724z" stroke-width="none" fill="#ffffff" data-stroketype="none" data-filltype="tone" data-colored="true"></path><path id="SvgjsPath8202" d="M37.674,184.381c-0.42,0.672-1.288,2.1-2.184,2.1c-0.952,0-1.176-0.952-1.428-1.68l-1.12-3.389
				c-0.056-0.195-0.588-2.044-0.924-2.044c-0.364,0-0.476,0.868-0.532,1.064c-0.056,0.28-0.812,3.724-0.812,4.592
				c0,1.232,1.372,1.008,1.372,2.1c0,0.925-0.364,1.792-4.704,1.792c-1.176,0-3.5-0.027-3.5-1.68c0-1.904,1.568-0.784,2.184-2.464
				c1.26-3.36,2.66-7.813,2.716-10.948c0.028-2.155-2.324-1.008-2.324-2.744c0-0.56,0.308-2.239,5.908-2.239
				c2.268,0,2.688,0.476,3.528,2.464c0.756,1.764,1.512,5.571,2.268,5.571c0.896,0,3.388-5.039,3.752-5.684
				c1.176-2.128,2.324-2.352,4.62-2.352c1.288,0,4.172,0.027,4.172,1.876c0,2.184-2.1,0.279-2.492,3.527
				c-0.252,3.276-0.644,6.608-0.644,9.912c0,1.849,1.568,1.568,1.568,2.66c0,1.596-2.408,2.1-6.188,2.1c-1.26,0-4.2-0.027-4.2-1.848
				c0-1.372,1.54-1.008,1.876-1.82c0.448-1.12,0.896-4.199,0.896-5.46c0-0.195,0.028-0.56-0.28-0.56
				c-0.364,0-1.148,1.372-1.344,1.68L37.674,184.381z" stroke="none" fill="#000000" data-stroketype="none" data-filltype="inverse" data-colored="true"></path><path id="SvgjsPath8203" d="M42.91,189.166c-1.217,0-4.45,0-4.45-2.098c0-0.976,0.69-1.246,1.195-1.443c0.323-0.126,0.602-0.235,0.7-0.473
				c0.415-1.037,0.877-4.084,0.877-5.364c0.001-0.11,0.002-0.276-0.028-0.317c-0.094,0.041-0.365,0.313-1.03,1.401l-0.105,0.17
				l-2.184,3.472c-0.504,0.808-1.383,2.217-2.396,2.217c-1.046,0-1.365-0.953-1.597-1.648l-1.188-3.592
				c-0.289-1.003-0.568-1.664-0.713-1.848c-0.046,0.059-0.128,0.228-0.228,0.695c-0.015,0.07-0.027,0.127-0.038,0.163l-0.043,0.208
				c-0.504,2.373-0.759,3.825-0.759,4.315c0,0.503,0.268,0.686,0.608,0.917c0.34,0.232,0.764,0.521,0.764,1.183
				c0,1.261-0.829,2.042-4.954,2.042c-1.122,0-3.75,0-3.75-1.93c0-1.192,0.596-1.4,1.122-1.585c0.427-0.149,0.831-0.291,1.078-0.965
				c1.201-3.203,2.644-7.688,2.701-10.867c0.012-0.953-0.469-1.115-1.078-1.32c-0.555-0.187-1.246-0.419-1.246-1.419
				c0-0.93,0.8-2.489,6.158-2.489c2.341,0,2.875,0.526,3.758,2.616c0.269,0.628,0.54,1.515,0.801,2.373
				c0.339,1.112,0.908,2.974,1.24,3.046c0.231-0.009,0.965-0.674,3.247-5.022c0.132-0.252,0.23-0.439,0.284-0.534
				c1.235-2.233,2.481-2.479,4.838-2.479c1.209,0,4.422,0,4.422,2.126c0,1.175-0.594,1.374-1.118,1.55
				c-0.581,0.195-1.181,0.396-1.375,2.008c-0.064,0.834-0.138,1.683-0.212,2.534c-0.211,2.412-0.43,4.906-0.43,7.348
				c0,0.918,0.405,1.213,0.834,1.524c0.344,0.25,0.734,0.534,0.734,1.136C49.348,188.899,45.907,189.166,42.91,189.166z
				 M41.202,178.979c0.181,0,0.295,0.077,0.359,0.142c0.176,0.178,0.173,0.447,0.171,0.625c0,1.271-0.443,4.417-0.915,5.596
				c-0.181,0.438-0.606,0.604-0.981,0.75c-0.543,0.213-0.877,0.374-0.877,0.978c0,1.432,2.254,1.598,3.95,1.598
				c4.051,0,5.938-0.588,5.938-1.85c0-0.332-0.181-0.479-0.528-0.731c-0.439-0.319-1.04-0.756-1.04-1.929
				c0-2.463,0.219-4.969,0.431-7.392c0.075-0.849,0.149-1.696,0.214-2.54c0.233-1.936,1.089-2.223,1.713-2.432
				c0.501-0.168,0.777-0.261,0.777-1.076c0-1.457-2.238-1.626-3.922-1.626c-2.254,0-3.284,0.201-4.401,2.223
				c-0.053,0.094-0.149,0.276-0.277,0.522c-1.998,3.807-3.033,5.29-3.693,5.29c-0.646,0-1.052-1.229-1.714-3.4
				c-0.258-0.845-0.524-1.719-0.784-2.322c-0.816-1.934-1.163-2.313-3.298-2.313c-5.106,0-5.658,1.392-5.658,1.989
				c0,0.612,0.311,0.745,0.906,0.945c0.605,0.204,1.435,0.483,1.418,1.802c-0.058,3.252-1.518,7.795-2.732,11.033
				c-0.328,0.894-0.912,1.099-1.381,1.263c-0.491,0.172-0.787,0.276-0.787,1.113c0,1.26,1.643,1.43,3.25,1.43
				c4.454,0,4.454-0.928,4.454-1.542c0-0.379-0.197-0.531-0.546-0.77c-0.368-0.251-0.826-0.563-0.826-1.33
				c0-0.791,0.58-3.522,0.77-4.42l0.047-0.221c0.013-0.049,0.022-0.094,0.034-0.149c0.083-0.391,0.237-1.116,0.743-1.116
				c0.17,0,0.525,0,1.165,2.225l1.185,3.58c0.264,0.79,0.485,1.308,1.123,1.308c0.735,0,1.579-1.353,1.94-1.931l2.317-3.688
				C40.483,179.406,40.864,178.979,41.202,178.979z" stroke="none" fill="#f0d8d8" data-stroketype="none" data-filltype="sd1" data-colored="true"></path><path id="SvgjsPath8204" d="M66.682,175.421c-0.112,1.68-0.616,4.199-0.84,7.224c-0.028,0.448-0.14,1.344,0.028,1.792
				c0.112,0.336,0.308,0.308,0.616,0.336c0.42,0.056,0.7,0.252,0.7,0.7c0,1.819-4.088,3.443-5.628,3.443
				c-2.492,0-1.288-2.38-2.184-2.38c-0.728,0-2.1,2.521-4.984,2.521c-2.576,0-3.64-2.269-3.528-4.536
				c0.224-5.04,3.36-9.744,7.672-10.136c1.96-0.196,2.744,1.147,3.556,1.147c0.308,0,0.812-0.308,1.064-0.448
				c0.784-0.392,1.512-0.728,2.38-0.728C66.318,174.356,66.738,174.637,66.682,175.421z M60.998,178.389
				c0-0.364-0.112-0.924-0.56-0.896c-1.484,0.112-3.36,4.284-3.332,6.076c0,0.42,0.084,1.148,0.644,1.092
				C59.234,184.549,61.054,179.788,60.998,178.389z" stroke="none" fill="#000000" data-stroketype="none" data-filltype="inverse" data-colored="true"></path><path id="SvgjsPath8205" d="M54.39,189.307c-1.044,0-1.943-0.364-2.599-1.053c-0.824-0.866-1.254-2.231-1.179-3.746
				c0.242-5.436,3.711-9.992,7.899-10.372c1.292-0.126,2.151,0.396,2.749,0.771c0.334,0.21,0.598,0.375,0.83,0.375
				c0.208,0,0.643-0.246,0.851-0.365l0.091-0.052c0.836-0.417,1.593-0.759,2.502-0.759c0.526,0,0.895,0.121,1.127,0.371
				c0.208,0.224,0.299,0.548,0.27,0.961c-0.05,0.747-0.175,1.649-0.32,2.694c-0.185,1.334-0.395,2.845-0.52,4.53l-0.019,0.253
				c-0.036,0.441-0.089,1.109,0.031,1.433c0.049,0.146,0.054,0.148,0.298,0.166l0.107,0.009c0.808,0.107,0.927,0.641,0.927,0.949
				c0,2.016-4.268,3.693-5.878,3.693c-1.779,0-1.92-1.156-2.004-1.847c-0.056-0.46-0.092-0.533-0.18-0.533
				c-0.148,0-0.486,0.302-0.813,0.594C57.702,188.147,56.404,189.307,54.39,189.307z M58.918,174.615
				c-0.115,0-0.235,0.006-0.359,0.019c-3.946,0.358-7.216,4.706-7.447,9.897c-0.068,1.38,0.312,2.61,1.042,3.378
				c0.567,0.596,1.319,0.897,2.236,0.897c1.824,0,3.036-1.083,3.838-1.8c0.468-0.418,0.807-0.721,1.146-0.721
				c0.557,0,0.623,0.539,0.676,0.973c0.084,0.691,0.172,1.407,1.508,1.407c1.424,0,5.378-1.588,5.378-3.193
				c0-0.233-0.082-0.399-0.482-0.452l-0.088-0.007c-0.259-0.02-0.581-0.043-0.733-0.498c-0.157-0.419-0.1-1.125-0.059-1.64
				l0.019-0.247c0.126-1.704,0.337-3.224,0.523-4.564c0.144-1.035,0.268-1.93,0.316-2.66c0.02-0.274-0.025-0.466-0.137-0.586
				c-0.133-0.143-0.382-0.212-0.762-0.212c-0.801,0-1.473,0.304-2.268,0.701l-0.078,0.044c-0.383,0.218-0.784,0.431-1.098,0.431
				c-0.375,0-0.709-0.209-1.096-0.451C60.459,174.995,59.853,174.615,58.918,174.615z M57.689,184.913
				c-0.251,0-0.834-0.131-0.834-1.345c-0.027-1.752,1.858-6.196,3.563-6.325l0.05-0.002c0.473,0,0.779,0.45,0.779,1.147
				c0.059,1.472-1.776,6.393-3.479,6.521L57.689,184.913z M60.469,177.491l-0.016,0.251c-1.215,0.092-3.125,3.997-3.097,5.822
				c0,0.145,0.016,0.849,0.334,0.849c1.316-0.098,3.112-4.669,3.058-6.015c0-0.233-0.058-0.657-0.279-0.657V177.491z" stroke="none" fill="#f0d8d8" data-stroketype="none" data-filltype="sd1" data-colored="true"></path><path id="SvgjsPath8206" d="M76.537,184.969c0.168,2.716-1.008,3.779-4.844,3.947c-1.036,0.057-2.156-0.224-2.156-1.483
				c0-1.681,1.12-5.181,1.176-7.784c0.028-0.756-0.056-0.98-0.812-0.98c-0.868,0-1.316-0.224-1.316-1.231
				c0-1.512,2.268-1.96,3.332-2.492c0.756-0.392,1.68-0.728,2.576-0.728c1.708,0,0.952,2.659,1.849,2.659
				c0.812,0,0.728-2.688,3.331-2.688c1.82,0,3.053,1.568,3.053,3.332c0,1.708-0.84,3.36-2.744,3.36c-1.008,0-1.4-0.393-1.876-1.204
				c-0.084-0.168-0.336-0.672-0.561-0.672c-0.392,0-0.56,1.176-0.588,1.428L76.537,184.969z" stroke="none" fill="#000000" data-stroketype="none" data-filltype="inverse" data-colored="true"></path><path id="SvgjsPath8207" d="M71.449,189.173c-1.374,0-2.162-0.635-2.162-1.74c0-0.797,0.233-1.936,0.502-3.254c0.302-1.477,0.644-3.15,0.674-4.536
				c0.01-0.279,0.008-0.547-0.074-0.632c-0.06-0.062-0.224-0.093-0.488-0.093c-0.813,0-1.566-0.18-1.566-1.481
				c0-1.35,1.469-1.917,2.649-2.373c0.307-0.118,0.597-0.23,0.821-0.343c0.662-0.343,1.669-0.754,2.688-0.754
				c1.199,0,1.401,1.114,1.535,1.851c0.085,0.474,0.158,0.809,0.314,0.809c0.138,0,0.306-0.331,0.469-0.651
				c0.414-0.811,1.038-2.036,2.862-2.036c1.852,0,3.303,1.573,3.303,3.582c0,1.797-0.926,3.61-2.994,3.61
				c-1.11,0-1.576-0.447-2.092-1.328c-0.238-0.476-0.351-0.543-0.371-0.552c-0.066,0.062-0.244,0.593-0.313,1.21l-0.419,4.531
				c0.082,1.273-0.151,2.186-0.732,2.832c-0.746,0.829-2.087,1.242-4.35,1.342C71.622,189.17,71.535,189.173,71.449,189.173z
				 M74.493,174.467c-0.918,0-1.845,0.381-2.46,0.699c-0.249,0.125-0.55,0.241-0.868,0.364c-1.038,0.4-2.329,0.899-2.329,1.906
				c0,0.845,0.314,0.981,1.066,0.981c0.317,0,0.64,0.03,0.848,0.246c0.223,0.231,0.229,0.587,0.214,0.993
				c-0.031,1.427-0.378,3.124-0.684,4.621c-0.253,1.238-0.492,2.407-0.492,3.154c0,0.823,0.559,1.24,1.662,1.24
				c0.077,0,0.154-0.002,0.23-0.007c2.12-0.093,3.354-0.455,4.002-1.177c0.486-0.539,0.678-1.336,0.606-2.505l0.42-4.575
				c0.07-0.621,0.271-1.654,0.837-1.654c0.334,0,0.584,0.409,0.784,0.81c0.438,0.748,0.768,1.066,1.652,1.066
				c1.841,0,2.494-1.676,2.494-3.11c0-1.515-1.048-3.082-2.803-3.082c-1.518,0-2.016,0.978-2.416,1.764
				c-0.253,0.495-0.471,0.924-0.915,0.924c-0.585,0-0.703-0.647-0.806-1.219C75.378,175.037,75.22,174.467,74.493,174.467z" stroke="none" fill="#f0d8d8" data-stroketype="none" data-filltype="sd1" data-colored="true"></path><path id="SvgjsPath8208" d="M91.854,184.969c0.168,2.716-1.008,3.779-4.845,3.947c-1.035,0.057-2.155-0.224-2.155-1.483
				c0-1.681,1.12-5.181,1.176-7.784c0.028-0.756-0.056-0.98-0.813-0.98c-0.867,0-1.315-0.224-1.315-1.231
				c0-1.512,2.268-1.96,3.332-2.492c0.756-0.392,1.68-0.728,2.576-0.728c1.708,0,0.952,2.659,1.848,2.659
				c0.812,0,0.728-2.688,3.332-2.688c1.82,0,3.052,1.568,3.052,3.332c0,1.708-0.84,3.36-2.744,3.36
				c-1.008,0-1.399-0.393-1.876-1.204c-0.084-0.168-0.336-0.672-0.56-0.672c-0.393,0-0.561,1.176-0.588,1.428L91.854,184.969z" stroke="none" fill="#000000" data-stroketype="none" data-filltype="inverse" data-colored="true"></path><path id="SvgjsPath8209" d="M86.765,189.173c-1.374,0-2.161-0.635-2.161-1.74c0-0.797,0.233-1.936,0.502-3.253c0.302-1.478,0.644-3.151,0.674-4.536
				c0.011-0.28,0.009-0.547-0.073-0.633c-0.06-0.062-0.224-0.093-0.489-0.093c-0.813,0-1.565-0.18-1.565-1.481
				c0-1.35,1.469-1.917,2.649-2.373c0.307-0.119,0.597-0.23,0.821-0.343c0.662-0.343,1.669-0.754,2.688-0.754
				c1.2,0,1.401,1.114,1.534,1.852c0.085,0.473,0.158,0.808,0.313,0.808c0.138,0,0.306-0.331,0.469-0.651
				c0.414-0.811,1.038-2.036,2.863-2.036c1.852,0,3.302,1.573,3.302,3.582c0,1.797-0.926,3.61-2.994,3.61
				c-1.109,0-1.575-0.447-2.092-1.327c-0.238-0.476-0.35-0.544-0.371-0.553c-0.067,0.063-0.246,0.593-0.313,1.209l-0.419,4.532
				c0.082,1.273-0.151,2.186-0.732,2.832c-0.746,0.829-2.087,1.242-4.351,1.342C86.937,189.17,86.851,189.173,86.765,189.173z
				 M89.81,174.467c-0.918,0-1.845,0.381-2.461,0.699c-0.249,0.125-0.549,0.241-0.868,0.363c-1.038,0.401-2.33,0.9-2.33,1.907
				c0,0.845,0.314,0.981,1.065,0.981c0.318,0,0.641,0.03,0.849,0.246c0.223,0.231,0.229,0.587,0.213,0.994
				c-0.031,1.426-0.377,3.124-0.684,4.621c-0.253,1.238-0.492,2.407-0.492,3.153c0,0.823,0.559,1.24,1.661,1.24
				c0.077,0,0.154-0.002,0.23-0.007c2.121-0.093,3.354-0.455,4.003-1.177c0.486-0.539,0.678-1.336,0.606-2.505l0.42-4.575
				c0.067-0.62,0.265-1.654,0.837-1.654c0.333,0,0.583,0.409,0.783,0.81c0.439,0.748,0.769,1.066,1.652,1.066
				c1.841,0,2.494-1.676,2.494-3.11c0-1.515-1.048-3.082-2.802-3.082c-1.518,0-2.017,0.978-2.417,1.764
				c-0.253,0.496-0.471,0.924-0.915,0.924c-0.585,0-0.702-0.647-0.805-1.219C90.694,175.037,90.537,174.467,89.81,174.467z" stroke="none" fill="#f0d8d8" data-stroketype="none" data-filltype="sd1" data-colored="true"></path><path id="SvgjsPath8210" d="M103.612,194.124c-2.492,0-5.012-1.372-5.012-4.115c0-1.708,1.204-2.801,2.855-2.801
				c1.345,0,2.38,0.757,2.38,2.156c0,0.477-0.111,0.952-0.111,1.428c0,0.309,0.111,0.561,0.448,0.561
				c0.896,0,1.344-1.344,1.315-2.044c-0.056-2.072-2.688-9.38-3.752-9.38c-0.42,0-1.008,0.952-1.624,0.952
				c-0.728,0-1.344-0.925-1.288-1.597c0.168-1.792,4.872-4.928,6.496-4.928c1.568,0,2.1,1.344,2.632,2.576
				c0.756,1.792,2.072,6.72,2.772,6.888c0.756,0.168,1.092-2.716,1.092-3.276c0-1.96-1.288-2.464-1.288-3.892
				c0-1.315,1.176-2.128,2.408-2.128c2.212,0,2.52,1.96,2.52,3.724C115.568,184.297,110.836,194.124,103.612,194.124z" stroke="none" fill="#000000" data-stroketype="none" data-filltype="inverse" data-colored="true"></path><path id="SvgjsPath8211" d="M103.612,194.374c-2.614,0-5.262-1.499-5.262-4.365c0-1.796,1.277-3.051,3.105-3.051c1.573,0,2.63,0.967,2.63,2.406
				c0,0.253-0.029,0.502-0.058,0.743c-0.026,0.229-0.054,0.457-0.054,0.685c0,0.311,0.119,0.311,0.198,0.311
				c0.187,0,0.362-0.084,0.521-0.25c0.359-0.374,0.563-1.088,0.544-1.534c-0.058-2.159-2.71-9.076-3.503-9.14
				c-0.096,0-0.336,0.209-0.495,0.347c-0.326,0.284-0.697,0.605-1.128,0.605c-0.358,0-0.718-0.176-1.012-0.496
				c-0.356-0.387-0.562-0.925-0.525-1.371c0.184-1.962,5.058-5.157,6.745-5.157c1.687,0,2.286,1.391,2.814,2.618l0.047,0.108
				c0.256,0.607,0.571,1.557,0.905,2.561c0.498,1.498,1.331,4.005,1.705,4.187c0.338-0.003,0.774-2.059,0.774-3.036
				c0-0.989-0.349-1.578-0.686-2.147c-0.296-0.501-0.603-1.019-0.603-1.744c0-1.488,1.352-2.378,2.658-2.378
				c2.77,0,2.77,2.887,2.77,3.974c0.068,3.692-1.722,9.33-5.276,12.951C108.392,193.276,106.034,194.374,103.612,194.374z
				 M101.456,187.458c-1.559,0-2.605,1.025-2.605,2.551c0,2.655,2.469,3.865,4.762,3.865c2.284,0,4.519-1.046,6.461-3.024
				c3.458-3.523,5.199-9.004,5.133-12.597c0-2.439-0.679-3.479-2.27-3.479c-1.046,0-2.158,0.658-2.158,1.878
				c0,0.589,0.247,1.007,0.533,1.489c0.354,0.599,0.755,1.276,0.755,2.402c0,0.035-0.176,3.533-1.278,3.533
				c-0.039,0-0.079-0.004-0.118-0.013c-0.547-0.131-1.071-1.544-2.058-4.514c-0.33-0.994-0.643-1.934-0.891-2.521l-0.046-0.106
				c-0.513-1.191-0.998-2.316-2.355-2.316c-1.483,0-6.09,3.021-6.247,4.701c-0.025,0.307,0.133,0.705,0.395,0.988
				c0.199,0.216,0.428,0.335,0.645,0.335c0.244,0,0.54-0.257,0.801-0.482c0.277-0.242,0.54-0.47,0.823-0.47
				c1.354,0,3.948,7.624,4.002,9.623c0.022,0.55-0.21,1.403-0.684,1.896c-0.253,0.265-0.559,0.404-0.882,0.404
				c-0.438,0-0.698-0.303-0.698-0.811c0-0.252,0.029-0.501,0.058-0.742c0.026-0.229,0.054-0.457,0.054-0.686
				C103.586,187.959,102.485,187.458,101.456,187.458z" stroke="none" fill="#f0d8d8" data-stroketype="none" data-filltype="sd1" data-colored="true"></path><path id="SvgjsPath8212" d="M141.495,176.345c0.057,0.195,0.057,0.531,0.309,0.531c0.447,0,2.408-2.52,5.403-2.52
				c1.708,0,2.801,1.12,2.801,2.8c0,1.596-0.925,5.572-0.925,6.832c0,1.428,1.484,0.252,1.484,1.484c0,2.071-4.2,3.332-5.712,3.416
				c-1.288,0.056-1.932-0.784-2.072-1.988c0-2.436,0.924-4.816,0.924-7.056c0-0.504-0.14-0.896-0.699-0.896
				c-2.156,0-2.185,3.977-2.324,5.292c-0.168,1.512-0.364,2.912-0.813,3.416c-0.867,0.98-2.939,1.232-4.172,1.232
				c-1.176,0-1.68-0.364-1.68-1.597c0-2.212,1.063-4.899,1.063-7.308c0-0.588-0.056-1.036-0.756-1.036
				c-1.96,0-2.212,4.76-2.296,6.021c-0.252,2.743-0.056,3.611-4.76,3.947c-1.092,0.084-1.848-0.279-1.848-1.512
				c0-1.036,1.12-5.544,1.12-7.896c0-0.532-0.084-0.925-0.673-0.925c-0.615,0-1.344,0-1.344-0.867c0-1.036,1.4-1.652,2.185-2.044
				c1.315-0.645,2.827-1.316,4.34-1.316c1.008,0,1.428,0.672,1.512,1.596c0,0.252,0.056,0.924,0.42,0.924
				c0.672,0,2.94-2.52,5.572-2.52C139.871,174.356,141.104,175.028,141.495,176.345z" stroke="none" fill="#000000" data-stroketype="none" data-filltype="inverse" data-colored="true"></path><path id="SvgjsPath8213" d="M126.985,189.178c-0.557,0-0.993-0.136-1.297-0.403c-0.342-0.301-0.515-0.762-0.515-1.37
				c0-0.437,0.175-1.385,0.396-2.586c0.322-1.746,0.724-3.919,0.724-5.31c0-0.611-0.129-0.675-0.423-0.675
				c-0.596,0-1.594,0-1.594-1.117c0-1.123,1.3-1.764,2.16-2.188l0.163-0.08c1.326-0.65,2.872-1.343,4.451-1.343
				c1.028,0,1.654,0.647,1.761,1.823c0.001,0.418,0.111,0.696,0.171,0.696c0.146,0,0.614-0.327,1.026-0.616
				c1.082-0.758,2.719-1.903,4.546-1.903c1.54,0,2.787,0.851,3.179,2.167c0.015,0.049,0.025,0.104,0.037,0.159
				c0.013,0.063,0.035,0.18,0.06,0.208c0.035-0.036,0.299-0.249,0.532-0.438c0.906-0.732,2.595-2.097,4.844-2.097
				c1.825,0,3.051,1.226,3.051,3.05c0,0.866-0.258,2.369-0.507,3.823c-0.215,1.253-0.418,2.438-0.418,3.009
				c0,0.515,0.175,0.532,0.559,0.571c0.346,0.035,0.926,0.094,0.926,0.913c0,2.332-4.515,3.586-5.948,3.666l-0.133,0.003
				c-1.235,0-2.037-0.807-2.201-2.212c-0.002-1.297,0.242-2.546,0.479-3.753c0.228-1.162,0.442-2.26,0.442-3.332
				c0-0.597-0.213-0.646-0.449-0.646c-1.676,0-1.904,2.933-2.027,4.508c-0.017,0.216-0.032,0.406-0.048,0.561
				c-0.207,1.862-0.417,3.041-0.875,3.556c-1.107,1.253-3.825,1.316-4.358,1.316c-1.371,0-1.93-0.535-1.93-1.847
				c0-1.108,0.253-2.296,0.521-3.553c0.267-1.254,0.543-2.552,0.543-3.755c0-0.654-0.085-0.786-0.506-0.786
				c-0.762,0-1.733,0.983-2.039,5.669l-0.046,0.558c-0.228,2.646-0.492,3.422-4.953,3.74
				C127.186,189.174,127.084,189.178,126.985,189.178z M131.052,174.606c-1.472,0-2.955,0.666-4.229,1.291l-0.164,0.081
				c-0.749,0.369-1.881,0.927-1.881,1.738c0,0.559,0.333,0.617,1.094,0.617c0.923,0,0.923,0.823,0.923,1.175
				c0,1.437-0.405,3.634-0.731,5.4c-0.209,1.129-0.389,2.104-0.389,2.495c0,0.465,0.113,0.79,0.345,0.994
				c0.252,0.223,0.681,0.311,1.233,0.269c4.235-0.303,4.289-0.935,4.492-3.285l0.045-0.548c0.172-2.634,0.622-6.136,2.538-6.136
				c1.006,0,1.006,0.837,1.006,1.286c0,1.256-0.281,2.579-0.554,3.859c-0.263,1.23-0.51,2.393-0.51,3.448
				c0,1.032,0.334,1.347,1.43,1.347c1.37,0,3.235-0.301,3.984-1.148c0.408-0.458,0.602-1.933,0.752-3.277
				c0.016-0.149,0.03-0.335,0.046-0.546c0.136-1.736,0.389-4.969,2.526-4.969c0.433,0,0.949,0.199,0.949,1.146
				c0,1.12-0.22,2.241-0.452,3.428c-0.231,1.185-0.472,2.409-0.472,3.628c0.093,0.778,0.465,1.741,1.703,1.741l0.108-0.003
				c1.404-0.078,5.473-1.288,5.473-3.166c0-0.367-0.12-0.38-0.477-0.416c-0.377-0.038-1.008-0.103-1.008-1.068
				c0-0.614,0.206-1.818,0.425-3.094c0.246-1.433,0.5-2.915,0.5-3.738c0-1.549-1.001-2.55-2.551-2.55
				c-2.072,0-3.61,1.243-4.53,1.986c-0.439,0.354-0.66,0.533-0.873,0.533c-0.404,0-0.484-0.402-0.522-0.596
				c-0.009-0.041-0.017-0.081-0.026-0.116c-0.396-1.332-1.654-1.808-2.699-1.808c-1.67,0-3.228,1.091-4.259,1.813
				c-0.607,0.425-1.009,0.706-1.313,0.706c-0.494,0-0.67-0.606-0.67-1.174C132.23,175.054,131.817,174.606,131.052,174.606z" stroke="none" fill="#f0d8d8" data-stroketype="none" data-filltype="sd1" data-colored="true"></path><path id="SvgjsPath8214" d="M166.864,177.549c0,3.388-3.78,6.02-6.944,6.02c-0.392,0-1.092,0-1.092,0.588
				c0,0.813,1.008,1.26,1.708,1.26c2.017,0,3.556-1.596,4.452-1.596c0.588,0,1.12,0.616,1.12,1.176c0,1.484-1.876,2.408-3.024,2.94
				c-1.567,0.7-3.08,1.12-4.844,1.12c-3.416,0-6.384-1.484-6.244-5.236c0.252-5.824,5.685-9.604,10.78-9.604
				C164.988,174.217,166.864,175.084,166.864,177.549z M158.772,180.488c0,0.336,0.111,0.784,0.504,0.784
				c0.784,0,2.156-2.072,2.072-3.416c-0.028-0.364-0.196-0.868-0.645-0.868C159.557,176.988,158.772,179.593,158.772,180.488z" stroke="none" fill="#000000" data-stroketype="none" data-filltype="inverse" data-colored="true"></path><path id="SvgjsPath8215" d="M158.24,189.307c-2.251,0-4.104-0.638-5.221-1.796c-0.901-0.936-1.33-2.181-1.273-3.7
				c0.264-6.081,5.931-9.844,11.03-9.844c2.757,0,4.338,1.306,4.338,3.582c0,3.531-3.867,6.27-7.194,6.27
				c-0.621,0-0.842,0.089-0.842,0.338c0,0.626,0.85,1.01,1.458,1.01c1.146,0,2.15-0.556,2.957-1.003
				c0.599-0.331,1.072-0.593,1.495-0.593c0.704,0,1.37,0.693,1.37,1.426c0,1.698-2.141,2.69-3.169,3.167
				C161.418,188.954,159.893,189.307,158.24,189.307z M162.776,174.467c-4.869,0-10.28,3.58-10.53,9.364
				c-0.052,1.377,0.33,2.498,1.134,3.332c1.021,1.06,2.747,1.644,4.86,1.644c1.579,0,3.041-0.339,4.742-1.099
				c0.931-0.432,2.876-1.333,2.876-2.712c0-0.408-0.41-0.926-0.87-0.926c-0.294,0-0.738,0.246-1.253,0.53
				c-0.857,0.475-1.925,1.065-3.199,1.065c-0.821,0-1.958-0.524-1.958-1.51c0-0.838,0.94-0.838,1.342-0.838
				c3.032,0,6.694-2.573,6.694-5.77C166.614,175.002,164.527,174.467,162.776,174.467z M159.276,181.522
				c-0.458,0-0.754-0.406-0.754-1.034c0-0.904,0.798-3.75,2.182-3.75c0.597,0,0.854,0.592,0.894,1.099
				c0.065,1.041-0.623,2.371-1.304,3.095C160.041,181.201,159.659,181.522,159.276,181.522z M160.704,177.238
				c-0.882,0-1.682,2.34-1.682,3.25c0,0.055,0.007,0.534,0.254,0.534c0.058,0,0.276-0.031,0.653-0.433
				c0.604-0.643,1.223-1.864,1.17-2.718C161.095,177.811,161.04,177.238,160.704,177.238z" stroke="none" fill="#f0d8d8" data-stroketype="none" data-filltype="sd1" data-colored="true"></path><path id="SvgjsPath8216" d="M174.787,186.005c-0.084,1.96-1.623,3.275-3.331,3.275s-3.137-1.315-3.053-3.275
				c0.084-1.877,1.624-3.108,3.332-3.108S174.872,184.128,174.787,186.005z M176.552,171.696c-0.057,2.884-1.568,5.824-2.884,8.26
				c-0.28,0.532-0.813,1.232-1.513,1.232c-0.756,0-1.063-0.7-1.288-1.316c-0.867-2.239-1.344-5.151-1.344-7.56
				c0-2.464,1.456-3.64,3.893-3.64C175.376,168.673,176.58,169.708,176.552,171.696z" stroke="none" fill="#000000" data-stroketype="none" data-filltype="inverse" data-colored="true"></path><path id="SvgjsPath8217" d="M171.456,189.53c-0.929,0-1.78-0.354-2.397-0.999c-0.626-0.653-0.947-1.554-0.905-2.537
				c0.086-1.908,1.625-3.348,3.582-3.348c0.95,0,1.845,0.366,2.455,1.004c0.596,0.623,0.889,1.441,0.847,2.366
				C174.951,188.02,173.411,189.53,171.456,189.53z M171.735,183.146c-1.684,0-3.009,1.233-3.082,2.869
				c-0.036,0.846,0.235,1.616,0.766,2.169c0.522,0.546,1.246,0.846,2.037,0.846c1.683,0,3.007-1.306,3.081-3.036
				c0.036-0.785-0.209-1.476-0.708-1.998C173.313,183.456,172.55,183.146,171.735,183.146z M172.155,181.438
				c-0.983,0-1.334-0.963-1.523-1.48c-0.837-2.163-1.358-5.094-1.358-7.646c0-2.508,1.472-3.89,4.143-3.89
				c1.09,0,1.975,0.313,2.56,0.907c0.563,0.57,0.841,1.367,0.826,2.37c-0.056,2.854-1.47,5.702-2.914,8.375
				C173.673,180.483,173.071,181.438,172.155,181.438z M173.416,168.923c-1.662,0-3.643,0.588-3.643,3.39
				c0,2.494,0.509,5.355,1.327,7.47c0.261,0.716,0.527,1.156,1.055,1.156c0.661,0,1.155-0.841,1.291-1.099
				c1.416-2.621,2.802-5.408,2.855-8.148c0.013-0.862-0.217-1.539-0.682-2.011C175.131,169.185,174.369,168.923,173.416,168.923z" stroke="none" fill="#f0d8d8" data-stroketype="none" data-filltype="sd1" data-colored="true"></path></g></g><defs id="defs_node"><linearGradient id="SvgjsLinearGradient2260" class="svga-on-canvas-chinshadow-gradient-single-0" gradientUnits="userSpaceOnUse" y2="127" x2="100" y1="171" x1="100"><stop id="SvgjsStop2261" offset="0" data-stoptype="sd1" stop-color="#158f6e" stop-opacity="0.8"></stop><stop id="SvgjsStop2262" offset="0.7" data-stoptype="sd3" stop-color="#007052" stop-opacity="1"></stop></linearGradient><linearGradient id="SvgjsLinearGradient4289" class="svga-on-canvas-eyesiris-gradient-left-1" gradientUnits="userSpaceOnUse" gradientTransform="matrix(1 0 0 1 -50 0)" y2="81.88" x2="125.91" y1="79.822" x1="127.637"><stop id="SvgjsStop4290" offset="0" data-stoptype="#ffffff" stop-color="#ffffff" stop-opacity="1"></stop><stop id="SvgjsStop4291" offset="1" data-stoptype="#ffffff" stop-color="#ffffff" stop-opacity="0"></stop></linearGradient><linearGradient id="SvgjsLinearGradient4294" class="svga-on-canvas-eyesiris-gradient-right-1" gradientUnits="userSpaceOnUse" y2="81.881" x2="127.91" y1="79.823" x1="129.637"><stop id="SvgjsStop4295" offset="0" data-stoptype="#ffffff" stop-color="#ffffff" stop-opacity="1"></stop><stop id="SvgjsStop4296" offset="1" data-stoptype="#ffffff" stop-color="#ffffff" stop-opacity="0"></stop></linearGradient><radialGradient id="SvgjsRadialGradient4650" class="svga-on-canvas-eyesback-gradient-left-0" gradientUnits="userSpaceOnUse" gradientTransform="matrix(-1.0592 4.000000e-004 -4.000000e-004 0.9318 206.5112 5.1767)" r="12.84" cy="82.93" cx="125.379"><stop id="SvgjsStop4651" offset="0" data-stoptype="#ffffff" stop-color="#ffffff" stop-opacity="1"></stop><stop id="SvgjsStop4652" offset="0.544" data-stoptype="#fdfefe" stop-color="#fdfefe" stop-opacity="1"></stop><stop id="SvgjsStop4653" offset="0.74" data-stoptype="#f6f8f9" stop-color="#f6f8f9" stop-opacity="1"></stop><stop id="SvgjsStop4654" offset="0.879" data-stoptype="#eaeff2" stop-color="#eaeff2" stop-opacity="1"></stop><stop id="SvgjsStop4655" offset="0.992" data-stoptype="#d9e3e8" stop-color="#d9e3e8" stop-opacity="1"></stop><stop id="SvgjsStop4656" offset="1" data-stoptype="#d8e2e7" stop-color="#d8e2e7" stop-opacity="1"></stop></radialGradient><radialGradient id="SvgjsRadialGradient4658" class="svga-on-canvas-eyesback-gradient-right-0" gradientUnits="userSpaceOnUse" gradientTransform="matrix(1.0592 4.000000e-004 4.000000e-004 0.9318 -6.5112 5.1767)" r="12.841" cy="82.93" cx="125.001"><stop id="SvgjsStop4659" offset="0" data-stoptype="#ffffff" stop-color="#ffffff" stop-opacity="1"></stop><stop id="SvgjsStop4660" offset="0.544" data-stoptype="#fdfefe" stop-color="#fdfefe" stop-opacity="1"></stop><stop id="SvgjsStop4661" offset="0.74" data-stoptype="#f6f8f9" stop-color="#f6f8f9" stop-opacity="1"></stop><stop id="SvgjsStop4662" offset="0.879" data-stoptype="#eaeff2" stop-color="#eaeff2" stop-opacity="1"></stop><stop id="SvgjsStop4663" offset="0.992" data-stoptype="#d9e3e8" stop-color="#d9e3e8" stop-opacity="1"></stop><stop id="SvgjsStop4664" offset="1" data-stoptype="#d8e2e7" stop-color="#d8e2e7" stop-opacity="1"></stop></radialGradient><radialGradient id="SvgjsRadialGradient4666" class="svga-on-canvas-eyesfront-gradient-left-0" gradientUnits="userSpaceOnUse" gradientTransform="matrix(-1.0592 4.000000e-004 -4.000000e-004 0.9318 206.5112 5.1767)" r="12.84" cy="82.93" cx="125.379"><stop id="SvgjsStop4667" offset="0" data-stoptype="#ffffff" stop-color="#ffffff" stop-opacity="1"></stop><stop id="SvgjsStop4668" offset="0.544" data-stoptype="#fdfefe" stop-color="#fdfefe" stop-opacity="1"></stop><stop id="SvgjsStop4669" offset="0.74" data-stoptype="#f6f8f9" stop-color="#f6f8f9" stop-opacity="1"></stop><stop id="SvgjsStop4670" offset="0.879" data-stoptype="#eaeff2" stop-color="#eaeff2" stop-opacity="1"></stop><stop id="SvgjsStop4671" offset="0.992" data-stoptype="#d9e3e8" stop-color="#d9e3e8" stop-opacity="1"></stop><stop id="SvgjsStop4672" offset="1" data-stoptype="#d8e2e7" stop-color="#d8e2e7" stop-opacity="1"></stop></radialGradient><radialGradient id="SvgjsRadialGradient4676" class="svga-on-canvas-eyesfront-gradient-left-3" gradientUnits="userSpaceOnUse" gradientTransform="matrix(0.9998 0.0183 0.0166 -0.7038 -47.7588 136.6255)" r="17.898" fy="77.197" fx="133.802" cy="81.096" cx="123.218"><stop id="SvgjsStop4677" offset="0" data-stoptype="sd1" stop-color="#df9164" stop-opacity="1"></stop><stop id="SvgjsStop4678" offset="0.7" data-stoptype="sd1" stop-color="#df9164" stop-opacity="0.3"></stop><stop id="SvgjsStop4679" offset="1" data-stoptype="tone" stop-color="#eeaa83" stop-opacity="0"></stop></radialGradient><radialGradient id="SvgjsRadialGradient4681" class="svga-on-canvas-eyesfront-gradient-left-4" gradientUnits="userSpaceOnUse" gradientTransform="matrix(1.0971 -0.0499 0.0576 0.9543 -20.1632 27.912)" r="23.208" cy="81.496" cx="79.496"><stop id="SvgjsStop4682" offset="0.9" data-stoptype="#000000" stop-color="#000000" stop-opacity="0"></stop><stop id="SvgjsStop4683" offset="1" data-stoptype="#000000" stop-color="#000000" stop-opacity="0.2"></stop></radialGradient><radialGradient id="SvgjsRadialGradient4687" class="svga-on-canvas-eyesfront-gradient-right-0" gradientUnits="userSpaceOnUse" gradientTransform="matrix(1.0592 4.000000e-004 4.000000e-004 0.9318 -6.5112 5.1767)" r="12.841" cy="82.93" cx="125.001"><stop id="SvgjsStop4688" offset="0" data-stoptype="#ffffff" stop-color="#ffffff" stop-opacity="1"></stop><stop id="SvgjsStop4689" offset="0.544" data-stoptype="#fdfefe" stop-color="#fdfefe" stop-opacity="1"></stop><stop id="SvgjsStop4690" offset="0.74" data-stoptype="#f6f8f9" stop-color="#f6f8f9" stop-opacity="1"></stop><stop id="SvgjsStop4691" offset="0.879" data-stoptype="#eaeff2" stop-color="#eaeff2" stop-opacity="1"></stop><stop id="SvgjsStop4692" offset="0.992" data-stoptype="#d9e3e8" stop-color="#d9e3e8" stop-opacity="1"></stop><stop id="SvgjsStop4693" offset="1" data-stoptype="#d8e2e7" stop-color="#d8e2e7" stop-opacity="1"></stop></radialGradient><radialGradient id="SvgjsRadialGradient4697" class="svga-on-canvas-eyesfront-gradient-right-3" gradientUnits="userSpaceOnUse" gradientTransform="matrix(-0.9998 0.0183 -0.0166 -0.7038 246.9601 136.6328)" r="17.898" fy="77.197" fx="133.402" cy="81.096" cx="122.818"><stop id="SvgjsStop4698" offset="0" data-stoptype="sd1" stop-color="#df9164" stop-opacity="1"></stop><stop id="SvgjsStop4699" offset="0.7" data-stoptype="sd1" stop-color="#df9164" stop-opacity="0.3"></stop><stop id="SvgjsStop4700" offset="1" data-stoptype="tone" stop-color="#eeaa83" stop-opacity="0"></stop></radialGradient><radialGradient id="SvgjsRadialGradient4702" class="svga-on-canvas-eyesfront-gradient-right-4" gradientUnits="userSpaceOnUse" gradientTransform="matrix(-1.0971 -0.0499 -0.0576 0.9543 220.163 27.9157)" r="23.208" cy="81.511" cx="79.859"><stop id="SvgjsStop4703" offset="0.9" data-stoptype="#000000" stop-color="#000000" stop-opacity="0"></stop><stop id="SvgjsStop4704" offset="1" data-stoptype="#000000" stop-color="#000000" stop-opacity="0.2"></stop></radialGradient><linearGradient id="SvgjsLinearGradient5436" class="svga-on-canvas-eyesiris-gradient-left-6" gradientUnits="userSpaceOnUse" gradientTransform="matrix(1 0 0 1 -50 0)" y2="84" x2="126" y1="78" x1="132"><stop id="SvgjsStop5437" offset="0" data-stoptype="#ffffff" stop-color="#ffffff" stop-opacity="1"></stop><stop id="SvgjsStop5438" offset="1" data-stoptype="#ffffff" stop-color="#ffffff" stop-opacity="0"></stop></linearGradient><linearGradient id="SvgjsLinearGradient5446" class="svga-on-canvas-eyesiris-gradient-right-6" gradientUnits="userSpaceOnUse" y2="84" x2="126" y1="78" x1="132"><stop id="SvgjsStop5447" offset="0" data-stoptype="#ffffff" stop-color="#ffffff" stop-opacity="1"></stop><stop id="SvgjsStop5448" offset="1" data-stoptype="#ffffff" stop-color="#ffffff" stop-opacity="0"></stop></linearGradient><radialGradient id="SvgjsRadialGradient6179" class="svga-on-canvas-backs-gradient-single-1" gradientUnits="userSpaceOnUse" r="250" cy="225" cx="100"><stop id="SvgjsStop6180" offset="0" data-stoptype="tone" stop-color="#aee239" stop-opacity="0"></stop><stop id="SvgjsStop6181" offset="1" data-stoptype="sd1" stop-color="#9cd320" stop-opacity="1"></stop></radialGradient><radialGradient id="SvgjsRadialGradient8126" class="svga-on-canvas-mouth-gradient-single-3" gradientUnits="userSpaceOnUse" gradientTransform="matrix(0.7879 0 0 0.9067 15.1901 14.387)" r="20.494" cy="139.268" cx="108.2655"><stop id="SvgjsStop8127" offset="0" data-stoptype="#be1e2d" stop-color="#be1e2d" stop-opacity="1"></stop><stop id="SvgjsStop8128" offset="1" data-stoptype="#000000" stop-color="#000000" stop-opacity="1"></stop></radialGradient></defs></svg>