<svg id="svga-svgcanvas" style="overflow: hidden; position: relative; left: -0.265625px; top: 0px; -webkit-user-select: none; -webkit-user-drag: none; -webkit-tap-highlight-color: rgba(0, 0, 0, 0); touch-action: none;" xmlns="http://www.w3.org/2000/svg" version="1.1" xlink="http://www.w3.org/1999/xlink" class="svga-svg" viewBox="0 0 200 200" preserveAspectRatio="xMinYMin meet" width="250" height="250"><g id="svga-group-wrapper"><g id="svga-group-backs-single"><path id="SvgjsPath5668" d="M225 225H-25V-25h250V225z" data-colored="true" data-filltype="tone" data-stroketype="none" fill="#547980" stroke-width="none" opacity="1" stroke="none"></path></g><g id="svga-group-subwrapper" data-updown="0" data-leftright="0" data-dist="0" data-scaleX="1" data-scaleY="1" data-rotate="0"><g id="svga-group-hair-back" data-updown="0" data-leftright="0" data-dist="0" data-scaleX="1" data-scaleY="1" data-rotate="0"><path id="SvgjsPath7075" d="M100.5,100.5h-1v-1h1V100.5z" data-colored="true" data-filltype="tone" data-stroketype="none" fill="#8b52b8" stroke-width="none" opacity="1" stroke="none"></path></g><g id="svga-group-humanbody-single" data-updown="0" data-leftright="0" data-dist="0" data-scaleX="1" data-scaleY="1" data-rotate="0"><path id="SvgjsPath5688" d="M195.417 199.778c-2.196-4.746-8.195-11.779-14.86-13.722 -8.239-2.403-26.837-5.308-33.733-6.923 -5.528-1.296-16.662-11.294-20.564-14.65 -0.7-0.6-1.273-1.839-1.287-2.76 -0.139-10.864 4.195-39.724 4.195-39.724H100 70.833c0 0 4.334 28.859 4.193 39.724 -0.011 0.921-0.587 2.16-1.285 2.76 -3.902 3.356-15.036 13.354-20.564 14.65 -6.897 1.615-25.495 4.619-33.733 7.022 -6.667 1.942-12.664 8.876-14.86 13.622 -3.708 8.008-4.584 22.5-4.584 35h100 100C200 222.278 199.123 207.786 195.417 199.778z" data-colored="true" data-filltype="tone" data-stroketype="none" data-fromskin="true" fill="#050505" stroke-width="none" opacity="1" stroke="none"></path><path id="SvgjsPath5689" d="M159.156 184.058c24.342 3.542 34.586 8.708 37.794 50.721H200c0-12.5-0.877-26.992-4.583-35 -2.196-4.746-8.195-11.779-14.86-13.722 -8.239-2.403-26.837-5.308-33.733-6.923 -5.528-1.296-18.242-12.069-21.643-16.35 3.36 4.704 12.791 15.605 21.054 18.46C150.188 182.61 153.48 183.232 159.156 184.058zM53.766 181.244c8.263-2.854 17.693-13.756 21.054-18.46 -3.4 4.28-16.114 15.054-21.643 16.35 -6.896 1.615-25.494 4.619-33.733 7.022 -6.665 1.942-12.664 8.876-14.86 13.622 -3.706 8.008-4.583 22.5-4.583 35h3.05c3.188-41.744 13.475-47.183 37.794-50.721C46.52 183.232 49.813 182.61 53.766 181.244z" data-colored="true" data-filltype="hl1" data-stroketype="none" data-fromskin="true" fill="#141414" stroke-width="none" opacity="1" stroke="none"></path><path id="SvgjsPath5690" d="M95.646 197.62c0 0-5.074-1.609-7.083-2.379 -10.449-4.009-44.395-6.607-44.395-6.607s35.754 1.419 43.644 2.779c-0.458-4.767-3.017-20.004-3.017-20.004s5.149 16.815 6.409 21.057C91.878 194.734 95.646 197.62 95.646 197.62zM106.445 196.278c-0.089 0.073-0.191 0.168-0.302 0.268C106.256 196.461 106.358 196.372 106.445 196.278zM95.646 197.62c0 0 2.893 2.992 4.347 3.03 1.91 0.051 4.828-2.899 6.151-4.104 -1.265 0.957-4.159 1.391-5.31 1.436C99.504 198.033 95.646 197.62 95.646 197.62zM116.664 190.101c-1.545 0.248-4.386 0.789-4.386 0.789l2.287-14.89c-0.646 3.071-4.474 16.211-8.12 20.278 1.91-1.616 6.158-2.391 8.324-2.704 10.236-1.484 10.232-1.483 41.062-4.94C155.831 188.634 126.76 188.479 116.664 190.101z" data-colored="true" data-filltype="sd1" data-stroketype="none" data-fromskin="true" fill="#000000" stroke-width="none" opacity="1" stroke="none"></path><path id="SvgjsPath5691" d="M195.417 199.778c-2.196-4.746-8.195-11.779-14.86-13.722 -8.239-2.403-26.837-5.308-33.733-6.923 -5.528-1.296-16.662-11.294-20.564-14.65 -0.7-0.6-1.273-1.839-1.287-2.76 -0.139-10.864 4.195-39.724 4.195-39.724H100 70.833c0 0 4.334 28.859 4.193 39.724 -0.011 0.921-0.587 2.16-1.285 2.76 -3.902 3.356-15.036 13.354-20.564 14.65 -6.897 1.615-25.495 4.619-33.733 7.022 -6.667 1.942-12.664 8.876-14.86 13.622 -3.708 8.008-4.584 22.5-4.584 35h100 100C200 222.278 199.123 207.786 195.417 199.778z" data-colored="true" data-filltype="none" data-stroketype="sd3" data-fromskin="true" fill="none" stroke="#000000" stroke-width="1.5" opacity="1"></path></g><g id="svga-group-chinshadow-single" data-updown="0" data-leftright="0" data-dist="0" data-scaleX="1" data-scaleY="1" data-rotate="0"><path id="SvgjsPath5676" d="M104.195 172.932c4.251-2.437 12.243-7.528 20.043-13.21 0.164-6.313 1.287-16.273 2.33-24.397 -15.295-1.845-37.566-1.875-53.149-0.101 1.065 8.292 2.218 18.521 2.347 24.837 7.892 5.542 15.885 10.48 20.046 12.87C97.569 173.939 102.438 173.939 104.195 172.932z" data-colored="false" data-filltype="gradient" data-stroketype="none" data-fromskin="true" fill="url(#SvgjsLinearGradient5677)" opacity="1"></path></g><g id="svga-group-clothes-single" data-updown="0" data-leftright="0" data-dist="0" data-scaleX="1" data-scaleY="1" data-rotate="0"><path id="SvgjsPath5693" d="M204.771 234.683c-25.073-0.247-64.243-0.011-96.057 0.107l3.764-34.23c0.389-8.876 4.307-11.191 6.412-16.545 8.523-21.672 5.125-15.237 7.986-33.135 9.692 1.334 17.243 21.017 24.338 23.615 -0.013 0.428-0.331 2.404-0.756 4.897C187.119 186.985 200 178.735 204.771 234.683zM93.475 200.708c-1.059-3.137-5.48-7.747-7.551-10.751 -3.566-5.185-6.529-10.696-10.881-23.596 -0.007-0.147-0.702-11.408-1.848-16.205 -5.765 2.713-4.729 7.144-13.599 17.518 -1.859 2.164-5.543 2.829-9.259 5.004 -0.191 2.096-0.221 3.92-0.15 5.647 -9.297 1.408-35.372 7.032-44.861 14.346 -4.399 10.161-14.504 29.002-12.896 42.922 28.234-0.305 71.192-0.595 107.381-0.803 0 0 1.301-19.904-6.86-34.308C93.133 200.552 93.31 200.625 93.475 200.708z" data-colored="true" data-filltype="tone" data-stroketype="none" fill="#9d69bc" stroke-width="none" opacity="1" stroke="none"></path><path id="SvgjsPath5694" d="M50.767 179.432c-19.906 5.692-32.87 9.836-42.029 15.092 -4.175 7.794-11.07 18.835-14.845 40.267 -0.052 0.001-0.968-0.093-1.021-0.093 0.093-17.071 7.793-30.803 12.432-41.844 10.206-8.257 32.288-12.34 44.999-14.381C50.34 178.543 50.731 179.366 50.767 179.432zM150.498 179.568c12.711 2.041 31.496 4.167 42.121 10.917 7.375 11.125 11.428 26.836 11.521 43.907 -0.052 0-0.968 0.094-1.021 0.093 -3.774-21.432-8.325-33.206-12.5-41 -9.159-5.256-20.679-7.266-40.585-12.958C150.07 180.462 150.461 179.639 150.498 179.568z" data-colored="true" data-filltype="hl1" data-stroketype="none" fill="#b186cb" stroke-width="none" opacity="1" stroke="none"></path><path id="SvgjsPath5695" d="M119.635 201.16c-1.72-0.976-4.987-1.16-7.002 0.596 0.596-1.756 2.792-3.204 5.675-3.524 9.016 1.769 19.906 13.866 30.706 18.396C138.306 214.798 127.818 205.804 119.635 201.16zM93.667 202.167L92.479 200c-2.057 0.038-6.953 0.482-9.014 2.309 -9.292 8.233-24.119 12.352-30.718 16.655C86.703 209.902 80.203 202.736 93.667 202.167z" data-colored="true" data-filltype="sd2" data-stroketype="none" fill="#78389d" stroke-width="none" opacity="1" stroke="none"></path><path id="SvgjsPath5696" d="M115.619 198.985c-1.493 0.426-3.061 1.553-3.142 1.574 0.389-8.876 4.307-11.191 6.412-16.545 8.523-21.672 5.125-15.237 7.986-33.135 1.941 0.266 3.798 1.415 5.582 3.085 -1.227 9.5-3.84 17-7.646 25.567 4.461-2.522 9.298-5.611 13.672-8.026C129.391 179.69 118.516 187.081 115.619 198.985zM93.475 200.708c-1.059-3.137-5.48-7.747-7.551-10.751 -3.566-5.185-6.529-10.696-10.881-23.596 -0.007-0.147-0.702-11.408-1.848-16.205 -3.646 1.714-3.34 2.955-5.771 7.11 1.958 10.127 5.915 16.565 11.527 24.985 -4.784-3.154-11.462-8.545-18.071-11.847 11.134 8.348 21.139 18.74 28.653 29.804C91.972 199.465 92.066 200.003 93.475 200.708z" data-colored="true" data-filltype="sd1" data-stroketype="none" fill="#8a4fad" stroke-width="none" opacity="1" stroke="none"></path><path id="SvgjsPath5697" d="M193.414 189.487c-8.551-5.06-23.349-8.462-42.541-10.779 0.263-2.481 0.451-4.26 0.454-4.287 -7.108-2.46-15.008-22.473-24.872-23.66 -7.303 44.887-11.722 29.555-15.365 49.24 -0.662 3.579-2.853 32.529-2.965 33.917 -2.574 0.003-5.149 0.006-7.725 0.01 0.547-17.962-6.32-32.084-6.74-32.994 -0.877-3.118-5.549-7.995-7.646-11.038 -5.437-7.907-7.91-15.09-10.862-23.54 0 0-0.482-11.635-1.662-16.356 -5.941 2.726-5.056 6.065-13.979 16.499 -2.523 2.937-5.948 4.17-9.286 6.17 -0.173 1.899-0.199 3.705-0.135 5.452 -34.277 4.349-41.74 11.957-45.889 13.782 -2.94 9.523-12.333 23.334-12.421 43.842 29.629 0 34.064 0.401 123.482 0.081 13.869-0.059 27.733-0.134 41.604-0.223 20.477-0.12 48.669 0.467 48.669 0.467C205.536 214.739 200.869 201.902 193.414 189.487zM117.634 186.921c6.985-13.686 6.985-16.936 9.68-35.623 8.454 2.822 16.191 20.952 23.12 23.187 -4.939 25.516-2.263 35.379-1.91 41.354 -2.575-1.386-4.559-2.651-7.061-4.148 -7.721-4.629-13.066-10.239-21.258-13.583 -2.219-0.936-5.408 0.459-7.36 1.894C113.922 190.583 115.012 192.058 117.634 186.921zM119.286 198.722c0.002-0.015 0.005-0.027 0.007-0.041C119.565 198.637 119.409 198.677 119.286 198.722zM112.756 202.773c0.389-1.978 3.374-3.115 4.863-3.621 -1.926 8.558-4.446 20.08-4.495 34.762 -1.249 0.001-2.499 0.002-3.749 0.003C109.483 232.632 111.173 210.838 112.756 202.773zM98.931 233.931c-0.79 0.001-1.579 0.003-2.369 0.004 1.111-12.801-5.605-23.81-8.693-33.038 0.806-0.082 3.21-0.736 3.875-0.622C93.387 201.514 100.999 221.875 98.931 233.931zM60.03 167.448c9.546-10.978 7.557-13.666 12.843-16.896 0.331 3.15 0.595 6.323 0.761 9.506 0.563 11.263-0.939 3.57 3.492 15.177 6.513 17.058 12.336 18.518 15.318 24.367 -10.575-0.741-12.118 7.192-21.631 10.363 -8.755 3.447-6.354 1.844-18.373 8.736 3.358-23.819-1.74-34.836-1.74-45.571C54.159 171.341 57.48 170.367 60.03 167.448zM-6.797 234.569c1.667-20.667 9.704-34.022 13-41.333 4.645-2.986 20.026-10.925 43.921-14.394 0.336 6.598 1.925 12.369 2.053 18.93 0.238 6.276 0.213 14.08-0.253 21.732 4.45-2.042 8.725-4.477 13.68-6.258 13.805-5.006 11.434-6.111 18.043-10.674 1.583-1.104 1.344-1.118 2.722-1.463 2.565 7.987 10.662 18.897 8.807 32.827C59.931 234.008 24.849 234.226-6.797 234.569zM114.609 233.914c-0.317-12.454 2.644-23.005 4.664-35.122 4.855 0.064 18.32 13.418 30.146 18.427 0.271-4.209-0.175-12.976-0.175-22.733 -0.004-0.29 0.911-8.994 1.529-14.842 11.277 3.239 29.571 3.27 41.841 11.982 4.922 9.443 10.851 20.048 11.255 42.61C175.918 234.002 145.432 233.899 114.609 233.914z" data-colored="true" data-filltype="sd3" data-stroketype="none" fill="#67258e" stroke-width="none" opacity="1" stroke="none"></path></g><g id="svga-group-head" data-updown="0" data-leftright="0" data-dist="0" data-scaleX="1" data-scaleY="1" data-rotate="0"><g id="svga-group-ears-left" data-updown="0" data-leftright="0" data-dist="0" data-scaleX="1" data-scaleY="1" data-rotate="0"><path id="SvgjsPath5703" d="M47.34 82.506c-1.378-2.405-9.403-6.675-11.855-6.501 -4.229 0.299-5.137 5.269-5.446 7.648 -0.609 4.696 0.645 10 1.485 13.201 0.687 2.615 2.874 7.578 4.214 9.883 1.197 2.062 4.145 5.792 5.733 7.525 1.398 1.529 4.73 4.311 7.248 3.632 2.769-0.744 6.015-3.945 6.239-5.312C56.165 105.172 50.926 88.763 47.34 82.506z" data-colored="true" data-filltype="tone" data-stroketype="sd3" fill="#050505" stroke="#000000" stroke-width="1.5" opacity="1"></path><path id="SvgjsPath5704" d="M42.903 99.38c-0.142-0.584 0.007-1.569 0.151-2.521 0.131-0.868 0.255-1.686 0.18-2.265 -0.284-2.169-1.888-6.29-2.936-8.524 -1.206-2.568-3.157-5.803-5.602-6.639 -1.011-0.346-2.073-0.522-2.145-0.241 -0.611 1.943-0.563 7.341-0.212 11.338 0.987 11.242 10.375 19.34 11.872 21.045 0.276 0.314 0.566 0.501 0.637 0.426 0.072-0.076-0.1-0.388-0.375-0.704 -1.477-1.692-8.314-8.684-9.27-13.098 -1.012-4.685 3-12.386 3.776-13.855 0.397 0.69 0.732 1.352 0.991 1.904 0.204 0.434 0.429 0.941 0.66 1.489 -0.456 0.767-3.656 6.36-2.489 10.836 0.431 1.651 2.379 3.778 3.67 4.362 0.71 0.321 0.978 0.801 1.287 1.355 0.359 0.645 0.765 1.374 1.946 1.903 0.24 0.108 0.457 0.151 0.649 0.151 0.333 0 0.586-0.135 0.773-0.295 0.019 0.282-0.349 2.52-0.357 2.853 -0.012 0.431 0.045 0.787 0.146 0.796 0.101 0.008 0.207-0.334 0.221-0.766 0.016-0.529 0.379-3.061 0.289-3.372 -0.264-0.923-1.073-1.964-1.93-3.068C43.994 101.407 43.122 100.284 42.903 99.38zM34.428 95.416c-2.316-7.184 1.456-13.479 1.977-14.464 0.906 0.826 1.704 1.932 2.354 3.015C38.286 84.83 34.526 90.584 34.428 95.416zM45.187 105.831c-1.069-0.479-1.427-1.12-1.774-1.742 -0.313-0.562-0.637-1.143-1.458-1.515 -0.179-0.082-0.375-0.204-0.576-0.346 -2.646-6.304 0.289-9.059 1.025-9.625 0.226 0.771 0.394 1.478 0.468 2.045 0.067 0.521-0.058 1.348-0.179 2.148 -0.149 0.992-0.305 2.018-0.144 2.681 0.239 0.989 1.137 2.146 2.005 3.263 0.771 0.993 1.562 2.015 1.832 2.849C46.271 105.757 45.905 106.155 45.187 105.831z" data-colored="true" data-filltype="sd3" data-stroketype="none" fill="#000000" stroke-width="none" opacity="1" stroke="none"></path></g><g id="svga-group-ears-right" data-updown="0" data-leftright="0" data-dist="0" data-scaleX="1" data-scaleY="1" data-rotate="0"><path id="SvgjsPath5705" d="M152.398 82.506c1.377-2.405 9.402-6.675 11.855-6.501 4.229 0.299 5.137 5.269 5.445 7.648 0.609 4.696-0.645 10-1.484 13.201 -0.688 2.615-2.875 7.578-4.215 9.883 -1.197 2.062-4.145 5.792-5.732 7.525 -1.398 1.529-4.73 4.311-7.248 3.632 -2.77-0.744-6.016-3.945-6.238-5.312C143.574 105.172 148.813 88.763 152.398 82.506z" data-colored="true" data-filltype="tone" data-stroketype="sd3" fill="#050505" stroke="#000000" stroke-width="1.5" opacity="1"></path><path id="SvgjsPath5706" d="M154.902 102.491c-0.855 1.104-1.666 2.146-1.93 3.068 -0.09 0.312 0.273 2.843 0.289 3.372 0.014 0.432 0.119 0.773 0.221 0.766 0.102-0.009 0.158-0.365 0.146-0.796 -0.01-0.333-0.377-2.57-0.357-2.853 0.188 0.16 0.439 0.295 0.771 0.295 0.193 0 0.41-0.043 0.65-0.151 1.182-0.53 1.588-1.259 1.945-1.903 0.311-0.555 0.578-1.034 1.287-1.355 1.291-0.584 3.24-2.711 3.67-4.362 1.168-4.476-2.031-10.07-2.488-10.836 0.23-0.548 0.457-1.056 0.66-1.489 0.26-0.552 0.594-1.214 0.99-1.904 0.777 1.469 4.789 9.17 3.777 13.855 -0.955 4.415-7.793 11.406-9.27 13.098 -0.275 0.316-0.447 0.628-0.375 0.704 0.072 0.075 0.361-0.111 0.637-0.426 1.498-1.705 10.885-9.803 11.873-21.045 0.35-3.997 0.396-9.395-0.213-11.338 -0.072-0.281-1.135-0.104-2.145 0.241 -2.445 0.836-4.396 4.071-5.604 6.639 -1.047 2.234-2.65 6.354-2.936 8.524 -0.076 0.579 0.049 1.397 0.18 2.265 0.145 0.951 0.293 1.936 0.15 2.521C156.617 100.284 155.744 101.407 154.902 102.491zM160.979 83.966c0.65-1.083 1.449-2.188 2.355-3.015 0.52 0.986 4.291 7.28 1.977 14.464C165.211 90.584 161.453 84.83 160.979 83.966zM153.352 105.59c0.271-0.834 1.063-1.856 1.832-2.849 0.869-1.118 1.766-2.274 2.006-3.263 0.16-0.663 0.006-1.689-0.145-2.681 -0.121-0.8-0.246-1.627-0.178-2.148 0.074-0.567 0.242-1.273 0.467-2.045 0.736 0.566 3.672 3.321 1.025 9.625 -0.201 0.142-0.396 0.264-0.576 0.346 -0.82 0.372-1.145 0.953-1.457 1.515 -0.348 0.622-0.705 1.263-1.775 1.742C153.834 106.155 153.467 105.757 153.352 105.59z" data-colored="true" data-filltype="sd3" data-stroketype="none" fill="#000000" stroke-width="none" opacity="1" stroke="none"></path></g><g id="svga-group-faceshape-wrap" data-updown="0" data-leftright="0" data-dist="0" data-scaleX="1" data-scaleY="1" data-rotate="0"><g id="svga-group-faceshape-single" data-updown="0" data-leftright="0" data-dist="0" data-scaleX="1" data-scaleY="1" data-rotate="0"><path id="SvgjsPath5669" d="M100.002 0.867C66.384 0.92 39.082 28.536 39.134 62.56c0.009 5.403 0.704 10.643 2.002 15.634h0.001c0.012 0.054 8.12 35.809 11.82 47.522 2.775 8.787 14.288 21.989 22.398 25.322 7.826 3.217 13.039 9.828 24.646 9.828s16.82-6.611 24.646-9.828c8.11-3.333 19.624-16.535 22.398-25.322 3.7-11.713 11.809-47.468 11.819-47.522h0.002c1.298-4.992 1.994-10.231 2.002-15.634C160.923 28.536 133.62 0.92 100.002 0.867z" data-colored="true" data-filltype="tone" data-stroketype="sd3" fill="#050505" stroke="#000000" stroke-width="0.5" opacity="1"></path><path id="SvgjsPath5670" d="M140.727 16.737c10.424 11.164 16.867 26.574 16.844 43.586 -0.009 5.403-0.666 10.643-1.894 15.634h-0.001c-0.011 0.054-7.681 35.809-11.18 47.522 -2.623 8.788-13.515 21.989-21.184 25.322 -7.403 3.216-12.333 9.829-23.31 9.829 -10.978 0-15.908-6.613-23.309-9.829 -7.671-3.333-18.56-16.534-21.184-25.322 -3.5-11.713-11.168-47.468-11.18-47.522h-0.001c-1.229-4.992-1.886-10.231-1.894-15.634 -0.025-17.011 6.418-32.419 16.84-43.583C46.893 28.034 39.106 44.38 39.134 62.56c0.009 5.403 0.704 10.643 2.002 15.634h0.001c0.012 0.054 8.12 35.809 11.82 47.522 2.775 8.787 14.288 21.989 22.398 25.322 7.826 3.217 13.039 9.828 24.646 9.828s16.82-6.611 24.646-9.828c8.11-3.333 19.624-16.535 22.398-25.322 3.7-11.713 11.809-47.468 11.819-47.522h0.002c1.298-4.992 1.994-10.231 2.002-15.634C160.898 44.378 153.111 28.031 140.727 16.737z" data-colored="true" data-filltype="tone" data-stroketype="none" fill="#050505" stroke="none" opacity="1"></path><path id="SvgjsPath5671" d="M100.002 0.867C66.384 0.92 39.082 28.536 39.134 62.56c0.009 5.403 0.704 10.643 2.002 15.634h0.001c0.012 0.054 8.12 35.809 11.82 47.522 2.775 8.787 14.288 21.989 22.398 25.322 7.826 3.217 13.039 9.828 24.646 9.828s16.82-6.611 24.646-9.828c8.11-3.333 19.624-16.535 22.398-25.322 3.7-11.713 11.809-47.468 11.819-47.522h0.002c1.298-4.992 1.994-10.231 2.002-15.634C160.923 28.536 133.62 0.92 100.002 0.867z" data-colored="true" data-filltype="tone" data-stroketype="#c27b55" fill="#050505" stroke="#050505" opacity="1"></path></g></g><g id="svga-group-eyes-left" data-updown="0" data-leftright="24.000002400000007" data-dist="0" data-scaleX="2.0131000000000006" data-scaleY="2.0131000000000006" data-rotate="0" transform="matrix(2.0120000000000005 0 0 2.0120000000000005 -98.61636876741937 -86.1211984558106) translate(24.000002300000006 0)"><g id="svga-group-eyesback-left"><path id="SvgjsPath5745" d="M59.782 80.154c0 3.552 5.88 11.295 15.32 11.458 7.043 0.123 12.184-3.747 12.184-7.301 0-3.552-1.83-5.008-12.283-4.747C67.962 79.742 58.67 78.157 59.782 80.154z" data-colored="false" data-filltype="gradient" data-stroketype="none" fill="url(#SvgjsRadialGradient5746)" opacity="1"></path></g><g id="svga-group-eyesiriswrapper-left" transform="translate(0.5 0)"><g id="svga-group-eyesiriscontrol-left" data-updown="0" data-leftright="0" data-dist="0" data-scaleX="1" data-scaleY="1" data-rotate="0"><g id="svga-group-eyesiris-left" data-updown="0" data-leftright="0" data-dist="0" data-scaleX="1" data-scaleY="1" data-rotate="0"><path id="SvgjsPath5725" d="M79.788 85.588c-0.869 3.192-4.16 5.073-7.358 4.196 -3.195-0.876-5.083-4.178-4.212-7.371 0.868-3.195 4.167-5.076 7.362-4.198C78.773 79.09 80.658 82.392 79.788 85.588z" data-colored="true" data-filltype="tone" data-stroketype="sd3" fill="#104ba9" stroke="#002f7b" stroke-width="0.5" opacity="1"></path><path id="SvgjsPath5726" d="M73.265 80.413l-0.156-0.279c-0.548 0.218-1.076 0.445-1.575 0.687l0.37 0.894 -0.047 0.517 -1.426-0.839c-0.466 0.259-0.898 0.529-1.318 0.804l0.004 0.009 -0.489 0.55 0.781 0.799 -1.052 0.574 0.398 0.657 1.857 0.185 -1.741 1.181 1.863-0.103 -0.982 1.693 2.297-1.39 -0.618 2.364 1.329-2.184 0.256 2.343 0.384-2.072 0.353-0.043 0.5 2.35 0.152-0.705c0.201-0.052 0.718 0.704 0.915 0.651L74.736 86.5l1.282 2.556 -0.52-2.651 1.578 2.05c0.057-0.018 0.196-0.85 0.252-0.867l-0.982-1.469 1.785 0.539 -1.071-1.16 -0.86-0.712 3.586 0.803 -1.997-1.217 1.411-0.577 -3.055-0.309 3.021-1.602 -2.734 0.698 -0.736-0.399 -0.181-0.354 0.052-0.846 0.061-1.389 -1.248 2.198 -0.11-1.609 -0.157-0.421c-0.25 0.087-0.495 0.172-0.736 0.265L73.265 80.413z" data-colored="true" data-filltype="hl1" data-stroketype="none" fill="#245db8" stroke-width="none" opacity="1" stroke="none"></path><path id="SvgjsPath5727" d="M79.856 82.755c-5.242 0.239-7.907 1.36-11.707 2.631 -0.732-3.229 1.298-6.438 4.53-7.164S79.125 79.525 79.856 82.755z" data-colored="true" data-filltype="sd1" data-stroketype="none" fill="#003b9a" stroke-width="none" opacity="0.9" stroke="none"></path><path id="SvgjsPath5728" d="M74.869 81.998c-1.319-0.378-2.666 0.375-3.005 1.69 -0.342 1.308 0.452 2.678 1.771 3.056 1.32 0.379 2.667-0.375 3.009-1.684C76.987 83.745 76.19 82.376 74.869 81.998z" data-colored="false" data-filltype="#000000" data-stroketype="none" fill="#000000" stroke-width="none" opacity="0.8"></path><path id="SvgjsPath5729" d="M74.869 81.998c-1.319-0.378-2.666 0.375-3.005 1.69 -0.342 1.308 0.452 2.678 1.771 3.056 1.32 0.379 2.667-0.375 3.009-1.684C76.987 83.745 76.19 82.376 74.869 81.998z" data-colored="true" data-filltype="none" data-stroketype="sd3" fill="none" stroke="#002f7b" stroke-width="0.75" opacity="1"></path><path id="SvgjsPath5730" d="M69.631 87.56c0.613 0.973 1.426 1.706 2.578 1.95 1.326 0.281 1.477-1.483 0.528-1.685 -0.72-0.152-1.176-0.505-1.552-1.102C70.497 85.63 69.079 86.684 69.631 87.56L69.631 87.56z" data-colored="false" data-filltype="#ffffff" data-stroketype="none" fill="#ffffff" stroke-width="none" opacity="0.4"></path><path id="SvgjsPath5731" d="M75.033 81.493c0.929 0.187 1.469 0.768 1.938 1.64 0.862 1.604 3.299 0.178 2.437-1.425 -0.757-1.408-2.019-2.613-3.625-2.938C73.726 78.355 73.438 81.171 75.033 81.493L75.033 81.493z" data-colored="false" data-filltype="gradient" data-stroketype="none" fill="url(#SvgjsLinearGradient5732)" opacity="1"></path></g></g></g><g id="svga-group-eyesfront-left"><path id="SvgjsPath5770" d="M73.8 63.098c-10.217 0-20.628 5.505-20.07 22 0.106 3.15 9.854 22.004 20.07 22.004s19.5-5.292 19.5-22.003C93.3 67.31 84.017 63.098 73.8 63.098zM75.103 91.612c-9.44-0.163-15.32-7.906-15.32-11.458 -1.112-1.997 8.18-0.412 15.221-0.589 10.453-0.261 12.283 1.195 12.283 4.747C87.286 87.865 82.146 91.735 75.103 91.612z" data-colored="true" data-filltype="tone" data-stroketype="none" data-fromskin="true" fill="#050505" stroke-width="none" opacity="1" stroke="none"></path><path id="SvgjsPath5771" d="M58.8 83.338c1.352 7.412 8.545 13.677 17.936 13.64 9.389-0.043 16.986-6.179 16.961-13.713 -0.023-7.533-7.646-13.605-17.039-13.566C67.265 69.743 57.445 75.91 58.8 83.338zM75.003 79.564c10.453-0.261 12.283 1.195 12.283 4.747 0 3.554-5.141 7.423-12.184 7.301 -9.44-0.163-15.32-7.906-15.32-11.458C58.67 78.157 67.962 79.742 75.003 79.564z" data-colored="false" data-filltype="gradient" data-stroketype="none" data-fromskin="true" fill="url(#SvgjsRadialGradient5772)" opacity="1"></path><path id="SvgjsPath5776" d="M88.286 84.312c0-3.552-2.83-5.008-13.283-4.747 -2.826 0.071-6.013-0.141-8.746-0.292 -1.321-0.058-2.62-0.11-3.879-0.136 -1.918 0.014-5.022 0.252-4.596 1.018 0 3.552 7.88 11.295 17.32 11.458C82.146 91.735 88.286 87.865 88.286 84.312z" data-colored="false" data-filltype="gradient" data-stroketype="none" fill="url(#SvgjsRadialGradient5777)" opacity="1"></path><path id="SvgjsPath5780" d="M85.282 77.731l-2.203-1.308 -14.833-0.24c4.185 0.378 7.805 0.588 14.763 0.648L85.282 77.731z" data-colored="true" data-filltype="sd3" data-stroketype="none" data-fromskin="true" fill="#000000" stroke-width="none" opacity="1" stroke="none"></path><path id="SvgjsPath5781" d="M84.116 80.285c-8.54 0.143-14.196 0.14-24.105-0.622 0.348 1.872 0.926 3.215 1.795 5.207 -1.956-2.832-3.342-4.561-4.507-7.138 10.536 0.781 17.356 1.315 27.309 1.342l3.691 3.372L84.116 80.285zM85.554 88.437c-8.885 3.274-13.098 4.615-21.361-0.982C68.829 93.348 80.101 92.856 85.554 88.437z" data-colored="true" data-filltype="tone" data-stroketype="none" fill="#092e0c" stroke-width="none" opacity="1" stroke="none"></path></g></g><g id="svga-group-eyes-right" data-updown="0" data-leftright="-24.000002400000007" data-dist="0" data-scaleX="2.0131000000000006" data-scaleY="2.0131000000000006" data-rotate="0" transform="matrix(2.0120000000000005 0 0 2.0120000000000005 -103.37984499295669 -86.1211984558106) translate(-24.000002300000006 0)"><g id="svga-group-eyesback-right"><path id="SvgjsPath5753" d="M139.818 80.154c0 3.552-5.88 11.295-15.32 11.458 -7.043 0.123-12.184-3.747-12.184-7.301 0-3.552 1.83-5.008 12.283-4.747C131.639 79.742 140.931 78.157 139.818 80.154z" data-colored="false" data-filltype="gradient" data-stroketype="none" fill="url(#SvgjsRadialGradient5754)" opacity="1"></path></g><g id="svga-group-eyesiriswrapper-right" transform="translate(-0.5 0)"><g id="svga-group-eyesiriscontrol-right" data-updown="0" data-leftright="0" data-dist="0" data-scaleX="1" data-scaleY="1" data-rotate="0"><g id="svga-group-eyesiris-right" data-updown="0" data-leftright="0" data-dist="0" data-scaleX="1" data-scaleY="1" data-rotate="0"><path id="SvgjsPath5735" d="M131.788 85.587c-0.869 3.193-4.16 5.074-7.358 4.196 -3.195-0.876-5.082-4.178-4.212-7.371 0.867-3.195 4.167-5.076 7.361-4.198C130.774 79.091 132.658 82.393 131.788 85.587z" data-colored="true" data-filltype="tone" data-stroketype="sd3" fill="#104ba9" stroke="#002f7b" stroke-width="0.5" opacity="1"></path><path id="SvgjsPath5736" d="M125.266 80.413l-0.155-0.278c-0.548 0.217-1.076 0.445-1.576 0.686l0.37 0.894 -0.047 0.517 -1.426-0.839c-0.467 0.259-0.898 0.529-1.317 0.804l0.004 0.009 -0.49 0.551 0.782 0.799 -1.052 0.573 0.397 0.657 1.857 0.185 -1.741 1.181 1.863-0.103 -0.982 1.692 2.296-1.39 -0.616 2.364 1.328-2.184 0.257 2.343 0.384-2.073 0.353-0.043 0.501 2.35 0.151-0.704c0.201-0.052 0.719 0.703 0.915 0.651l-0.585-2.556 1.283 2.556 -0.521-2.651 1.577 2.05c0.057-0.018 0.197-0.85 0.253-0.867l-0.982-1.469 1.786 0.538 -1.071-1.16 -0.859-0.712 3.586 0.802 -1.997-1.216 1.411-0.577 -3.054-0.308 3.021-1.603 -2.734 0.698 -0.736-0.399 -0.18-0.354 0.052-0.847 0.061-1.388 -1.247 2.198 -0.11-1.609 -0.156-0.422c-0.25 0.087-0.495 0.173-0.735 0.265L125.266 80.413z" data-colored="true" data-filltype="hl1" data-stroketype="none" fill="#245db8" stroke-width="none" opacity="1" stroke="none"></path><path id="SvgjsPath5737" d="M131.855 82.755c-5.24 0.239-7.906 1.36-11.706 2.631 -0.731-3.229 1.298-6.438 4.53-7.164C127.911 77.495 131.126 79.525 131.855 82.755z" data-colored="true" data-filltype="sd1" data-stroketype="none" fill="#003b9a" stroke-width="none" opacity="0.9" stroke="none"></path><path id="SvgjsPath5738" d="M126.87 81.998c-1.319-0.378-2.666 0.376-3.005 1.69 -0.343 1.308 0.451 2.678 1.77 3.056 1.322 0.379 2.668-0.375 3.009-1.684C128.987 83.745 128.189 82.376 126.87 81.998z" data-colored="false" data-filltype="#000000" data-stroketype="none" fill="#000000" stroke-width="none" opacity="0.8"></path><path id="SvgjsPath5739" d="M126.87 81.998c-1.319-0.378-2.666 0.376-3.005 1.69 -0.343 1.308 0.451 2.678 1.77 3.056 1.322 0.379 2.668-0.375 3.009-1.684C128.987 83.745 128.189 82.376 126.87 81.998z" data-colored="true" data-filltype="none" data-stroketype="sd3" fill="none" stroke="#002f7b" stroke-width="0.75" opacity="1"></path><path id="SvgjsPath5740" d="M121.632 87.56c0.612 0.973 1.426 1.706 2.577 1.95 1.326 0.281 1.478-1.482 0.528-1.685 -0.72-0.152-1.177-0.504-1.552-1.102C122.498 85.63 121.079 86.684 121.632 87.56L121.632 87.56z" data-colored="false" data-filltype="#ffffff" data-stroketype="none" fill="#ffffff" stroke-width="none" opacity="0.4"></path><path id="SvgjsPath5741" d="M127.034 81.493c0.929 0.187 1.469 0.767 1.938 1.639 0.862 1.604 3.3 0.178 2.437-1.425 -0.757-1.408-2.018-2.613-3.625-2.938C125.727 78.355 125.438 81.171 127.034 81.493L127.034 81.493z" data-colored="false" data-filltype="gradient" data-stroketype="none" fill="url(#SvgjsLinearGradient5742)" opacity="1"></path></g></g></g><g id="svga-group-eyesfront-right"><path id="SvgjsPath5791" d="M106.301 85.099c0 16.711 9.283 22.003 19.5 22.003s19.964-18.854 20.07-22.004c0.558-16.495-9.854-22-20.07-22S106.301 67.31 106.301 85.099zM112.314 84.312c0-3.552 1.83-5.008 12.283-4.747 7.041 0.178 16.333-1.408 15.221 0.589 0 3.552-5.88 11.295-15.32 11.458C117.455 91.735 112.314 87.865 112.314 84.312z" data-colored="true" data-filltype="tone" data-stroketype="none" data-fromskin="true" fill="#050505" stroke-width="none" opacity="1" stroke="none"></path><path id="SvgjsPath5792" d="M122.943 69.699c-9.393-0.04-17.016 6.033-17.039 13.566 -0.025 7.535 7.572 13.67 16.961 13.713 9.391 0.037 16.584-6.228 17.936-13.64C142.155 75.91 132.336 69.743 122.943 69.699zM139.818 80.154c0 3.552-5.88 11.295-15.32 11.458 -7.043 0.123-12.184-3.747-12.184-7.301 0-3.552 1.83-5.008 12.283-4.747C131.639 79.742 140.931 78.157 139.818 80.154z" data-colored="false" data-filltype="gradient" data-stroketype="none" data-fromskin="true" fill="url(#SvgjsRadialGradient5793)" opacity="1"></path><path id="SvgjsPath5797" d="M111.314 84.312c0-3.552 2.83-5.008 13.283-4.747 2.826 0.071 6.013-0.141 8.746-0.292 1.321-0.058 2.62-0.11 3.879-0.136 1.918 0.014 5.022 0.252 4.596 1.018 0 3.552-7.88 11.295-17.32 11.458C117.455 91.735 111.314 87.865 111.314 84.312z" data-colored="false" data-filltype="gradient" data-stroketype="none" fill="url(#SvgjsRadialGradient5798)" opacity="1"></path><path id="SvgjsPath5801" d="M114.318 77.731l2.203-1.308 14.833-0.24c-4.185 0.378-7.805 0.588-14.763 0.648L114.318 77.731z" data-colored="true" data-filltype="sd3" data-stroketype="none" data-fromskin="true" fill="#000000" stroke-width="none" opacity="1" stroke="none"></path><path id="SvgjsPath5802" d="M111.302 82.446l3.691-3.372c9.952-0.027 16.772-0.561 27.309-1.342 -1.165 2.578-2.551 4.307-4.507 7.138 0.869-1.992 1.447-3.335 1.795-5.207 -9.909 0.762-15.565 0.765-24.105 0.622L111.302 82.446zM135.408 87.455c-8.264 5.598-12.477 4.257-21.361 0.982C119.5 92.856 130.771 93.348 135.408 87.455z" data-colored="true" data-filltype="tone" data-stroketype="none" fill="#092e0c" stroke-width="none" opacity="1" stroke="none"></path></g></g><g id="svga-group-facehighlight-single" data-updown="0" data-leftright="0" data-dist="0" data-scaleX="1" data-scaleY="1" data-rotate="0"><path id="SvgjsPath5680" d="M141 113.974c0.035 22.622-18.292 40.994-40.938 41.025 -22.642 0.037-41.028-18.273-41.063-40.9 -0.035-22.62 18.292-41.064 40.937-41.1C122.579 72.964 140.967 91.349 141 113.974z" data-colored="false" data-filltype="gradient" data-stroketype="none" data-fromskin="true" fill="url(#SvgjsRadialGradient5681)" opacity="1"></path><path id="SvgjsPath5684" d="M137.5 53.999c0 20.711-16.789 37.5-37.499 37.5 -20.711 0-37.501-16.789-37.501-37.5s16.79-37.5 37.501-37.5C120.711 16.499 137.5 33.288 137.5 53.999z" data-colored="false" data-filltype="gradient" data-stroketype="none" data-fromskin="true" fill="url(#SvgjsRadialGradient5685)" opacity="1"></path></g><g id="svga-group-nose-single" data-updown="0" data-leftright="0" data-dist="0" data-scaleX="1" data-scaleY="1" data-rotate="0"><path id="SvgjsPath5811" d="M99.979 120.982c-2.599-0.079-7.224-2.758-6.672-5.166 0.511-2.238 3.422 0.816 6.766 0.844 3.343 0.027 7.336-1.967 7.806 0.277C108.636 120.561 104.166 121.112 99.979 120.982z" data-colored="true" data-filltype="sd05" data-stroketype="none" data-fromskin="true" fill="#000000" stroke-width="none" opacity="1" stroke="none"></path><path id="SvgjsPath5812" d="M105.793 119.62c0.21 0.275 0.572 0.275 0.797-0.002 0.231-0.277 0.243-0.727 0.027-1.001 -1.568-2.021-4.39 0.688-4.177 0.969C102.519 119.691 104.608 118.113 105.793 119.62zM94.106 114.477c0.329 2.148 1.012 5.016 6.507 6.519 -5.417-0.161-8.937-1.169-8.908-6.206 0.015-2.549 2.678-7.79 2.678-7.79S93.758 112.207 94.106 114.477z" data-colored="true" data-filltype="sd3" data-stroketype="none" data-fromskin="true" fill="#000000" stroke-width="none" opacity="1" stroke="none"></path></g><g id="svga-group-mouth-single" data-updown="-10.000001" data-leftright="0" data-dist="0" data-scaleX="1" data-scaleY="1" data-rotate="0" transform="translate(0 -10.0000009)"><path id="SvgjsPath6883" d="M86.382,137.866c0.47-0.232,8.126-5.995,8.871-6.102c0.744-0.108,10.019-0.19,10.019-0.19
		s5.816,1.06,6.27,1.428c0.454,0.369,4.637,3.687,5.097,3.815c0.46,0.128,0.489,2.654,0.489,2.654s-1.343,1.781-2.82,1.515
		c-1.477-0.265-23.688,1.642-23.688,1.642l-3.934-2.112L86.382,137.866z" data-colored="false" data-filltype="#ffffff" data-stroketype="none" data-author="openvectorstock.com" fill="#ffffff" stroke-width="none"></path><path id="SvgjsPath6884" d="M93.638,134.932c0,0,0.358,3.053,1.067,3.609c0.579,0.012,0.579,0.012,0.579,0.012s-0.658-2.585-0.48-3.936
		C94.512,134.746,93.638,134.932,93.638,134.932z" data-colored="false" data-filltype="#a2a4a7" data-stroketype="none" fill="#a2a4a7" stroke="none"></path><path id="SvgjsPath6885" d="M100.249,133.945c0,0,0.875-0.241,1.061,0.988c0.186,1.228-0.311,3.732-0.311,3.732l0.728-0.179
		l0.166-3.735c0,0-0.199-0.713,1.32-0.684C102.786,133.801,100.249,133.945,100.249,133.945z" data-colored="false" data-filltype="#a2a4a7" data-stroketype="none" fill="#a2a4a7" stroke="none"></path><path id="SvgjsPath6886" d="M108.688,135.141c0,0,0.093,2.064-0.147,2.962c-0.24,0.898-0.24,0.898-0.24,0.898l0.582-0.117
		c0,0,0.373-3.344,1.1-3.459C109.34,135.089,108.688,135.141,108.688,135.141z" data-colored="false" data-filltype="#a2a4a7" data-stroketype="none" fill="#a2a4a7" stroke="none"></path><path id="SvgjsPath6887" d="M112.683,137.475c0,0-0.603,0.955-2.56,1.045c-1.956,0.091-1.812,0.094-1.524,0.164
		c0.288,0.07,3.905,0.141,5.067-0.03c1.162-0.17,0.605-1.019,0.605-1.019l-0.927-0.533L112.683,137.475z" data-colored="false" data-filltype="#a2a4a7" data-stroketype="none" fill="#a2a4a7" stroke="none"></path><path id="SvgjsPath6888" d="M90.541,137.235c0,0-0.535,1.15,1.122,1.44c-3.189,0.196-3.189,0.196-3.189,0.196l-0.622-1.172l2.188-0.666
		C90.04,137.032,90.702,136.594,90.541,137.235z" data-colored="false" data-filltype="#a2a4a7" data-stroketype="none" fill="#a2a4a7" stroke="none"></path><path id="SvgjsPath6889" d="M82.834,138.631c0,0,3.242-2.678,5.637-0.805c0.971,0.76,1.539,0.898,2.752,0.759
		c3.93-0.452,7.168-0.03,10.372-0.044c2.008-0.009,3.61-0.199,5.509-0.28c4.504-0.193,6.289-0.482,7.376-0.525
		c1.087-0.044,4.384,1.47,5.553,1.042c-0.087,0.579-0.231,0.576-1.264,1.329c-1.033,0.754-2.485,6.719-12.996,7.351
		c-4.063,0.371-11.799,0.027-12.372-0.178c-0.574-0.205-7.046-1.878-8.447-3.71C83.552,141.739,80.732,138.718,82.834,138.631z" data-colored="true" data-filltype="tone" data-stroketype="none" fill="#f00606" stroke-width="none"></path><path id="SvgjsPath6890" d="M89.692,137.519c0,0,2.587-1.742,4.386-1.659c0.441-0.699,3.65-1.91,7.391-1.082
		c0.809-0.55,4.785-0.661,7.284,1.039c0.905-0.172,3.321,0.678,4.408,1.69c1.065-0.262,2.284-0.239,1.92-0.528
		c-0.364-0.29-6.862-3.059-7.021-3.109c-0.157-0.05-10.466-0.912-10.466-0.912l-3.414,0.924c0,0-3.013,1.828-3.172,1.825
		c-0.159-0.003-2.798,1.737-2.639,1.74C88.529,137.449,89.692,137.519,89.692,137.519z" data-colored="false" data-filltype="#909295" data-stroketype="none" fill="#909295" stroke="none"></path><path id="SvgjsPath6891" d="M82.834,138.631c0,0,3.862-0.008,5.889,0.533c2.027,0.541,3.514,0.194,5.979,0.117
		c2.465-0.077,4.283,0.397,7.244,0.205c2.961-0.193,7.047-0.364,9.305-0.57c2.258-0.206,7.329-0.358,8.449-0.148
		c-1.313-0.966-4.553-0.841-6.531-0.567c-1.978,0.275-9.237,0.697-11.137,0.66c-1.9-0.037-7.385-0.207-9.292,0.069
		c-1.908,0.276-3.589-0.007-4.421-0.525c-0.832-0.518-0.389-1.324-1.871-1.165C84.967,137.398,82.834,138.631,82.834,138.631z" data-colored="true" data-filltype="sd3" data-stroketype="none" data-fromskin="true" fill="#000000" stroke-width="none"></path><path id="SvgjsPath6892" d="M82.961,136.442c0.266-0.389,2.799-1.943,5.261-4.859c2.462-2.916,5.85-5.235,8.444-4.797
		c2.595,0.437,4.035,0.723,6.437,0.19c2.402-0.533,4.927-0.226,6.996,0.975c2.069,1.2,4.196,5.818,6.471,7.474
		c2.274,1.656,3.991,2.463,3.687,3.037c-0.304,0.574-1.391,0.617-2.114,0.603c-0.724-0.014-4.813-1.447-7.232-3.106
		c-2.419-1.659-8.202-1.965-9.793-1.996c-1.592-0.031-6.666,0.257-8.363,1.577c-1.698,1.32-5.438,3.245-8.549,3.184
		C81.096,138.661,82.135,137.65,82.961,136.442z" data-colored="true" data-filltype="tone" data-stroketype="none" fill="#f00606" stroke-width="none"></path><path id="SvgjsPath6893" d="M89.628,131.16c0,0,3.698-4.315,7.202-3.745c3.505,0.57,6.329,0.25,7.387,0.145
		c1.058-0.105,4.596-0.85,6.017,1.435c1.563,2.224,1.911,2.356,1.911,2.356s-3.379-2.761-5.701-2.807
		c-2.321-0.045-6.269,0.191-7.673,0.038C97.368,128.428,92.655,128.336,89.628,131.16z" data-colored="true" data-filltype="hl05" data-stroketype="none" fill="#f81313" stroke-width="none"></path><path id="SvgjsPath6894" d="M91.794,140.165c0.359-0.023,4.855,0.095,7.037,0.075c2.183-0.02,8.175-0.404,11.201-0.408
		c3.026-0.003,1.951,0.79,0.318,1.323c-1.632,0.532-6.997,1.179-10.582,0.984C96.184,141.943,87.283,140.452,91.794,140.165z" data-colored="true" data-filltype="hl05" data-stroketype="none" fill="#f81313" stroke-width="none"></path><path id="SvgjsPath6895" d="M85.999,143.937c0,0,6.535,3.199,13.082,3.139c6.547-0.06,12.406-0.698,14.481-2.099
		c2.077-1.401,3.252-3.383,3.612-3.689c0.36-0.307-2.531,2.708-5.441,3.654c-2.91,0.946-7.379-0.458-12.036,0.015
		c-4.657,0.473-5.855,0.512-7.956,0.096C89.641,144.635,85.999,143.937,85.999,143.937z" data-colored="true" data-filltype="hl05" data-stroketype="none" fill="#f81313" stroke-width="none"></path><path id="SvgjsPath6896" d="M83.258,138.18c0.282,0.006,3.516,0.131,5.938-1.012c2.422-1.143,4.578-2.919,7.684-3.297
		c-2.532-0.049-3.745,0.616-4.812,1.034c-1.067,0.418-9.394,4.078-8.771,1.709C82.495,137.726,82.554,138.166,83.258,138.18z" data-colored="true" data-filltype="hl05" data-stroketype="none" fill="#f81313" stroke-width="none"></path><path id="SvgjsPath6897" d="M106.586,134.124c-0.485-0.096,3.724,0.261,5.106,1.29c1.381,1.03,6.182,3.255,8.094,2.791
		c-0.858,0.547-2.967,0.443-4.006-0.204C114.739,137.354,108.687,134.541,106.586,134.124z" data-colored="true" data-filltype="hl05" data-stroketype="none" fill="#f81313" stroke-width="none"></path></g><g id="svga-group-eyebrows-left" data-updown="-7.000000700000001" data-leftright="0" data-dist="0" data-scaleX="1" data-scaleY="1" data-rotate="7.5000001" transform="rotate(7.500000200000001 73.64449691772461 62.279998179296875) translate(0 -7.000000600000001)"><path id="SvgjsPath7223" d="M52.488 73.87c7.475-9.383 20.338-7.822 30.878-6.314 2.681 0.384 5.441 0.672 8.07 1.336 1.884 0.475 3.365 2.622 1.851 4.356 -0.708 0.825-2.253 0.672-3.207 0.652C77.459 73.645 63.193 66.387 52.488 73.87z" data-colored="true" data-filltype="#000000" data-stroketype="none" fill="#decfbc" stroke-width="none" opacity="1"></path></g><g id="svga-group-eyebrows-right" data-updown="-7.000000700000001" data-leftright="0" data-dist="0" data-scaleX="1" data-scaleY="1" data-rotate="-7.4999999" transform="rotate(-7.5 126.42899322509766 62.87300049863281) translate(0 -7.000000600000001)"><path id="SvgjsPath7224" d="M147.577 73.49c-2.164-1.448-4.454-2.47-7.043-2.889 -9.497-1.54-27.586 4.79-32.341 3.45 -2.912-0.822-2.323-3.739-1.035-4.458 0.775-0.433 0.99-0.422 7.909-1.612C126.824 65.961 139.988 64.355 147.577 73.49z" data-colored="true" data-filltype="#000000" data-stroketype="none" fill="#decfbc" stroke-width="none" opacity="1"></path></g><g id="svga-group-beardwrap" data-updown="0" data-leftright="0" data-dist="0" data-scaleX="1" data-scaleY="1" data-rotate="0"><g id="svga-group-beard-single" data-updown="0" data-leftright="0" data-dist="0" data-scaleX="1" data-scaleY="1" data-rotate="0"></g></g><g id="svga-group-mustache-single" data-updown="0" data-leftright="0" data-dist="0" data-scaleX="1" data-scaleY="1" data-rotate="0"></g><g id="svga-group-hair-front" data-updown="0" data-leftright="0" data-dist="0" data-scaleX="1" data-scaleY="1" data-rotate="0"><path id="SvgjsPath7076" d="M100.5,120.5h-1v-1h1V120.5z" data-colored="true" data-filltype="tone" data-stroketype="none" fill="#8b52b8" stroke="none"></path><path id="SvgjsPath7078" d="M131.6,20.2c4.5,0.3,7.9,3.1,10.7,8c2.5,4.3,4,9.9,4.8,17c0.2,2.1,0.5,5.3,0.7,9.6c0.5,3.8,1.3,6.7,2.6,9.1
		c2.8,4.8,4.3,9.6,4.6,14.2c0.8,5.8,1,11.3,0.7,16.1c2.8-5.3,4.5-10.6,5.1-16.1c2.1-15.6,0.3-29.5-5.1-41.3
		c-4.1-8.9-9.4-16.5-16-22.8c-7.3-6.9-15.2-11.5-23.6-13.7c-7.4-1.9-15.3-2.7-23.6-1.7c-8.4,0.9-16.2,3.1-23.1,6.4
		C61.9,8.8,56.5,13.2,53,18c-7.1,10.3-11.9,19.9-14,28.5c-3,12.2-2.8,27.3,0.5,45.3l9,13.2c-0.5-5.1-3-9.9-3-15.4
		c-0.2-11.2,1.2-17.7,3.6-20.1c3.6-3.2,6.1-5.5,7.3-6.7c1.8-2.1,2.8-4.3,3.3-6.4c0.5-2.3,0.3-5.7-0.7-10.3c-1.2-5-1.5-8.5-1.2-10.6
		c0.5-2.9,1.7-5.1,3.1-6.7c2.5-3.1,5.9-5,10.4-6.2c4.1-1,8.1-1.2,11.9-0.3c13.4,2.7,25.1,2.9,35,0.3C124.8,20.9,129.4,20,131.6,20.2
		L131.6,20.2z" data-colored="true" data-filltype="tone" data-stroketype="none" fill="#8b52b8" stroke="none"></path><path id="SvgjsPath7079" d="M75.4,4.1c2.9-3.8,8-3.6,12.5-1.6C82.7-1.2,78.1-0.9,75.4,4.1z" data-colored="true" data-filltype="sd2" data-stroketype="none" fill="#662699" stroke="none"></path><path id="SvgjsPath7080" d="M43,65.5c-2-4.4,0.3-9.3,3.8-12.9C41.5,56.2,39.9,60.8,43,65.5z" data-colored="true" data-filltype="sd2" data-stroketype="none" fill="#662699" stroke="none"></path><path id="SvgjsPath7081" d="M152.2,39.4c3.8,2.7,4.2,8.2,2.9,13.3C158,46.7,157.2,41.8,152.2,39.4z" data-colored="true" data-filltype="sd2" data-stroketype="none" fill="#662699" stroke="none"></path><path id="SvgjsPath7082" d="M90.1,2c2.9-3.8,8-3.6,12.5-1.6C97.4-3.3,92.8-3,90.1,2z" data-colored="true" data-filltype="sd2" data-stroketype="none" fill="#662699" stroke="none"></path><path id="SvgjsPath7083" d="M102.5,2c2.9-3.8,8-3.6,12.5-1.6C109.8-3.3,105.2-3,102.5,2z" data-colored="true" data-filltype="sd2" data-stroketype="none" fill="#662699" stroke="none"></path><path id="SvgjsPath7084" d="M93,9.4c2.9-3.8,8-3.6,12.5-1.6C100.2,4.1,95.7,4.4,93,9.4z" data-colored="true" data-filltype="sd2" data-stroketype="none" fill="#662699" stroke="none"></path><path id="SvgjsPath7085" d="M105.5,13c2.9-3.8,8-3.6,12.5-1.6C112.8,7.7,108.2,8,105.5,13z" data-colored="true" data-filltype="sd2" data-stroketype="none" fill="#662699" stroke="none"></path><path id="SvgjsPath7086" d="M72,15.1c2.9-3.8,8-3.6,12.5-1.6C79.3,9.8,74.7,10.1,72,15.1z" data-colored="true" data-filltype="sd2" data-stroketype="none" fill="#662699" stroke="none"></path></g><g id="svga-group-glasses-single" data-updown="0" data-leftright="0" data-dist="0" data-scaleX="1" data-scaleY="1" data-rotate="0"></g></g></g><g id="svga-group-bubble-single" data-updown="0" data-leftright="0" data-dist="0" data-scaleX="1" data-scaleY="1" data-rotate="0"></g></g><defs id="defs_node"><linearGradient id="SvgjsLinearGradient5677" x1="100" y1="173" x2="100" y2="134" gradientUnits="userSpaceOnUse" class="svga-on-canvas-chinshadow-gradient-single-0"><stop id="SvgjsStop5678" stop-opacity="0.8" stop-color="#000000" offset="0" data-stoptype="sd1"></stop><stop id="SvgjsStop5679" stop-opacity="1" stop-color="#000000" offset="0.7" data-stoptype="sd3"></stop></linearGradient><radialGradient id="SvgjsRadialGradient5681" cx="100" cy="114" r="41" gradientUnits="userSpaceOnUse" class="svga-on-canvas-facehighlight-gradient-single-0"><stop id="SvgjsStop5682" stop-opacity="0.5" stop-color="#141414" offset="0" data-stoptype="hl1"></stop><stop id="SvgjsStop5683" stop-opacity="0" stop-color="#050505" offset="0.9" data-stoptype="tone"></stop></radialGradient><radialGradient id="SvgjsRadialGradient5685" cx="100" cy="54" r="37" gradientUnits="userSpaceOnUse" class="svga-on-canvas-facehighlight-gradient-single-1"><stop id="SvgjsStop5686" stop-opacity="0.5" stop-color="#141414" offset="0" data-stoptype="hl1"></stop><stop id="SvgjsStop5687" stop-opacity="0" stop-color="#050505" offset="0.9" data-stoptype="tone"></stop></radialGradient><linearGradient id="SvgjsLinearGradient5732" x1="132" y1="78" x2="126" y2="84" gradientTransform="matrix(1 0 0 1 -50 0)" gradientUnits="userSpaceOnUse" class="svga-on-canvas-eyesiris-gradient-left-6"><stop id="SvgjsStop5733" stop-opacity="1" stop-color="#ffffff" offset="0" data-stoptype="#ffffff"></stop><stop id="SvgjsStop5734" stop-opacity="0" stop-color="#ffffff" offset="1" data-stoptype="#ffffff"></stop></linearGradient><linearGradient id="SvgjsLinearGradient5742" x1="132" y1="78" x2="126" y2="84" gradientUnits="userSpaceOnUse" class="svga-on-canvas-eyesiris-gradient-right-6"><stop id="SvgjsStop5743" stop-opacity="1" stop-color="#ffffff" offset="0" data-stoptype="#ffffff"></stop><stop id="SvgjsStop5744" stop-opacity="0" stop-color="#ffffff" offset="1" data-stoptype="#ffffff"></stop></linearGradient><radialGradient id="SvgjsRadialGradient5746" cx="73.488" cy="85.375" r="10.708" gradientUnits="userSpaceOnUse" class="svga-on-canvas-eyesback-gradient-left-0"><stop id="SvgjsStop5747" stop-opacity="1" stop-color="#ffffff" offset="0" data-stoptype="#ffffff"></stop><stop id="SvgjsStop5748" stop-opacity="1" stop-color="#fdfefe" offset="0.544" data-stoptype="#fdfefe"></stop><stop id="SvgjsStop5749" stop-opacity="1" stop-color="#f6f8f9" offset="0.74" data-stoptype="#f6f8f9"></stop><stop id="SvgjsStop5750" stop-opacity="1" stop-color="#eaeff2" offset="0.879" data-stoptype="#eaeff2"></stop><stop id="SvgjsStop5751" stop-opacity="1" stop-color="#d9e3e8" offset="0.992" data-stoptype="#d9e3e8"></stop><stop id="SvgjsStop5752" stop-opacity="1" stop-color="#d8e2e7" offset="1" data-stoptype="#d8e2e7"></stop></radialGradient><radialGradient id="SvgjsRadialGradient5754" cx="73.888" cy="85.375" r="10.708" gradientTransform="matrix(-1 0 0 1 200 0)" gradientUnits="userSpaceOnUse" class="svga-on-canvas-eyesback-gradient-right-0"><stop id="SvgjsStop5755" stop-opacity="1" stop-color="#ffffff" offset="0" data-stoptype="#ffffff"></stop><stop id="SvgjsStop5756" stop-opacity="1" stop-color="#fdfefe" offset="0.544" data-stoptype="#fdfefe"></stop><stop id="SvgjsStop5757" stop-opacity="1" stop-color="#f6f8f9" offset="0.74" data-stoptype="#f6f8f9"></stop><stop id="SvgjsStop5758" stop-opacity="1" stop-color="#eaeff2" offset="0.879" data-stoptype="#eaeff2"></stop><stop id="SvgjsStop5759" stop-opacity="1" stop-color="#d9e3e8" offset="0.992" data-stoptype="#d9e3e8"></stop><stop id="SvgjsStop5760" stop-opacity="1" stop-color="#d8e2e7" offset="1" data-stoptype="#d8e2e7"></stop></radialGradient><radialGradient id="SvgjsRadialGradient5762" cx="73.488" cy="85.375" r="10.708" gradientUnits="userSpaceOnUse" class="svga-on-canvas-eyesfront-gradient-left-0"><stop id="SvgjsStop5763" stop-opacity="1" stop-color="#ffffff" offset="0" data-stoptype="#ffffff"></stop><stop id="SvgjsStop5764" stop-opacity="1" stop-color="#fdfefe" offset="0.544" data-stoptype="#fdfefe"></stop><stop id="SvgjsStop5765" stop-opacity="1" stop-color="#f6f8f9" offset="0.74" data-stoptype="#f6f8f9"></stop><stop id="SvgjsStop5766" stop-opacity="1" stop-color="#eaeff2" offset="0.879" data-stoptype="#eaeff2"></stop><stop id="SvgjsStop5767" stop-opacity="1" stop-color="#d9e3e8" offset="0.992" data-stoptype="#d9e3e8"></stop><stop id="SvgjsStop5768" stop-opacity="1" stop-color="#d8e2e7" offset="1" data-stoptype="#d8e2e7"></stop></radialGradient><radialGradient id="SvgjsRadialGradient5772" cx="123.727" cy="82.803" fx="133.913" fy="79.051" r="17.225" gradientTransform="matrix(0.9998 0.0208 0.0166 -0.7998 -48.8047 146.4561)" gradientUnits="userSpaceOnUse" class="svga-on-canvas-eyesfront-gradient-left-3"><stop id="SvgjsStop5773" stop-opacity="1" stop-color="#000000" offset="0" data-stoptype="sd1"></stop><stop id="SvgjsStop5774" stop-opacity="0.3" stop-color="#000000" offset="0.7" data-stoptype="sd1"></stop><stop id="SvgjsStop5775" stop-opacity="0" stop-color="#050505" offset="1" data-stoptype="tone"></stop></radialGradient><radialGradient id="SvgjsRadialGradient5777" cx="71.717" cy="117.05" r="39.091" gradientTransform="matrix(0.0542 -0.9985 0.7911 0.043 -24.769 183.6334)" gradientUnits="userSpaceOnUse" class="svga-on-canvas-eyesfront-gradient-left-4"><stop id="SvgjsStop5778" stop-opacity="0" stop-color="#000000" offset="0.95" data-stoptype="#000000"></stop><stop id="SvgjsStop5779" stop-opacity="0.2" stop-color="#000000" offset="1" data-stoptype="#000000"></stop></radialGradient><radialGradient id="SvgjsRadialGradient5783" cx="73.888" cy="85.375" r="10.708" gradientTransform="matrix(-1 0 0 1 200 0)" gradientUnits="userSpaceOnUse" class="svga-on-canvas-eyesfront-gradient-right-0"><stop id="SvgjsStop5784" stop-opacity="1" stop-color="#ffffff" offset="0" data-stoptype="#ffffff"></stop><stop id="SvgjsStop5785" stop-opacity="1" stop-color="#fdfefe" offset="0.544" data-stoptype="#fdfefe"></stop><stop id="SvgjsStop5786" stop-opacity="1" stop-color="#f6f8f9" offset="0.74" data-stoptype="#f6f8f9"></stop><stop id="SvgjsStop5787" stop-opacity="1" stop-color="#eaeff2" offset="0.879" data-stoptype="#eaeff2"></stop><stop id="SvgjsStop5788" stop-opacity="1" stop-color="#d9e3e8" offset="0.992" data-stoptype="#d9e3e8"></stop><stop id="SvgjsStop5789" stop-opacity="1" stop-color="#d8e2e7" offset="1" data-stoptype="#d8e2e7"></stop></radialGradient><radialGradient id="SvgjsRadialGradient5793" cx="123.328" cy="82.803" fx="133.514" fy="79.051" r="17.225" gradientTransform="matrix(-0.9998 0.0208 -0.0166 -0.7998 248.0079 146.4644)" gradientUnits="userSpaceOnUse" class="svga-on-canvas-eyesfront-gradient-right-3"><stop id="SvgjsStop5794" stop-opacity="1" stop-color="#000000" offset="0" data-stoptype="sd1"></stop><stop id="SvgjsStop5795" stop-opacity="0.3" stop-color="#000000" offset="0.7" data-stoptype="sd1"></stop><stop id="SvgjsStop5796" stop-opacity="0" stop-color="#050505" offset="1" data-stoptype="tone"></stop></radialGradient><radialGradient id="SvgjsRadialGradient5798" cx="72.116" cy="117.05" r="39.092" gradientTransform="matrix(-0.0542 -0.9985 -0.7911 0.043 224.3918 184.0318)" gradientUnits="userSpaceOnUse" class="svga-on-canvas-eyesfront-gradient-right-4"><stop id="SvgjsStop5799" stop-opacity="0" stop-color="#000000" offset="0.95" data-stoptype="#000000"></stop><stop id="SvgjsStop5800" stop-opacity="0.2" stop-color="#000000" offset="1" data-stoptype="#000000"></stop></radialGradient></defs></svg>