<svg id="svga-svgcanvas" style="overflow: hidden; position: relative; left: -0.265625px; top: 0px; -webkit-user-select: none; -webkit-user-drag: none; -webkit-tap-highlight-color: rgba(0, 0, 0, 0); touch-action: none;" xmlns="http://www.w3.org/2000/svg" version="1.1" xlink="http://www.w3.org/1999/xlink" class="svga-svg" viewBox="0 0 200 200" preserveAspectRatio="xMinYMin meet" width="250" height="250"><g id="defs_node"><g id="svga-group-backs-single"><path id="SvgjsPath4522" d="M225 225H-25V-25h250V225z" data-colored="true" data-filltype="tone" data-stroketype="none" fill="#b9f5fa" stroke-width="none" opacity="1"></path><path id="SvgjsPath4523" d="M100 85c-8.284 0-15 6.716-15 15s6.716 15 15 15 15-6.716 15-15S108.284 85 100 85zM100 110c-5.522 0-10-4.478-10-10s4.478-10 10-10 10 4.478 10 10S105.522 110 100 110zM100 70c-16.568 0-30 13.432-30 30s13.432 30 30 30 30-13.432 30-30S116.568 70 100 70zM100 125c-13.807 0-25-11.193-25-25s11.193-25 25-25 25 11.193 25 25S113.807 125 100 125zM100 55c-24.853 0-45 20.147-45 45s20.147 45 45 45 45-20.147 45-45S124.853 55 100 55zM100 140c-22.091 0-40-17.909-40-40s17.909-40 40-40 40 17.909 40 40S122.091 140 100 140zM100 40c-33.137 0-60 26.863-60 60s26.863 60 60 60 60-26.863 60-60S133.137 40 100 40zM100 155c-30.375 0-55-24.625-55-55s24.625-55 55-55 55 24.625 55 55S130.375 155 100 155zM100 25c-41.421 0-75 33.579-75 75s33.579 75 75 75 75-33.579 75-75S141.421 25 100 25zM100 170c-38.658 0-70-31.342-70-70s31.342-70 70-70 70 31.342 70 70S138.658 170 100 170zM100 10c-49.705 0-90 40.295-90 90s40.295 90 90 90 90-40.295 90-90S149.705 10 100 10zM100 184.999c-46.943 0-85-38.057-85-84.999s38.057-85.001 85-85.001S185 53.058 185 100 146.943 184.999 100 184.999zM100-5C42.011-5-5 42.011-5 100s47.011 105 105 105 105-47.011 105-105S157.989-5 100-5zM100 199.998C44.772 199.998 0 155.226 0 100 0 44.773 44.772-0.001 100-0.001S200 44.773 200 100C200 155.226 155.228 199.998 100 199.998zM100-35C25.442-35-35 25.442-35 100s60.442 135 135 135 135-60.442 135-135S174.558-35 100-35zM100 229.998c-71.795 0-130-58.205-130-129.998 0-71.795 58.205-130.002 130-130.002 71.794 0 130 58.207 130 130.002C230 171.793 171.794 229.998 100 229.998zM100-20C33.727-20-20 33.727-20 100s53.727 120 120 120 120-53.727 120-120S166.273-20 100-20zM100 214.998C36.489 214.998-15 163.51-15 100c0-63.511 51.489-115.002 115-115.002S215 36.489 215 100C215 163.51 163.511 214.998 100 214.998z" data-colored="true" data-filltype="sd1" data-stroketype="none" fill="#96e4eb" stroke-width="none" opacity="1"></path></g><g id="svga-group-subwrapper" data-updown="0" data-leftright="0" data-dist="0" data-scalex="1.9308990100000016" data-scaley="1.9308990100000016" data-rotate="0" transform="matrix(0.7269997800000001 0 0 0.7269997800000001 27.37741458887497 31.12338881057589) translate(48.9709976196289 6.863711547851563)"><g id="svga-group-hair-back" data-updown="0" data-leftright="0" data-dist="0" data-scalex="1.0927995600000004" data-scaley="1.0131995600000003" data-rotate="0" transform="matrix(1.0927996700000004 0 0 1.0131996700000003 -9.182851860726913 -1.7167489472687976)"><path id="SvgjsPath4633" d="M56.121,137.894c-0.284-3.904-1.705-10.141-3.683-16.807c0,0,3.453,13.279,0.099,24.668c1.421-24.748-3.5-31.88-5.756-39.022c0.653-1.621,5.689,1.326,5.69,1.333C55.797,117.583,57.066,132.609,56.121,137.894z M147.76,110.423c-4.348,10.77-7.406,23.196-2.63,31.81c-1.362-13.107,3.633-24.778,6.497-31.218L147.76,110.423z" opacity="1" stroke-miterlimit="10" stroke="#97005c" stroke-width="1" fill="#c52f8a" data-stroketype="sd3" data-filltype="tone" data-colored="true"></path></g><g id="svga-group-humanbody-single" data-updown="0" data-leftright="0" data-dist="0" data-scalex="1" data-scaley="1" data-rotate="0"><path id="SvgjsPath1057" d="M190.858 199.866c-6.008-10.158-13.474-11.973-19.628-13.936 -6.323-2.016-19.346-3.178-26.449-4.6 -6.86-1.373-23.153-5.789-23.339-13.488 -0.192-8.066 4.291-40.09 4.291-40.09H74.005c0 0 4.487 32.023 4.294 40.09 -0.184 7.699-16.48 12.115-23.341 13.488 -7.104 1.422-20.125 2.584-26.448 4.6 -6.156 1.963-13.624 3.777-19.632 13.936 -3.644 6.16-6.008 16.133-6.008 27.133h194C196.869 215.999 194.509 206.026 190.858 199.866z" data-colored="true" data-filltype="tone" data-stroketype="none" data-fromskin="true" fill="#d50f87" stroke-width="none" opacity="1" stroke="none"></path><path id="SvgjsPath1058" d="M121.442 167.843c2.495 10.929 18.165 13.698 26.293 15.325 21.909 4.379 33.772 5.134 42.297 19.539 2.903 4.916 5.459 15.864 5.962 24.153 1.835 0.291 0.531-17.432-5.136-26.994 -9.742-16.472-29.089-15.135-46.077-18.535C137.921 179.958 121.628 175.542 121.442 167.843L121.442 167.843zM78.558 167.843c-0.186 7.699-16.479 12.115-23.339 13.488 -16.988 3.4-36.335 2.063-46.077 18.535 -5.667 9.563-6.971 27.285-5.136 26.994 0.503-8.289 3.059-19.237 5.962-24.153 8.524-14.405 20.388-15.16 42.297-19.539C60.393 181.541 76.063 178.771 78.558 167.843L78.558 167.843z" data-colored="true" data-filltype="hl1" data-stroketype="none" data-fromskin="true" fill="#e4279a" stroke-width="none" opacity="1" stroke="none"></path><path id="SvgjsPath1059" d="M51.206 189.513c0 0 28.641 0.299 33.473 1.885 2.314 0.758 8.372 5.633 8.372 5.633s-6.556-3.17-8.658-3.758C79.51 191.909 51.206 189.513 51.206 189.513zM99.795 199.999c2.053-0.041 7.887-3.799 7.887-3.799s-5.574 2.059-7.342 2.16c-1.491 0.086-6.366-1.238-6.366-1.238S98.112 200.032 99.795 199.999zM117.008 192.757c6.75-1.818 29.786-3.23 29.786-3.23s-23.791-0.516-30.51 1.725c-2.252 0.752-7.562 5.16-7.562 5.16S114.786 193.354 117.008 192.757z" data-colored="true" data-filltype="sd1" data-stroketype="none" data-fromskin="true" fill="#c60078" stroke-width="none" opacity="1" stroke="none"></path><path id="SvgjsPath1060" d="M190.858 199.866c-9.741-16.471-29.122-15.142-46.077-18.535 -6.86-1.373-23.153-5.789-23.339-13.488 -0.192-8.066 4.291-40.09 4.291-40.09H74.005c0 0 4.487 32.023 4.294 40.09 -0.184 7.699-16.48 12.115-23.341 13.488 -7.104 1.422-20.125 2.584-26.448 4.6 -6.156 1.963-13.624 3.777-19.632 13.936 -3.644 6.16-6.008 16.133-6.008 27.133h194C196.869 215.999 194.509 206.026 190.858 199.866z" data-colored="true" data-filltype="none" data-stroketype="sd3" data-fromskin="true" fill="none" stroke="#a70065" stroke-width="1.5" opacity="1"></path></g><g id="svga-group-chinshadow-single" data-updown="0" data-leftright="0" data-dist="0" data-scalex="1" data-scaley="1" data-rotate="0"><path id="SvgjsPath4439" d="M86.802 168.302c5.312 2.491 21.035 2.373 26.401 0 2.491-1.102 5.112-2.879 7.755-5.086 0.699-10.328 3.327-29.728 3.986-34.51 -1.113-0.109-2.256-0.21-3.428-0.303H78.609c-1.305 0.103-2.578 0.216-3.811 0.339 0.66 4.783 3.223 23.705 3.958 34.093C81.507 165.186 84.231 167.097 86.802 168.302z" opacity="1" fill="url(#SvgjsLinearGradient4440)" data-fromskin="true" data-stroketype="none" data-filltype="gradient" data-colored="false"></path></g><g id="svga-group-clothes-single" data-updown="0" data-leftright="0" data-dist="0" data-scalex="1" data-scaley="1" data-rotate="0"><path id="SvgjsPath6629" d="M176.662 239.205c-4.731-0.031-142.126-1.232-153.208-1.823 1.595-10.032 4.924-15.048 10.136-20.336 0.397-10.141-3-24.685-4.583-31.951 1.592-4.057 4.741 0.357 20.731-4.584 4.066-1.013 8.65-7.315 14.947-2.354 -2.199 0.903-4.148 1.319-5.923 1.756 -2.657 14.611 31.716 40.78 40.839 45.67 11.181-5.065 44.953-33.159 41.373-45.645 -0.346-0.158-4.268-1.11-5.551-1.71 2.176-1.919 5.892-2.672 9.589-0.353 4.431 2.771 12.578 5.406 22.848 5.406 1.323 0 2.337 0.34 2.986 1.999 -1.114 5.095-4.727 22.604-4.667 31.635C174.006 224.707 175.121 229.664 176.662 239.205z" opacity="1" stroke-width="none" fill="#fcde4f" data-stroketype="none" data-filltype="tone" data-colored="true"></path><path id="SvgjsPath6630" d="M150.077 185.14c-3.109 8.592-5.631 11.417-7.907 14.465 -2.618 3.506-3.455 5.129-2.205 2.785C144.613 193.068 145.855 193.511 150.077 185.14zM147.508 213.521c-0.232 1.071-0.375 1.72-0.344 1.593 2.81-9.574 9.184-26.459 9.184-26.459C154.178 195.795 151.241 196.15 147.508 213.521zM55.885 200c14.044 17.188-2.303-2.73-7.432-12.774C50.601 192.177 52.189 195.138 55.885 200zM54.307 216.992c-0.395-1-6.421-22.676-11.549-26.604C45.151 192.344 54.679 217.992 54.307 216.992z" opacity="1" stroke-width="none" fill="#edcc33" data-stroketype="none" data-filltype="sd1" data-colored="true"></path><path id="SvgjsPath6631" d="M170.847 185.281c-0.14 0.637-0.436 1.843-0.642 2.827 -2.355-0.396-5.961-1.215-5.961-0.373 -0.866 9.101-1.283 8.2-2.025 16.167 0.073-10.926 2.019-11.629-0.219-16.902 -6.053-1.017-11.768-2.581-17.019-4.186 -2.151 8.861-12.232 20.261-8.525 15.445 3.343-4.392 6.313-10.895 7.528-15.751 -0.939-0.29-1.867-0.581-2.774-0.869 -0.021-0.591-0.082-1.165-0.235-1.701 -0.346-0.158-4.268-1.11-5.551-1.71 2.176-1.919 5.892-2.672 9.589-0.353 4.431 2.771 12.578 5.406 22.848 5.406C169.184 183.282 170.197 183.622 170.847 185.281zM29.153 185.281c0.14 0.637 0.436 1.843 0.642 2.827 2.355-0.396 5.895-0.783 5.895-0.783 -0.26 5.06 1.35 7.61 2.092 15.577C37.708 191.977 36.014 192.189 37 187c6.053-1.017 12.768-2.581 18.019-4.186 2.151 8.861 13.232 22.001 9.525 17.186 -3.343-4.392-7.313-12.635-8.528-17.491 0.939-0.29 1.867-0.581 2.774-0.869 0.021-0.591 0.082-1.165 0.235-1.701 0.346-0.158 4.268-1.11 5.551-1.71 -2.176-1.919-5.892-2.672-9.589-0.353 -4.431 2.771-12.578 5.406-22.848 5.406C30.816 183.282 29.803 183.622 29.153 185.281z" opacity="1" stroke-width="none" fill="#ffe569" data-stroketype="none" data-filltype="hl1" data-colored="true"></path><path id="SvgjsPath6632" d="M58.769 179.936c0-0.801 0.47-1.651 1.339-1.651 0.476 0 1.025 0.247 1.633 0.733l0.146 0.117 -0.178 0.057c-0.73 0.23-1.982 0.597-2.722 0.813l-0.128 0.038L58.769 179.936zM140.869 179.995c-0.016 0-0.016 0-1.14-0.35l-1.301-0.402 0.162-0.119c0.529-0.385 0.955-0.572 1.3-0.572 0.533 0 0.885 0.433 1.076 1.323l0.026 0.12H140.869z" opacity="1" stroke-width="none" fill="#ddbb19" data-stroketype="none" data-filltype="sd2" data-colored="true"></path><path id="SvgjsPath6633" d="M166.279 216.915c-0.055-8.281 2.988-23.902 4.66-31.67 -1.18-3.017-3.58-1.753-6.03-2.02 -15.956-1.477-19.064-5.281-21.12-6.16 -2.655-1.258-6.253-0.91-8.479 1.13 -0.021 0.01-0.04 0.03-0.061 0.06 1.22 0.625 4.63 1.429 5.63 1.711 3.549 12.378-29.553 40.193-41.23 45.529 -9.231-4.947-43.363-30.894-40.8-45.5 0.113-0.027 2.995-0.729 3.1-0.779 0.039 0 2.487-0.819 2.92-1.03 -0.02-0.01-0.04-0.03-0.05-0.05 -6.392-5.112-11.061 1.27-15.11 2.279 -16.079 4.97-19.171 0.454-20.8 4.7 0.213 1 5.017 20.344 4.61 31.86 -5.072 5.146-8.551 10.14-10.16 20.399 -0.01 0.04-0.02 0.07-0.02 0.101 10.231 0.588 152.439 1.83 153.44 1.83C175.204 229.537 174.033 224.594 166.279 216.915zM138.649 179.205c1.198-0.872 1.907-0.766 2.22 0.69C140.868 179.896 138.65 179.205 138.649 179.205zM58.869 179.936c0-1 0.825-2.429 2.81-0.84C60.919 179.336 59.593 179.724 58.869 179.936zM23.899 237.365c3.735-15.164 12.067-23.607 14.47-23.68 -1.422 0-3.53 1.973-4.53 2.96 0.941-11.17-2.007-22.558-4.63-31.54 1.216-2.388 3.067-1.38 5.53-1.38 22.481 0 21.745-12.367 29.94-5.54 -0.409 0.163-2.524 0.757-2.9 0.88 -3.441-3.277-3.946 2.577-2.91 7.54 5.004 16.15 35.575 39.59 40.71 39.59 15.945-6.354 44.861-31.908 41.59-46.16 0.01-0.02 0-0.04-0.01-0.06 -0.188-1.347-1.059-2.112-2.62-0.811 -0.904-0.285-1.897-0.549-3.09-0.92 5.239-4.381 10.854 1.216 12.77 2.19 4.607 2.536 12.876 3.43 16.681 3.43 2.626 0.086 4.562-1.097 5.739 1.351 -2.909 9.728-5.29 21.217-4.67 31.39 -1.057-1.004-2.635-2.41-4.05-2.76 6.852 2.486 13.144 17.17 14.4 25.26C108.784 236.728 100.525 237.005 23.899 237.365z" opacity="1" stroke-width="none" fill="#ceab03" data-stroketype="none" data-filltype="sd3" data-colored="true"></path></g><g id="svga-group-head" data-updown="0" data-leftright="0" data-dist="0" data-scalex="1" data-scaley="1" data-rotate="0"><g id="svga-group-ears-left" data-updown="0" data-leftright="-5.838672220806777e-17" data-dist="0" data-scalex="1" data-scaley="1" data-rotate="0" transform="translate(-1.0000000005838672e-7 0)"><path id="SvgjsPath1075" d="M45.443 81.864c-1.469-2.399-6.648-7.441-10.31-6.519 -2.979 0.752-6.032 3.199-6.032 7.37 -0.001 6.462 1.496 9.209 2.501 12.141 0.856 2.495 3.915 7.068 5.761 8.841 2.273 2.179 5.957 9.221 6.404 9.941 0.705 1.137 1.877 2.946 4.043 3.014 3.29 0.103 7.085-2.077 7.323-3.44C56.42 105.816 49.263 88.107 45.443 81.864z" data-colored="true" data-filltype="tone" data-stroketype="sd3" fill="#d50f87" stroke="#a70065" stroke-width="1.5" opacity="1"></path><path id="SvgjsPath1076" d="M43.596 98.002c-0.142-0.549 0.007-1.474 0.152-2.367 0.131-0.814 0.255-1.583 0.18-2.126 -0.285-2.036-1.892-5.906-2.942-8.003 -1.208-2.412-4.117-5.452-6.568-6.235 -1.013-0.325-1.681 0.063-2.067 0.456 -0.284 0.289-0.347 0.628-0.254 0.668 0.093 0.04 0.304-0.241 0.61-0.505 0.25-0.217 0.617-0.402 1.122-0.364 -0.203 1.014-3.138 4.164-1.381 10.249 0.822 2.849 1.992 5.143 2.202 5.473 0.032 0.347 0.083 0.687 0.159 1.016 0.991 4.297 7.286 11.382 8.785 12.981 0.277 0.296 0.567 0.471 0.639 0.4 0.072-0.071-0.1-0.363-0.376-0.661 -1.48-1.589-7.734-8.657-8.69-12.803 -1.754-7.595 1.916-7.723 4.499-12.3 0.397 0.647 0.733 1.27 0.993 1.789 0.203 0.407 0.429 0.883 0.661 1.398 -0.458 0.719-5.059 5.972-3.889 10.175 0.433 1.55 3.779 3.548 5.073 4.096 0.712 0.302 0.979 0.752 1.289 1.273 0.359 0.605 0.767 2.758 1.95 3.254 0.241 0.101 0.458 0.143 0.651 0.143 0.334 0 0.587-0.126 0.774-0.276 0.019 0.264 0.018 0.604 0.008 0.917 -0.011 0.405 0.046 0.738 0.147 0.746s0.208-0.313 0.221-0.717c0.016-0.497 0.014-1.112-0.077-1.407 -0.265-0.867-1.076-1.845-1.934-2.88C44.688 101.372 43.815 98.852 43.596 98.002zM34.616 94.192c-2.322-6.746 0.993-12.568 1.514-13.495 0.908 0.776 2.662 1.815 3.314 2.83C36.33 88.848 34.811 85.147 34.616 94.192zM45.884 105.528c-1.072-0.449-1.431-2.52-1.778-3.104 -0.314-0.528-0.639-1.074-1.461-1.423 -0.179-0.076-0.376-0.191-0.578-0.324 -3.861-5.679 0.291-8.507 1.027-9.037 0.226 0.724 0.396 1.387 0.47 1.919 0.068 0.489-0.058 1.266-0.179 2.017 -0.15 0.931-0.306 1.894-0.145 2.518 0.24 0.928 1.14 3.481 2.01 4.531 0.772 0.933 1.564 1.893 1.835 2.676C46.97 105.458 46.604 105.83 45.884 105.528z" data-colored="true" data-filltype="sd3" data-stroketype="none" fill="#a70065" stroke-width="none" opacity="1" stroke="none"></path></g><g id="svga-group-ears-right" data-updown="0" data-leftright="5.838672220806777e-17" data-dist="0" data-scalex="1" data-scaley="1" data-rotate="0" transform="translate(1.0000000005838672e-7 0)"><path id="SvgjsPath1077" d="M154.295 81.864c1.469-2.399 6.648-7.441 10.311-6.519 2.979 0.752 6.031 3.199 6.031 7.37 0.002 6.462-1.496 9.209-2.5 12.141 -0.857 2.495-3.916 7.068-5.762 8.841 -2.273 2.179-5.957 9.221-6.404 9.941 -0.705 1.137-1.877 2.946-4.043 3.014 -3.291 0.103-7.086-2.077-7.324-3.44C143.318 105.816 150.475 88.107 154.295 81.864z" data-colored="true" data-filltype="tone" data-stroketype="sd3" fill="#d50f87" stroke="#a70065" stroke-width="1.5" opacity="1"></path><path id="SvgjsPath1078" d="M154.205 102.391c-0.857 1.036-1.668 2.013-1.934 2.88 -0.09 0.295-0.092 0.91-0.076 1.407 0.014 0.404 0.119 0.725 0.221 0.717s0.158-0.341 0.146-0.746c-0.01-0.313-0.01-0.653 0.01-0.917 0.186 0.15 0.439 0.276 0.773 0.276 0.193 0 0.41-0.042 0.65-0.143 1.184-0.496 1.592-2.649 1.951-3.254 0.311-0.521 0.576-0.971 1.289-1.273 1.293-0.548 4.639-2.545 5.072-4.096 1.17-4.204-3.432-9.456-3.889-10.175 0.232-0.515 0.457-0.991 0.66-1.398 0.26-0.519 0.596-1.141 0.994-1.789 2.582 4.577 6.252 4.705 4.498 12.3 -0.957 4.146-7.209 11.214-8.689 12.803 -0.275 0.298-0.447 0.59-0.377 0.661 0.072 0.07 0.361-0.104 0.639-0.4 1.5-1.6 7.795-8.685 8.785-12.981 0.076-0.33 0.129-0.669 0.16-1.016 0.209-0.33 1.379-2.624 2.201-5.473 1.758-6.085-1.178-9.235-1.381-10.249 0.504-0.039 0.871 0.147 1.123 0.364 0.305 0.265 0.518 0.545 0.609 0.505 0.094-0.041 0.029-0.379-0.254-0.668 -0.387-0.393-1.055-0.781-2.068-0.456 -2.451 0.783-5.359 3.823-6.568 6.235 -1.049 2.097-2.656 5.967-2.941 8.003 -0.074 0.544 0.049 1.313 0.18 2.126 0.145 0.894 0.293 1.818 0.152 2.367C155.924 98.852 155.051 101.372 154.205 102.391zM160.295 83.528c0.652-1.015 2.406-2.054 3.313-2.83 0.521 0.926 3.836 6.749 1.516 13.495C164.928 85.147 163.408 88.848 160.295 83.528zM152.652 105.301c0.271-0.783 1.064-1.743 1.836-2.676 0.869-1.05 1.77-3.603 2.01-4.531 0.16-0.624 0.006-1.586-0.145-2.518 -0.121-0.751-0.248-1.528-0.18-2.017 0.074-0.532 0.244-1.195 0.471-1.919 0.734 0.53 4.887 3.358 1.025 9.037 -0.201 0.133-0.398 0.248-0.578 0.324 -0.822 0.349-1.146 0.895-1.461 1.423 -0.346 0.584-0.705 2.655-1.777 3.104C153.135 105.83 152.768 105.458 152.652 105.301z" data-colored="true" data-filltype="sd3" data-stroketype="none" fill="#a70065" stroke-width="none" opacity="1" stroke="none"></path></g><g id="svga-group-faceshape-wrap" data-updown="0" data-leftright="0" data-dist="0" data-scalex="1.0043995600000004" data-scaley="1.0043995600000004" data-rotate="0" transform="matrix(1.0043996700000004 0 0 1.0043996700000004 -0.43935982660835293 -0.3522045963535163)"><g id="svga-group-faceshape-single" data-updown="0" data-leftright="0" data-dist="0" data-scalex="1" data-scaley="1" data-rotate="0"><path id="SvgjsPath4436" d="M144.004 125.052c-5.003 10.066-20.047 27.996-30.801 32.751 -5.366 2.374-21.089 2.491-26.401 0 -10.646-4.989-25.765-22.701-30.801-32.751 -5.613-11.199-14.852-47.803-14.863-47.856 -1.3-4.912-1.996-10.066-2.004-15.382C39.082 28.339 66.289 1.168 99.907 1.116c33.621-0.052 60.913 27.032 60.963 60.506 0.009 5.316-0.669 10.473-1.952 15.389C158.901 77.063 149.6 113.79 144.004 125.052z" opacity="1" stroke-width="none" fill="#d50f87" data-stroketype="none" data-filltype="tone" data-colored="true" stroke="none"></path><path id="SvgjsPath4437" d="M110.152 1.969c26.994 6.24 47.097 30.337 47.052 59.111 -0.009 5.315-0.704 10.471-2.004 15.382 -0.012 0.053-8.61 36.669-14.13 47.856 -4.859 9.849-19.7 27.043-30.067 32.019 -2.163 1.037-8.694 1.529-11.001 1.529 -2.307 0-8.837-0.492-11-1.529 -10.367-4.976-25.209-22.17-30.067-32.019 -5.521-11.188-14.119-47.803-14.13-47.856 -1.3-4.911-1.996-10.066-2.004-15.382C42.756 32.307 62.857 8.209 89.853 1.969 61.03 6.788 39.087 31.751 39.134 61.813c0.008 5.315 0.704 10.47 2.004 15.382 0.012 0.053 9.232 36.665 14.863 47.856 5.052 10.041 20.207 27.65 30.801 32.751 2.658 1.28 9.305 1.827 12.954 1.824 3.646 0.003 10.791-0.544 13.447-1.824 10.594-5.102 25.748-22.71 30.801-32.751 5.631-11.191 14.852-47.803 14.862-47.856 1.3-4.912 1.996-10.066 2.004-15.382C160.918 31.751 138.975 6.788 110.152 1.969z" opacity="1" stroke-width="none" fill="#cd047e" data-stroketype="none" data-filltype="sd05" data-colored="true" stroke="none"></path><path id="SvgjsPath4438" d="M144.004 125.052c-5.003 10.066-20.047 27.996-30.801 32.751 -5.366 2.374-21.089 2.491-26.401 0 -10.646-4.989-25.765-22.701-30.801-32.751 -5.613-11.199-14.852-47.803-14.863-47.856 -1.3-4.912-1.996-10.066-2.004-15.382C39.082 28.339 66.289 1.168 99.907 1.116c33.621-0.052 60.913 27.032 60.963 60.506 0.009 5.316-0.669 10.473-1.952 15.389C158.901 77.063 149.6 113.79 144.004 125.052z" opacity="1" stroke="#a70065" stroke-width="1.5" fill="none" data-stroketype="sd3" data-filltype="none" data-colored="true"></path></g></g><g id="svga-group-mouth-single" data-updown="0" data-leftright="0" data-dist="0" data-scalex="1.1842000000000001" data-scaley="1.1842000000000001" data-rotate="0" transform="matrix(1.1831 0 0 1.1831 -18.129645689773568 -24.334815173721324)"><path id="SvgjsPath7870" d="M111.983,141.054c-2.24-3.174-4.746-5.846-7.054-5.567c-0.538-0.051-1.069,0.036-1.585,0.305
			c-0.267,0.097-0.529,0.256-0.789,0.446c-0.581-0.425-1.217-0.575-1.889-0.504c-0.618-0.066-1.272,0.076-1.947,0.383
			c-2.399,0.891-5.088,3.998-7.207,6.938c0.466,0.173,0.9,0.428,1.301,0.736c0.61-0.441,1.254-0.812,1.928-1.117
			c0.281-0.164,0.736-0.43,1.017-0.594c0.819-0.603,1.66-1.117,2.523-1.52c1.437-0.614,2.933-0.91,4.495-0.734
			c2.164,0.243,4.011,0.73,5.597,1.407c0.001,0,0.002,0.001,0.002,0.001c1.421,0.607,2.623,1.373,3.667,2.246
			c0.21,0.197,0.427,0.39,0.623,0.597c0.013-0.01,0.012-0.009,0.021-0.016c0.028,0.026,0.055,0.053,0.083,0.079
			c0.168-0.356,0.364-0.695,0.606-1.005C112.924,142.435,112.462,141.733,111.983,141.054z" stroke-width="none" fill="#201315" data-author="openvectorstock.com" data-stroketype="none" data-filltype="#201315" data-colored="false"></path><path id="SvgjsPath7871" d="M94.341,135.899c0,0,0.127,1.632,0.237,2.184c0.109,0.552,1.362,0.37,1.362,0.37s1.311,0.951,2.378,0.842
		c1.066-0.109,2.612-0.548,2.612-0.548l0.425-0.484c0,0,0.977,0.663,2.124,0.662c1.147,0,2.809-1.012,2.729-1.12
		c-0.08-0.108,1.068,0.136,1.801-0.015s2.024-0.77,2.024-0.77s0.874-1.504,0.058-1.951c-0.815-0.447-3.059-1.026-3.632-0.904
		c-0.573,0.123-1.986,0.334-3.413,0.445c-1.427,0.112-4.44,0.364-5.32,0.399C96.846,135.044,94.284,135.011,94.341,135.899z" stroke="none" fill="#ffffff" data-stroketype="none" data-filltype="#ffffff" data-colored="false"></path><path id="SvgjsPath7872" d="M96.075,135.876c0.055,0.154-0.177,2.278-0.136,2.577c0.042,0.299,0.455,0.205,0.455,0.205
			s0.16-2.867,0.307-2.996C96.848,135.534,96.075,135.876,96.075,135.876z" stroke="none" fill="#caccce" data-stroketype="none" data-filltype="#caccce" data-colored="false"></path><path id="SvgjsPath7873" d="M100.331,135.832c-0.508-0.114,1.07,0.871,0.796,2.206c-0.078,0.627-0.078,0.627-0.078,0.627
			s0.301-0.457,0.56-0.266c0.261,0.193,0.36,0.041,0.36,0.041s-0.567-1.492-0.624-2.381
			C101.288,135.17,100.331,135.832,100.331,135.832z" stroke="none" fill="#caccce" data-stroketype="none" data-filltype="#caccce" data-colored="false"></path><path id="SvgjsPath7874" d="M105.889,135.023c0.174,0.071,1.002,2.232,0.152,2.956c0.388-0.239,0.964-0.139,0.964-0.139
			s-0.391-1.844,0.085-2.664c0.477-0.821-0.175-0.316-0.175-0.316L105.889,135.023z" stroke="none" fill="#caccce" data-stroketype="none" data-filltype="#caccce" data-colored="false"></path><path id="SvgjsPath7875" d="M87.804,142.295c0,0-1.688-1.777,0.178-4.708c1.866-2.931,4.619-6.218,6.662-7.55s2.399-1.954,4.797-0.711
		c1.688,0.977,2.309,0.533,3.819,0.089s2.842-1.243,4.352,0.355c1.51,1.599,8.794,9.238,5.952,11.103
		c1.066,1.51-1.599,6.04-6.751,8.794c-2.843,1.865-6.218,3.02-11.459-0.533C90.114,145.582,89.047,144.338,87.804,142.295z" stroke-width="none" fill="#6f147c" data-stroketype="none" data-filltype="tone" data-colored="true" stroke="none"></path><path id="SvgjsPath7876" d="M87.835,140.835c-0.125,0,1.885-0.377,2.681-0.628s6.156-1.759,7.915-0.545
		c1.424,0.88,1.424,0.88,1.424,0.88s-1.005-1.466-2.304-1.592c-1.298-0.126-3.015-0.209-5.361,0.419
		C90.348,139.913,88.631,140.835,87.835,140.835z" stroke-width="none" fill="#771c84" data-stroketype="none" data-filltype="hl05" data-colored="true" stroke="none"></path><path id="SvgjsPath7877" d="M103.457,139.121c0,0,0.728-0.885,2.311-0.609c1.583,0.277,2.653,0.72,3.637,1.549
		c0.984,0.83,4.322,0.94,4.322,0.94s-0.856-1.051-2.097-1.162c-1.241-0.111-1.926-0.221-2.91-0.774
		C107.736,138.513,104.612,136.853,103.457,139.121z" stroke-width="none" fill="#771c84" data-stroketype="none" data-filltype="hl05" data-colored="true" stroke="none"></path><path id="SvgjsPath7878" d="M94.285,131.663c0.129-0.136,1.592-2.806,3.644-2.052c2.052,0.754,1.717,0.628,2.052,0.754
		c0.335,0.126-0.335,0.503-1.467,0.586c-1.131,0.084-2.471,0.209-3.266,0.628C94.452,131.998,93.53,132.459,94.285,131.663z" stroke-width="none" fill="#771c84" data-stroketype="none" data-filltype="hl05" data-colored="true" stroke="none"></path><path id="SvgjsPath7879" d="M104.336,129.904c0.209-0.042,2.345-0.628,2.931,0.586C107.854,131.705,104.336,129.904,104.336,129.904z" stroke-width="none" fill="#771c84" data-stroketype="none" data-filltype="hl05" data-colored="true" stroke="none"></path><path id="SvgjsPath7880" d="M87.85,140.67c-0.199,0.021,1.265-0.229,2.919-0.934c1.655-0.705,2.714-1.197,4.388-1.034
		c1.675,0.163,2.742,0.072,3.077,0.132c0.336,0.059,3.091,0.733,3.956,0.58c0.866-0.153,1.527-0.435,1.922-0.711
		s1.859-0.509,2.737-0.128c0.877,0.381-0.621-0.855-1.488-0.769s-0.883-0.649-1.217-0.641c-0.334,0.007-0.058,0.402-0.796,0.285
		c-0.738-0.117-2.051,0.915-3.198,0.406c-1.147-0.509-2.019-0.623-2.815-0.338c-0.795,0.285-2.74-0.006-4.129,0.627
		C91.818,138.777,89.45,140.501,87.85,140.67z" stroke-width="none" fill="#771c84" data-stroketype="none" data-filltype="hl05" data-colored="true" stroke="none"></path><path id="SvgjsPath7881" d="M89.751,144.263c0,0,4.543,4.61,8.552,5.88c4.008,1.269,5.813,1.002,9.621-1.604
		c3.809-2.606,5.211-5.211,5.345-6.013c-1.203,2.739-5.942,6.58-11.091,6.748C96.031,149.475,89.751,144.464,89.751,144.263z" stroke-width="none" fill="#6f147c" data-stroketype="none" data-filltype="tone" data-colored="true" stroke="none"></path><path id="SvgjsPath7882" d="M95.168,137.906c0,0-0.733-1.4-0.533-2.667c0.2,1.2,0.6,2.4,1.133,2.667
		c0.533,0.267,1.333,0.133,1.333,0.133s-0.734-2.667-0.4-4.2c0,2.267,0.333,3.8,1.067,4.067c0.733,0.267,1.333,0.133,1.333,0.133
		s-0.467-2.133-0.067-3.067c0.4-0.933-0.267,2.733,0.6,3.067c0.867,0.333,1.534,0.733,2,0.267c0.467-0.467,0.933-1.867,1-3.067
		c0.066-1.2,0.267,2.333-0.2,2.867c-0.466,0.533,0.4,0.2,0.733,0.133c0.334-0.067,2.201-0.6,2.734-2.4
		c0.533-1.8,0.4-0.067-0.067,0.8c-0.466,0.867-1.6,1.733-1.6,1.733l-1.067,0.4c0,0-0.466-0.667-2.199,0.067
		c-1.267-0.133-4.067-0.533-4.067-0.533L95.168,137.906z" stroke-width="none" fill="#771c84" data-stroketype="none" data-filltype="hl05" data-colored="true" stroke="none"></path><path id="SvgjsPath7883" d="M98.096,139.369c0,0,2.01,1.675,2.346,1.633c0.335-0.042,3.015-1.424,3.015-1.424s-0.209-1.131-0.922-1.173
		c-0.712-0.042-1.298,0.754-2.303,0.168C99.226,137.987,98.221,138.699,98.096,139.369z" stroke="none" fill="#000000" data-stroketype="none" data-filltype="#000000" data-colored="false"></path><path id="SvgjsPath7884" d="M110.13,140.888c0.502,0.104,0.672,0.104,0.672,0.104S110.543,140.947,110.13,140.888z" stroke-width="none" fill="#771c84" data-stroketype="none" data-filltype="hl05" data-colored="true" stroke="none"></path><path id="SvgjsPath7885" d="M110.13,140.888c-0.568-0.118-1.562-0.37-3.215-0.907c-3.11-1.011-5.52,1.555-6.219,1.555
						c-0.7,0-1.788-0.078-3.188-1.477c-1.399-1.4-6.141,0.233-6.141,0.233c0.778-0.156,1.785-0.101,2.844,0.061
						c-0.142,0.432-0.068,1.189,0.09,0.819c0.116-0.27,0.233-0.539,0.361-0.744c0.577,0.103,1.161,0.232,1.726,0.373
						c-0.26,0.698-0.478,2.014-0.575,2.614c0.161-0.596,0.692-1.761,1.08-2.485c0.416,0.111,0.815,0.225,1.187,0.336
						c-0.391,0.54-0.71,3.355-0.58,2.372c0.123-0.926,1.046-1.85,1.499-2.088c0.683,0.218,1.186,0.392,1.383,0.451
						c0.131,0.039,0.298,0.06,0.487,0.064c-0.045,0.082-0.1,0.181-0.17,0.306c-0.6,1.067-0.133,2-0.067,2.867
						c-0.082-1.555,0.49-2.582,1.067-3.236c0.68-0.106,1.475-0.341,2.201-0.688c0.151,0.952-0.025,3.173,0.333,2.457
						c0.332-0.664,0.205-2.104,0.114-2.691c0.052-0.03,0.105-0.058,0.154-0.089c0.274-0.167,0.682-0.268,1.16-0.324
						c1.029,0.976,0.574,4.622,0.772,2.972c0.189-1.573-0.13-2.642-0.36-3.008C107.444,140.547,109.191,140.754,110.13,140.888z
						 M98.313,141.337c0.163,0.05,0.321,0.098,0.471,0.145C98.619,141.441,98.462,141.393,98.313,141.337z" stroke-width="none" fill="#771c84" data-stroketype="none" data-filltype="hl05" data-colored="true" stroke="none"></path><path id="SvgjsPath7886" d="M95.814,143.416c-0.023,0.088-0.039,0.163-0.045,0.223C95.75,143.827,95.768,143.704,95.814,143.416z" stroke-width="none" fill="#771c84" data-stroketype="none" data-filltype="hl05" data-colored="true" stroke="none"></path></g><g id="svga-group-eyes-left" data-updown="0" data-leftright="-3.0000002999999995" data-dist="0" data-scalex="1" data-scaley="1" data-rotate="0" transform="matrix(1.1852997800000002 0 0 1.1852997800000002 -13.184820384652255 -16.30619544200823) translate(-3.0000001999999997 0)"><g id="svga-group-eyesback-left"><path id="SvgjsPath10094" d="M60.956 84.178c11.334-7.516 23.563-3.623 26.092 3.5 0.994 2.798 0.327 5.276-1.739 6.934C70.023 100.123 62.391 92.664 60.956 84.178z" data-colored="false" data-filltype="gradient" data-stroketype="none" fill="url(#SvgjsRadialGradient10095)" opacity="1"></path></g><g id="svga-group-eyesiriswrapper-left" transform="translate(-0.5 1.5)"><g id="svga-group-eyesiriscontrol-left" data-updown="0" data-leftright="0" data-dist="0" data-scalex="1" data-scaley="1" data-rotate="0"><g id="svga-group-eyesiris-left" data-updown="0" data-leftright="0" data-dist="0" data-scalex="1" data-scaley="1" data-rotate="0"><path id="SvgjsPath1097" d="M83.5 87.001c0 4.693-3.806 8.498-8.5 8.498s-8.5-3.805-8.5-8.498c0-4.697 3.806-8.502 8.5-8.502S83.5 82.304 83.5 87.001z" data-colored="true" data-filltype="tone" data-stroketype="sd3" stroke="#a143bc" stroke-width="0.5" opacity="1" fill="#d899ea"></path><path id="SvgjsPath1098" d="M70.058 90.974c1.241-0.103 0.142-0.434 0.142-0.434 -0.613-0.331-1.768-0.839-1.768-1.306 0-1.461 2.002-1.839-0.048-2.416 -2.13-1.955 1.653-1.914 1.625-1.98 -1.381-3.366 0.423-1.518 1.183-2.512 2.816-3.682 0.785 0.378 2.314 0 0.554-0.136-1.105-2.169 0.048-1.884 0.763 0.187 0.937 0.821 0.937 0.821 0.557-0.109 1.428-0.966 1.428-0.966 1.061 0.32 1.806 1.827 1.478 1.545 0.522-0.063 1.252-0.313 1.822-0.483 0 0 0.1-0.338 0.196-0.047 1.3 3.77 4.652 3.5 0.792 4.589 0 0-0.249 0 0.542 0.627 3.839 3.066-2.978 2.117 0.638 3.527 0.147-0.146-2.167 1.368-2.167 1.787 0 0.71-1.477 2.576-2.757 1.841 -0.714-0.408-0.823 0.85-1.243 0.269 -0.823-1.138-2.467-0.049-1.859-1.095 0.898-0.737-0.926 0.289-1.28 0.289 -1.172 0 1.534-3.942 5.516-1.013 1.165 0.853-1.224-2.03 0.886-2.03 0.211 0.069 0.148-0.739 0.148-0.966 -1.098-0.215 1.969-0.005 1.969-1.788 0.193 0.039 0.721-0.495-2.316 0 0 0-0.097-1.063-0.048-1.256 0.156-0.62 1.72-0.422 1.28-1.063 -0.001-0.001-1.132-2.272-1.132-2.272 -3.645-0.586-1.562-0.952-3.841-0.483 -0.108 0.535-4.881 2.811-4.729 3.866 0.142 0.995 2.997 1.328 0.295 3.091C74.157 96.989 67.118 89.06 70.058 90.974z" data-colored="true" data-filltype="hl1" data-stroketype="none" fill="#ecbcf9" stroke-width="none" opacity="1"></path><path id="SvgjsPath1099" d="M75,79.562l0.243,6.223l2.603-5.656l-2.158,5.84l4.572-4.229l-4.229,4.57l5.842-2.157l-5.655,2.604l6.222,0.242l-6.222,0.242l5.655,2.604l-5.842-2.157l4.229,4.57l-4.572-4.229l2.158,5.84l-2.603-5.656L75,94.437l-0.243-6.223l-2.604,5.656l2.156-5.84l-4.57,4.229l4.229-4.57l-5.842,2.157l5.655-2.604l-6.219-0.242l6.219-0.242l-5.655-2.604l5.842,2.157l-4.229-4.57l4.57,4.229l-2.156-5.84l2.604,5.656L75,79.562z" data-colored="true" data-filltype="tone" data-stroketype="sd1" stroke="#c579db" stroke-width="0.5" opacity="1" fill="#d899ea"></path><path id="SvgjsPath1100" d="M76.128,81.428l-0.764,4.697l2.808-3.841l-2.501,4.047l4.065-2.476l-3.859,2.783l4.702-0.73l-4.632,1.092l4.626,1.125l-4.699-0.762l3.842,2.808l-4.05-2.5l2.476,4.064l-2.783-3.86l0.73,4.702l-1.092-4.632l-1.126,4.625l0.764-4.697l-2.811,3.841l2.504-4.048l-4.064,2.476l3.86-2.783l-4.702,0.73l4.631-1.093l-4.625-1.125l4.697,0.761l-3.842-2.808l4.05,2.5l-2.475-4.064l2.782,3.86l-0.73-4.701l1.095,4.632L76.128,81.428z" data-colored="true" data-filltype="tone" data-stroketype="sd2" stroke="#b35ccb" stroke-width="0.5" opacity="1" fill="#d899ea"></path><path id="SvgjsPath1101" d="M78.188 87c0 1.761-1.428 3.187-3.188 3.187S71.813 88.76 71.813 87c0-1.76 1.428-3.188 3.188-3.188S78.188 85.239 78.188 87z" data-colored="false" data-filltype="#000000" data-stroketype="none" fill="#000000" stroke-width="none" opacity="0.9"></path><path id="SvgjsPath1102" d="M71.653 93.108c-0.469 0.469-1.396 0.304-2.069-0.37 -0.674-0.673-0.84-1.6-0.37-2.069 0.469-0.469 1.396-0.304 2.069 0.37S72.123 92.638 71.653 93.108z" data-colored="false" data-filltype="#ffffff" data-stroketype="none" fill="#ffffff" stroke-width="none" opacity="0.7"></path><path id="SvgjsPath1103" d="M81.809 85.326c-0.702 0.703-2.404 0.142-3.8-1.255 -1.396-1.396-1.958-3.097-1.255-3.8 0.703-0.703 2.404-0.142 3.8 1.255C81.95 82.922 82.511 84.624 81.809 85.326z" data-colored="false" data-filltype="#ffffff" data-stroketype="none" fill="#ffffff" stroke-width="none" opacity="0.9"></path></g></g></g><g id="svga-group-eyesfront-left"><path id="SvgjsPath10119" d="M56 88c0 13.808 8.06 24.999 18 24.999S92 101.808 92 88c0-13.809-8.06-25.001-18-25.001S56 74.191 56 88zM60.956 84.178c11.334-7.516 23.563-3.623 26.092 3.5 0.994 2.798 0.327 5.276-1.739 6.934C70.023 100.123 62.391 92.664 60.956 84.178z" data-colored="true" data-filltype="tone" data-stroketype="none" data-fromskin="true" fill="#d50f87" stroke-width="none" opacity="1" stroke="none"></path><path id="SvgjsPath10120" d="M58.286 88.081c0.025 8.284 8.099 14.961 18.043 14.918 9.939-0.047 17.979-6.796 17.957-15.08 -0.025-8.286-8.101-14.963-18.043-14.92C66.3 73.046 58.264 79.795 58.286 88.081zM60.956 84.178c11.334-7.516 23.563-3.623 26.092 3.5 0.994 2.798 0.327 5.276-1.739 6.934C70.023 100.123 62.391 92.664 60.956 84.178z" data-colored="false" data-filltype="gradient" data-stroketype="none" data-fromskin="true" fill="url(#SvgjsRadialGradient10121)" opacity="1"></path><path id="SvgjsPath10125" d="M60.956 84.178c11.334-7.516 23.563-3.623 26.092 3.5 0.994 2.798 0.327 5.276-1.739 6.934C70.023 100.123 62.391 92.664 60.956 84.178z" data-colored="false" data-filltype="gradient" data-stroketype="none" fill="url(#SvgjsRadialGradient10126)" opacity="1"></path><path id="SvgjsPath10129" d="M67.99 77.86c6.02-0.57 13.485-1.112 20.077 3.386C79.514 77.213 75.347 77.714 67.99 77.86z" data-colored="true" data-filltype="sd3" data-stroketype="none" data-fromskin="true" fill="#a70065" stroke-width="none" opacity="1" stroke="none"></path><path id="SvgjsPath10130" d="M91.581 88.655c-1.807-2.671-3.564-4.351-6.535-6.319 1.776 0.43 3.052 0.963 5.007 1.944 -9.685-6.58-18.436-6.346-25.183-5.36l4.046 0.469 -2.973 0.675c-1.69 0.179-4.387-0.234-5.708-0.369l3.727 1.265c-1.922 0.919-4.02 0.629-6.643 0.475l2.031 1.622C57.485 83.25 55.904 82.72 54 82.067c2.144 3.765 4.103 5.901 7.695 7.897 1.612 2.208 2.915 3.317 5.439 4.805 -0.137 0.221-0.366 0.468-0.778 0.633 1.035-0.03 1.458-0.112 1.822 0 0.855 0.469 1.561 0.759 2.384 1.054 -0.377 0.269-0.646 0.381-1.173 0.474 1.02-0.094 1.959-0.311 2.554-0.158 2.582 0.303 4.583 0.346 7.408-0.211 1.183-0.263 2.188 0.03 3.111-0.053 -0.473-0.116-1.036-0.276-1.265-0.316l4.11-1.738C70.023 99.83 62.391 92.556 60.956 84.28c11.334-7.33 23.563-3.533 26.092 3.414 0.07-1.258-0.429-2.536-1.792-3.678C87.487 85.082 89.774 86.723 91.581 88.655z" data-colored="true" data-filltype="tone" data-stroketype="none" fill="#151010" stroke-width="none" opacity="1" stroke="none"></path></g></g><g id="svga-group-eyes-right" data-updown="0" data-leftright="3.0000002999999995" data-dist="0" data-scalex="1" data-scaley="1" data-rotate="0" transform="matrix(1.1852997800000002 0 0 1.1852997800000002 -23.875226093755998 -16.30619544200823) translate(3.0000001999999997 0)"><g id="svga-group-eyesback-right"><path id="SvgjsPath10102" d="M139.044 84.178c-11.334-7.516-23.563-3.623-26.092 3.5 -0.994 2.798-0.327 5.276 1.739 6.934C129.977 100.123 137.609 92.664 139.044 84.178z" data-colored="false" data-filltype="gradient" data-stroketype="none" fill="url(#SvgjsRadialGradient10103)" opacity="1"></path></g><g id="svga-group-eyesiriswrapper-right" transform="translate(0.5 1.5)"><g id="svga-group-eyesiriscontrol-right" data-updown="0" data-leftright="0" data-dist="0" data-scalex="1" data-scaley="1" data-rotate="0"><g id="svga-group-eyesiris-right" data-updown="0" data-leftright="0" data-dist="0" data-scalex="1" data-scaley="1" data-rotate="0"><path id="SvgjsPath1104" d="M133.5 87.001c0 4.692-3.806 8.498-8.5 8.498s-8.5-3.806-8.5-8.498c0-4.697 3.806-8.502 8.5-8.502S133.5 82.304 133.5 87.001z" data-colored="true" data-filltype="tone" data-stroketype="sd3" stroke="#a143bc" stroke-width="0.5" opacity="1" fill="#d899ea"></path><path id="SvgjsPath1105" d="M120.059 90.974c1.24-0.103 0.142-0.434 0.142-0.434 -0.613-0.33-1.768-0.838-1.768-1.305 0-1.461 2.002-1.84-0.048-2.416 -2.131-1.956 1.652-1.915 1.625-1.981 -1.382-3.366 0.423-1.518 1.182-2.512 2.816-3.682 0.785 0.378 2.314 0 0.555-0.136-1.104-2.169 0.048-1.884 0.763 0.186 0.938 0.821 0.938 0.821 0.557-0.109 1.428-0.966 1.428-0.966 1.061 0.32 1.806 1.828 1.478 1.546 0.521-0.063 1.252-0.313 1.821-0.483 0 0 0.1-0.338 0.196-0.046 1.3 3.77 4.652 3.499 0.791 4.589 0 0-0.249 0 0.542 0.627 3.84 3.065-2.978 2.117 0.638 3.527 0.148-0.147-2.167 1.367-2.167 1.786 0 0.711-1.477 2.576-2.757 1.842 -0.714-0.409-0.822 0.85-1.243 0.269 -0.823-1.138-2.468-0.049-1.859-1.095 0.898-0.737-0.926 0.288-1.28 0.288 -1.172 0 1.534-3.942 5.516-1.013 1.165 0.854-1.225-2.029 0.886-2.029 0.212 0.069 0.148-0.739 0.148-0.967 -1.097-0.214 1.97-0.004 1.97-1.787 0.193 0.038 0.721-0.496-2.316 0 0 0-0.097-1.064-0.048-1.256 0.156-0.619 1.721-0.422 1.28-1.063 -0.001-0.001-1.133-2.271-1.133-2.271 -3.645-0.587-1.562-0.953-3.84-0.483 -0.108 0.535-4.881 2.811-4.729 3.866 0.142 0.994 2.996 1.328 0.295 3.092C124.157 96.989 117.118 89.06 120.059 90.974z" data-colored="true" data-filltype="hl1" data-stroketype="none" fill="#ecbcf9" stroke-width="none" opacity="1"></path><path id="SvgjsPath1106" d="M125,79.562l0.242,6.222l2.604-5.656l-2.158,5.84l4.571-4.228l-4.229,4.57l5.842-2.157l-5.655,2.604l6.222,0.242l-6.222,0.242l5.655,2.604l-5.842-2.157l4.229,4.57l-4.571-4.228l2.158,5.84l-2.604-5.656L125,94.437l-0.242-6.222l-2.605,5.656l2.157-5.84l-4.57,4.228l4.229-4.57l-5.842,2.157l5.654-2.604l-6.219-0.242l6.219-0.242l-5.654-2.604l5.842,2.157l-4.229-4.57l4.57,4.228l-2.157-5.84l2.605,5.656L125,79.562z" data-colored="true" data-filltype="tone" data-stroketype="sd1" stroke="#c579db" stroke-width="0.5" opacity="1" fill="#d899ea"></path><path id="SvgjsPath1107" d="M126.128,81.428l-0.764,4.697l2.808-3.841l-2.501,4.047l4.064-2.475l-3.859,2.782l4.702-0.73l-4.632,1.093l4.626,1.125l-4.699-0.762l3.843,2.808l-4.05-2.5l2.476,4.063l-2.783-3.86l0.73,4.702l-1.092-4.632l-1.126,4.625l0.764-4.697l-2.812,3.841l2.505-4.047l-4.065,2.475l3.86-2.782l-4.702,0.73l4.631-1.094l-4.624-1.124l4.696,0.761l-3.842-2.808l4.05,2.501l-2.476-4.063l2.782,3.86l-0.73-4.702l1.095,4.632L126.128,81.428z" data-colored="true" data-filltype="tone" data-stroketype="sd2" stroke="#b35ccb" stroke-width="0.5" opacity="1" fill="#d899ea"></path><path id="SvgjsPath1108" d="M128.188 87c0 1.761-1.428 3.187-3.188 3.187s-3.188-1.426-3.188-3.187c0-1.76 1.428-3.188 3.188-3.188S128.188 85.239 128.188 87z" data-colored="false" data-filltype="#000000" data-stroketype="none" fill="#000000" stroke-width="none" opacity="0.9"></path><path id="SvgjsPath1109" d="M121.653 93.108c-0.47 0.469-1.396 0.304-2.069-0.369 -0.674-0.673-0.84-1.601-0.369-2.07 0.469-0.47 1.395-0.304 2.068 0.369C121.956 91.712 122.122 92.639 121.653 93.108z" data-colored="false" data-filltype="#ffffff" data-stroketype="none" fill="#ffffff" stroke-width="none" opacity="0.7"></path><path id="SvgjsPath1110" d="M131.809 85.326c-0.702 0.703-2.403 0.142-3.8-1.254 -1.396-1.396-1.957-3.098-1.256-3.8 0.703-0.703 2.405-0.142 3.8 1.254C131.949 82.922 132.512 84.624 131.809 85.326z" data-colored="false" data-filltype="#ffffff" data-stroketype="none" fill="#ffffff" stroke-width="none" opacity="0.9"></path></g></g></g><g id="svga-group-eyesfront-right"><path id="SvgjsPath10140" d="M126 62.999c-9.94 0-18 11.193-18 25.001 0 13.808 8.06 24.999 18 24.999S144 101.808 144 88C144 74.191 135.94 62.999 126 62.999zM114.691 94.612c-2.066-1.658-2.733-4.135-1.739-6.934 2.528-7.123 14.758-11.016 26.092-3.5C137.609 92.664 129.977 100.123 114.691 94.612z" data-colored="true" data-filltype="tone" data-stroketype="none" data-fromskin="true" fill="#d50f87" stroke-width="none" opacity="1" stroke="none"></path><path id="SvgjsPath10141" d="M123.757 72.999c-9.942-0.043-18.018 6.635-18.043 14.92 -0.022 8.284 8.018 15.032 17.957 15.08 9.944 0.043 18.018-6.635 18.043-14.918C141.736 79.795 133.7 73.046 123.757 72.999zM114.691 94.612c-2.066-1.658-2.733-4.135-1.739-6.934 2.528-7.123 14.758-11.016 26.092-3.5C137.609 92.664 129.977 100.123 114.691 94.612z" data-colored="false" data-filltype="gradient" data-stroketype="none" data-fromskin="true" fill="url(#SvgjsRadialGradient10142)" opacity="1"></path><path id="SvgjsPath10146" d="M139.044 84.178c-11.334-7.516-23.563-3.623-26.092 3.5 -0.994 2.798-0.327 5.276 1.739 6.934C129.977 100.123 137.609 92.664 139.044 84.178z" data-colored="false" data-filltype="gradient" data-stroketype="none" fill="url(#SvgjsRadialGradient10147)" opacity="1"></path><path id="SvgjsPath10150" d="M111.933 81.247c6.592-4.498 14.058-3.956 20.077-3.386C124.653 77.714 120.486 77.213 111.933 81.247z" data-colored="true" data-filltype="sd3" data-stroketype="none" data-fromskin="true" fill="#a70065" stroke-width="none" opacity="1" stroke="none"></path><path id="SvgjsPath10151" d="M108.419 88.655c1.807-2.671 3.564-4.351 6.535-6.319 -1.776 0.43-3.052 0.963-5.007 1.944 9.685-6.58 18.436-6.346 25.183-5.36l-4.046 0.469 2.973 0.675c1.69 0.179 4.387-0.234 5.708-0.369l-3.727 1.265c1.922 0.919 4.02 0.629 6.643 0.475l-2.031 1.622c1.865 0.194 3.446-0.335 5.351-0.989 -2.144 3.765-4.103 5.901-7.695 7.897 -1.612 2.208-2.915 3.317-5.439 4.805 0.137 0.221 0.366 0.468 0.778 0.633 -1.035-0.03-1.458-0.112-1.822 0 -0.855 0.469-1.561 0.759-2.384 1.054 0.377 0.269 0.646 0.381 1.173 0.474 -1.02-0.094-1.959-0.311-2.554-0.158 -2.582 0.303-4.583 0.346-7.408-0.211 -1.183-0.263-2.188 0.03-3.111-0.053 0.473-0.116 1.036-0.276 1.265-0.316l-4.11-1.738c15.285 5.374 22.918-1.899 24.353-10.175 -11.334-7.33-23.563-3.533-26.092 3.414 -0.07-1.258 0.429-2.536 1.792-3.678C112.513 85.082 110.226 86.723 108.419 88.655z" data-colored="true" data-filltype="tone" data-stroketype="none" fill="#151010" stroke-width="none" opacity="1" stroke="none"></path></g></g><g id="svga-group-facehighlight-single" data-updown="0" data-leftright="0" data-dist="0" data-scalex="1" data-scaley="1" data-rotate="0"><path id="SvgjsPath1049" d="M140.204 113.007c0.035 22.275-17.995 40.365-40.273 40.396 -22.274 0.036-40.361-17.993-40.396-40.272C59.501 90.857 77.53 72.77 99.808 72.735 122.083 72.701 140.171 90.73 140.204 113.007z" data-colored="false" data-filltype="gradient" data-stroketype="none" data-fromskin="true" fill="url(#SvgjsRadialGradient1050)" opacity="1"></path><path id="SvgjsPath1053" d="M135,55.999c0,19.329-15.671,35-35,35c-19.329,0-35-15.671-35-35s15.671-35,35-35C119.329,20.999,135,36.67,135,55.999z" data-colored="false" data-filltype="gradient" data-stroketype="none" data-fromskin="true" fill="url(#SvgjsRadialGradient1054)" opacity="1"></path></g><g id="svga-group-eyebrows-left" data-updown="1.0000000999999994" data-leftright="0" data-dist="0" data-scalex="1.0021997800000002" data-scaley="1.0021997800000002" data-rotate="7.5000001" transform="matrix(1.0021998900000002 0 0 1.0021998900000002 -0.16683085901347283 -0.15315083435444876) rotate(7.500000200000001 74.50749778747559 71.80699920654297) translate(0 0.9999999999999994)"><path id="SvgjsPath3441" d="M56.113 70.739c32.178-9.407 39.48 9.836 32.802 3.849C81.977 68.368 65.958 68.92 56.113 70.739z" data-colored="true" data-filltype="#000000" data-stroketype="none" fill="#fef6e1" stroke-width="none" opacity="1"></path></g><g id="svga-group-eyebrows-right" data-updown="1.0000000999999994" data-leftright="0" data-dist="0" data-scalex="1.0021997800000002" data-scaley="1.0021997800000002" data-rotate="-7.4999999" transform="matrix(1.0021998900000002 0 0 1.0021998900000002 -0.27563742898729515 -0.15231158417428503) rotate(-7.5 125.34200286865234 72.03250503540039) translate(0 0.9999999999999994)"><path id="SvgjsPath3442" d="M143.889 70.731c-9.304-1.701-22.773-2.38-30.946 2.53 -1.01 0.606-5.017 4.041-3.951 1.625C110.929 70.486 123.744 64.882 143.889 70.731z" data-colored="true" data-filltype="#000000" data-stroketype="none" fill="#fef6e1" stroke-width="none" opacity="1"></path></g><g id="svga-group-nose-single" data-updown="0" data-leftright="0" data-dist="0" data-scalex="1" data-scaley="1" data-rotate="0"><path id="SvgjsPath1195" d="M100.906,119.814c-0.402,0.434-0.73,0.381-1.108-0.07c0,0-4.82-3.077-4.208-4.488c0.967-2.233,9.735,0,9.735,0L100.906,119.814z" data-colored="true" data-filltype="sd1" data-stroketype="none" data-fromskin="true" fill="#c60078" stroke-width="none" opacity="1" stroke="none"></path><path id="SvgjsPath1196" d="M94.389,113.263c0,0,4.937-12.754,5.366-15.484c0.814,4.431-1.917,14.293-2.125,16.306c-0.251,2.444,2.645,5.497,2.645,5.497c0.238,0.544,0.062,0.682-0.395,0.313l-5.077-3.354C93.601,115.627,93.601,114.756,94.389,113.263z M102.579,115.924c0.7,0.143,0.847,0.395,0.793,0.655c-0.054,0.264-0.354,0.625-0.986,0.295c-0.695-0.36-2.005-0.525-2.005-0.525S101.879,115.78,102.579,115.924z" data-colored="true" data-filltype="sd3" data-stroketype="none" data-fromskin="true" fill="#a70065" stroke-width="none" opacity="1" stroke="none"></path></g><g id="svga-group-beardwrap" data-updown="0" data-leftright="0" data-dist="0" data-scalex="1" data-scaley="1" data-rotate="0"><g id="svga-group-beard-single" data-updown="0" data-leftright="0" data-dist="0" data-scalex="1" data-scaley="1" data-rotate="0"></g></g><g id="svga-group-mustache-single" data-updown="0" data-leftright="0" data-dist="0" data-scalex="1" data-scaley="1" data-rotate="0"></g><g id="svga-group-hair-front" data-updown="0" data-leftright="0" data-dist="0" data-scalex="1.0927995600000004" data-scaley="1.0131995600000003" data-rotate="0" transform="matrix(1.0927996700000004 0 0 1.0131996700000003 -8.849237199298045 -1.5048282665669461)"><path id="SvgjsPath4635" d="M151.686 97.871c0-11.927-0.214-18.574-3.512-30.116 -1.318-4.613-5.302-8.946-8.959-13.721 -3.451-4.509-6.078-10.609-9.096-16.049 -5.616 3.104-11.944 5.362-20.059 6.589 -4.189 0.633-9.402 1.421-15.795 2.708 -22.479 4.515-44.862 12.433-47.426 30.883 -2.551 14.437-13.806-33.235 53.641-45.936 49.198-9.264 63.93 13.61 60.493 39.159C159.061 85.624 151.686 97.871 151.686 97.871z" opacity="0.1" stroke-width="none" fill="#c52f8a" data-stroketype="none" data-filltype="tone" data-colored="true"></path><path id="SvgjsPath4636" d="M151.417 100.722c2.836-14.29 3.792-26.049-0.761-36.989 -1.874-4.503-5.385-9.09-9.102-13.947 -3.507-4.582-7.132-9.319-10.193-14.848 -5.702 3.156-11.177 3.985-19.42 5.232 -4.256 0.644-9.551 1.445-16.048 2.752 -22.833 4.591-44.64 11.3-49.561 29.146 -2.594 14.676 0.425 24.889 0.562 25.339l0.031 0.095 -0.043 0.136 -0.06 0.083h-0.25l-0.059-0.193c-0.084-0.259-0.868-2.604-3.153-7.5 -7.005-15.01-12.961-31.84-2.395-57.841C47.262 16.686 55.446 6.695 67.499-0.208 77.797-6.107 87.54-8.975 97.284-8.975c8.261 0 21.392 3.475 21.588 4.475 8.281 0.491 15.644-0.313 27.202 12.248 8.979 9.761 21.073 33.709 17.583 59.679 -1.943 14.471-7.979 25.874-10.557 30.743 -0.692 1.308-1.193 2.253-1.294 2.643L151.417 100.722z" opacity="1" stroke-width="none" fill="#c52f8a" data-stroketype="none" data-filltype="tone" data-colored="true"></path><path id="SvgjsPath4637" d="M163.657 67.426c-1.984 14.777-11.24 32.525-12.24 32.296 2.836-14.29 3.792-25.049-0.761-35.989 -4.134-9.933-16.133-20.627-18.963-28.787 -2.224 1.728-8.598 3.397-19.752 5.224 -4.248 0.696-9.551 1.445-16.048 2.752 -22.833 4.591-44.64 11.3-49.561 29.146 -3.892 22.017 4.976 35.981-2.973 18.959 -7.005-15.01-12.961-33.14-2.395-59.141C47.648 15.432 58.337 0.003 75.085-5.464c2.904-0.948 3.78-0.194 0.897 0.961C61.014 1.515 52.744 15.485 45.689 33.832c0 0 0.304-7.335 3.513-13.843 -7.833 13.622-13.98 27.905-8.879 51.601 -0.951-16.854 7.507-30.616 16.673-37.783 -8.38 11.338-12.324 20.929-12.294 31.598 5.167-13.667 16.371-22.259 31.5-24.667 18.59-2.958 48.883-7.153 56.491-13.126 0.312-0.347 0.653-0.686 1.066-1.008 0 6.396 2.777 9.232 5.24 11.396 13.915 12.229 19 28 18 45 2-17-1-34-10-48 8 8 12 19 14 30 1.22-17.085-3.16-33.417-10.611-48.104 2.134 6.681 2.111 12.406 2.39 12.865 -0.604-1-3.022-28.786-28.181-34.475C150.934-1.238 167.531 38.596 163.657 67.426zM149.595 45.788c-0.771-1.002-10.38-14.231-10.343-22.229C138.123 33.06 142.384 36.429 149.595 45.788zM64.803 31.048c8.477-6.569 14.928-9.919 25.442-12.212 6.227-1.359 15.22-1.644 27.042-4.067 0.04-0.008 0.081-0.019 0.122-0.026 0 0-10.631 3.032-26.412 5.793C80.345 22.399 75.041 24.457 64.803 31.048zM84.513 4.102c19.225-4.631 36.823-3.665 50.436 10.549C126.995 6.347 110.959-0.393 84.513 4.102z" opacity="1" stroke-width="none" fill="#b61978" data-stroketype="none" data-filltype="sd1" data-colored="true"></path><path id="SvgjsPath4638" d="M49.353 54.83c6.177-10.488 12.681-17.599 24.109-21.923 21.07-7.974 37.013-3.576 60.369-11.915 -4.557 1.627-7.094 4.249-33.97 7.959 -17.238 2.382-25.38 4.37-31.725 7.597C59.112 41.139 54.101 47.572 49.353 54.83zM102.038 5.505c-0.013 0.002-0.087 0.005-0.09 0.005 -7.204 0.476-33.15-0.68-52.604 29.249C66.716 12.814 83.166 9.125 102.038 5.505z" opacity="1" stroke-width="none" fill="#a60667" data-stroketype="none" data-filltype="sd2" data-colored="true"></path><path id="SvgjsPath4639" d="M51.695 46.43c10.477-13.847 18.136-17.225 29.399-18.928C66.793 29.664 51.695 45.36 51.695 46.43 52.058 45.951 51.695 46.43 51.695 46.43zM67.385 8.454C51.056 18.625 47.031 32.039 46.892 33.039 49.467 26.4 59.661 13.267 67.385 8.454zM157.313 77.406c-0.259-9.621 0.057-23.952-14.679-35.755C154.329 52.545 155.494 65.235 157.313 77.406zM57.213 33.421c-0.637 0.263-5.713 5.016-6.229 5.533 -9.832 9.842-11.415 18.801-10.542 32.632C40.237 45.783 56.213 33.833 57.213 33.421zM141.658 19.382c7.828 10.565 12.673 21.56 15.459 29.502 -2.193-5.436-5.308-10.323-10.242-14.787 6.684 7.154 13.271 23.233 13.731 28.865C160.524 61.956 161.244 40.477 141.658 19.382zM100.645 37.108c25.392-4.578 25.475-6.359 33.177-10.399 -8.732 4.581-10.754 5.984-33.37 9.444 -25.869 3.957-47.642 6.37-54.768 27.178C53.682 42.119 75.816 41.586 100.645 37.108z" opacity="1" stroke-width="none" fill="#d4489d" data-stroketype="none" data-filltype="hl1" data-colored="true"></path><path id="SvgjsPath4640" d="M151.28 11.084c-7.513-9.719-18.752-17.241-30.852-15.839C89.597-19.604 53.174-3.752 38.345 33.664 25.039 67.235 46.132 101.756 47.706 101c2.401-1.154-4.167-18.054 1.153-30.882 5.416-13.059 25.43-19.579 45.658-24.673 19.117-4.815 27.417-4.69 36.338-9.523 0.003-0.001 0.005-0.003 0.008-0.005 6.412 12.427 14.565 20.061 18.671 31.197 4.276 11.604-0.18 34.874 0.916 35.321 2.902 1.185 11.388-19.541 13.871-30.778C169.387 48.739 163.207 26.516 151.28 11.084zM163.459 67.399c-2.461 18.324-11.344 30.421-11.846 32.362 2.592-13.059 4.02-24.59-0.772-36.105 -3.604-8.663-12.96-17.276-19.401-28.991 -8.695 4.882-16.492 4.22-35.586 8.06C75.84 46.75 51.348 53.125 46.139 72.015c-3.956 22.372 3.399 31.39-2.599 18.928 -4.586-9.527-12.923-32.762-2.391-58.681C46.815 18.316 54.489 7.473 67.599-0.035c19.982-11.446 35.868-10.229 50.924-4.437 1.509-0.282-8.718 2.916-13.15 3.695 6.495 3.255 19.759-13.941 40.555 8.659C155.79 18.604 166.764 42.811 163.459 67.399z" opacity="1" stroke-width="none" fill="#97005c" data-stroketype="none" data-filltype="sd3" data-colored="true"></path></g><g id="svga-group-glasses-single" data-updown="0" data-leftright="0" data-dist="0" data-scalex="1" data-scaley="1" data-rotate="0" transform="matrix(1.1831 0 0 1.1831 -18.309999301528933 -15.768571804428106)"><path id="SvgjsPath8585" d="M143.62 100.1c-2.36 2.2-6.23 3.04-13.56 3.04 -9.78 0-16.18-1.09-20.41-9.51 -3.29-6.54-4.62-13.56-3.02-15.98 2.21-3.34 8.57-5.61 15.67-6.28C134.63 77.23 143.29 88.98 143.62 100.1zM72.01 71.17c-7.64 0.21-15.09 2.35-18.27 7.05 -2.18 3.21-1.69 12.55-0.22 16.94 2 5.99 5.07 7.98 16.42 7.98 9.78 0 16.18-1.09 20.41-9.51 0.42-0.84 0.81-1.69 1.17-2.54C88.29 82.95 81.16 75.43 72.01 71.17z" data-colored="false" data-filltype="#ffffff" data-stroketype="none" fill="#ffffff" stroke-width="none" opacity="0.2"></path><path id="SvgjsPath8586" d="M146.48 95.17c-0.71 2.12-1.56 3.73-2.86 4.94 -0.33-11.12-8.99-22.87-21.33-28.74 9.37-0.89 19.99 0.99 23.97 6.86C148.44 81.44 147.95 90.77 146.48 95.17zM93.38 77.65c-2.79-4.23-12.22-6.73-21.37-6.47 9.16 4.25 16.28 11.77 19.52 19.92C93.94 85.36 94.77 79.76 93.38 77.65z" data-colored="false" data-filltype="#ffffff" data-stroketype="none" fill="#ffffff" stroke-width="none" opacity="0.4"></path><path id="SvgjsPath8587" d="M151.79 73.61c-10.18-5.46-36.14-7.01-45.5 0.15 -0.8 0.47-4.23-0.53-6.29-0.53 -1.95 0-5.42 1.05-6.29 0.53 -9.36-7.16-35.32-5.61-45.5-0.15 -1.46 0.79-1.62 4.51-0.35 5.08 0.91 0.41 1.51 0.98 1.46 1.98C49 86.29 50.55 93.59 51.23 95.6c0.87 2.59 2.44 7.41 9.29 8.6 5.83 1.01 16.43 1.48 21.94-0.17 9.99-2.98 14.24-18.04 14.42-23.17l0.01 0.02c0.4-1.8 5.82-1.8 6.23 0l0.01-0.02c0.17 5.13 4.43 20.19 14.42 23.17 5.51 1.65 16.11 1.18 21.94 0.17 6.85-1.19 8.42-6.01 9.29-8.6 0.68-2.02 2.23-9.31 1.92-14.93 -0.05-1 0.56-1.57 1.46-1.98C153.41 78.12 153.25 74.4 151.79 73.61zM81.41 101.36c-5.06 1.51-14.32 1.61-19.71 0.67 -4.54-0.79-6.44-3.26-7.7-7.03 -1.48-4.4-1.87-13.51 0.16-16.5 6.76-9.98 33.87-8.05 38.8-0.58C95.16 81.27 90.89 98.53 81.41 101.36zM146 95.01c-1.26 3.77-3.17 6.24-7.7 7.03 -5.39 0.94-14.65 0.84-19.71-0.67 -9.48-2.83-13.75-20.09-11.55-23.44 4.93-7.47 32.04-9.4 38.8 0.58C147.87 81.49 147.48 90.61 146 95.01z" data-colored="true" data-filltype="tone" data-stroketype="none" fill="#edd218" stroke-width="none" opacity="1"></path><path id="SvgjsPath8588" d="M118.58 101.32c2.79 0.83 6.86 1.24 10.85 1.27 -12.54 1.22-15.39-3.4-17.12-5.16 -3.52-3.59-5.69-8.95-5.85-16.65C106.49 86.86 110.76 98.99 118.58 101.32zM93.69 73.72c-9.36-7.16-35.32-5.62-45.5-0.15C71.43 67.05 84.93 70.42 93.69 73.72zM61.68 102c-4.54-0.79-6.44-3.26-7.7-7.03 -1.32-3.93-1.77-11.62-0.4-15.35 -1.83 4.22-1.12 12.39 0.26 16.5 1.6 4.8 4.54 7.18 17.34 6.46C67.71 102.65 64.25 102.44 61.68 102zM152.97 76.3c-0.04-1.13-0.45-2.32-1.2-2.73 -9.98-5.36-35.14-6.94-44.93-0.25C120 68.05 138.97 67.31 152.97 76.3z" data-colored="true" data-filltype="hl1" data-stroketype="none" fill="#fce333" stroke-width="none" opacity="1"></path></g></g></g><g id="svga-group-bubble-single" data-updown="0" data-leftright="0" data-dist="0" data-scalex="1" data-scaley="1" data-rotate="0" transform="matrix(1 0 0 1 1 1) translate(-2.2 -33.6)"><path id="SvgjsPath10353" d="M54.677,33.182v0.002c29.339,0,53.121,14.865,53.121,33.203c0,10.421-7.682,19.718-19.695,25.805
			c-0.146,0.748-0.225,1.512-0.225,2.291c0,5.578,6.171,10.459,13.281,13.14v2.148c-13.168-0.233-26.788-1.807-38.199-10.585
			c-2.698,0.264-5.463,0.402-8.281,0.402c-29.339,0-53.121-14.865-53.121-33.203s23.782-33.203,53.121-33.203H54.677z" stroke-width="none" fill="#ffffff" data-stroketype="none" data-filltype="tone" data-colored="true"></path><path id="SvgjsPath10354" d="M101.154,109.934c-13.012-0.231-26.653-1.672-38.278-10.575c-2.705,0.26-5.462,0.393-8.196,0.393
			c-29.416,0-53.347-14.969-53.347-33.367S25.264,33.019,54.68,33.019l0.225,0.002c29.31,0.077,53.12,15.015,53.12,33.366
			c0,10.09-7.183,19.525-19.71,25.896c-0.14,0.733-0.21,1.473-0.21,2.198c0,5.923,6.797,10.597,13.159,12.996l0.122,0.046v2.413
			L101.154,109.934z M87.653,94.48c0-0.764,0.077-1.542,0.228-2.315l0.014-0.068l0.081-0.041
			c12.454-6.309,19.597-15.666,19.597-25.67c0-18.218-23.728-33.04-52.894-33.04l-0.201-0.001
			C25.406,33.412,1.784,48.207,1.784,66.384c0,18.219,23.728,33.04,52.894,33.04c2.753,0,5.528-0.134,8.25-0.4l0.116-0.012
			l0.08,0.062c11.462,8.817,24.936,10.286,37.81,10.528v-1.882C94.49,105.265,87.653,100.513,87.653,94.48z" stroke="none" fill="#c98383" data-stroketype="none" data-filltype="sd35" data-colored="true"></path><path id="SvgjsPath10355" d="M11.314,72.848c1.385,0.756,3.514,1.512,5.709,1.512c2.365,0,3.615-1.044,3.615-2.627
					c0-1.512-1.081-2.376-3.817-3.419c-3.784-1.404-6.25-3.636-6.25-7.163c0-4.14,3.243-7.307,8.614-7.307
					c2.568,0,4.46,0.576,5.812,1.224l-1.149,4.427c-0.912-0.468-2.533-1.151-4.763-1.151s-3.311,1.08-3.311,2.339
					c0,1.548,1.283,2.232,4.223,3.419c4.02,1.584,5.912,3.816,5.912,7.235c0,4.067-2.939,7.523-9.189,7.523
					c-2.602,0-5.169-0.72-6.452-1.476L11.314,72.848z" stroke="none" fill="#000000" data-stroketype="none" data-filltype="inverse" data-colored="true"></path><path id="SvgjsPath10356" d="M16.72,79.109c-2.759,0-5.344-0.783-6.579-1.51l-0.158-0.093l1.162-5.036l0.289,0.158
					c1.699,0.927,3.789,1.481,5.589,1.481c2.139,0,3.365-0.867,3.365-2.377c0-1.339-0.923-2.144-3.656-3.186
					c-4.253-1.578-6.411-4.066-6.411-7.396c0-4.52,3.563-7.557,8.864-7.557c2.2,0,4.192,0.42,5.919,1.248l0.186,0.089l-1.28,4.928
					l-0.278-0.142c-1.454-0.746-3.018-1.124-4.648-1.124c-1.859,0-3.061,0.82-3.061,2.089c0,1.322,1.015,1.955,4.066,3.188
					c4.14,1.631,6.068,4.004,6.068,7.467C26.159,76.058,22.454,79.109,16.72,79.109z M10.553,77.257
					c1.233,0.667,3.616,1.352,6.167,1.352c6.591,0,8.939-3.757,8.939-7.273c0-3.275-1.774-5.435-5.754-7.003
					c-3.046-1.23-4.381-1.948-4.381-3.652c0-1.194,0.933-2.589,3.561-2.589c1.607,0,3.152,0.35,4.598,1.041l1.02-3.929
					c-1.616-0.738-3.471-1.112-5.517-1.112c-5.003,0-8.364,2.836-8.364,7.057c0,3.143,1.991,5.409,6.087,6.929
					c2.522,0.961,3.98,1.867,3.98,3.654c0,1.802-1.445,2.877-3.865,2.877c-1.779,0-3.825-0.516-5.539-1.389L10.553,77.257z" stroke="none" fill="#c98383" data-stroketype="none" data-filltype="sd35" data-colored="true"></path><path id="SvgjsPath10357" d="M45.774,69.5c0,6.443-4.29,9.395-8.716,9.395c-4.831,0-8.547-3.384-8.547-9.071
					c0-5.688,3.513-9.323,8.817-9.323C42.396,60.501,45.774,64.209,45.774,69.5z M33.815,69.68c0,3.023,1.183,5.292,3.378,5.292
					c1.993,0,3.277-2.124,3.277-5.292c0-2.628-0.946-5.292-3.277-5.292C34.728,64.389,33.815,67.088,33.815,69.68z" stroke="none" fill="#000000" data-stroketype="none" data-filltype="inverse" data-colored="true"></path><path id="SvgjsPath10358" d="M37.059,79.145c-5.262,0-8.797-3.746-8.797-9.321c0-5.815,3.559-9.573,9.067-9.573c5.12,0,8.695,3.803,8.695,9.249
					C46.024,76.163,41.521,79.145,37.059,79.145z M37.329,60.751c-5.205,0-8.567,3.561-8.567,9.073c0,5.276,3.334,8.821,8.297,8.821
					c4.214,0,8.466-2.828,8.466-9.145C45.524,64.267,42.231,60.751,37.329,60.751z M37.193,75.222c-2.204,0-3.628-2.175-3.628-5.542
					c0-2.679,0.953-5.542,3.628-5.542c2.604,0,3.527,2.985,3.527,5.542C40.721,73.046,39.336,75.222,37.193,75.222z M37.193,64.639
					c-2.306,0-3.128,2.604-3.128,5.042c0,3.063,1.228,5.042,3.128,5.042c1.839,0,3.027-1.979,3.027-5.042
					C40.221,67.354,39.428,64.639,37.193,64.639z" stroke="none" fill="#c98383" data-stroketype="none" data-filltype="sd35" data-colored="true"></path><path id="SvgjsPath10359" d="M48.951,66.692c0-2.592-0.067-4.283-0.135-5.795h4.426l0.169,3.239h0.135
					c0.845-2.556,2.871-3.635,4.459-3.635c0.474,0,0.71,0,1.081,0.072v5.147c-0.371-0.072-0.811-0.144-1.385-0.144
					c-1.892,0-3.176,1.08-3.514,2.771c-0.067,0.36-0.102,0.792-0.102,1.224v8.927h-5.135V66.692z" stroke="none" fill="#000000" data-stroketype="none" data-filltype="inverse" data-colored="true"></path><path id="SvgjsPath10360" d="M54.336,78.749h-5.635V66.692c0-2.553-0.066-4.257-0.134-5.784l-0.012-0.261h4.924l0.138,2.64
					c0.995-2.09,2.854-3.036,4.388-3.036c0.473,0,0.734,0,1.128,0.076l0.203,0.04v5.657l-0.298-0.058
					c-0.372-0.073-0.791-0.14-1.337-0.14c-1.725,0-2.947,0.961-3.269,2.57c-0.062,0.332-0.097,0.75-0.097,1.175V78.749z
					 M49.201,78.249h4.635v-8.677c0-0.461,0.037-0.9,0.106-1.27c0.372-1.864,1.777-2.976,3.759-2.976
					c0.446,0,0.812,0.041,1.135,0.095v-4.636c-0.245-0.034-0.458-0.034-0.831-0.034c-1.531,0-3.431,1.071-4.222,3.464l-0.057,0.171
					h-0.553l-0.169-3.239h-3.927c0.064,1.467,0.124,3.126,0.124,5.545V78.249z" stroke="none" fill="#c98383" data-stroketype="none" data-filltype="sd35" data-colored="true"></path><path id="SvgjsPath10361" d="M61.789,66.692c0-2.592-0.067-4.283-0.135-5.795h4.426l0.169,3.239h0.135
					c0.845-2.556,2.871-3.635,4.459-3.635c0.474,0,0.71,0,1.081,0.072v5.147c-0.371-0.072-0.811-0.144-1.385-0.144
					c-1.892,0-3.176,1.08-3.514,2.771c-0.067,0.36-0.102,0.792-0.102,1.224v8.927h-5.135V66.692z" stroke="none" fill="#000000" data-stroketype="none" data-filltype="inverse" data-colored="true"></path><path id="SvgjsPath10362" d="M67.174,78.749h-5.635V66.692c0-2.553-0.066-4.257-0.134-5.784l-0.012-0.261h4.924l0.138,2.64
					c0.995-2.09,2.854-3.036,4.388-3.036c0.473,0,0.734,0,1.128,0.076l0.203,0.04v5.657l-0.298-0.058
					c-0.372-0.073-0.791-0.14-1.337-0.14c-1.725,0-2.947,0.961-3.269,2.57c-0.062,0.332-0.097,0.75-0.097,1.175V78.749z
					 M62.039,78.249h4.635v-8.677c0-0.461,0.037-0.9,0.106-1.27c0.372-1.864,1.777-2.976,3.759-2.976
					c0.446,0,0.812,0.041,1.135,0.095v-4.636c-0.245-0.034-0.458-0.034-0.831-0.034c-1.531,0-3.431,1.071-4.222,3.464l-0.057,0.171
					h-0.553l-0.169-3.239h-3.927c0.064,1.467,0.124,3.126,0.124,5.545V78.249z" stroke="none" fill="#c98383" data-stroketype="none" data-filltype="sd35" data-colored="true"></path><path id="SvgjsPath10363" d="M79.087,60.897l2.466,8.639c0.271,1.044,0.608,2.34,0.811,3.275h0.102
					c0.236-0.936,0.507-2.268,0.743-3.275l2.027-8.639h5.507l-3.852,11.59c-2.365,6.983-3.952,9.791-5.811,11.555
					c-1.791,1.656-3.683,2.231-4.966,2.412l-1.081-4.644c0.642-0.108,1.452-0.432,2.229-0.936c0.776-0.432,1.621-1.295,2.128-2.195
					c0.169-0.252,0.271-0.54,0.271-0.792c0-0.18-0.034-0.468-0.236-0.9l-6.047-16.09H79.087z" stroke="none" fill="#000000" data-stroketype="none" data-filltype="inverse" data-colored="true"></path><path id="SvgjsPath10364" d="M75.923,86.733l-1.193-5.125l0.262-0.044c0.643-0.108,1.421-0.436,2.135-0.899c0.754-0.419,1.571-1.263,2.046-2.108
					c0.155-0.233,0.238-0.471,0.238-0.669c0-0.229-0.07-0.488-0.213-0.794l-6.181-16.446h6.258l2.558,8.975
					c0.186,0.716,0.404,1.559,0.584,2.309c0.08-0.35,0.161-0.721,0.242-1.089c0.104-0.476,0.208-0.947,0.306-1.363l2.072-8.832
					h6.052l-3.961,11.919c-2.213,6.533-3.805,9.692-5.875,11.657c-1.857,1.717-3.8,2.295-5.104,2.478L75.923,86.733z M75.335,82.004
					l0.97,4.167c1.225-0.207,2.95-0.782,4.605-2.313c1.696-1.61,3.25-4.088,5.744-11.451l3.742-11.26h-4.962l-1.982,8.446
					c-0.097,0.414-0.2,0.882-0.304,1.356c-0.149,0.681-0.301,1.371-0.44,1.923l-0.047,0.189h-0.498l-0.042-0.197
					c-0.192-0.887-0.512-2.123-0.77-3.117l-0.039-0.149l-2.412-8.451h-5.16l5.92,15.752c0.167,0.355,0.252,0.685,0.252,0.988
					c0,0.295-0.114,0.635-0.313,0.931c-0.515,0.916-1.388,1.815-2.214,2.274C76.72,81.524,75.984,81.851,75.335,82.004z" stroke="none" fill="#c98383" data-stroketype="none" data-filltype="sd35" data-colored="true"></path><path id="SvgjsPath10365" d="M92.331,75.619c0-1.908,1.25-3.275,3.041-3.275c1.79,0,2.973,1.368,3.006,3.275
					c0,1.872-1.182,3.276-3.006,3.276C93.547,78.895,92.331,77.491,92.331,75.619z M93.446,70.544l-0.777-16.306h5.371
					l-0.743,16.306H93.446z" stroke="none" fill="#000000" data-stroketype="none" data-filltype="inverse" data-colored="true"></path><path id="SvgjsPath10366" d="M95.372,79.145c-1.907,0-3.291-1.483-3.291-3.526s1.384-3.525,3.291-3.525c1.881,0,3.22,1.448,3.256,3.521
					C98.628,77.695,97.289,79.145,95.372,79.145z M95.372,72.594c-1.643,0-2.791,1.244-2.791,3.025c0,1.782,1.148,3.026,2.791,3.026
					c1.623,0,2.756-1.244,2.756-3.026C98.096,73.812,96.989,72.594,95.372,72.594z M97.536,70.794h-4.328l-0.801-16.806h5.895
					L97.536,70.794z M93.685,70.294h3.374l0.72-15.806h-4.847L93.685,70.294z" stroke="none" fill="#c98383" data-stroketype="none" data-filltype="sd35" data-colored="true"></path></g></g><defs id="defs_node"><radialGradient id="SvgjsRadialGradient1050" cx="100" cy="113" r="40" gradientUnits="userSpaceOnUse" class="svga-on-canvas-facehighlight-gradient-single-0"><stop id="SvgjsStop1051" offset="0" stop-opacity="0.5" stop-color="#e4279a" data-stoptype="hl1"></stop><stop id="SvgjsStop1052" offset="0.9" stop-opacity="0" stop-color="#d50f87" data-stoptype="tone"></stop></radialGradient><radialGradient id="SvgjsRadialGradient1054" cx="100" cy="57" r="36" gradientUnits="userSpaceOnUse" class="svga-on-canvas-facehighlight-gradient-single-1"><stop id="SvgjsStop1055" offset="0" stop-opacity="0.5" stop-color="#e4279a" data-stoptype="hl1"></stop><stop id="SvgjsStop1056" offset="0.9" stop-opacity="0" stop-color="#d50f87" data-stoptype="tone"></stop></radialGradient><radialGradient id="SvgjsRadialGradient1171" cx="109.0539" cy="152.3812" r="18.9207" gradientUnits="userSpaceOnUse" class="svga-on-canvas-mouth-gradient-single-1"><stop id="SvgjsStop1172" offset="0" stop-opacity="1" stop-color="#8f0d00" data-stoptype="#8f0d00"></stop><stop id="SvgjsStop1173" offset="0.6446" stop-opacity="1" stop-color="#450d00" data-stoptype="#450d00"></stop><stop id="SvgjsStop1174" offset="0.988" stop-opacity="1" stop-color="#000000" data-stoptype="#000000"></stop></radialGradient><linearGradient id="SvgjsLinearGradient4440" class="svga-on-canvas-chinshadow-gradient-single-0" gradientUnits="userSpaceOnUse" y2="136.351" x2="99.98" y1="171.27" x1="99.98"><stop id="SvgjsStop4441" offset="0" data-stoptype="sd1" stop-color="#c60078" stop-opacity="0.8"></stop><stop id="SvgjsStop4442" offset="0.7" data-stoptype="sd3" stop-color="#a70065" stop-opacity="1"></stop></linearGradient><radialGradient id="SvgjsRadialGradient10095" cx="126.672" cy="88.669" r="14.058" gradientTransform="matrix(-1.0357 0 0 1.0357 204.6606 -3.2718)" gradientUnits="userSpaceOnUse" class="svga-on-canvas-eyesback-gradient-left-0"><stop id="SvgjsStop10096" offset="0" stop-opacity="1" stop-color="#ffffff" data-stoptype="#ffffff"></stop><stop id="SvgjsStop10097" offset="0.544" stop-opacity="1" stop-color="#fdfefe" data-stoptype="#fdfefe"></stop><stop id="SvgjsStop10098" offset="0.74" stop-opacity="1" stop-color="#f6f8f9" data-stoptype="#f6f8f9"></stop><stop id="SvgjsStop10099" offset="0.879" stop-opacity="1" stop-color="#eaeff2" data-stoptype="#eaeff2"></stop><stop id="SvgjsStop10100" offset="0.992" stop-opacity="1" stop-color="#d9e3e8" data-stoptype="#d9e3e8"></stop><stop id="SvgjsStop10101" offset="1" stop-opacity="1" stop-color="#d8e2e7" data-stoptype="#d8e2e7"></stop></radialGradient><radialGradient id="SvgjsRadialGradient10103" cx="126.672" cy="88.669" r="14.058" gradientTransform="matrix(1.0357 0 0 1.0357 -4.6606 -3.2718)" gradientUnits="userSpaceOnUse" class="svga-on-canvas-eyesback-gradient-right-0"><stop id="SvgjsStop10104" offset="0" stop-opacity="1" stop-color="#ffffff" data-stoptype="#ffffff"></stop><stop id="SvgjsStop10105" offset="0.544" stop-opacity="1" stop-color="#fdfefe" data-stoptype="#fdfefe"></stop><stop id="SvgjsStop10106" offset="0.74" stop-opacity="1" stop-color="#f6f8f9" data-stoptype="#f6f8f9"></stop><stop id="SvgjsStop10107" offset="0.879" stop-opacity="1" stop-color="#eaeff2" data-stoptype="#eaeff2"></stop><stop id="SvgjsStop10108" offset="0.992" stop-opacity="1" stop-color="#d9e3e8" data-stoptype="#d9e3e8"></stop><stop id="SvgjsStop10109" offset="1" stop-opacity="1" stop-color="#d8e2e7" data-stoptype="#d8e2e7"></stop></radialGradient><radialGradient id="SvgjsRadialGradient10111" cx="126.672" cy="88.669" r="14.058" gradientTransform="matrix(-1.0357 0 0 1.0357 204.6606 -3.2718)" gradientUnits="userSpaceOnUse" class="svga-on-canvas-eyesfront-gradient-left-0"><stop id="SvgjsStop10112" offset="0" stop-opacity="1" stop-color="#ffffff" data-stoptype="#ffffff"></stop><stop id="SvgjsStop10113" offset="0.544" stop-opacity="1" stop-color="#fdfefe" data-stoptype="#fdfefe"></stop><stop id="SvgjsStop10114" offset="0.74" stop-opacity="1" stop-color="#f6f8f9" data-stoptype="#f6f8f9"></stop><stop id="SvgjsStop10115" offset="0.879" stop-opacity="1" stop-color="#eaeff2" data-stoptype="#eaeff2"></stop><stop id="SvgjsStop10116" offset="0.992" stop-opacity="1" stop-color="#d9e3e8" data-stoptype="#d9e3e8"></stop><stop id="SvgjsStop10117" offset="1" stop-opacity="1" stop-color="#d8e2e7" data-stoptype="#d8e2e7"></stop></radialGradient><radialGradient id="SvgjsRadialGradient10121" cx="123.623" cy="87.41" fx="136.422" fy="87.446" r="18.203" gradientTransform="matrix(0.9998 0.0208 0.0166 -0.7998 -48.6744 154.7508)" gradientUnits="userSpaceOnUse" class="svga-on-canvas-eyesfront-gradient-left-3"><stop id="SvgjsStop10122" offset="0" stop-opacity="1" stop-color="#c60078" data-stoptype="sd1"></stop><stop id="SvgjsStop10123" offset="0.7" stop-opacity="0.3" stop-color="#c60078" data-stoptype="sd1"></stop><stop id="SvgjsStop10124" offset="1" stop-opacity="0" stop-color="#d50f87" data-stoptype="tone"></stop></radialGradient><radialGradient id="SvgjsRadialGradient10126" cx="72.134" cy="102.21" r="22.89" gradientTransform="matrix(0.9878 -0.0515 0.0518 0.9833 -2.5169 7.7255)" gradientUnits="userSpaceOnUse" class="svga-on-canvas-eyesfront-gradient-left-4"><stop id="SvgjsStop10127" offset="0.95" stop-opacity="0" stop-color="#000000" data-stoptype="#000000"></stop><stop id="SvgjsStop10128" offset="1" stop-opacity="0.3" stop-color="#000000" data-stoptype="#000000"></stop></radialGradient><radialGradient id="SvgjsRadialGradient10132" cx="126.672" cy="88.669" r="14.058" gradientTransform="matrix(1.0357 0 0 1.0357 -4.6606 -3.2718)" gradientUnits="userSpaceOnUse" class="svga-on-canvas-eyesfront-gradient-right-0"><stop id="SvgjsStop10133" offset="0" stop-opacity="1" stop-color="#ffffff" data-stoptype="#ffffff"></stop><stop id="SvgjsStop10134" offset="0.544" stop-opacity="1" stop-color="#fdfefe" data-stoptype="#fdfefe"></stop><stop id="SvgjsStop10135" offset="0.74" stop-opacity="1" stop-color="#f6f8f9" data-stoptype="#f6f8f9"></stop><stop id="SvgjsStop10136" offset="0.879" stop-opacity="1" stop-color="#eaeff2" data-stoptype="#eaeff2"></stop><stop id="SvgjsStop10137" offset="0.992" stop-opacity="1" stop-color="#d9e3e8" data-stoptype="#d9e3e8"></stop><stop id="SvgjsStop10138" offset="1" stop-opacity="1" stop-color="#d8e2e7" data-stoptype="#d8e2e7"></stop></radialGradient><radialGradient id="SvgjsRadialGradient10142" cx="123.623" cy="87.41" fx="136.422" fy="87.446" r="18.203" gradientTransform="matrix(-0.9998 0.0208 -0.0166 -0.7998 248.6744 154.7508)" gradientUnits="userSpaceOnUse" class="svga-on-canvas-eyesfront-gradient-right-3"><stop id="SvgjsStop10143" offset="0" stop-opacity="1" stop-color="#c60078" data-stoptype="sd1"></stop><stop id="SvgjsStop10144" offset="0.7" stop-opacity="0.3" stop-color="#c60078" data-stoptype="sd1"></stop><stop id="SvgjsStop10145" offset="1" stop-opacity="0" stop-color="#d50f87" data-stoptype="tone"></stop></radialGradient><radialGradient id="SvgjsRadialGradient10147" cx="72.134" cy="102.21" r="22.89" gradientTransform="matrix(-0.9878 -0.0515 -0.0518 0.9833 202.5169 7.7255)" gradientUnits="userSpaceOnUse" class="svga-on-canvas-eyesfront-gradient-right-4"><stop id="SvgjsStop10148" offset="0.95" stop-opacity="0" stop-color="#000000" data-stoptype="#000000"></stop><stop id="SvgjsStop10149" offset="1" stop-opacity="0.3" stop-color="#000000" data-stoptype="#000000"></stop></radialGradient></defs></svg>