<svg id="svga-svgcanvas" xmlns="http://www.w3.org/2000/svg" version="1.1" xlink="http://www.w3.org/1999/xlink" style="position:relative;overflow:hidden;left:-0.09375px;top:-0.5px;" class="svga-svg" viewBox="0 0 200 200" preserveAspectRatio="xMinYMin meet" width="250" height="250"><g id="svga-group-wrapper"><g id="svga-group-backs-single"><path id="SvgjsPath3656" d="M225 225H-25V-25h250V225z" data-colored="true" data-filltype="tone" data-stroketype="none" fill="#ce6130" stroke-width="none" opacity="1" stroke="none"></path></g><g id="svga-group-subwrapper" data-updown="0" data-leftright="0" data-dist="0" data-scaleX="0.7577965900000009" data-scaleY="0.7577965900000009" data-rotate="0" transform="matrix(0.7566965900000009 0 0 0.7566965900000009 24.33046014854139 30.493584359827466) translate(47.151512145996094 -13.305511474609375)"><g id="svga-group-hair-back" data-updown="0" data-leftright="0" data-dist="0" data-scaleX="1" data-scaleY="1" data-rotate="1e-7" transform="rotate(1e-7 100 100)"><path id="SvgjsPath1073" d="M100.5,100.5h-1v-1h1V100.5z" data-colored="true" data-filltype="tone" data-stroketype="none" stroke-width="none" opacity="1" fill="#543c32" stroke="none"></path></g><g id="svga-group-humanbody-single" data-updown="0" data-leftright="0" data-dist="0" data-scaleX="1" data-scaleY="1" data-rotate="0"><path id="SvgjsPath1057" d="M195.417 199.778c-2.196-4.746-8.195-11.779-14.86-13.722 -8.239-2.403-26.837-5.308-33.733-6.923 -5.528-1.296-16.662-11.294-20.564-14.65 -0.7-0.6-1.273-1.839-1.287-2.76 -0.139-10.864 4.195-39.724 4.195-39.724H100 70.833c0 0 4.334 28.859 4.193 39.724 -0.011 0.921-0.587 2.16-1.285 2.76 -3.902 3.356-15.036 13.354-20.564 14.65 -6.897 1.615-25.495 4.619-33.733 7.022 -6.667 1.942-12.664 8.876-14.86 13.622 -3.708 8.008-4.584 22.5-4.584 35h100 100C200 222.278 199.123 207.786 195.417 199.778z" data-colored="true" data-filltype="tone" data-stroketype="none" data-fromskin="true" fill="#764630" stroke-width="none" opacity="1" stroke="none"></path><path id="SvgjsPath1058" d="M159.156 184.058c24.342 3.542 34.586 8.708 37.794 50.721H200c0-12.5-0.877-26.992-4.583-35 -2.196-4.746-8.195-11.779-14.86-13.722 -8.239-2.403-26.837-5.308-33.733-6.923 -5.528-1.296-18.242-12.069-21.643-16.35 3.36 4.704 12.791 15.605 21.054 18.46C150.188 182.61 153.48 183.232 159.156 184.058zM53.766 181.244c8.263-2.854 17.693-13.756 21.054-18.46 -3.4 4.28-16.114 15.054-21.643 16.35 -6.896 1.615-25.494 4.619-33.733 7.022 -6.665 1.942-12.664 8.876-14.86 13.622 -3.706 8.008-4.583 22.5-4.583 35h3.05c3.188-41.744 13.475-47.183 37.794-50.721C46.52 183.232 49.813 182.61 53.766 181.244z" data-colored="true" data-filltype="hl1" data-stroketype="none" data-fromskin="true" fill="#855844" stroke-width="none" opacity="1" stroke="none"></path><path id="SvgjsPath1059" d="M95.646 197.62c0 0-5.074-1.609-7.083-2.379 -10.449-4.009-44.395-6.607-44.395-6.607s35.754 1.419 43.644 2.779c-0.458-4.767-3.017-20.004-3.017-20.004s5.149 16.815 6.409 21.057C91.878 194.734 95.646 197.62 95.646 197.62zM106.445 196.278c-0.089 0.073-0.191 0.168-0.302 0.268C106.256 196.461 106.358 196.372 106.445 196.278zM95.646 197.62c0 0 2.893 2.992 4.347 3.03 1.91 0.051 4.828-2.899 6.151-4.104 -1.265 0.957-4.159 1.391-5.31 1.436C99.504 198.033 95.646 197.62 95.646 197.62zM116.664 190.101c-1.545 0.248-4.386 0.789-4.386 0.789l2.287-14.89c-0.646 3.071-4.474 16.211-8.12 20.278 1.91-1.616 6.158-2.391 8.324-2.704 10.236-1.484 10.232-1.483 41.062-4.94C155.831 188.634 126.76 188.479 116.664 190.101z" data-colored="true" data-filltype="sd1" data-stroketype="none" data-fromskin="true" fill="#673620" stroke-width="none" opacity="1" stroke="none"></path><path id="SvgjsPath1060" d="M195.417 199.778c-2.196-4.746-8.195-11.779-14.86-13.722 -8.239-2.403-26.837-5.308-33.733-6.923 -5.528-1.296-16.662-11.294-20.564-14.65 -0.7-0.6-1.273-1.839-1.287-2.76 -0.139-10.864 4.195-39.724 4.195-39.724H100 70.833c0 0 4.334 28.859 4.193 39.724 -0.011 0.921-0.587 2.16-1.285 2.76 -3.902 3.356-15.036 13.354-20.564 14.65 -6.897 1.615-25.495 4.619-33.733 7.022 -6.667 1.942-12.664 8.876-14.86 13.622 -3.708 8.008-4.584 22.5-4.584 35h100 100C200 222.278 199.123 207.786 195.417 199.778z" data-colored="true" data-filltype="none" data-stroketype="sd3" data-fromskin="true" fill="none" stroke="#481c08" stroke-width="1.5" opacity="1"></path></g><g id="svga-group-chinshadow-single" data-updown="0" data-leftright="0" data-dist="0" data-scaleX="1" data-scaleY="1" data-rotate="0"><path id="SvgjsPath1045" d="M74.853 164.349c7.212 4.619 15.864 7.518 25.15 7.518 9.283 0 17.933-2.897 25.143-7.514 -0.541-0.765-0.911-1.767-0.924-2.619 -0.091-7.111 1.683-21.616 2.956-31.035 -15.597-3.146-38.76-3.146-54.355 0 1.273 9.419 3.047 23.924 2.955 31.034C75.767 162.567 75.392 163.58 74.853 164.349z" data-colored="false" data-filltype="gradient" data-stroketype="none" data-fromskin="true" fill="url(#SvgjsLinearGradient1046)" opacity="1"></path></g><g id="svga-group-clothes-single" data-updown="0" data-leftright="0" data-dist="0" data-scaleX="1" data-scaleY="1" data-rotate="0"><path id="SvgjsPath1062" d="M128.857 237.978H70.72v-56.183c22.25 4.699 36.88 4.337 58.138 0V237.978z" data-colored="false" data-filltype="#f3f1f3" data-stroketype="none" fill="#f3f1f3" stroke-width="none" opacity="1"></path><path id="SvgjsPath1063" d="M107.44 237.709c-2.775 0-10.727 0.208-16.512-0.23l-0.01-0.171c-0.818-18.658 1.129-30.719 4.537-39.288l0.048-0.123 -0.093-0.093c-0.905-0.904-2.425-1.935-4.034-3.025 -1.611-1.093-3.275-2.221-4.336-3.246 0.625-0.732 1.395-1.454 2.348-2.201 0.245-0.125 1.162-0.843 5.974-4.971 0.214-0.184 0.345-0.296 0.362-0.31 0.818-0.178 2.138-0.293 3.738-0.293 2.183 0 4.731 0.221 6.512 0.563 1.561 1.458 3.451 5.329 4.158 7.17 -0.976 2.291-2.128 3.129-3.717 4.284 -0.774 0.563-1.652 1.201-2.652 2.112l-0.083 0.075 0.021 0.111c4.026 20.31 4.027 25.054 4.027 29.642 0.001 2.021 0.001 6.609 0.339 9.985C107.917 237.707 107.704 237.709 107.44 237.709z" data-colored="false" data-filltype="#131111" data-stroketype="none" fill="#131111" stroke-width="none" opacity="1"></path><path id="SvgjsPath1064" d="M110.35 191.495c-0.754-1.995-2.71-5.93-4.28-7.359 -2.876-0.563-7.983-0.843-10.47-0.24 -0.108 0.088-6.248 5.383-6.31 5.26 -0.906 0.708-1.788 1.504-2.52 2.39 2.061 2.076 6.655 4.556 8.5 6.4 -3.65 9.18-5.33 21.59-4.55 39.38 0.01 0.11 0.01 0.23 0.02 0.34 6.756 0.52 16.55 0.331 17.55 0.223 -1.16-11.307 1.438-10.455-4.39-39.853C106.968 195.241 108.865 195.04 110.35 191.495zM105.1 210.535c-0.021-0.05-0.04-0.1-0.051-0.13 2 10.55 1.38 18.632 2.891 26.972 -4.736-0.318-12.014-0.052-16.771-0.052 0.369-7.198 1.188-31.684 4.74-39.74 0.17-0.046 0.339-0.084 0.509-0.125l-1.032 34.736 2.747-35.066c0.02-0.002 0.04-0.005 0.06-0.008l1.801 32.605 0.417-32.734c0.026 0.001 0.051-0.001 0.077 0l4.199 36.355 -2.3-36.137c0.314 0.063 0.629 0.141 0.942 0.233 0.03 0 0.07 0.01 0.1 0.03C103.533 198.476 104.365 205.876 105.1 210.535zM104.219 196.726c-2.774-1.251-6.363-1.026-9.129 0.24 -1.681-1.813-4.08-3.077-7.53-5.391 0.55-0.479 1.26-1.07 2.21-1.81 0.08 0 3.48-2.771 3.54-2.83 0.92-0.84 1.74-1.79 2.52-2.62 2.93-0.12 7.23 0.02 9.82 0.14 1.5 1.876 2.931 4.696 4.01 6.94C107.699 194.266 105.759 195.545 104.219 196.726z" data-colored="false" data-filltype="#000000" data-stroketype="none" fill="#000000" stroke-width="none" opacity="1"></path><path id="SvgjsPath1065" d="M78.196 213.077c-11.534-40.071-6.325-29.581-9.399-45.32 2.028-4.813 3.958-10.44 5.042-11.598l0.08-0.086c2.292 24.007 8.958 13.636 23.784 27.722C89.228 189.449 81.372 204.127 78.196 213.077zM131.193 167.758c-1.448-3.702-4.077-9.127-5.215-10.331 1.424 20.678-15.146 16.551-24.35 26.2 8.812 5.713 17.173 20.66 20.172 29.455C134.92 169.568 127.85 188.673 131.193 167.758z" data-colored="false" data-filltype="#f3f1f4" data-stroketype="none" fill="#f3f1f4" stroke-width="none" opacity="1"></path><path id="SvgjsPath1066" d="M125.801 156.967c0 5.137-0.42 9.162-1.262 10.339 -2.443 5.809-13.103 9.853-16.39 11.51 -2.495 1.227-4.942 2.809-6.83 4.85 3.813 2.476 5.705 3.383 12.93 14.44 4.246 7.109 6.539 12.448 7.561 15.64 13.378-44.331 6.222-24.978 9.59-46.01C129.814 163.65 126.801 157.885 125.801 156.967zM129.449 176.495c-1.957 18.078-3.491 14.485-7.74 34.181 -2.716-8.644-11.075-22.913-19.43-27.091 3.937-2.957 5.031-3.131 9.729-5.279 14.396-6.42 14.985-12.385 14.138-20.271 1.207 1.423 3.125 6.161 4.692 9.521C129.979 170.702 129.589 175.194 129.449 176.495zM79.199 171.896c-4.408-3.649-3.16-8.162-5.189-16.215 -0.902 1-3.146 6.632-5.42 12.055 0.557 2.796 0.681 7.389 0.76 8.84 0.559 12.202 1.75 12.765 8.83 37.16 3.031-8.905 11.558-24.37 20.24-30.009C91.489 177.401 82.765 174.999 79.199 171.896zM84.659 197.405c-2.221 3.666-4.517 7.48-6.37 13.28 -4.442-20.269-5.999-16.964-7.73-34.16 -0.32-2.971-0.617-6.027-1.4-8.96 1.638-3.588 3.981-10.281 4.731-10.995 1.366 7.078 0.066 13.462 5.669 16.995 2.621 1.996 11.104 5.32 17.52 10.36C93.188 186.235 91.094 187.596 84.659 197.405z" data-colored="false" data-filltype="#cfc8d7" data-stroketype="none" fill="#cfc8d7" stroke-width="none" opacity="1"></path><path id="SvgjsPath1067" d="M120.319 209.824l-1.209-2.654c0 0 9.148-28.175 10.743-36.225C130.765 179.299 120.319 209.824 120.319 209.824zM78.879 208.721l1.436-3.259c0 0-8.573-26.467-10.168-34.517C69.235 179.299 78.879 208.721 78.879 208.721z" data-colored="false" data-filltype="#e1e0e1" data-stroketype="none" fill="#e1e0e1" stroke-width="none" opacity="1"></path><path id="SvgjsPath1068" d="M124.787 195.605c7.065-20.834 2.756-22.551 6.305-29.469 0.134-0.261 1.396 1.046 1.533 1.64 1.306 5.658 53.349 17.338 54.994 18.598 1.456 1.058 5.65 3.137 5.65 3.137 4.937 9.07 7.762 10.698 9.15 34.984 0.13 3.083-0.061 11.801-0.061 14.141l-85.559-0.676C117.004 230.169 117.999 216.15 124.787 195.605zM75.213 195.605c-7.065-20.834-2.756-22.551-6.305-29.469 -0.134-0.261-1.396 1.046-1.533 1.64 -1.306 5.658-53.349 17.338-54.994 18.598 -1.456 1.058-5.65 3.137-5.65 3.137 -4.937 9.07-7.762 10.698-9.15 34.984 -0.13 3.083 0.061 11.801 0.061 14.141l85.559-0.676C82.996 230.169 82.001 216.15 75.213 195.605z" data-colored="true" data-filltype="tone" data-stroketype="none" stroke-width="none" opacity="1" fill="#335529" stroke="none"></path><path id="SvgjsPath1069" d="M130.307 190c-4.552 16.387-10.771 31.116-13.506 47.96 -0.89-0.007 1.491-22.695 7.986-42.354 7.065-20.834 2.756-22.551 6.305-29.469 0.077-0.15-0.619 1.976-0.223 2.432C130.723 176.296 132.625 182.272 130.307 190zM69.693 190c4.552 16.387 10.771 31.116 13.506 47.96 0.89-0.007-1.491-22.695-7.986-42.354 -7.065-20.834-2.756-22.551-6.305-29.469 -0.077-0.15 0.619 1.976 0.223 2.432C69.277 176.296 67.375 182.272 69.693 190z" data-colored="true" data-filltype="sd1" data-stroketype="none" fill="#24461b" stroke-width="none" opacity="1" stroke="none"></path><path id="SvgjsPath1070" d="M152.436 186.031c0 0-2.284 2.561-8.636 6.923 5.313-5.885 7.761-8.249 7.761-8.249L152.436 186.031zM154.611 197.906l-1.528-1.367c-4.538 13.781-7.571 20.587-12.828 36.618C147.799 218.831 149.599 213.745 154.611 197.906zM48.439 184.705c0 0 2.447 2.364 7.761 8.249 -6.352-4.362-8.636-6.923-8.636-6.923L48.439 184.705zM59.745 233.157c-5.257-16.031-8.29-22.837-12.828-36.618l-1.528 1.367C50.401 213.745 52.201 218.831 59.745 233.157z" data-colored="true" data-filltype="sd2" data-stroketype="none" fill="#18360f" stroke-width="none" opacity="1" stroke="none"></path><path id="SvgjsPath1071" d="M179.409 219.335c0-11.596 3.11-18.351 9.615-28.142 0.608 0.372 0.931 0.543 1.345 0.875C183.452 200.651 182.078 208.659 179.409 219.335zM141.312 230.703c6.113-16.703 8.06-23.228 12.107-34.388 -1.15-0.351-8.671-2.985-9.819-3.346 0.41 1 3.113 1.822 7.822 4.709C151.422 197.679 146.333 213.082 141.312 230.703zM149.533 184.577c0 0-3.352 4.14-6.664 8.328 3.388-2.67 5.748-5.644 8.691-8.2 -3.994-3.368-10.511-8.524-14.721-12.089C140.163 176.188 149.533 184.577 149.533 184.577zM202.073 238.634l0.286 0.002c0-2.34 0.19-11.058 0.061-14.141 -1.389-24.286-4.214-25.914-9.15-34.984 0 0-4.194-2.079-5.65-3.137 -1.334-1.021-38.794-9.922-52.49-15.88 16.011 10.971 46.282 15.027 55.24 21.574C194.702 195.235 200.535 222.337 202.073 238.634zM9.613 192.037c0.542-0.383 0.619-0.366 1.168-0.729 6.505 9.791 9.809 16.431 9.809 28.026C17.922 208.659 16.08 200.318 9.613 192.037zM48.578 197.679c4.709-2.887 7.412-3.709 7.822-4.709 -1.148 0.36-8.669 2.995-9.819 3.346 4.048 11.16 5.994 17.685 12.107 34.388C53.667 213.082 48.578 197.679 48.578 197.679zM63.16 172.616c-4.21 3.564-10.727 8.721-14.721 12.089 2.943 2.557 5.304 5.53 8.691 8.2 -3.313-4.188-6.664-8.328-6.664-8.328S59.837 176.188 63.16 172.616zM9.631 192.068c8.958-6.547 39.229-10.604 55.24-21.574 -13.696 5.958-51.156 14.858-52.49 15.88 -1.456 1.058-5.65 3.137-5.65 3.137 -4.937 9.07-7.762 10.698-9.15 34.984 -0.13 3.083 0.061 11.801 0.061 14.141l0.286-0.002C-0.535 222.337 5.298 195.235 9.631 192.068z" data-colored="true" data-filltype="hl1" data-stroketype="none" fill="#44643a" stroke-width="none" opacity="1" stroke="none"></path><path id="SvgjsPath1072" d="M132.246 166.374c-0.049-0.293-0.443-0.634-0.738-0.657 -0.296-0.023-0.432 0.458-0.567 0.722 -3.549 6.918 0.414 8.333-6.651 29.167 -6.788 20.545-7.584 34.862-7.787 42.653l85.857 0.377c0-2.34 0.489-11.058 0.359-14.141 -1.389-24.286-4.313-26.113-9.25-35.184 0 0-4.394-2.179-5.85-3.236 -4.889-3.742-0.59 0.023-22.03-6 -17.576-5.135-18.525-6.577-24.899-8.35 -1.288-0.369-4.057-0.822-6.95-2.851C133.475 168.689 132.341 166.944 132.246 166.374zM116.974 237.31c3.729-23.564 6.085-29.73 11.296-47.274 3.522-11.104 1.576-17.408 3.254-22.54 0.088-0.268 0.467-0.282 0.571-0.017 2.434 6.214 9.238 7.656 18.834 17.047 -5.813 5.813-7.309 7.38-8.06 8.38 0.864 0.438 5.582 2.229 9.9 3.9 -0.245 0.767-13.415 38.02-13.57 38.52 10-21.578 11.292-28.211 14.22-39.01 -0.812-0.612-7.892-3.212-9.09-3.64 4.274-4.424 5.51-5.396 7.53-7.971 1.622 0-15.874-13.318-16.73-14.211 0.462 0.364 2.752 1.391 3.01 1.491 14.682 5.166 3.065 2.829 35.2 12.001 3.072 0.781 7.355 1.567 10.53 1.879 0.218 0.02 5.395 2.727 8.35 3.97 -7.189 7.475-11.797 17.133-12.81 29.5 3.219-12.666 4.951-19.29 13.14-28.819 7.62 15.422 6.755 13.195 9.23 47.71C181.167 237.413 149.559 237.227 116.974 237.31zM66.261 168.875c-2.894 2.028-5.662 2.481-6.95 2.851 -6.374 1.772-7.323 3.215-24.899 8.35 -21.44 6.023-17.142 2.258-22.03 6 -1.456 1.058-5.85 3.236-5.85 3.236 -4.937 9.07-7.861 10.897-9.25 35.184 -0.13 3.083 0.359 11.801 0.359 14.141l85.857-0.377c-0.203-7.791-0.999-22.108-7.787-42.653 -7.065-20.834-3.103-22.249-6.651-29.167 -0.136-0.264-0.271-0.745-0.567-0.722 -0.295 0.023-0.689 0.364-0.738 0.657C67.659 166.944 66.525 168.689 66.261 168.875zM-1.779 238.226c2.476-34.515 1.61-32.288 9.23-47.71 8.188 9.529 9.921 16.153 13.14 28.819 -1.013-12.367-5.62-22.025-12.81-29.5 2.955-1.243 8.132-3.95 8.35-3.97 3.175-0.312 7.458-1.098 10.53-1.879 32.135-9.172 20.519-6.835 35.2-12.001 0.258-0.101 2.548-1.127 3.01-1.491 -0.856 0.893-18.353 14.211-16.73 14.211 2.021 2.575 3.256 3.547 7.53 7.971 -1.198 0.428-8.278 3.027-9.09 3.64 2.928 10.799 4.22 17.432 14.22 39.01 -0.155-0.5-13.325-37.753-13.57-38.52 4.318-1.672 9.036-3.463 9.9-3.9 -0.751-1-2.247-2.567-8.06-8.38 9.596-9.391 16.4-10.833 18.834-17.047 0.104-0.266 0.483-0.251 0.571 0.017 1.678 5.132-0.269 11.436 3.254 22.54 5.211 17.544 7.567 23.71 11.296 47.274C50.441 237.227 18.833 237.413-1.779 238.226z" data-colored="true" data-filltype="sd3" data-stroketype="none" fill="#0e2707" stroke-width="none" opacity="1" stroke="none"></path></g><g id="svga-group-head" data-updown="0" data-leftright="0" data-dist="0" data-scaleX="1" data-scaleY="1" data-rotate="1e-7" transform="rotate(1e-7 99.8695011138916 66.94650268554688)"><g id="svga-group-ears-left" data-updown="0" data-leftright="0" data-dist="0" data-scaleX="1" data-scaleY="1" data-rotate="0"><path id="SvgjsPath1079" d="M45.443 82.722c-1.469-2.433-6.648-7.545-10.31-6.61 -2.979 0.762-6.032 3.243-6.032 7.473 -0.001 6.553 1.496 9.338 2.501 12.311 0.856 2.53 3.915 7.167 5.761 8.964 2.273 2.208 5.957 9.35 6.404 10.079 0.705 1.154 1.877 2.988 4.043 3.057 3.29 0.104 7.085-2.105 7.323-3.488C56.42 107.009 49.263 89.052 45.443 82.722z" data-colored="true" data-filltype="tone" data-stroketype="sd3" fill="#764630" stroke="#481c08" stroke-width="1.5" opacity="1"></path><path id="SvgjsPath1080" d="M43.596 99.086c-0.142-0.558 0.007-1.495 0.152-2.4 0.131-0.826 0.255-1.605 0.18-2.157 -0.285-2.064-1.892-5.988-2.942-8.115 -1.208-2.446-4.117-5.528-6.568-6.322 -1.013-0.329-1.681 0.064-2.067 0.463 -0.284 0.293-0.347 0.637-0.254 0.678 0.093 0.041 0.304-0.244 0.61-0.513 0.25-0.22 0.617-0.408 1.122-0.369 -0.203 1.028-3.138 4.222-1.381 10.392 0.822 2.888 1.992 5.214 2.202 5.549 0.032 0.352 0.083 0.696 0.159 1.031 0.991 4.357 7.286 11.54 8.785 13.162 0.277 0.3 0.567 0.477 0.639 0.406 0.072-0.072-0.1-0.368-0.376-0.671 -1.48-1.611-7.734-8.777-8.69-12.981 -1.754-7.702 1.916-7.832 4.499-12.473 0.397 0.657 0.733 1.288 0.993 1.814 0.203 0.413 0.429 0.896 0.661 1.417 -0.458 0.729-5.059 6.055-3.889 10.317 0.433 1.572 3.779 3.598 5.073 4.153 0.712 0.306 0.979 0.763 1.289 1.291 0.359 0.613 0.767 2.796 1.95 3.298 0.241 0.103 0.458 0.146 0.651 0.146 0.334 0 0.587-0.128 0.774-0.28 0.019 0.267 0.018 0.612 0.008 0.93 -0.011 0.411 0.046 0.748 0.147 0.756s0.208-0.317 0.221-0.727c0.016-0.504 0.014-1.128-0.077-1.426 -0.265-0.88-1.076-1.871-1.934-2.921C44.688 102.503 43.815 99.947 43.596 99.086zM34.616 95.223c-2.322-6.84 0.993-12.744 1.514-13.684 0.908 0.787 2.662 1.841 3.314 2.87C36.33 89.804 34.811 86.051 34.616 95.223zM45.884 106.717c-1.072-0.455-1.431-2.555-1.778-3.147 -0.314-0.536-0.639-1.089-1.461-1.443 -0.179-0.077-0.376-0.194-0.578-0.328 -3.861-5.758 0.291-8.626 1.027-9.163 0.226 0.734 0.396 1.407 0.47 1.946 0.068 0.496-0.058 1.284-0.179 2.045 -0.15 0.944-0.306 1.92-0.145 2.553 0.24 0.941 1.14 3.529 2.01 4.594 0.772 0.945 1.564 1.919 1.835 2.713C46.97 106.645 46.604 107.022 45.884 106.717z" data-colored="true" data-filltype="sd3" data-stroketype="none" fill="#481c08" stroke-width="none" opacity="1" stroke="none"></path></g><g id="svga-group-ears-right" data-updown="0" data-leftright="0" data-dist="0" data-scaleX="1" data-scaleY="1" data-rotate="0"><path id="SvgjsPath1081" d="M154.295 82.722c1.469-2.433 6.648-7.545 10.311-6.61 2.979 0.762 6.031 3.243 6.031 7.473 0.002 6.553-1.496 9.338-2.5 12.311 -0.857 2.53-3.916 7.167-5.762 8.964 -2.273 2.208-5.957 9.35-6.404 10.079 -0.705 1.154-1.877 2.988-4.043 3.057 -3.291 0.104-7.086-2.105-7.324-3.488C143.318 107.009 150.475 89.052 154.295 82.722z" data-colored="true" data-filltype="tone" data-stroketype="sd3" fill="#764630" stroke="#481c08" stroke-width="1.5" opacity="1"></path><path id="SvgjsPath1082" d="M154.205 103.536c-0.857 1.05-1.668 2.041-1.934 2.921 -0.09 0.298-0.092 0.922-0.076 1.426 0.014 0.409 0.119 0.734 0.221 0.727s0.158-0.345 0.146-0.756c-0.01-0.317-0.01-0.663 0.01-0.93 0.186 0.152 0.439 0.28 0.773 0.28 0.193 0 0.41-0.043 0.65-0.146 1.184-0.502 1.592-2.686 1.951-3.298 0.311-0.528 0.576-0.985 1.289-1.291 1.293-0.555 4.639-2.581 5.072-4.153 1.17-4.262-3.432-9.588-3.889-10.317 0.232-0.522 0.457-1.004 0.66-1.417 0.26-0.526 0.596-1.157 0.994-1.814 2.582 4.641 6.252 4.771 4.498 12.473 -0.957 4.204-7.209 11.37-8.689 12.981 -0.275 0.303-0.447 0.599-0.377 0.671 0.072 0.07 0.361-0.106 0.639-0.406 1.5-1.622 7.795-8.805 8.785-13.162 0.076-0.334 0.129-0.679 0.16-1.031 0.209-0.334 1.379-2.661 2.201-5.549 1.758-6.17-1.178-9.364-1.381-10.392 0.504-0.039 0.871 0.149 1.123 0.369 0.305 0.269 0.518 0.553 0.609 0.513 0.094-0.041 0.029-0.385-0.254-0.678 -0.387-0.399-1.055-0.792-2.068-0.463 -2.451 0.794-5.359 3.876-6.568 6.322 -1.049 2.126-2.656 6.05-2.941 8.115 -0.074 0.552 0.049 1.331 0.18 2.157 0.145 0.906 0.293 1.843 0.152 2.4C155.924 99.947 155.051 102.503 154.205 103.536zM160.295 84.409c0.652-1.029 2.406-2.083 3.313-2.87 0.521 0.939 3.836 6.843 1.516 13.684C164.928 86.051 163.408 89.804 160.295 84.409zM152.652 106.486c0.271-0.794 1.064-1.768 1.836-2.713 0.869-1.065 1.77-3.653 2.01-4.594 0.16-0.632 0.006-1.608-0.145-2.553 -0.121-0.761-0.248-1.55-0.18-2.045 0.074-0.539 0.244-1.212 0.471-1.946 0.734 0.537 4.887 3.405 1.025 9.163 -0.201 0.134-0.398 0.251-0.578 0.328 -0.822 0.354-1.146 0.908-1.461 1.443 -0.346 0.592-0.705 2.692-1.777 3.147C153.135 107.022 152.768 106.645 152.652 106.486z" data-colored="true" data-filltype="sd3" data-stroketype="none" fill="#481c08" stroke-width="none" opacity="1" stroke="none"></path></g><g id="svga-group-faceshape-wrap" data-updown="0" data-leftright="0" data-dist="0" data-scaleX="1" data-scaleY="1" data-rotate="0"><g id="svga-group-faceshape-single" data-updown="0" data-leftright="0" data-dist="0" data-scaleX="1" data-scaleY="1" data-rotate="0"><path id="SvgjsPath1038" d="M100.002 0.867C66.381 0.813 39.186 28.343 39.134 62.366c-0.008 5.403 0.669 10.645 1.953 15.641l0.004 0c0.011 0.054 8.713 39.241 14.519 51.175 6.073 12.487 23.814 32.685 44.392 32.685 20.582 0 38.32-20.197 44.392-32.685 5.805-11.935 14.507-51.122 14.519-51.175l0.005 0c1.283-4.997 1.961-10.238 1.952-15.641C160.819 28.343 133.623 0.813 100.002 0.867z" data-colored="true" data-filltype="tone" data-stroketype="sd3" stroke="#481c08" stroke-width="0.5" opacity="1" fill="#764630"></path><path id="SvgjsPath1039" d="M120.754 4.512c21.441 9.489 36.411 31.135 36.45 56.363 0.008 5.403-0.669 10.645-1.953 15.641l-0.005 0c-0.011 0.054-8.713 39.24-14.519 51.177 -5.709 11.738-21.608 32.469-40.725 32.469s-35.016-20.73-40.725-32.469c-5.806-11.937-14.507-51.123-14.519-51.177l-0.004 0c-1.284-4.997-1.962-10.238-1.953-15.641 0.038-25.229 15.008-46.874 36.45-56.363 -23.386 8.55-40.076 31.208-40.117 57.854 -0.008 5.403 0.669 10.645 1.953 15.641l0.004 0c0.011 0.054 8.713 39.241 14.519 51.175 6.073 12.487 23.814 32.685 44.392 32.685 20.579 0 38.319-20.197 44.392-32.685 5.805-11.935 14.507-51.122 14.519-51.175l0.005 0c1.283-4.997 1.961-10.238 1.952-15.641C160.83 35.72 144.14 13.062 120.754 4.512z" data-colored="true" data-filltype="tone" data-stroketype="none" stroke="none" opacity="1" fill="#764630"></path><path id="SvgjsPath1040" d="M100.002 0.867C66.381 0.813 39.186 28.343 39.134 62.366c-0.008 5.403 0.669 10.645 1.953 15.641l0.004 0c0.011 0.054 8.713 39.241 14.519 51.175 6.073 12.487 23.814 32.685 44.392 32.685 20.582 0 38.32-20.197 44.392-32.685 5.805-11.935 14.507-51.122 14.519-51.175l0.005 0c1.283-4.997 1.961-10.238 1.952-15.641C160.819 28.343 133.623 0.813 100.002 0.867z" data-colored="true" data-filltype="tone" data-stroketype="#c27b55" opacity="1" fill="#764630" stroke="#764630"></path></g></g><g id="svga-group-eyes-left" data-updown="0" data-leftright="0" data-dist="0" data-scaleX="1.1842000000000001" data-scaleY="1.1842000000000001" data-rotate="0" transform="matrix(1.1831 0 0 1.1831 -13.545554916763308 -14.921276805877696)"><g id="svga-group-eyesback-left"><path id="SvgjsPath1121" d="M61.752 82.523c-0.506-2.285 5.191-3.973 12.711-3.051 7.518 0.923 12.738 5.524 12.052 7.844 -0.38 1.286-10.639 3.245-14.253 2.847C68.598 89.758 62.974 88.04 61.752 82.523z" data-colored="false" data-filltype="gradient" data-stroketype="none" fill="url(#SvgjsRadialGradient1122)" opacity="1"></path></g><g id="svga-group-eyesiriswrapper-left" transform="translate(0.25 0.25)"><g id="svga-group-eyesiriscontrol-left" data-updown="0" data-leftright="0" data-dist="0" data-scaleX="1" data-scaleY="1" data-rotate="0"><g id="svga-group-eyesiris-left" data-updown="0" data-leftright="0" data-dist="0" data-scaleX="1" data-scaleY="1" data-rotate="0"><path id="SvgjsPath3392" d="M79.788 85.588c-0.869 3.192-4.162 5.073-7.361 4.196 -3.197-0.876-5.084-4.178-4.214-7.371 0.869-3.195 4.168-5.076 7.365-4.198C78.772 79.09 80.659 82.392 79.788 85.588z" data-colored="true" data-filltype="tone" data-stroketype="sd3" fill="#987713" stroke="#6a5000" stroke-width="0.5" opacity="1"></path><path id="SvgjsPath3393" d="M79.643 84.371c-0.441 3.545-3.072 5.392-5.952 5.199 -2.658-0.179-5.034-2.14-5.254-5.525 0.919-0.264 2.14 0.165 3.211 0.001 -0.003 0.039-0.017 0.074-0.018 0.113 -0.084 1.3 0.958 2.433 2.329 2.525 1.374 0.092 2.556-0.892 2.641-2.191 0.009-0.169-0.001-0.336-0.027-0.496C77.527 84.141 78.693 83.999 79.643 84.371z" data-colored="true" data-filltype="hl1" data-stroketype="none" fill="#a78726" stroke-width="none" opacity="1"></path><path id="SvgjsPath3394" d="M74.867 81.998c-1.319-0.377-2.667 0.376-3.007 1.691 -0.341 1.308 0.453 2.678 1.771 3.056 1.322 0.379 2.669-0.375 3.011-1.684C76.986 83.745 76.188 82.376 74.867 81.998z" data-colored="false" data-filltype="#000000" data-stroketype="none" fill="#000000" stroke-width="none" opacity="0.9"></path><path id="SvgjsPath3395" d="M74.867 81.998c-1.319-0.377-2.667 0.376-3.007 1.691 -0.341 1.308 0.453 2.678 1.771 3.056 1.322 0.379 2.669-0.375 3.011-1.684C76.986 83.745 76.188 82.376 74.867 81.998z" data-colored="true" data-filltype="none" data-stroketype="sd3" fill="none" stroke="#6a5000" stroke-width="0.75" opacity="1"></path><path id="SvgjsPath3396" d="M71.16 87.657c-0.125 0.437-0.806 0.251-0.681-0.188 0.121-0.423 0.446-0.683 0.653-1.055 0.221-0.398 0.831-0.042 0.609 0.356C71.571 87.078 71.257 87.314 71.16 87.657L71.16 87.657zM72.246 86.96c-0.188 0.219-0.434 1.03-0.54 1.295 -0.17 0.422 0.513 0.604 0.681 0.188 0.058-0.145 0.256-0.863 0.359-0.983C73.04 87.116 72.543 86.614 72.246 86.96L72.246 86.96zM73.716 89.048c0.369-0.425 0.332-0.912 0.324-1.441 -0.007-0.455-0.713-0.455-0.706 0 0.004 0.293 0.092 0.701-0.117 0.942C72.92 88.891 73.417 89.392 73.716 89.048L73.716 89.048zM74.437 87.519c0.005 0.438 0.06 0.865 0.189 1.285 0.134 0.434 0.815 0.249 0.681-0.188 -0.112-0.362-0.159-0.719-0.164-1.097C75.138 87.064 74.432 87.063 74.437 87.519L74.437 87.519z" data-colored="false" data-filltype="#ffffff" data-stroketype="none" fill="#ffffff" stroke-width="none" opacity="0.5"></path><path id="SvgjsPath3397" d="M78.197 82.971c-0.695 0.417-1.74 0.042-2.333-0.839 -0.592-0.881-0.503-1.934 0.193-2.349 0.694-0.419 1.742-0.043 2.33 0.838C78.979 81.502 78.893 82.554 78.197 82.971z" data-colored="false" data-filltype="#ffffff" data-stroketype="none" fill="#ffffff" stroke-width="none" opacity="0.8"></path></g></g></g><g id="svga-group-eyesfront-left"><path id="SvgjsPath1143" d="M53.294 83c0.809 10.899 11.637 23.583 20.506 22.236 10.498 0.106 20.864-7.868 20.864-22.305s-5.087-26.528-21.127-26.528C62.037 56.402 53.294 68.563 53.294 83zM61.752 82.523c-0.506-2.285 5.191-3.973 12.711-3.051 7.518 0.923 12.738 5.524 12.052 7.844 -0.38 1.286-10.639 3.245-14.253 2.847C68.598 89.758 62.974 88.04 61.752 82.523z" data-colored="true" data-filltype="tone" data-stroketype="none" data-fromskin="true" fill="#764630" stroke-width="none" opacity="1" stroke="none"></path><path id="SvgjsPath1144" d="M72.262 90.163c3.614 0.398 13.873-1.561 14.253-2.847 0.687-2.32-4.534-6.921-12.052-7.844C68.003 78.68 62.9 79.816 61.907 81.6c0.898-6.4 7.7-11.397 15.987-11.434 8.911-0.037 16.148 5.676 16.172 12.765 0.021 7.088-7.185 12.862-16.095 12.902 -8.913 0.037-16.149-5.676-16.173-12.764 0-0.105 0.016-0.208 0.019-0.313C63.147 88.083 68.651 89.764 72.262 90.163z" data-colored="false" data-filltype="gradient" data-stroketype="none" data-fromskin="true" fill="url(#SvgjsRadialGradient1145)" opacity="1"></path><path id="SvgjsPath1149" d="M61.752 82.523c-0.506-2.285 5.191-3.973 12.711-3.051 7.518 0.923 12.738 5.524 12.052 7.844 -0.38 1.286-10.639 3.245-14.253 2.847C68.598 89.758 62.974 88.04 61.752 82.523z" data-colored="false" data-filltype="gradient" data-stroketype="none" fill="url(#SvgjsRadialGradient1150)" opacity="1"></path><path id="SvgjsPath1153" d="M62.148 77.417c4.208-1.978 9.35-2.16 13.838-1.005 2.404 0.561 4.965 1.285 7.063 2.638 1.945 1.135 3.525 2.5 5.002 4.19 -1.342-1.701-2.773-3.118-4.623-4.27 -2.276-1.416-4.769-2.294-7.364-2.916C71.478 74.928 66.342 75.184 62.148 77.417z" data-colored="true" data-filltype="sd3" data-stroketype="none" data-fromskin="true" fill="#481c08" stroke-width="none" opacity="1" stroke="none"></path><path id="SvgjsPath1154" d="M62.769 78.02c0.88-0.352 4.065-1 5.456-1.066 1.687-0.082 5.073 0.125 6.735 0.424 3.374 0.608 9.251 2.483 11.678 7.184 0.746 1.445 0.074 2.456-0.123 2.675 0.3-2.426-4.838-6.746-12.052-7.604 -7.52-0.894-13.217 0.743-12.711 2.958 1.222 5.348 6.846 7.013 10.51 7.405 4.099 0.439 11.684-1.539 12.686-1.753 -1.999 1.009-7.524 2.095-9.767 2.303 -0.744 0.07-2.24 0.104-2.986 0.085 -5.949-0.158-10.169-3.175-11.729-7.26C59.464 80.745 60.56 78.902 62.769 78.02z" data-colored="true" data-filltype="tone" data-stroketype="none" stroke-width="none" opacity="1" fill="#2c1630" stroke="none"></path></g></g><g id="svga-group-eyes-right" data-updown="0" data-leftright="0" data-dist="0" data-scaleX="1.1842000000000001" data-scaleY="1.1842000000000001" data-rotate="0" transform="matrix(1.1831 0 0 1.1831 -23.001297700500487 -14.921185306167601)"><g id="svga-group-eyesback-right"><path id="SvgjsPath1128" d="M137.849 82.523c0.506-2.285-5.191-3.973-12.711-3.051 -7.518 0.923-12.738 5.524-12.052 7.844 0.38 1.286 10.639 3.245 14.253 2.847C131.003 89.758 136.627 88.04 137.849 82.523z" data-colored="false" data-filltype="gradient" data-stroketype="none" fill="url(#SvgjsRadialGradient1129)" opacity="1"></path></g><g id="svga-group-eyesiriswrapper-right" transform="translate(-0.25 0.25)"><g id="svga-group-eyesiriscontrol-right" data-updown="0" data-leftright="0" data-dist="0" data-scaleX="1" data-scaleY="1" data-rotate="0"><g id="svga-group-eyesiris-right" data-updown="0" data-leftright="0" data-dist="0" data-scaleX="1" data-scaleY="1" data-rotate="0"><path id="SvgjsPath3398" d="M131.788 85.588c-0.869 3.192-4.162 5.073-7.362 4.196 -3.196-0.876-5.084-4.178-4.214-7.371 0.869-3.195 4.169-5.076 7.365-4.198C130.772 79.09 132.658 82.392 131.788 85.588z" data-colored="true" data-filltype="tone" data-stroketype="sd3" fill="#987713" stroke="#6a5000" stroke-width="0.5" opacity="1"></path><path id="SvgjsPath3399" d="M131.643 84.371c-0.44 3.545-3.072 5.392-5.951 5.199 -2.657-0.179-5.034-2.14-5.255-5.525 0.919-0.264 2.141 0.165 3.212 0.001 -0.004 0.039-0.017 0.074-0.019 0.113 -0.085 1.3 0.958 2.433 2.329 2.525 1.374 0.092 2.555-0.892 2.64-2.191 0.009-0.169-0.001-0.336-0.026-0.496C129.527 84.141 130.693 83.999 131.643 84.371z" data-colored="true" data-filltype="hl1" data-stroketype="none" fill="#a78726" stroke-width="none" opacity="1"></path><path id="SvgjsPath3400" d="M126.867 81.998c-1.319-0.377-2.666 0.376-3.007 1.691 -0.341 1.308 0.453 2.678 1.771 3.056 1.322 0.379 2.669-0.375 3.011-1.684C128.986 83.745 128.188 82.376 126.867 81.998z" data-colored="false" data-filltype="#000000" data-stroketype="none" fill="#000000" stroke-width="none" opacity="0.9"></path><path id="SvgjsPath3401" d="M126.867 81.998c-1.319-0.377-2.666 0.376-3.007 1.691 -0.341 1.308 0.453 2.678 1.771 3.056 1.322 0.379 2.669-0.375 3.011-1.684C128.986 83.745 128.188 82.376 126.867 81.998z" data-colored="true" data-filltype="none" data-stroketype="sd3" fill="none" stroke="#6a5000" stroke-width="0.75" opacity="1"></path><path id="SvgjsPath3402" d="M123.16 87.657c-0.125 0.437-0.806 0.251-0.682-0.188 0.121-0.423 0.447-0.683 0.654-1.055 0.22-0.398 0.83-0.042 0.609 0.356C123.571 87.078 123.257 87.314 123.16 87.657L123.16 87.657zM124.246 86.96c-0.188 0.219-0.434 1.03-0.54 1.295 -0.171 0.422 0.513 0.604 0.681 0.188 0.059-0.145 0.256-0.863 0.358-0.983C125.04 87.116 124.543 86.614 124.246 86.96L124.246 86.96zM125.716 89.048c0.369-0.425 0.332-0.912 0.324-1.441 -0.007-0.455-0.713-0.455-0.706 0 0.004 0.293 0.092 0.701-0.117 0.942C124.92 88.891 125.418 89.392 125.716 89.048L125.716 89.048zM126.438 87.519c0.005 0.438 0.059 0.865 0.188 1.285 0.135 0.434 0.815 0.249 0.681-0.188 -0.112-0.362-0.159-0.719-0.164-1.097C127.138 87.064 126.432 87.063 126.438 87.519L126.438 87.519z" data-colored="false" data-filltype="#ffffff" data-stroketype="none" fill="#ffffff" stroke-width="none" opacity="0.5"></path><path id="SvgjsPath3403" d="M130.197 82.971c-0.695 0.417-1.74 0.042-2.333-0.839 -0.592-0.881-0.504-1.934 0.192-2.349 0.695-0.419 1.742-0.043 2.33 0.838C130.979 81.502 130.893 82.554 130.197 82.971z" data-colored="false" data-filltype="#ffffff" data-stroketype="none" fill="#ffffff" stroke-width="none" opacity="0.8"></path></g></g></g><g id="svga-group-eyesfront-right"><path id="SvgjsPath1163" d="M126.063 56.402c-16.04 0-21.127 12.091-21.127 26.528s10.366 22.412 20.864 22.305c8.869 1.347 19.697-11.337 20.506-22.236C146.307 68.563 137.563 56.402 126.063 56.402zM127.339 90.163c-3.614 0.398-13.873-1.561-14.253-2.847 -0.687-2.32 4.534-6.921 12.052-7.844 7.52-0.922 13.217 0.767 12.711 3.051C136.627 88.04 131.003 89.758 127.339 90.163z" data-colored="true" data-filltype="tone" data-stroketype="none" data-fromskin="true" fill="#764630" stroke-width="none" opacity="1" stroke="none"></path><path id="SvgjsPath1164" d="M127.339 90.163c-3.614 0.398-13.873-1.561-14.253-2.847 -0.687-2.32 4.534-6.921 12.052-7.844 6.46-0.792 11.563 0.345 12.556 2.128 -0.898-6.4-7.7-11.397-15.987-11.434 -8.911-0.037-16.148 5.676-16.172 12.765 -0.021 7.088 7.185 12.862 16.095 12.902 8.913 0.037 16.149-5.676 16.173-12.764 0-0.105-0.016-0.208-0.019-0.313C136.453 88.083 130.949 89.764 127.339 90.163z" data-colored="false" data-filltype="gradient" data-stroketype="none" data-fromskin="true" fill="url(#SvgjsRadialGradient1165)" opacity="1"></path><path id="SvgjsPath1169" d="M137.849 82.523c0.506-2.285-5.191-3.973-12.711-3.051 -7.518 0.923-12.738 5.524-12.052 7.844 0.38 1.286 10.639 3.245 14.253 2.847C131.003 89.758 136.627 88.04 137.849 82.523z" data-colored="false" data-filltype="gradient" data-stroketype="none" fill="url(#SvgjsRadialGradient1170)" opacity="1"></path><path id="SvgjsPath1173" d="M137.452 77.417c-4.208-1.978-9.35-2.16-13.838-1.005 -2.404 0.561-4.965 1.285-7.063 2.638 -1.945 1.135-3.525 2.5-5.002 4.19 1.342-1.701 2.773-3.118 4.623-4.27 2.276-1.416 4.769-2.294 7.364-2.916C128.123 74.928 133.259 75.184 137.452 77.417z" data-colored="true" data-filltype="sd3" data-stroketype="none" data-fromskin="true" fill="#481c08" stroke-width="none" opacity="1" stroke="none"></path><path id="SvgjsPath1174" d="M136.832 78.02c-0.88-0.352-4.065-1-5.456-1.066 -1.687-0.082-5.073 0.125-6.735 0.424 -3.374 0.608-9.251 2.483-11.678 7.184 -0.746 1.445-0.074 2.456 0.123 2.675 -0.3-2.426 4.838-6.746 12.052-7.604 7.52-0.894 13.217 0.743 12.711 2.958 -1.222 5.348-6.846 7.013-10.51 7.405 -4.099 0.439-11.684-1.539-12.686-1.753 1.999 1.009 7.524 2.095 9.767 2.303 0.744 0.07 2.24 0.104 2.986 0.085 5.949-0.158 10.169-3.175 11.729-7.26C140.137 80.745 139.041 78.902 136.832 78.02z" data-colored="true" data-filltype="tone" data-stroketype="none" stroke-width="none" opacity="1" fill="#2c1630" stroke="none"></path></g></g><g id="svga-group-facehighlight-single" data-updown="0" data-leftright="0" data-dist="0" data-scaleX="1" data-scaleY="1" data-rotate="0"><path id="SvgjsPath1049" d="M141 113.974c0.035 22.622-18.292 40.994-40.938 41.025 -22.642 0.037-41.028-18.273-41.063-40.9 -0.035-22.62 18.292-41.064 40.937-41.1C122.579 72.964 140.967 91.349 141 113.974z" data-colored="false" data-filltype="gradient" data-stroketype="none" data-fromskin="true" fill="url(#SvgjsRadialGradient1050)" opacity="1"></path><path id="SvgjsPath1053" d="M137.5 53.999c0 20.711-16.789 37.5-37.499 37.5 -20.711 0-37.501-16.789-37.501-37.5s16.79-37.5 37.501-37.5C120.711 16.499 137.5 33.288 137.5 53.999z" data-colored="false" data-filltype="gradient" data-stroketype="none" data-fromskin="true" fill="url(#SvgjsRadialGradient1054)" opacity="1"></path></g><g id="svga-group-nose-single" data-updown="0" data-leftright="0" data-dist="0" data-scaleX="1" data-scaleY="1" data-rotate="0"><path id="SvgjsPath1183" d="M95.993 113.767c-0.221 2.279 0.695 4.137 1.688 4.511 2.534 0.951 2.097-0.253 2.327-4.159 0.493-8.369-0.306-28.12-0.306-28.12S96.513 108.409 95.993 113.767z" data-colored="true" data-filltype="hl2" data-stroketype="none" data-fromskin="true" fill="#956d5a" stroke-width="none" opacity="0.2" stroke="none"></path><path id="SvgjsPath1184" d="M96.658 109.854c0 0-2.249 4.36-1.897 5.857 0.458 1.947 2.677 3.501 6.516 3.265 -3.965-0.567-4.419-1.791-4.819-3.392C96.109 114.188 96.658 109.854 96.658 109.854z" data-colored="true" data-filltype="sd3" data-stroketype="none" data-fromskin="true" fill="#481c08" stroke-width="none" opacity="1" stroke="none"></path></g><g id="svga-group-mouth-single" data-updown="0" data-leftright="0" data-dist="0" data-scaleX="1" data-scaleY="1" data-rotate="0"><path id="SvgjsPath1175" d="M99.961,142.599c-4.962,0-9.128-3.718-9.128-3.718c8.661,1.329,19.271-0.79,19.271-0.79
		S106.227,142.599,99.961,142.599z" data-colored="true" data-filltype="hl1" data-stroketype="none" data-fromskin="true" fill="#855844" stroke-width="none" stroke="none"></path><path id="SvgjsPath1176" d="M99.962,138.913c-3.209,0.029-10.57-1.921-13.338-3.455
		c-1.638-0.902-4.472-4.035-6.442-5.629c-0.757-0.613-0.442-1.798,0.556-1.845c2.428-0.116,5.549,1.151,7.01,1.375
		c3.062,0.456,6.926,2.157,12.164,2.157c3.892,0,8.146-1.352,10.858-1.85c1.631-0.299,5.405-1.617,8.058-1.764
		c1.001-0.059,1.409,0.914,0.668,1.547c-2.074,1.795-5.399,5.089-7.193,6.011C109.405,136.949,102.856,138.887,99.962,138.913z" data-colored="false" data-filltype="#000000" data-stroketype="none" fill="#000000" stroke="none" opacity="0.5"></path><path id="SvgjsPath1177" d="M84.44,128.12c0,0,0.341,2.853,0.862,3.669c0.718,1.122,5.079,3.426,6.821,3.748
		c1.185,0.216,3.357,0.559,4.551,0.721c1.296,0.175,2.024,0.017,3.329-0.026c1.406-0.045,2.607,0.155,3.979-0.159
		c0.978-0.224,3.837-0.981,4.771-1.346c0.718-0.283,2.164-0.754,2.82-1.166c0.545-0.338,2.229-1.567,2.562-2.11
		c0.437-0.712,0.843-3.236,0.843-3.236L84.44,128.12z" data-colored="false" data-filltype="#ffffff" data-stroketype="none" fill="#ffffff" stroke="none"></path><path id="SvgjsPath1178" d="M90.776,128.613c0,0-0.621,6.212-0.678,6.32
		c-0.056,0.108-0.212-6.32-0.212-6.32H90.776z M93.396,129.305l0.553,6.585l0.358-6.585H93.396z M99.505,130.276l0.691,5.983
		l0.446-6.086L99.505,130.276z M104.864,129.019c1.161,0.103,1.55,6.404,1.55,6.404l0.16-6.404H104.864z M109.312,128.249
		c0,0,0.461,6.013,0.526,5.9c0.061-0.114,0.183-5.9,0.183-5.9H109.312z M86.849,128.246l0.338,4.917l0.339-4.917H86.849z
		 M112.496,127.746l0.103,5.15l0.515-5.188L112.496,127.746z" data-colored="false" data-filltype="#000000" data-stroketype="none" fill="#000000" stroke="none" opacity="0.1"></path><path id="SvgjsPath1179" d="M120.12,127.882c-1.452-0.477-4.498-0.146-6.037-0.345
		c-2.184-0.281-6.612-0.482-8.818-0.419c-1.385,0.039-4.115,0.537-5.499,0.569c-1.421,0.032-4.248-0.541-5.668-0.553
		c-2.252-0.013-6.787,0.251-8.996,0.629c-1.524,0.26-4.641-0.132-5.862,0.558c-0.282,0.161-0.113,0.882,0,1.154
		c1.03,2.456,4.999,5.228,8.432,7.588c4.412,3.034,9.051,3.974,12.699,3.975c4.813,0.004,10.482-2.642,15.225-6.63
		c2.099-1.763,4.754-3.584,5.194-5.285C121.014,128.265,120.496,128.006,120.12,127.882z M99.9,136.377
		c-2.968,0.023-9.855-1.444-12.763-2.933c-1.744-0.893-4.415-3.03-6.234-4.36c-0.702-0.51,6.396,1.37,7.751,1.554
		c2.828,0.381,6.402,0.925,11.244,0.925c3.594,0,7.53-0.251,10.039-0.666c1.507-0.25,9.323-2.528,8.644-1.999
		c-1.925,1.496-5.162,3.782-7.226,4.781C108.737,134.951,102.574,136.35,99.9,136.377z" data-colored="true" data-filltype="tone" data-stroketype="none" stroke-width="none" fill="#a06b59" stroke="none"></path><path id="SvgjsPath1180" d="M84.453,133.759c3.088,0.616,10.042,4.246,15.887,4.05
		c6.091-0.205,15.132-5.579,16.324-4.989c0.45,1.409-11.754,8.213-16.324,8.321C96.237,141.235,83.161,135.36,84.453,133.759z
		 M99.505,130.276c3.71-0.049,8.242-0.521,11.297-1.967c-3.478-1.191-8.277,0.135-11.037,0.197c-3.58,0.082-6.573-1.099-9.889,0.069
		C93.043,129.642,96.299,130.319,99.505,130.276z" data-colored="true" data-filltype="hl05" data-stroketype="none" fill="#a87666" stroke-width="none" stroke="none"></path><path id="SvgjsPath1181" d="M97.415,139.521c-2.245-0.498-2.321-0.7-0.193-0.493
		c1.301,0.125,2.602,0.155,3.867,0.034c0.167-0.017,0.334-0.033,0.5-0.058c1.424-0.184,2.958-0.641,4.494-1.235
		c2.404-0.932,2.447-0.705,0.063,0.525c-1.748,0.901-3.377,1.557-4.532,1.693l-0.071,0.009
		C100.554,140.091,99.074,139.893,97.415,139.521z" data-colored="true" data-filltype="hl05" data-stroketype="none" fill="#a87666" stroke-width="none" stroke="none"></path><path id="SvgjsPath1182" d="M77.958,131.076c0,0-0.639-1.845-0.548-2.532c0.124-0.966,1.733-2.878,1.733-2.878
		s-0.973,2.201-1.123,2.895C77.873,129.234,77.958,131.076,77.958,131.076z M121.999,131.312c0,0,0.694-2.006,0.598-2.753
		c-0.137-1.048-1.885-3.127-1.885-3.127s1.06,2.392,1.222,3.146C122.091,129.308,121.999,131.312,121.999,131.312z" data-colored="true" data-filltype="sd3" data-stroketype="none" data-fromskin="true" fill="#481c08" stroke-width="none" stroke="none"></path></g><g id="svga-group-eyebrows-left" data-updown="0" data-leftright="0" data-dist="0" data-scaleX="1" data-scaleY="1" data-rotate="0"><path id="SvgjsPath1083" d="M54.872 71.479c0 0.55 13.681-0.174 15.036-0.312 23.276-2.375 24.726-7.885 21.625-7.963 -2.49-0.063-3.619 2.32-21.219 5.462C69.895 68.742 54.872 71.906 54.872 71.479z" data-colored="true" data-filltype="#000000" data-stroketype="none" stroke-width="none" opacity="1" fill="#3b3128" stroke="none"></path></g><g id="svga-group-eyebrows-right" data-updown="0" data-leftright="0" data-dist="0" data-scaleX="1" data-scaleY="1" data-rotate="0"><path id="SvgjsPath1084" d="M145.13 71.479c0 0.55-13.681-0.174-15.036-0.312 -23.276-2.375-24.726-7.885-21.625-7.963 2.49-0.063 3.619 2.32 21.219 5.462C130.107 68.742 145.13 71.906 145.13 71.479z" data-colored="true" data-filltype="#000000" data-stroketype="none" stroke-width="none" opacity="1" fill="#3b3128" stroke="none"></path></g><g id="svga-group-beardwrap" data-updown="0" data-leftright="0" data-dist="0" data-scaleX="1" data-scaleY="1" data-rotate="0"><g id="svga-group-beard-single" data-updown="0" data-leftright="0" data-dist="0" data-scaleX="1" data-scaleY="1" data-rotate="0"></g></g><g id="svga-group-mustache-single" data-updown="0" data-leftright="0" data-dist="0" data-scaleX="1" data-scaleY="1" data-rotate="0"></g><g id="svga-group-hair-front" data-updown="0" data-leftright="0" data-dist="0" data-scaleX="1" data-scaleY="1" data-rotate="0"><path id="SvgjsPath1075" d="M152.983 98.604c-4.563-12.435 0.717-31.506-8.205-45.615 -4.064-6.762-7.597-11.409-6.95-19.276l-0.368-0.124c-0.862 1.352-1.994 2.82-2.745 3.76 0.427-1.091 1.123-2.762 1.753-4.023l-0.332-0.218c-2.585 3.073-4.805 4.649-7.859 5.5 3.3-2.32 6.949-6.357 8.546-8.595l-0.271-0.284c-11.319 7.283-24.164 7.382-35.496 7.471 -10.227 0.076-16.579-0.155-23.953-4.441 -5.321 1.764-9.511 1.539-14.116-1.635 -14.414 27.947-8.01 13.957-16.627 65.764 -5.004-6.67-6.458-10.912-7.642-17.267 -0.313-2.027-0.619-5.154-0.429-7.215l-0.063-0.065c-4.452-9.77-6.553-15.333-5.495-34.712 0.785-8.04 2.533-14.076 7.574-20.398 -0.665-3.435-0.729-6.898-0.277-10.21 -2.64-4.827-4.457-9.795-5.165-11.57 3.688 2.823 3.993 2.986 7.07 3.957 0.704-1.937 1.73-3.861 2.387-4.865 0.297 2.238 0.533 3.75 1.203 5.925 0.228 0.055 1.313 0.349 1.66 0.442 -0.199-1.324-0.381-1.938-0.353-3.125 0.571 1.302 1.053 1.604 2.71 3.626 1.834 0.385 1.394 0.328 1.944 0.328 -2.669-4.183-4.47-7.885-4.927-13.515 3.653 2.081 8.764 3.27 14.101 3.27 12.539 0 25.369-9.412 43.169-9.412 15.425 0 28.771 8.558 34.683 18.303 -0.006-2.514-0.113-4.594 0.794-7.178 0 0 0.105 3.705 0.105 6.592l0.396 0.037c0.62-3.301 1.928-6.115 4.088-8.773 -1.918 5.158-1.188 2.404-3.334 8.702l0.348 0.187c1.431-1.839 2.603-3.139 6.019-4.862 -2.468 2.473-4.355 3.89-5.522 5.639l0.301 0.259c1.456-1.32 2.971-1.82 4.512-0.613 -2.481-0.902-3.946 0.679-5.648 2.675 6.619 1.091 10.21 4.91 14.864 10.015 10.712 12.352 13.533 24.411 7.723 41.506 2.435 5.263 2.06 17.125-3.375 26.686C159.779 86.867 155.941 93.789 152.983 98.604z" data-colored="true" data-filltype="tone" data-stroketype="none" stroke-width="none" opacity="1" fill="#543c32" stroke="none"></path><path id="SvgjsPath1076" d="M62.299 30.371c0.359 0.334 0.718 0.668 1.074 1.004 -0.129-0.085-0.258-0.164-0.388-0.253 -14.414 27.947-8.01 13.957-16.627 65.764 -5.004-6.67-6.458-10.912-7.642-17.267 -0.313-2.027-0.619-5.154-0.429-7.215l-0.063-0.065c-4.452-9.77-6.553-15.333-5.495-34.712 0.785-8.04 2.533-14.076 7.574-20.398 -0.654-3.378-0.72-6.782-0.293-10.044 0.597 0.874 1.223 1.725 1.863 2.565C42.304 12.374 42.669 14.933 42 17c-9.539 29.478-4 43 2 64 -2.464-15.931-7.142-36.185 5.619-48C44.168 46.096 45.673 52.034 47 61 47.917 49.082 52.195 37.996 62.299 30.371zM155.432 13.06c-0.376-0.412-0.742-0.812-1.106-1.207 -0.382 0.255-0.774 0.489-1.159 0.737 14.956 30.661 0.594 27.717 4.017 41.409C161.183 63.999 156 70 156 80c0-15-0.681-25.439-8.96-37.175 -2.796-3.963-3.581-17.423-5.465-24.074C118.373 33 84.002 35.981 47.916 7.183c17 6 51.649 1.35 63.543-6.316 -13.558 2.461-41.862 2.608-54.59-2.631 30.5-2.37 30.131-12.16 56.131-14C100.5-20.431 73.196-8.51 60.658-8.51c-5.336 0-10.447-1.188-14.101-3.27 0.457 5.63 2.258 9.333 4.927 13.515 -0.551 0-0.11 0.057-1.944-0.328 -1.658-2.022-2.14-2.325-2.71-3.626 -0.029 1.187 0.154 1.801 0.353 3.125 -0.347-0.093-1.433-0.387-1.66-0.442 -0.67-2.175-0.906-3.687-1.203-5.925 -0.656 1.004-1.683 2.928-2.387 4.865 -3.078-0.971-3.382-1.134-7.07-3.957 0.708 1.775 2.525 6.744 5.165 11.57 -0.007 0.055-0.009 0.111-0.016 0.166 6.305 9.235 15.169 16.471 23.363 24.192 4.454 2.924 8.558 3.096 13.729 1.382 7.374 4.286 13.727 4.517 23.953 4.441 11.332-0.088 24.177-0.188 35.496-7.471l0.271 0.284c-1.597 2.238-5.246 6.275-8.546 8.595 3.055-0.852 5.274-2.428 7.859-5.5l0.332 0.218c-0.63 1.262-1.326 2.932-1.753 4.023 0.751-0.94 1.883-2.408 2.745-3.76l0.368 0.124c-0.646 7.868 2.886 12.514 6.95 19.276 8.922 14.109 3.643 33.181 8.205 45.615 2.958-4.815 6.796-11.736 6.796-17.352 5.435-9.561 5.81-21.423 3.375-26.686C168.965 37.471 166.144 25.412 155.432 13.06zM156.165 38.709c-0.33-9.524-6.633-21.612-6.633-21.612 -2.946-5.204-5.579-7.687-9.996-8.695 12.426 0.619 17.306 19.179 16.769 28.875C156.254 38.177 156.165 38.709 156.165 38.709zM127.907-1.507c3.283 2.663 4.067 3.423 7.296 7.909 -16.653-29.889-49.333-7.27-59.667-8C86.041 0.573 109.793-14.79 127.907-1.507zM136.369 11.485C116.408 28.033 85.929 21.023 61 13.21 85.827 24.581 117.435 30.734 136.369 11.485zM57.869 29.485c-6.539 3.425-9.616 12.05-9.9 17.75C49.19 42.316 52.854 33.291 57.869 29.485zM49.619 24.735c-9.359 5.699-11.174 18.771-10.25 29.75C40.353 44.343 42.181 31.11 49.619 24.735zM117.064 12.34c-1.006 0.215-7.259 1.072-10.672 1.195 -2.661 0.155-13.037 0.328-22.391-0.048 9.655 2.069 15.454 2.454 22.496 2.045 8.106-0.293 15.36-1.898 21.371-6.796C123.633 11.067 121.828 11.399 117.064 12.34zM150.609 38.885c0 0-0.256-0.441-0.588-1.102 -0.911-1.527-1.945-5.681-5.938-18.736 2.966 24.195 7.817 19.782 9.991 32.283C154.075 46.834 153.761 44.529 150.609 38.885z" data-colored="true" data-filltype="sd1" data-stroketype="none" fill="#452c22" stroke-width="none" opacity="1" stroke="none"></path><path id="SvgjsPath1077" d="M157.853 68.131c0.364-3.246 0.217-1.758 0.257-3.61 0.306-6.244-3.426-11.479-1.154-18.987 1.854-5.453 2.925-6.308 2.113-15.801 -0.119-1.37-0.474-4.774-1.102-5.998 0.856 1.489 1.422 4.245 1.725 5.934 1.687 9.543 0.268 10.992-1.521 16.267C155.781 53.906 160.368 57.422 157.853 68.131zM141.575 18.751c1.117 30.37 7.276 23.316 12.717 41.752C150.598 38.757 147.181 56.786 141.575 18.751zM48.369 34.235c-9.19 11.563-8.262 19.899-6 37C42.165 53.925 40.055 47.355 48.369 34.235zM41.772 17.714c-5.274 16.319-6.429 23.684-3.897 41.285C37.406 41.353 37.518 37.458 41.772 17.714zM61.952 30.641C52.322 37.56 47.295 50.217 47 61 48.482 50.695 54.012 37.697 61.952 30.641zM128.855 24.594c-12.051 4.437-31.667 5.625-45.988 1.322C71.706 22.661 54.279 11.723 44.905 4.845c8.498 6.765 23.471 16.807 33.926 20.776 10.863 4.059 27.887 5.567 41.081 2.245 9.248-2.324 14.041-4.52 21.663-9.114C138.182 20.612 133.184 23.242 128.855 24.594zM102.813-11.594c12.167-2.285 26.509 5.558 34.057 14.83 -7.897-11.318-20.837-16.949-28.562-17.083C95.629-14.067 82.513-3.204 56.869-2.265 80.982-1.203 92.573-9.936 102.813-11.594zM112.369 1.235c-17.289 6.143-30.64 7.613-48.807 8.58C82.325 10.97 95.739 9.15 112.369 1.235zM130.536 4.738c-10.662 5.027-15.33 5.851-37.337 7.191C106.996 12.486 119.885 11.769 130.536 4.738zM95.248 20.023c10.644 1.237 29.289-0.105 38.621-9.788 -11.27 9.494-32.119 9.154-48.38 8.508C91.713 19.714 90.59 19.552 95.248 20.023zM140.869 10.735c7.629 2.809 9.489 16.193 12.5 27C152.022 28.156 149.721 12.813 140.869 10.735z" data-colored="true" data-filltype="hl1" data-stroketype="none" fill="#634e45" stroke-width="none" opacity="1" stroke="none"></path><path id="SvgjsPath1078" d="M155.579 12.925c-4.348-4.769-8.252-8.97-14.63-10.02 2.094-2.463 3.566-3.379 6.25-1.85 -1.59-1.871-3.417-2.226-5.63-0.22 1.271-1.905 3.468-3.46 6.3-6.43 -4.231 1.985-5.503 3.34-7.12 5.42 2.285-6.703 1.3-3.128 3.72-9.75 -2.529 2.836-4.146 5.92-4.859 9.72 0-5.903-0.185-5.14-0.07-7.72 -1.387 3.089-1.229 5.81-1.229 7.59 -2.233-3.682-5.514-6.8-9.051-9.35 -25.054-18.289-50.039-1.456-63.58 0.58 -5.489 0.927-13.714 0.338-19.35-3.04 0.398 5.764 2.183 9.592 4.79 13.68 -0.001 0-1.47-0.31-1.47-0.31 -2.019-2.434-2.214-2.356-2.96-4.33 -0.191 1.763 0.101 2.74 0.25 3.74 -0.498-0.13-0.957-0.268-1.26-0.34 -0.743-2.414-0.958-4.25-1.23-6.29 -0.614 0.785-1.922 3.18-2.64 5.15 -2.999-0.948-3.214-1.099-7.43-4.33 0.5 1 2.309 6.461 5.44 12.23 -0.47 3.534-0.328 7.06 0.27 10.12 -5.025 6.312-6.77 12.346-7.56 20.44 -1.041 19.059 0.867 24.611 5.53 34.82 0.01 0.01 0.01 0.03 0.02 0.04 -0.177 1.971 0.119 5.102 0.44 7.18 1.179 6.332 2.625 10.693 7.91 17.65 0.02 0.02 0.03 0.05 0.05 0.07 3.395-20.368 3.045-20.867 3.77-25.89 3.572-25.712 3.417-21.872 12.81-40.07 3.813 2.628 8.035 3.552 14.02 1.56 4.342 2.524 8.776 4.45 21.06 4.45 12.171-0.152 26.176 0.412 38.52-7.53 -1.87 2.622-6.118 7.154-9.46 9.18 3.479-0.736 5.975-2.137 9.09-5.84 -0.957 1.915-2.083 4.814-2.17 5.16 0.15-0.18 2.15-2.57 3.51-4.7 -0.653 7.945 2.894 12.597 6.98 19.4 8.956 14.163 3.511 33.521 8.33 45.96 3.09-4.996 7.04-12.086 7.04-17.75 5.21-9.086 5.956-21.111 3.39-26.75C168.587 38.924 167.533 26.708 155.579 12.925zM46.789-2.465c0.488 1.389 0.595 1.359 2.49 3.61 -0.94-0.195-1.565-0.332-2.13-0.46C46.93-0.371 46.789-1.375 46.789-2.465zM44.279-5.125c0.094 1.532 0.459 3.542 0.99 5.31 -2.865-0.737-1.8-0.504-2.8-0.8C43.292-3.089 43.602-3.715 44.279-5.125zM45.999 95.095c-4.216-7.605-5.323-10.191-6.49-17.89 -0.114-0.886-0.472-3.446-0.49-4.67 -6.07-13.88-8.352-40.236 1.21-54.74 0-0.01 0-0.01 0-0.01s0.399-0.624 1.12-1.52c-0.267-1.344-0.531-4.18-0.44-7.28 0.74 1.32 1.58 2.52 2.33 3.67 0-0.003 0.59 0.781 0.59 0.8 4.551 5.79 8.754 10.604 18.92 17.75C50.544 50.979 51.301 44.3 45.999 95.095zM163.639 48.206c-0.356 2.358-1.123 5.583-1.539 6.99 2.78 7.068-0.257 20.417-3.061 26.38 -1.226 7.093-2.545 8.521-6.01 15.59 -2.477-11 2.583-30.519-6.76-45.08 -6.059-10.044-8.657-11.36-7.23-23.77 0 0 0.061-0.675 0.08-0.85 -12.628 7.721-26.576 8.594-44.97 8.2 -5.317 0-12.5-0.668-16.98-3.44 -9.081 2.583-12.45-1.437-20.01-7.34 -8.163-6.937-13.709-12.994-20.55-27.27 3.843 3.118 11.537 4.689 16.39 5.5 -3.273-4.363-5.199-8.349-6.07-14 3.48 2.32 11.82 4.603 19.17 3.79 13.534-1.271 32.484-15.167 55.77-4.63 10.804 4.767 16.286 11.476 17.57 15 0.01 0 0.02 0.01 0.04 0.01 0.06 0.02 0.12 0.03 0.189 0.04 0.017 0.018 0.332 0.09 0.36 0.09 6.976 2.325 7.443 2.759 14.2 10.64C158.026 18.715 167.168 28.016 163.639 48.206z" data-colored="true" data-filltype="sd3" data-stroketype="none" fill="#26130b" stroke-width="none" opacity="1" stroke="none"></path></g><g id="svga-group-glasses-single" data-updown="0" data-leftright="0" data-dist="0" data-scaleX="1" data-scaleY="1" data-rotate="0"></g></g></g><g id="svga-group-bubble-single" data-updown="0" data-leftright="0" data-dist="0" data-scaleX="1" data-scaleY="1" data-rotate="0" transform="matrix(1 0 0 1 1 1) translate(-1 0)"><path id="SvgjsPath3799" d="M37.696,3.326v0.002c19.531,0,35.363,13.705,35.363,30.613c0,9.608-5.114,18.18-13.111,23.792
			c-0.097,0.69-0.15,1.394-0.15,2.112c0,5.143,4.108,9.643,8.841,12.115v1.98c-8.766-0.215-17.833-1.666-25.429-9.759
			c-1.796,0.243-3.637,0.371-5.513,0.371c-19.531,0-35.363-13.705-35.363-30.613S18.166,3.326,37.697,3.326H37.696z" data-colored="true" data-filltype="tone" data-stroketype="none" fill="#ffffff" stroke-width="none"></path><path id="SvgjsPath3800" d="M68.636,74.091c-8.662-0.213-17.743-1.542-25.482-9.75c-1.801,0.24-3.636,0.362-5.456,0.362
			c-19.582,0-35.513-13.801-35.513-30.764S18.116,3.176,37.698,3.176l0.15,0.002C57.36,3.249,73.21,17.022,73.21,33.941
			c0,9.303-4.782,18.002-13.121,23.876c-0.093,0.676-0.14,1.358-0.14,2.027c0,5.461,4.525,9.77,8.76,11.982l0.081,0.042v2.225
			L68.636,74.091z M59.648,59.842c0-0.704,0.051-1.422,0.152-2.134l0.009-0.063l0.054-0.038
			c8.291-5.817,13.046-14.444,13.046-23.668c0-16.797-15.796-30.463-35.212-30.463l-0.134-0.001
			C18.21,3.538,2.485,17.179,2.485,33.938c0,16.798,15.796,30.463,35.212,30.463c1.833,0,3.68-0.124,5.492-0.369l0.077-0.011
			l0.053,0.057c7.63,8.129,16.6,9.484,25.17,9.707V72.05C64.2,69.786,59.648,65.405,59.648,59.842z" data-colored="true" data-filltype="sd1" data-stroketype="none" fill="#f0d8d8" stroke="none"></path><path id="SvgjsPath3801" d="M13.511,21.839v8.288h7.537v-8.288h4.564v21.566h-4.564v-9.023h-7.537v9.023H8.917V21.839H13.511z" data-colored="true" data-filltype="inverse" data-stroketype="none" fill="#000000" stroke="none"></path><path id="SvgjsPath3802" d="M25.862,43.655h-5.064v-9.023h-7.037v9.023H8.667V21.589h5.094v8.288h7.037v-8.288h5.064V43.655z M21.298,43.155h4.064
				V22.089h-4.064v8.288h-8.037v-8.288H9.167v21.066h4.094v-9.023h8.037V43.155z" data-colored="true" data-filltype="sd1" data-stroketype="none" fill="#f0d8d8" stroke="none"></path><path id="SvgjsPath3803" d="M32.882,37.134c0.15,2.016,2.013,2.976,4.145,2.976c1.562,0,2.822-0.224,4.054-0.64l0.601,3.295
				c-1.501,0.64-3.333,0.96-5.314,0.96c-4.985,0-7.838-3.072-7.838-7.967c0-3.968,2.313-8.352,7.417-8.352
				c4.745,0,6.546,3.936,6.546,7.808c0,0.832-0.09,1.568-0.149,1.92H32.882z M38.258,33.806c0-1.184-0.48-3.168-2.583-3.168
				c-1.922,0-2.702,1.856-2.822,3.168H38.258z" data-colored="true" data-filltype="inverse" data-stroketype="none" fill="#000000" stroke="none"></path><path id="SvgjsPath3804" d="M36.366,43.975c-5.064,0-8.088-3.072-8.088-8.217c0-4.143,2.399-8.602,7.667-8.602c5.011,0,6.796,4.162,6.796,8.058
				c0,0.78-0.079,1.525-0.153,1.961l-0.035,0.208h-9.39c0.297,1.819,2.161,2.476,3.863,2.476c1.466,0,2.691-0.193,3.974-0.626
				l0.274-0.093l0.688,3.777l-0.184,0.078C40.275,43.636,38.404,43.975,36.366,43.975z M35.945,27.656
				c-4.924,0-7.167,4.2-7.167,8.102c0,4.833,2.836,7.717,7.588,7.717c1.888,0,3.623-0.298,5.032-0.864l-0.513-2.815
				c-1.227,0.384-2.461,0.563-3.859,0.563c-2.524,0-4.249-1.259-4.394-3.207l-0.02-0.269h9.515c0.044-0.319,0.114-0.937,0.114-1.67
				C42.241,31.56,40.587,27.656,35.945,27.656z M38.508,34.056h-5.929l0.025-0.273c0.155-1.69,1.165-3.395,3.071-3.395
				c2.091,0,2.833,1.841,2.833,3.418V34.056z M33.136,33.556H38c-0.048-0.783-0.369-2.668-2.325-2.668
				C34,30.888,33.313,32.455,33.136,33.556z" data-colored="true" data-filltype="sd1" data-stroketype="none" fill="#f0d8d8" stroke="none"></path><path id="SvgjsPath3805" d="M48.469,27.758l2.192,7.68c0.24,0.928,0.541,2.08,0.721,2.912h0.09c0.211-0.832,0.451-2.016,0.661-2.912
				l1.802-7.68h4.895l-3.424,10.303c-2.102,6.208-3.513,8.704-5.164,10.271c-1.592,1.472-3.273,1.984-4.415,2.144l-0.961-4.127
				c0.571-0.096,1.292-0.384,1.982-0.832c0.69-0.384,1.441-1.152,1.892-1.952c0.15-0.224,0.24-0.48,0.24-0.704
				c0-0.16-0.03-0.416-0.21-0.8l-5.376-14.303H48.469z" data-colored="true" data-filltype="inverse" data-stroketype="none" fill="#000000" stroke="none"></path><path id="SvgjsPath3806" d="M45.634,50.756l-1.073-4.609l0.262-0.044c0.568-0.096,1.256-0.385,1.888-0.795c0.668-0.372,1.39-1.118,1.81-1.864
				c0.134-0.201,0.208-0.413,0.208-0.582c0-0.199-0.061-0.426-0.187-0.694l-5.51-14.659h5.625l2.291,8.038
				c0.159,0.616,0.333,1.287,0.481,1.898c0.063-0.281,0.128-0.575,0.192-0.867c0.092-0.418,0.183-0.832,0.268-1.197l1.847-7.873
				h5.439L55.643,38.14c-1.967,5.812-3.385,8.623-5.229,10.374c-1.658,1.533-3.391,2.047-4.553,2.21L45.634,50.756z M45.167,46.542
				l0.85,3.652c1.083-0.187,2.599-0.698,4.054-2.044c1.504-1.428,2.883-3.629,5.097-10.168l3.314-9.973h-4.35l-1.757,7.487
				c-0.085,0.363-0.175,0.774-0.266,1.19c-0.134,0.61-0.27,1.23-0.396,1.726L51.666,38.6H51.18l-0.042-0.197
				c-0.168-0.776-0.449-1.86-0.674-2.73L50.419,35.5l-2.139-7.492h-4.526l5.249,13.965c0.15,0.317,0.226,0.614,0.226,0.888
				c0,0.272-0.101,0.572-0.283,0.843c-0.458,0.817-1.239,1.621-1.978,2.031C46.387,46.114,45.741,46.402,45.167,46.542z" data-colored="true" data-filltype="sd1" data-stroketype="none" fill="#f0d8d8" stroke="none"></path><path id="SvgjsPath3807" d="M60.241,40.846c0-1.696,1.111-2.912,2.703-2.912c1.591,0,2.643,1.216,2.672,2.912
				c0,1.664-1.051,2.912-2.672,2.912C61.322,43.757,60.241,42.509,60.241,40.846z M61.232,36.334l-0.69-14.495h4.774l-0.661,14.495
				H61.232z" data-colored="true" data-filltype="inverse" data-stroketype="none" fill="#000000" stroke="none"></path><path id="SvgjsPath3808" d="M62.944,44.007c-1.711,0-2.953-1.33-2.953-3.162s1.242-3.162,2.953-3.162c1.688,0,2.89,1.298,2.922,3.158
				C65.866,42.707,64.665,44.007,62.944,44.007z M62.944,38.184c-1.444,0-2.453,1.095-2.453,2.662c0,1.567,1.009,2.662,2.453,2.662
				c1.426,0,2.422-1.095,2.422-2.662C65.339,39.255,64.365,38.184,62.944,38.184z M64.894,36.584h-3.9L60.28,21.589h5.298
				L64.894,36.584z M61.471,36.084h2.946l0.638-13.995h-4.25L61.471,36.084z" data-colored="true" data-filltype="sd1" data-stroketype="none" fill="#f0d8d8" stroke="none"></path></g></g><defs id="SvgjsDefs1001"><linearGradient id="SvgjsLinearGradient1046" x1="100" y1="172" x2="100" y2="128" gradientUnits="userSpaceOnUse" class="svga-on-canvas-chinshadow-gradient-single-0"><stop id="SvgjsStop1047" stop-opacity="0.8" stop-color="#673620" offset="0" data-stoptype="sd1"></stop><stop id="SvgjsStop1048" stop-opacity="1" stop-color="#481c08" offset="0.7" data-stoptype="sd3"></stop></linearGradient><radialGradient id="SvgjsRadialGradient1050" cx="100" cy="114" r="41" gradientUnits="userSpaceOnUse" class="svga-on-canvas-facehighlight-gradient-single-0"><stop id="SvgjsStop1051" stop-opacity="0.5" stop-color="#855844" offset="0" data-stoptype="hl1"></stop><stop id="SvgjsStop1052" stop-opacity="0" stop-color="#764630" offset="0.9" data-stoptype="tone"></stop></radialGradient><radialGradient id="SvgjsRadialGradient1054" cx="100" cy="54" r="37" gradientUnits="userSpaceOnUse" class="svga-on-canvas-facehighlight-gradient-single-1"><stop id="SvgjsStop1055" stop-opacity="0.5" stop-color="#855844" offset="0" data-stoptype="hl1"></stop><stop id="SvgjsStop1056" stop-opacity="0" stop-color="#764630" offset="0.9" data-stoptype="tone"></stop></radialGradient><radialGradient id="SvgjsRadialGradient1122" cx="129.041" cy="83.945" r="15.117" gradientTransform="matrix(-0.9945 0.1042 0.1042 0.9945 192.8281 -12.4633)" gradientUnits="userSpaceOnUse" class="svga-on-canvas-eyesback-gradient-left-0"><stop id="SvgjsStop1123" stop-opacity="1" stop-color="#ffffff" offset="0" data-stoptype="#ffffff"></stop><stop id="SvgjsStop1124" stop-opacity="1" stop-color="#fcfdfd" offset="0.315" data-stoptype="#fcfdfd"></stop><stop id="SvgjsStop1125" stop-opacity="1" stop-color="#f4f7f8" offset="0.504" data-stoptype="#f4f7f8"></stop><stop id="SvgjsStop1126" stop-opacity="1" stop-color="#e5ecef" offset="0.66" data-stoptype="#e5ecef"></stop><stop id="SvgjsStop1127" stop-opacity="1" stop-color="#d8e2e7" offset="0.76" data-stoptype="#d8e2e7"></stop></radialGradient><radialGradient id="SvgjsRadialGradient1129" cx="128.643" cy="83.986" r="15.116" gradientTransform="matrix(0.9945 0.1042 -0.1042 0.9945 7.1738 -12.4633)" gradientUnits="userSpaceOnUse" class="svga-on-canvas-eyesback-gradient-right-0"><stop id="SvgjsStop1130" stop-opacity="1" stop-color="#ffffff" offset="0" data-stoptype="#ffffff"></stop><stop id="SvgjsStop1131" stop-opacity="1" stop-color="#fcfdfd" offset="0.316" data-stoptype="#fcfdfd"></stop><stop id="SvgjsStop1132" stop-opacity="1" stop-color="#f4f7f8" offset="0.505" data-stoptype="#f4f7f8"></stop><stop id="SvgjsStop1133" stop-opacity="1" stop-color="#e5ecef" offset="0.661" data-stoptype="#e5ecef"></stop><stop id="SvgjsStop1134" stop-opacity="1" stop-color="#d8e2e7" offset="0.76" data-stoptype="#d8e2e7"></stop></radialGradient><radialGradient id="SvgjsRadialGradient1136" cx="129.041" cy="83.945" r="15.117" gradientTransform="matrix(-0.9945 0.1042 0.1042 0.9945 192.8281 -12.4633)" gradientUnits="userSpaceOnUse" class="svga-on-canvas-eyesfront-gradient-left-0"><stop id="SvgjsStop1137" stop-opacity="1" stop-color="#ffffff" offset="0" data-stoptype="#ffffff"></stop><stop id="SvgjsStop1138" stop-opacity="1" stop-color="#fcfdfd" offset="0.316" data-stoptype="#fcfdfd"></stop><stop id="SvgjsStop1139" stop-opacity="1" stop-color="#f4f7f8" offset="0.505" data-stoptype="#f4f7f8"></stop><stop id="SvgjsStop1140" stop-opacity="1" stop-color="#e5ecef" offset="0.661" data-stoptype="#e5ecef"></stop><stop id="SvgjsStop1141" stop-opacity="1" stop-color="#d8e2e7" offset="0.76" data-stoptype="#d8e2e7"></stop></radialGradient><radialGradient id="SvgjsRadialGradient1145" cx="121.986" cy="82.496" fx="133.239" fy="82.527" r="16.003" gradientTransform="matrix(0.9998 0.0208 0.0166 -0.7998 -45.3195 145.9395)" gradientUnits="userSpaceOnUse" class="svga-on-canvas-eyesfront-gradient-left-3"><stop id="SvgjsStop1146" stop-opacity="1" stop-color="#673620" offset="0" data-stoptype="sd1"></stop><stop id="SvgjsStop1147" stop-opacity="0.3" stop-color="#673620" offset="0.7" data-stoptype="sd1"></stop><stop id="SvgjsStop1148" stop-opacity="0" stop-color="#764630" offset="1" data-stoptype="tone"></stop></radialGradient><radialGradient id="SvgjsRadialGradient1150" cx="68.931" cy="105.995" r="29.524" gradientTransform="matrix(1.0336 0 0 1.0336 -1.6796 1.3127)" gradientUnits="userSpaceOnUse" class="svga-on-canvas-eyesfront-gradient-left-4"><stop id="SvgjsStop1151" stop-opacity="0" stop-color="#000000" offset="0.95" data-stoptype="#000000"></stop><stop id="SvgjsStop1152" stop-opacity="0.2" stop-color="#000000" offset="1" data-stoptype="#000000"></stop></radialGradient><radialGradient id="SvgjsRadialGradient1156" cx="128.643" cy="83.986" r="15.116" gradientTransform="matrix(0.9945 0.1042 -0.1042 0.9945 7.1738 -12.4633)" gradientUnits="userSpaceOnUse" class="svga-on-canvas-eyesfront-gradient-right-0"><stop id="SvgjsStop1157" stop-opacity="1" stop-color="#ffffff" offset="0" data-stoptype="#ffffff"></stop><stop id="SvgjsStop1158" stop-opacity="1" stop-color="#fcfdfd" offset="0.316" data-stoptype="#fcfdfd"></stop><stop id="SvgjsStop1159" stop-opacity="1" stop-color="#f4f7f8" offset="0.505" data-stoptype="#f4f7f8"></stop><stop id="SvgjsStop1160" stop-opacity="1" stop-color="#e5ecef" offset="0.661" data-stoptype="#e5ecef"></stop><stop id="SvgjsStop1161" stop-opacity="1" stop-color="#d8e2e7" offset="0.76" data-stoptype="#d8e2e7"></stop></radialGradient><radialGradient id="SvgjsRadialGradient1165" cx="121.587" cy="82.496" fx="132.839" fy="82.527" r="16.003" gradientTransform="matrix(-0.9998 0.0208 -0.0166 -0.7998 244.5208 145.9478)" gradientUnits="userSpaceOnUse" class="svga-on-canvas-eyesfront-gradient-right-3"><stop id="SvgjsStop1166" stop-opacity="1" stop-color="#673620" offset="0" data-stoptype="sd1"></stop><stop id="SvgjsStop1167" stop-opacity="0.3" stop-color="#673620" offset="0.7" data-stoptype="sd1"></stop><stop id="SvgjsStop1168" stop-opacity="0" stop-color="#764630" offset="1" data-stoptype="tone"></stop></radialGradient><radialGradient id="SvgjsRadialGradient1170" cx="69.316" cy="105.995" r="29.524" gradientTransform="matrix(-1.0336 0 0 1.0336 201.6796 1.3127)" gradientUnits="userSpaceOnUse" class="svga-on-canvas-eyesfront-gradient-right-4"><stop id="SvgjsStop1171" stop-opacity="0" stop-color="#000000" offset="0.95" data-stoptype="#000000"></stop><stop id="SvgjsStop1172" stop-opacity="0.2" stop-color="#000000" offset="1" data-stoptype="#000000"></stop></radialGradient><linearGradient id="SvgjsLinearGradient3367" x1="132" y1="78" x2="126" y2="84" gradientTransform="matrix(1 0 0 1 -50 0)" gradientUnits="userSpaceOnUse" class="svga-on-canvas-eyesiris-gradient-left-6"><stop id="SvgjsStop3368" stop-opacity="1" stop-color="#ffffff" offset="0" data-stoptype="#ffffff"></stop><stop id="SvgjsStop3369" stop-opacity="0" stop-color="#ffffff" offset="1" data-stoptype="#ffffff"></stop></linearGradient><linearGradient id="SvgjsLinearGradient3377" x1="132" y1="78" x2="126" y2="84" gradientUnits="userSpaceOnUse" class="svga-on-canvas-eyesiris-gradient-right-6"><stop id="SvgjsStop3378" stop-opacity="1" stop-color="#ffffff" offset="0" data-stoptype="#ffffff"></stop><stop id="SvgjsStop3379" stop-opacity="0" stop-color="#ffffff" offset="1" data-stoptype="#ffffff"></stop></linearGradient></defs></svg>